<svg id="Layer_1" data-name="Layer 1" xmlns="http://www.w3.org/2000/svg" viewBox="0 0 144.06 135.27"><title>icon</title><path d="M11.25,78.33a3.85,3.85,0,0,1-.56,2.09,4.33,4.33,0,0,1-1.51,1.45,7.07,7.07,0,0,1-2,.77,11,11,0,0,1-2.49.26q-.74,0-1.53,0l-.92-.06-.09-1.67.9.09q.74.06,1.75.06a10,10,0,0,0,1.58-.16,5.61,5.61,0,0,0,1.49-.42,2.9,2.9,0,0,0,1-.81,1.92,1.92,0,0,0,.36-1.2,2.28,2.28,0,0,0-.36-1.31,3.69,3.69,0,0,0-1.21-1Q7.17,76,6.3,75.61a15.35,15.35,0,0,1-1.56-.83,4.77,4.77,0,0,1-1.68-1.57,3.64,3.64,0,0,1-.5-1.89A3.58,3.58,0,0,1,3,69.48,4.56,4.56,0,0,1,4.2,68.14,5.14,5.14,0,0,1,6,67.31,9.5,9.5,0,0,1,8.39,67q.72,0,1.45,0l.84.05.16,1.68L10,68.72q-.74-.07-1.83-.07a6.49,6.49,0,0,0-1.34.14,4.08,4.08,0,0,0-1.21.44,2.39,2.39,0,0,0-.79.74,1.92,1.92,0,0,0-.32,1.11,2,2,0,0,0,.34,1.09,3.83,3.83,0,0,0,1.28,1.08q.47.29,1.25.66t1.53.82a5.19,5.19,0,0,1,1.74,1.57A3.58,3.58,0,0,1,11.25,78.33Z" style="stroke:#000;stroke-miterlimit:10;stroke-width:0.33185279548160906px"/><path d="M25.1,72.5A4.76,4.76,0,0,1,24,75.55a5.39,5.39,0,0,1-2.91,1.85,10.92,10.92,0,0,1-1.71.3q-.93.09-2.07.09l0,4.89H15.42q0-.69,0-2.57t0-5.81q0-1.25,0-3.06t0-4h1.76a19.42,19.42,0,0,1,3.4.25,6.5,6.5,0,0,1,2.36.87A4.43,4.43,0,0,1,24.54,70,5.24,5.24,0,0,1,25.1,72.5Zm-2,0a3.37,3.37,0,0,0-2.21-3.35,4.89,4.89,0,0,0-1.5-.38q-.81-.08-1.66-.08h-.43q0,.13,0,1.73t0,2.54q0,.86,0,2t0,1.33h.46a14,14,0,0,0,1.65-.1,5.21,5.21,0,0,0,1.5-.38,3.74,3.74,0,0,0,1.66-1.28A3.51,3.51,0,0,0,23.13,72.5Z" style="stroke:#000;stroke-miterlimit:10;stroke-width:0.33185279548160906px"/><path d="M41.67,82.07l-1.8.93q0-.13-.74-1.72t-1.83-4.1H30.45l-1.88,4.17q-.66,1.48-.73,1.65l-1.55-.84q.3-.6,2.48-5.3T33.3,67h1.5q2.31,5.18,4.54,10Zm-5-6.38-1.29-3-1.43-3.22h0q-.58,1.27-1.4,3.12t-1.36,3h5.53Z" style="stroke:#000;stroke-miterlimit:10;stroke-width:0.33185279548160906px"/><path d="M56.44,81.76,55,82.95q-.25-.27-1.8-2t-4.77-5.43v-.1a5.88,5.88,0,0,0,1.17-.5,6,6,0,0,0,1.23-.84,3.77,3.77,0,0,0,.75-1,3.23,3.23,0,0,0,.32-1.55A2.53,2.53,0,0,0,51.42,70a2.7,2.7,0,0,0-1.29-.94,4.92,4.92,0,0,0-1.41-.31q-.74-.05-1.36-.05h-1q0,2.2,0,3.88t0,2.37q0,1.58,0,4.3t0,3.41H44.5q0-.69,0-2.69t0-5V72.89q0-1.56-.06-5.69l1.15,0,1.92,0a16.08,16.08,0,0,1,2,.12,6.84,6.84,0,0,1,1.85.5,4.17,4.17,0,0,1,1.81,1.43,3.72,3.72,0,0,1,.67,2.21,3.87,3.87,0,0,1-1,2.73,8.79,8.79,0,0,1-1.91,1.62v.06q1.58,1.85,3.48,3.82Z" style="stroke:#000;stroke-miterlimit:10;stroke-width:0.33185279548160906px"/><path d="M73.21,74.95a9,9,0,0,1-.64,3.44A7.66,7.66,0,0,1,70.9,81a7,7,0,0,1-5.18,2.16,7.44,7.44,0,0,1-2.7-.49,6.87,6.87,0,0,1-2.29-1.46,7.79,7.79,0,0,1-1.81-2.65,9,9,0,0,1-.69-3.6,9.25,9.25,0,0,1,.54-3.24,7.84,7.84,0,0,1,1.63-2.63,7,7,0,0,1,2.39-1.68,7.59,7.59,0,0,1,5.81,0,7,7,0,0,1,2.3,1.55,7.66,7.66,0,0,1,1.72,2.72A9.48,9.48,0,0,1,73.21,74.95Zm-2,.18a9,9,0,0,0-.5-3,6,6,0,0,0-1.53-2.43,5.16,5.16,0,0,0-1.56-1,4.83,4.83,0,0,0-1.93-.37,5,5,0,0,0-1.94.38,5.05,5.05,0,0,0-1.63,1.1,6.36,6.36,0,0,0-1.44,2.29,8.41,8.41,0,0,0,0,5.83,6.21,6.21,0,0,0,1.49,2.23,5.14,5.14,0,0,0,1.56,1,4.84,4.84,0,0,0,1.93.39,4.93,4.93,0,0,0,1.93-.38,5.23,5.23,0,0,0,1.63-1.08A6.4,6.4,0,0,0,70.68,78,7.16,7.16,0,0,0,71.24,75.13Z" style="stroke:#000;stroke-miterlimit:10;stroke-width:0.33185279548160906px"/><path d="M85.16,78.33a3.85,3.85,0,0,1-.56,2.09,4.33,4.33,0,0,1-1.51,1.45,7.07,7.07,0,0,1-2,.77,11,11,0,0,1-2.49.26q-.74,0-1.53,0l-.92-.06-.09-1.67.9.09q.74.06,1.75.06a10,10,0,0,0,1.58-.16,5.61,5.61,0,0,0,1.49-.42,2.9,2.9,0,0,0,1-.81,1.92,1.92,0,0,0,.36-1.2,2.29,2.29,0,0,0-.36-1.31,3.7,3.7,0,0,0-1.21-1q-.54-.32-1.41-.73a15.39,15.39,0,0,1-1.56-.83A4.77,4.77,0,0,1,77,73.21a3.64,3.64,0,0,1-.5-1.89,3.58,3.58,0,0,1,.46-1.84,4.56,4.56,0,0,1,1.19-1.34,5.14,5.14,0,0,1,1.81-.83A9.5,9.5,0,0,1,82.3,67q.72,0,1.45,0l.84.05.16,1.68-.84-.08q-.74-.07-1.83-.07a6.49,6.49,0,0,0-1.34.14,4.07,4.07,0,0,0-1.21.44,2.4,2.4,0,0,0-.79.74,1.92,1.92,0,0,0-.32,1.11,2,2,0,0,0,.34,1.09A3.83,3.83,0,0,0,80,73.26q.47.29,1.25.66t1.53.82a5.19,5.19,0,0,1,1.74,1.57A3.58,3.58,0,0,1,85.16,78.33Z" style="stroke:#000;stroke-miterlimit:10;stroke-width:0.33185279548160906px"/><path d="M99,72.5a4.76,4.76,0,0,1-1.09,3.05A5.39,5.39,0,0,1,95,77.4a10.91,10.91,0,0,1-1.71.3q-.93.09-2.07.09l0,4.89H89.33q0-.69,0-2.57t0-5.81q0-1.25,0-3.06t0-4h1.76a19.42,19.42,0,0,1,3.4.25,6.5,6.5,0,0,1,2.36.87A4.43,4.43,0,0,1,98.46,70,5.25,5.25,0,0,1,99,72.5Zm-2,0a3.37,3.37,0,0,0-2.21-3.35,4.89,4.89,0,0,0-1.5-.38q-.81-.08-1.66-.08h-.43q0,.13,0,1.73t0,2.54q0,.86,0,2t0,1.33h.46a14,14,0,0,0,1.65-.1,5.21,5.21,0,0,0,1.5-.38,3.74,3.74,0,0,0,1.66-1.28A3.51,3.51,0,0,0,97,72.5Z" style="stroke:#000;stroke-miterlimit:10;stroke-width:0.33185279548160906px"/><path d="M115.58,82.07V83h-1.8q0-.13-.74-1.72c-.46-1.06-2.09-4.61-2.85-6.28h-4.87c-.81,1.8-2.4,5.37-2.84,6.35s-.69,1.54-.73,1.65H100.2v-.84q.3-.6,2.48-5.3T107.21,67h1.5q2.31,5.18,4.54,10Z" style="stroke:#000;stroke-miterlimit:10;stroke-width:0.33185279548160906px"/><path d="M128.67,81.26l-.06.58q-.05.48-.1,1h-.4a16.27,16.27,0,0,1-5-.71,9.21,9.21,0,0,1-3.61-2.06,6.86,6.86,0,0,1-1.55-2.24,7.37,7.37,0,0,1-.57-3,6.55,6.55,0,0,1,.57-2.75A7.45,7.45,0,0,1,119.39,70,9.24,9.24,0,0,1,123,67.85a14.4,14.4,0,0,1,4.8-.79h.52q0,.21,0,.66t.08,1H128a14.93,14.93,0,0,0-3,.32,9.12,9.12,0,0,0-2.67,1,6.08,6.08,0,0,0-2.25,2.13,5.32,5.32,0,0,0-.79,2.8,5.77,5.77,0,0,0,.71,2.84,5.64,5.64,0,0,0,2.23,2.14,9.47,9.47,0,0,0,2.8,1,14.93,14.93,0,0,0,3.07.32h.54Z" style="stroke:#000;stroke-miterlimit:10;stroke-width:0.33185279548160906px"/><path d="M141.91,82.66h-9.84q0-.67,0-2.9t0-4.61q0-1.31,0-3.46t0-4.45h9.69v1.61l-1.45,0-3.32,0h-3q0,1.31,0,2.61t0,2.46h2.5l3.64,0,1.71,0v1.6l-1.91,0-3.32,0h-2.61q0,2.19,0,3.47t0,2.15l1.65,0h6.3Z" style="stroke:#000;stroke-miterlimit:10;stroke-width:0.33185279548160906px"/></svg>