<?xml version="1.0" encoding="utf-8"?>
<!-- Generator: Adobe Illustrator 20.1.0, SVG Export Plug-In . SVG Version: 6.00 Build 0)  -->
<svg version="1.1" id="store-taipei" xmlns="http://www.w3.org/2000/svg" xmlns:xlink="http://www.w3.org/1999/xlink" x="0px"
	 y="0px" viewBox="0 0 51 51" style="enable-background:new 0 0 51 51;" xml:space="preserve">
<style type="text/css">
	.st0{fill:none;stroke:#231916;stroke-width:0.1535;stroke-linecap:round;stroke-linejoin:round;}
	.st1{fill:#E7E7DE;stroke:#231916;stroke-width:0.1535;stroke-linecap:round;stroke-linejoin:round;}
	.st2{fill:#F3F3E8;stroke:#231916;stroke-width:0.1535;stroke-linecap:round;stroke-linejoin:round;}
	.st3{fill:#B5B6B6;stroke:#231916;stroke-width:0.1535;stroke-linecap:round;stroke-linejoin:round;}
	.st4{fill:#F7F8F8;}
	.st5{fill:#231916;}
	.st6{fill:#F3F3E8;}
	.st7{fill:#DEF0F3;stroke:#000000;stroke-width:0.1535;stroke-linecap:round;stroke-linejoin:round;}
	.st8{fill:#727171;stroke:#000000;stroke-width:0.1535;stroke-linecap:round;stroke-linejoin:round;}
	.st9{fill:#898989;stroke:#000000;stroke-width:0.1535;stroke-linecap:round;stroke-linejoin:round;}
	.st10{fill:#9FA0A0;stroke:#000000;stroke-width:0.1535;stroke-linecap:round;stroke-linejoin:round;}
	.st11{fill:#B5B6B6;stroke:#000000;stroke-width:0.1535;stroke-linecap:round;stroke-linejoin:round;}
	.st12{fill:#826C49;stroke:#000000;stroke-width:0.1535;stroke-linecap:round;stroke-linejoin:round;}
	.st13{fill:#65553D;stroke:#000000;stroke-width:0.1535;stroke-linecap:round;stroke-linejoin:round;}
	.st14{fill:#61657A;stroke:#000000;stroke-width:0.1535;stroke-linecap:round;stroke-linejoin:round;}
	.st15{fill:#464C56;stroke:#000000;stroke-width:0.1535;stroke-linecap:round;stroke-linejoin:round;}
	.st16{fill:#5A6071;stroke:#000000;stroke-width:0.1535;stroke-linecap:round;stroke-linejoin:round;}
	.st17{fill:#C9CACA;}
	.st18{fill:#DCDDDD;}
	.st19{fill:#E7E7DE;}
	.st20{fill:#FFFFFF;stroke:#231916;stroke-width:0.1333;stroke-linejoin:round;}
	.st21{fill:#F5EAF3;}
	.st22{fill:#C9CACA;stroke:#231916;stroke-width:0.1333;stroke-linejoin:round;}
	.st23{fill:#DDDDDD;stroke:#231916;stroke-width:0.1333;stroke-linejoin:round;}
	.st24{fill:#FFFFFF;}
	.st25{fill:#F6C5C9;}
	.st26{fill:#F1C772;}
	.st27{fill:#F5E9AA;}
	.st28{fill:#B2CA92;}
	.st29{fill:#8D5EA4;}
	.st30{fill:#F3F3E8;stroke:#231916;stroke-width:0.116;stroke-linejoin:round;}
	.st31{fill:#C9CACA;stroke:#231916;stroke-width:0.116;stroke-linejoin:round;}
	.st32{fill:#DCDDDD;stroke:#231916;stroke-width:0.116;stroke-linejoin:round;}
	.st33{fill:#B5B6B6;stroke:#231916;stroke-width:0.116;stroke-linejoin:round;}
	.st34{fill:#595857;stroke:#231916;stroke-width:0.116;stroke-linejoin:round;}
	.st35{fill:#EFF8FC;stroke:#231916;stroke-width:0.116;stroke-linejoin:round;}
	.st36{fill:none;stroke:#231916;stroke-width:0.116;stroke-linejoin:round;}
	.st37{fill:#E7E7DE;stroke:#231916;stroke-width:0.116;stroke-linejoin:round;}
	.st38{fill:#727171;stroke:#231916;stroke-width:0.116;stroke-linejoin:round;}
</style>
<title>store-taipei2</title>
<g id="store-inside">
	<polygon class="st0" points="1.7,16.6 21.8,5 45.9,18.9 46,33 49.8,35.1 49.8,39.7 37.6,46.8 33.8,44.5 25.9,49.2 1.7,35.2 	"/>
	<polygon class="st0" points="17.8,39.9 22.8,42.8 30.8,38.1 25.9,35.3 	"/>
	<polygon class="st1" points="22.8,44 30.8,39.3 30.8,38.1 22.8,42.8 	"/>
	<polygon class="st2" points="22.8,44 30.8,39.3 31.8,39.9 23.8,44.5 	"/>
	<polygon class="st1" points="23.8,44.5 31.8,39.9 31.8,41.1 23.8,45.7 	"/>
	<polygon class="st2" points="23.8,45.7 24.8,46.2 32.7,41.6 31.8,41.1 	"/>
	<polygon class="st1" points="24.8,46.2 32.8,41.6 32.8,42.9 24.8,47.5 	"/>
	<polygon class="st2" points="24.8,47.5 32.8,42.9 33.8,43.4 25.8,48.1 	"/>
	<polygon class="st1" points="25.9,49.2 33.8,44.5 33.8,43.4 25.8,48.1 	"/>
	<polygon class="st3" points="33.8,40 37.6,42.2 37.6,46.8 33.8,44.5 	"/>
	<polygon class="st4" points="25.9,35.3 17.8,39.9 1.8,30.7 21.9,19.2 45.9,33 33.9,40 	"/>
	<path class="st5" d="M21.8,19.3L45.7,33L34,39.9l-8-4.7h-0.2l-8,4.6L2,30.8L21.8,19.3 M21.9,19.2L1.7,30.8L17.8,40l8-4.6l8,4.7
		L46,33L21.9,19.2L21.9,19.2L21.9,19.2z"/>
	<polygon class="st6" points="2.6,17.2 22.6,5.8 22.6,19.7 2.6,31.1 	"/>
	<path class="st5" d="M22.6,5.9v13.7L2.7,30.9V17.3L22.6,5.9 M22.8,5.6L2.6,17.2v14l20.2-11.6L22.8,5.6L22.8,5.6L22.8,5.6z"/>
	<polygon class="st6" points="21.9,20.1 21.9,6.3 45.8,20 45.9,33.9 	"/>
	<path class="st5" d="M22,6.4l23.8,13.7l0.1,13.7L22,20.1V6.4 M21.8,6.1v14L46,34.1l-0.1-14L21.8,6.1L21.8,6.1L21.8,6.1z"/>
	<polygon class="st7" points="25.7,32.1 30.7,35 34.7,32.7 34.7,31.1 29.7,28.2 25.7,30.5 	"/>
	<polygon class="st8" points="25.7,30.5 30.7,33.4 30.7,35 25.7,32.1 	"/>
	<polygon class="st9" points="34.7,31.1 30.7,33.4 30.7,35 34.7,32.7 	"/>
	<polygon class="st7" points="25.7,30.5 30.7,33.4 34.7,31.1 29.7,28.2 	"/>
	<polygon class="st10" points="30.3,20.2 28.8,19.3 25.9,21 20.3,17.8 18.8,18.7 25.7,22.8 	"/>
	<polygon class="st8" points="18.8,18.7 25.7,22.8 25.7,27.4 18.8,23.4 	"/>
	<polygon class="st9" points="25.7,22.8 28.3,21.3 28.3,26 25.7,27.4 	"/>
	<path class="st11" d="M18.4,37.7v0.4c0.1,0.1,0.2,0.1,0.3,0l0,0v-0.4"/>
	<path class="st11" d="M21.5,36v0.4c0.1,0.1,0.2,0.1,0.3,0l0,0V36"/>
	<path class="st11" d="M16.5,36.6V37c0.1,0.1,0.2,0.1,0.3,0l0,0v-0.4"/>
	<polygon class="st8" points="18.6,34.6 18.6,34.3 17.8,33.8 17.8,33 17.1,32.7 17.1,33.4 16.4,33 16.4,33.3 17.2,33.7 17.2,34.4 
		16.4,34 16.4,36.6 18.6,37.9 18.6,35.3 17.8,34.8 17.8,34.1 	"/>
	<polygon class="st9" points="18.6,35.3 21.9,33.3 21.9,36 18.6,37.9 	"/>
	<polygon class="st9" points="18.6,34.3 21.9,32.3 21.9,32.7 18.6,34.6 	"/>
	<polygon class="st7" points="21.9,32.3 21.1,31.8 17.8,33.8 18.6,34.3 	"/>
	<polygon class="st9" points="21.9,33.3 21.4,33 18.6,34.6 18.3,34.4 17.8,34.8 18.6,35.3 	"/>
	<polygon class="st8" points="17.8,34.1 18.3,34.4 17.8,34.8 	"/>
	<polygon class="st9" points="16.4,34 17,33.6 17.2,33.7 17.2,34.4 	"/>
	<polygon class="st9" points="17.8,33.8 21.1,31.8 21.1,31.1 17.8,33 	"/>
	<polygon class="st7" points="17.8,33 17.1,32.7 20.5,30.8 21.1,31.1 	"/>
	<polygon class="st7" points="16.4,33 19.8,31 19.9,31.1 17.1,32.7 17.1,33.4 	"/>
	<polygon class="st11" points="18.6,35.7 21.9,33.8 22.1,33.9 22.1,34.7 18.7,36.5 18.6,36.4 	"/>
	<polygon class="st8" points="18.7,36.5 18.6,36.4 18.6,35.7 18.7,35.8 	"/>
	<polygon class="st9" points="18.7,35.8 22.1,33.9 22.1,34.7 18.7,36.5 	"/>
	<polygon class="st11" points="22.1,33.9 21.9,33.8 18.6,35.7 18.7,35.8 	"/>
	<polygon class="st8" points="18.7,37.6 18.6,37.5 18.6,36.8 18.7,36.9 	"/>
	<polygon class="st9" points="18.7,36.9 22.1,34.9 22.1,35.7 18.7,37.6 	"/>
	<polygon class="st11" points="22.1,34.9 21.9,34.9 18.6,36.8 18.7,36.9 	"/>
	<polygon class="st10" points="28.3,12 42.3,20.2 44.3,19 30.3,10.8 	"/>
	<polygon class="st9" points="44.3,19 44.3,23.7 42.3,24.9 42.3,20.2 	"/>
	<polygon class="st8" points="28.3,12 42.3,20.2 42.3,24.9 28.3,16.7 	"/>
	<polygon class="st8" points="28.3,21.3 42.3,29.5 42.3,34.1 28.3,26 	"/>
	<polygon class="st9" points="42.3,29.5 44.3,28.3 44.3,32.9 42.3,34.1 	"/>
	<polygon class="st7" points="30.3,17.8 30.3,20.2 44.3,28.3 44.3,23.7 42.3,24.9 	"/>
	<polygon class="st7" points="28.3,21.3 30.3,20.2 44.3,28.3 42.3,29.5 	"/>
	<polygon class="st12" points="8.2,29 8.3,30.4 8.4,30.5 8.5,30.4 8.6,29.1 	"/>
	<polygon class="st13" points="8.4,29.2 8.4,30.5 8.3,30.4 8.2,29.2 	"/>
	<polygon class="st12" points="7.4,28.6 7.5,30 7.6,30 7.7,30 7.8,28.6 	"/>
	<polygon class="st13" points="7.6,28.7 7.6,30 7.5,30 7.4,28.7 	"/>
	<polygon class="st12" points="9.3,28.4 9.4,29.8 9.4,29.8 9.5,29.8 9.7,28.4 	"/>
	<polygon class="st13" points="9.5,28.5 9.4,29.8 9.4,29.8 9.3,28.5 	"/>
	<polygon class="st12" points="8.6,28 8.7,29.4 8.8,29.4 8.8,29.4 9,28 	"/>
	<polygon class="st13" points="8.8,28.1 8.8,29.4 8.7,29.4 8.6,28.1 	"/>
	<path class="st14" d="M8.2,28.9l-0.8-0.5l1.3-0.7l0.9,0.5c0.1,0.1,0.2,0.2,0.2,0.4C9.5,28.9,9,29,8.6,28.9L8.2,28.9L8.2,28.9
		L8.2,28.9z"/>
	<path class="st15" d="M8.2,29.2v-0.3h0.3c0.4,0.1,0.8,0,1.1-0.3l0,0c0,0,0-0.1,0-0.1l0,0v0.3c-0.2,0.4-0.7,0.6-1.2,0.4L8.2,29.2
		L8.2,29.2"/>
	<polygon class="st14" points="8.6,27.6 8.6,26 7.4,26.7 7.4,28.4 	"/>
	<polygon class="st15" points="7.6,28.5 7.6,26.8 7.4,26.7 7.4,28.4 7.4,28.7 8.2,29.2 8.2,28.9 	"/>
	<polygon class="st14" points="8.8,26.1 7.6,26.8 7.6,28.5 8.9,27.8 	"/>
	<polygon class="st14" points="8.6,26 8.8,26.1 7.6,26.8 7.4,26.7 	"/>
	<polygon class="st12" points="14.6,32.5 14.7,33.9 14.8,34 14.9,33.9 15,32.6 	"/>
	<polygon class="st13" points="14.8,32.7 14.8,34 14.7,33.9 14.6,32.7 	"/>
	<polygon class="st12" points="13.9,32.1 14,33.5 14.1,33.5 14.2,33.5 14.3,32.1 	"/>
	<polygon class="st13" points="14.1,32.2 14.1,33.5 14,33.5 13.9,32.2 	"/>
	<polygon class="st12" points="15.6,31.9 15.7,33.3 15.8,33.3 15.9,33.3 16,31.9 	"/>
	<polygon class="st13" points="15.8,32 15.8,33.3 15.7,33.3 15.6,32 	"/>
	<polygon class="st12" points="15,31.5 15.1,32.9 15.1,32.9 15.2,32.9 15.4,31.5 	"/>
	<polygon class="st13" points="15.2,31.6 15.1,32.9 15.1,32.9 15,31.6 	"/>
	<polygon class="st14" points="15.9,30 16.1,30.1 14.9,30.8 14.7,30.7 	"/>
	<path class="st14" d="M16.1,31.8l-1.3,0.7L14,32c-0.1-0.1-0.2-0.2-0.2-0.4c0.3-0.4,0.8-0.6,1.2-0.4h0.3L16.1,31.8z"/>
	<polygon class="st16" points="16.1,30.1 14.8,30.8 14.8,32.8 16.1,32.1 	"/>
	<path class="st15" d="M14.7,30.8l-0.2,1.5l0,0L14,32c-0.1-0.1-0.2-0.2-0.2-0.4v0.3c0,0.2,0.1,0.3,0.2,0.4l0.9,0.5v-1.9L14.7,30.8z"
		/>
	<polygon class="st12" points="12.2,33.8 12.3,35.2 12.4,35.3 12.4,35.2 12.6,33.9 	"/>
	<polygon class="st13" points="12.4,34 12.4,35.3 12.3,35.2 12.2,34 	"/>
	<polygon class="st12" points="11.5,33.4 11.6,34.8 11.7,34.8 11.7,34.8 11.9,33.4 	"/>
	<polygon class="st13" points="11.7,33.5 11.7,34.8 11.6,34.8 11.5,33.5 	"/>
	<polygon class="st12" points="13.2,33.2 13.3,34.6 13.4,34.6 13.5,34.6 13.6,33.3 	"/>
	<polygon class="st13" points="13.4,33.4 13.4,34.6 13.3,34.6 13.2,33.3 	"/>
	<polygon class="st12" points="12.5,32.8 12.6,34.2 12.7,34.2 12.8,34.2 12.9,32.9 	"/>
	<polygon class="st13" points="12.7,33 12.7,34.2 12.6,34.2 12.5,32.9 	"/>
	<polygon class="st14" points="13.5,31.3 13.7,31.4 12.4,32.1 12.2,32 	"/>
	<path class="st14" d="M13.7,33.1l-1.3,0.7l-0.9-0.5c-0.1-0.1-0.2-0.2-0.2-0.4c0.2-0.4,0.7-0.6,1.2-0.4h0.3L13.7,33.1z"/>
	<polygon class="st16" points="13.7,31.4 12.4,32.2 12.4,34.1 13.7,33.4 	"/>
	<path class="st15" d="M12.2,32.1L12,33.6l0,0l-0.5-0.3c-0.1-0.1-0.2-0.2-0.2-0.3v0.3c0,0.2,0.1,0.3,0.2,0.4l0.9,0.5v-1.9L12.2,32.1
		z"/>
	<polygon class="st11" points="9.9,30.9 7.7,29.6 12.1,27.1 14.4,28.3 	"/>
	<polygon class="st8" points="7.7,29.6 7.7,30.3 7.7,32.2 9.9,33.5 9.9,31.6 9.9,30.9 	"/>
	<polygon class="st10" points="14.4,30.9 14.4,29 14.4,28.3 9.9,30.9 9.9,31.6 9.9,33.5 11.3,32.7 11.3,30.7 13.9,29.3 13.9,31.2 	
		"/>
	<polygon class="st9" points="13.9,31.2 12.2,30.3 13.9,29.3 	"/>
	<polygon class="st2" points="17.8,40 22.8,42.8 30.7,38.2 25.9,35.3 	"/>
	<polygon class="st17" points="37.7,42.2 49.7,35.3 49.7,39.8 37.7,46.7 	"/>
	<path class="st5" d="M49.6,35.4v4.3l-11.9,6.8v-4.2L49.6,35.4 M49.8,35.1l-12.2,7.1v4.6l12.2-7V35.1L49.8,35.1L49.8,35.1z"/>
	<polygon class="st18" points="34,40.1 46,33 49.6,35.1 37.6,42.2 	"/>
	<path class="st5" d="M46,33.2l3.4,2l-11.8,6.9l-3.5-2L46,33.2 M46,33l-12.2,7.1l3.8,2.2l12.1-7.1L46,33z"/>
	<polygon class="st19" points="32.8,42.8 32.8,41.6 31.8,41 31.8,39.9 30.8,39.3 30.8,38.3 33.8,40 33.7,43.3 	"/>
	<path class="st5" d="M30.9,38.4l2.8,1.7v3.1L33,42.8v-1.2c0-0.1,0-0.1-0.1-0.1L32,41v-1.1c0-0.1,0-0.1-0.1-0.1l-1-0.5L30.9,38.4
		 M30.7,38.1v1.2l1,0.5v1.2l1,0.6v1.3l1,0.5V40l-3.1-1.9l0,0L30.7,38.1z"/>
	<polygon class="st19" points="45.1,19.5 21.9,6.1 21.9,5.1 45.8,19 45.9,33 45.2,33.4 	"/>
	<path class="st5" d="M22,5.3l23.8,13.8l0.1,13.9l-0.6,0.3l-0.1-13.7c0-0.1,0-0.1-0.1-0.1L22,6.1L22,5.3 M21.8,5.1v1.1L45,19.5
		l0.1,14l0.9-0.5l-0.1-14L21.8,5.1L21.8,5.1z"/>
	<polygon class="st1" points="25.9,49.2 25.8,48.1 24.8,47.5 24.8,46.2 23.8,45.7 23.8,44.5 22.8,44 22.8,42.8 2.6,31.2 2.6,17.2 
		21.8,6.1 21.8,5 1.6,16.6 1.7,35.2 2.6,35.7 2.6,35.7 	"/>
	<polygon class="st2" points="1.6,16.6 2.6,17.2 21.8,6.1 21.8,5 	"/>
	<polygon class="st2" points="21.9,5 45.9,18.9 45.1,19.5 21.9,6.1 	"/>
	<path class="st20" d="M30.6,21.7c-0.1,0-0.2,0-0.3-0.1l0,0c0,0.2,0.2,0.3,0.4,0.3c0.1,0,0.2-0.1,0.3-0.3l0,0
		C30.8,21.6,30.7,21.7,30.6,21.7z"/>
	<path class="st20" d="M31,21L31,21c0-0.1,0-0.2-0.1-0.2l0,0c-0.2-0.2-0.4-0.2-0.5,0l0,0c-0.1,0.1-0.1,0.2-0.1,0.3l0,0l0.1,0.5
		c0.1,0.2,0.3,0.3,0.5,0.2c0.1,0,0.2-0.1,0.2-0.2L31,21L31,21L31,21z"/>
	<path class="st21" d="M31,21.1c0-0.1-0.2-0.1-0.3-0.1s-0.3,0-0.3,0.1l0,0v0.3c0.1,0.2,0.2,0.2,0.4,0.2c0.1,0,0.1-0.1,0.2-0.2v-0.3
		H31z"/>
	<path class="st22" d="M30.3,20.5v0.3c0.1,0.1,0.3,0.2,0.4,0.1c0,0,0.1-0.1,0.1-0.1v-0.3L30.3,20.5z"/>
	<ellipse class="st23" cx="30.6" cy="20.5" rx="0.2" ry="0.1"/>
	<path class="st20" d="M30.7,20.3L30.7,20.3c0.1-0.1,0-0.2,0-0.2c-0.1-0.1-0.2,0-0.2,0c0,0.1,0,0.1,0,0.2l0,0c0,0,0,0.1,0,0.1l0,0
		c0.1,0.1,0.2,0.1,0.2,0l0,0C30.7,20.4,30.7,20.3,30.7,20.3L30.7,20.3L30.7,20.3z"/>
	<path class="st24" d="M30.3,21.1c0.1,0.1,0.2,0.1,0.3,0.1c0.1,0,0.2,0,0.3-0.1c-0.1,0.1-0.2,0.1-0.3,0.1
		C30.5,21.1,30.4,21.1,30.3,21.1z"/>
	<path class="st20" d="M32.7,22.9c-0.1,0-0.2,0-0.3-0.1l0,0c0,0.2,0.2,0.3,0.4,0.3c0.1,0,0.2-0.1,0.3-0.3l0,0
		C33,22.9,32.9,22.9,32.7,22.9z"/>
	<path class="st20" d="M33.1,22.2L33.1,22.2c0-0.1,0-0.2-0.1-0.2l0,0c-0.2-0.2-0.4-0.2-0.5,0l0,0c-0.1,0.1-0.1,0.2-0.1,0.3l0,0
		l0.1,0.5c0.1,0.2,0.3,0.3,0.5,0.2c0.1,0,0.2-0.1,0.2-0.2L33.1,22.2L33.1,22.2L33.1,22.2z"/>
	<path class="st25" d="M33,22.3c0-0.1-0.2-0.1-0.3-0.1s-0.3,0-0.3,0.1l0,0v0.3c0.1,0.2,0.2,0.2,0.4,0.2c0.1,0,0.1-0.1,0.2-0.2v-0.3
		H33z"/>
	<path class="st22" d="M32.4,21.7V22c0.1,0.1,0.3,0.2,0.4,0.1c0,0,0.1-0.1,0.1-0.1v-0.3H32.4z"/>
	<ellipse class="st23" cx="32.7" cy="21.7" rx="0.2" ry="0.1"/>
	<path class="st20" d="M32.8,21.5L32.8,21.5c0.1-0.1,0-0.2,0-0.2c-0.1-0.1-0.2,0-0.2,0c0,0.1,0,0.1,0,0.2l0,0c0,0,0,0.1,0,0.1l0,0
		c0.1,0.1,0.2,0.1,0.2,0l0,0C32.8,21.6,32.8,21.5,32.8,21.5L32.8,21.5L32.8,21.5z"/>
	<path class="st24" d="M32.4,22.3c0.1,0.1,0.2,0.1,0.3,0.1c0.1,0,0.2,0,0.3-0.1c-0.1,0.1-0.2,0.1-0.3,0.1
		C32.6,22.4,32.5,22.4,32.4,22.3z"/>
	<path class="st20" d="M34.7,24.1c-0.1,0-0.2,0-0.3-0.1l0,0c0,0.2,0.2,0.3,0.4,0.3c0.1,0,0.2-0.1,0.3-0.3l0,0
		C35,24,34.9,24.1,34.7,24.1z"/>
	<path class="st20" d="M35.1,23.4L35.1,23.4c0-0.1,0-0.2-0.1-0.2l0,0c-0.2-0.2-0.4-0.2-0.5,0l0,0c-0.1,0.1-0.1,0.2-0.1,0.3l0,0
		l0.1,0.5c0.1,0.2,0.3,0.3,0.5,0.2c0.1,0,0.2-0.1,0.2-0.2L35.1,23.4L35.1,23.4L35.1,23.4z"/>
	<path class="st26" d="M35,23.5c0-0.1-0.2-0.1-0.3-0.1s-0.3,0-0.3,0.1l0,0v0.3c0,0.2,0.1,0.3,0.3,0.3c0.2,0,0.3-0.1,0.3-0.3L35,23.5
		L35,23.5z"/>
	<path class="st22" d="M34.5,22.8v0.3c0.1,0.1,0.3,0.2,0.4,0.1c0,0,0.1-0.1,0.1-0.1v-0.3H34.5z"/>
	<ellipse class="st23" cx="34.7" cy="22.8" rx="0.2" ry="0.1"/>
	<path class="st20" d="M34.8,22.7L34.8,22.7c0.1-0.1,0-0.2,0-0.2c-0.1-0.1-0.2,0-0.2,0c0,0.1,0,0.1,0,0.2l0,0c0,0,0,0.1,0,0.1l0,0
		c0.1,0.1,0.2,0.1,0.2,0l0,0C34.8,22.7,34.8,22.7,34.8,22.7L34.8,22.7L34.8,22.7z"/>
	<path class="st24" d="M34.4,23.5c0.1,0.1,0.2,0.1,0.3,0.1c0.1,0,0.2,0,0.3-0.1c-0.1,0.1-0.2,0.1-0.3,0.1
		C34.6,23.5,34.5,23.5,34.4,23.5z"/>
	<path class="st20" d="M37,25.3c-0.1,0-0.2,0-0.3-0.1l0,0c0,0.2,0.2,0.3,0.4,0.3c0.1,0,0.2-0.1,0.3-0.3l0,0
		C37.2,25.3,37.1,25.3,37,25.3z"/>
	<path class="st20" d="M37.3,24.6L37.3,24.6c0-0.1,0-0.2-0.1-0.2l0,0c-0.2-0.2-0.4-0.2-0.5,0l0,0c-0.1,0.1-0.1,0.2-0.1,0.3l0,0
		l0.1,0.5c0.1,0.2,0.3,0.3,0.5,0.2c0.1,0,0.2-0.1,0.2-0.2L37.3,24.6L37.3,24.6L37.3,24.6z"/>
	<path class="st27" d="M37.3,24.7c0-0.1-0.2-0.1-0.3-0.1s-0.3,0-0.3,0.1l0,0l0.1,0.4c0.1,0.2,0.2,0.2,0.4,0.2c0.1,0,0.1-0.1,0.2-0.2
		L37.3,24.7L37.3,24.7z"/>
	<path class="st22" d="M36.7,24.1v0.3c0.1,0.1,0.3,0.2,0.4,0.1c0,0,0.1-0.1,0.1-0.1v-0.3H36.7z"/>
	<ellipse class="st23" cx="36.9" cy="24.1" rx="0.2" ry="0.1"/>
	<path class="st20" d="M37,23.9L37,23.9c0.1-0.1,0-0.2,0-0.2c-0.1-0.1-0.2,0-0.2,0c0,0.1,0,0.1,0,0.2l0,0c0,0,0,0.1,0,0.1l0,0
		c0.1,0.1,0.2,0.1,0.2,0l0,0C37,24,37,23.9,37,23.9L37,23.9L37,23.9z"/>
	<path class="st24" d="M36.6,24.7c0.1,0.1,0.2,0.1,0.3,0.1c0.1,0,0.2,0,0.3-0.1c-0.1,0.1-0.2,0.1-0.3,0.1
		C36.8,24.8,36.7,24.8,36.6,24.7z"/>
	<path class="st20" d="M39.2,26.6c-0.1,0-0.2,0-0.3-0.1l0,0c0,0.2,0.2,0.3,0.4,0.3c0.1,0,0.2-0.1,0.3-0.3l0,0
		C39.5,26.5,39.4,26.6,39.2,26.6z"/>
	<path class="st20" d="M39.6,25.9L39.6,25.9c0-0.1,0-0.2-0.1-0.2l0,0c-0.2-0.2-0.4-0.2-0.5,0l0,0c-0.1,0.1-0.1,0.2-0.1,0.3l0,0
		l0.1,0.5c0.1,0.2,0.3,0.3,0.5,0.2c0.1,0,0.2-0.1,0.2-0.2L39.6,25.9L39.6,25.9L39.6,25.9z"/>
	<path class="st28" d="M39.6,26c0-0.1-0.2-0.1-0.3-0.1s-0.3,0-0.3,0.1l0,0v0.3c0.1,0.2,0.2,0.2,0.4,0.2c0.1,0,0.1-0.1,0.2-0.2V26
		H39.6z"/>
	<path class="st22" d="M39,25.3v0.3c0.1,0.1,0.3,0.2,0.4,0.1c0,0,0.1-0.1,0.1-0.1v-0.3H39z"/>
	<ellipse class="st23" cx="39.2" cy="25.3" rx="0.2" ry="0.1"/>
	<path class="st20" d="M39.4,25.2L39.4,25.2c0.1-0.1,0-0.2,0-0.2c-0.1-0.1-0.2,0-0.2,0c0,0.1,0,0.1,0,0.2l0,0c0,0,0,0.1,0,0.1l0,0
		c0.1,0.1,0.2,0.1,0.2,0l0,0C39.3,25.2,39.3,25.2,39.4,25.2L39.4,25.2L39.4,25.2z"/>
	<path class="st24" d="M39,26C39,26,39.1,26,39.2,26c0.1,0,0.2,0,0.3-0.1C39.5,26,39.3,26,39.2,26C39.1,26,39,26,39,26z"/>
	<path class="st20" d="M41.4,27.9c-0.1,0-0.2,0-0.3-0.1l0,0c0,0.2,0.2,0.3,0.4,0.3c0.1,0,0.2-0.1,0.3-0.3l0,0
		C41.6,27.8,41.5,27.9,41.4,27.9z"/>
	<path class="st20" d="M41.7,27.2L41.7,27.2c0-0.1,0-0.2-0.1-0.2l0,0c-0.2-0.2-0.4-0.2-0.5,0l0,0C41,27,41,27.1,41,27.2l0,0l0.1,0.5
		c0.1,0.2,0.3,0.3,0.5,0.2c0.1,0,0.2-0.1,0.2-0.2L41.7,27.2L41.7,27.2L41.7,27.2z"/>
	<path class="st29" d="M41.7,27.3c0-0.1-0.2-0.1-0.3-0.1s-0.3,0-0.3,0.1l0,0v0.3c0.1,0.2,0.2,0.2,0.4,0.2c0.1,0,0.1-0.1,0.2-0.2
		v-0.3H41.7z"/>
	<path class="st22" d="M41.2,26.6v0.3c0.1,0.1,0.3,0.2,0.4,0.1c0,0,0.1-0.1,0.1-0.1v-0.3H41.2z"/>
	<ellipse class="st23" cx="41.4" cy="26.6" rx="0.2" ry="0.1"/>
	<path class="st20" d="M41.5,26.5L41.5,26.5c0.1-0.1,0-0.2,0-0.2c-0.1-0.1-0.2,0-0.2,0c0,0.1,0,0.1,0,0.2l0,0c0,0,0,0.1,0,0.1l0,0
		c0.1,0.1,0.2,0.1,0.2,0l0,0C41.5,26.5,41.5,26.5,41.5,26.5L41.5,26.5L41.5,26.5z"/>
	<path class="st24" d="M41.1,27.3c0.1,0.1,0.2,0.1,0.3,0.1c0.1,0,0.2,0,0.3-0.1c-0.1,0.1-0.2,0.1-0.3,0.1
		C41.3,27.3,41.2,27.3,41.1,27.3z"/>
	<path class="st20" d="M30.2,31c-0.1,0-0.2,0-0.3-0.1l0,0c0,0.2,0.2,0.3,0.4,0.3c0.1,0,0.2-0.1,0.3-0.3l0,0
		C30.5,30.9,30.3,31,30.2,31z"/>
	<path class="st20" d="M30.6,30.3L30.6,30.3c0-0.1,0-0.2-0.1-0.2l0,0c-0.2-0.2-0.4-0.2-0.5,0l0,0c-0.1,0.1-0.1,0.2-0.1,0.3l0,0
		l0.1,0.5c0.1,0.2,0.3,0.3,0.5,0.2c0.1,0,0.2-0.1,0.2-0.2L30.6,30.3L30.6,30.3L30.6,30.3z"/>
	<path class="st29" d="M30.5,30.4c0-0.1-0.2-0.1-0.3-0.1s-0.3,0-0.3,0.1l0,0v0.3c0.1,0.2,0.2,0.2,0.4,0.2c0.1,0,0.1-0.1,0.2-0.2
		v-0.3H30.5z"/>
	<path class="st22" d="M30,29.8v0.3c0.1,0.1,0.3,0.2,0.4,0.1c0,0,0.1-0.1,0.1-0.1v-0.3H30z"/>
	<ellipse class="st23" cx="30.2" cy="29.8" rx="0.2" ry="0.1"/>
	<path class="st20" d="M30.3,29.6L30.3,29.6c0.1-0.1,0-0.2,0-0.2c-0.1-0.1-0.2,0-0.2,0c0,0.1,0,0.1,0,0.2l0,0c0,0,0,0.1,0,0.1l0,0
		c0.1,0.1,0.2,0.1,0.2,0l0,0C30.3,29.7,30.3,29.6,30.3,29.6L30.3,29.6L30.3,29.6z"/>
	<path class="st24" d="M30,30.4c0.1,0.1,0.2,0.1,0.3,0.1c0.1,0,0.2,0,0.3-0.1c-0.1,0.1-0.2,0.1-0.3,0.1C30.1,30.5,30,30.4,30,30.4z"
		/>
	<path class="st20" d="M18.2,32.5c-0.1,0-0.2,0-0.3-0.2l0,0c0,0.2,0.2,0.3,0.4,0.3c0.1,0,0.2-0.1,0.3-0.3l0,0
		C18.4,32.4,18.3,32.5,18.2,32.5z"/>
	<path class="st20" d="M18.6,31.8L18.6,31.8c0-0.1,0-0.2-0.1-0.2l0,0c-0.2-0.2-0.4-0.2-0.5,0l0,0c-0.1,0.1-0.1,0.2-0.1,0.3l0,0
		l0.1,0.5c0.1,0.2,0.3,0.3,0.5,0.2c0.1,0,0.2-0.1,0.2-0.2L18.6,31.8L18.6,31.8L18.6,31.8z"/>
	<path class="st29" d="M18.5,31.9c0-0.1-0.2-0.1-0.3-0.1s-0.3,0-0.3,0.1l0,0v0.3c0.1,0.2,0.2,0.2,0.4,0.2c0.1,0,0.1-0.1,0.2-0.2
		v-0.3H18.5z"/>
	<path class="st22" d="M18,31.3v0.3c0.1,0.1,0.3,0.2,0.4,0.1c0,0,0.1-0.1,0.1-0.1v-0.3H18z"/>
	<ellipse class="st23" cx="18.2" cy="31.3" rx="0.2" ry="0.1"/>
	<path class="st20" d="M18.3,31.1L18.3,31.1c0.1-0.1,0-0.2,0-0.2c-0.1-0.1-0.2,0-0.2,0c0,0.1,0,0.1,0,0.2l0,0c0,0,0,0.1,0,0.1l0,0
		c0.1,0.1,0.2,0.1,0.2,0l0,0C18.2,31.1,18.2,31.1,18.3,31.1L18.3,31.1L18.3,31.1z"/>
	<path class="st24" d="M17.9,31.9c0.1,0.1,0.2,0.1,0.3,0.1c0.1,0,0.2,0,0.3-0.1c-0.1,0.1-0.2,0.1-0.3,0.1C18.1,32,18,31.9,17.9,31.9
		z"/>
	<path class="st20" d="M20,31.6c-0.1,0-0.2,0-0.3-0.1l0,0c0,0.2,0.2,0.3,0.4,0.3c0.1,0,0.2-0.1,0.3-0.3l0,0
		C20.2,31.6,20.1,31.6,20,31.6z"/>
	<path class="st20" d="M20.3,30.9L20.3,30.9c0-0.1,0-0.2-0.1-0.2l0,0c-0.2-0.2-0.4-0.2-0.5,0l0,0c-0.1,0.1-0.1,0.2-0.1,0.3l0,0
		l0.1,0.5c0.1,0.2,0.3,0.3,0.5,0.2c0.1,0,0.2-0.1,0.2-0.2L20.3,30.9L20.3,30.9L20.3,30.9z"/>
	<path class="st29" d="M20.3,31c0-0.1-0.2-0.1-0.3-0.1s-0.3,0-0.3,0.1l0,0v0.3c0.1,0.2,0.2,0.2,0.4,0.2c0.1,0,0.1-0.1,0.2-0.2V31
		H20.3z"/>
	<path class="st22" d="M19.7,30.4v0.3c0.1,0.1,0.3,0.2,0.4,0.1c0,0,0.1-0.1,0.1-0.1v-0.3H19.7z"/>
	<ellipse class="st23" cx="19.9" cy="30.4" rx="0.2" ry="0.1"/>
	<path class="st20" d="M20.1,30.2L20.1,30.2c0.1-0.1,0-0.2,0-0.2c-0.1-0.1-0.2,0-0.2,0c0,0.1,0,0.1,0,0.2l0,0c0,0,0,0.1,0,0.1l0,0
		c0.1,0.1,0.2,0.1,0.2,0l0,0C20,30.3,20,30.2,20.1,30.2L20.1,30.2L20.1,30.2z"/>
	<path class="st24" d="M19.7,31c0.1,0.1,0.2,0.1,0.3,0.1c0.1,0,0.2,0,0.3-0.1c-0.1,0.1-0.2,0.1-0.3,0.1C19.8,31.1,19.7,31,19.7,31z"
		/>
	<path class="st20" d="M9.7,30.2c-0.1,0-0.2,0-0.3-0.1l0,0c0,0.2,0.2,0.3,0.4,0.3c0.1,0,0.2-0.1,0.3-0.3l0,0
		C10,30.2,9.9,30.2,9.7,30.2z"/>
	<path class="st20" d="M10.1,29.5L10.1,29.5c0-0.1,0-0.2-0.1-0.2l0,0c-0.2-0.2-0.4-0.2-0.5,0l0,0c-0.1,0.1-0.1,0.2-0.1,0.3l0,0
		L9.4,30c0.1,0.2,0.3,0.3,0.5,0.2c0.1,0,0.2-0.1,0.2-0.2L10.1,29.5L10.1,29.5L10.1,29.5z"/>
	<path class="st29" d="M10.1,29.6c0-0.1-0.2-0.1-0.3-0.1s-0.3,0-0.3,0.1l0,0V30c0.1,0.2,0.2,0.2,0.4,0.2c0.1,0,0.1-0.1,0.2-0.2v-0.3
		H10.1z"/>
	<path class="st22" d="M9.5,29v0.3c0.1,0.1,0.3,0.2,0.4,0.1c0,0,0.1-0.1,0.1-0.1V29H9.5z"/>
	<ellipse class="st23" cx="9.7" cy="29" rx="0.2" ry="0.1"/>
	<path class="st20" d="M9.9,28.8L9.9,28.8c0.1-0.1,0-0.2,0-0.2c-0.1-0.1-0.2,0-0.2,0c0,0.1,0,0.1,0,0.2l0,0c0,0,0,0.1,0,0.1l0,0
		c0.1,0.1,0.2,0.1,0.2,0l0,0C9.8,28.9,9.8,28.8,9.9,28.8L9.9,28.8L9.9,28.8z"/>
	<path class="st24" d="M9.4,29.6c0.1,0.1,0.2,0.1,0.3,0.1c0.1,0,0.2,0,0.3-0.1c-0.1,0.1-0.2,0.1-0.3,0.1C9.6,29.7,9.5,29.7,9.4,29.6
		z"/>
</g>
<g id="store-taipei-outside">
	<polygon class="st30" points="45.9,23.7 45.9,32.9 33.9,39.8 33.9,27.6 36.7,29.1 	"/>
	<polygon class="st31" points="37.6,42 49.6,35 49.6,39.7 37.6,46.5 	"/>
	<polygon class="st32" points="33.9,39.8 45.9,32.9 49.6,35 37.6,42 	"/>
	<polygon class="st33" points="33.9,39.8 37.6,42 37.6,46.5 33.9,44.4 	"/>
	<polygon class="st30" points="36.7,24.5 48.5,17.5 48.5,22.1 36.7,29.1 	"/>
	<polygon class="st30" points="45.8,16 21.9,2.2 1.8,13.7 17.9,23 25.9,18.3 33.9,23 36.7,24.5 48.5,17.5 	"/>
	<polygon class="st34" points="17.9,23 25.9,27.6 33.9,23 25.9,18.3 	"/>
	<polygon class="st35" points="19.1,22.9 25.9,26.8 32.5,22.9 25.8,19 	"/>
	<polygon class="st34" points="17.9,23 25.9,27.6 25.9,28.2 17.9,23.6 	"/>
	<polygon class="st34" points="25.9,27.6 25.9,28.2 33.9,23.6 33.9,23 	"/>
	<polygon class="st36" points="17.9,39.8 22.8,42.6 30.7,38 25.9,35.2 	"/>
	<polygon class="st37" points="22.8,43.9 30.7,39.3 30.7,38 22.8,42.6 	"/>
	<polygon class="st30" points="22.8,43.9 30.7,39.3 31.8,39.8 23.8,44.4 	"/>
	<polygon class="st37" points="23.8,44.4 31.8,39.8 31.8,40.9 23.8,45.6 	"/>
	<polygon class="st30" points="23.8,45.6 24.8,46.1 32.8,41.4 31.8,40.9 	"/>
	<polygon class="st37" points="24.8,46.1 32.8,41.4 32.8,42.7 24.8,47.3 	"/>
	<polygon class="st30" points="24.8,47.3 32.8,42.7 33.9,43.3 25.9,47.9 	"/>
	<polygon class="st37" points="25.9,49 33.9,44.4 33.9,43.3 25.8,47.9 	"/>
	<polygon class="st36" points="17.9,23.6 25.9,28.2 25.9,35.2 17.9,39.8 	"/>
	<polygon class="st37" points="17.9,39.8 25.9,35.2 25.9,33.9 17.9,38.4 	"/>
	<polygon class="st37" points="17.9,38.4 17.9,38 25.5,33.7 25.9,33.9 	"/>
	<polygon class="st37" points="25.9,33.9 25.5,33.7 25.5,28 25.9,28.2 	"/>
	<polygon class="st38" points="30.7,38 30.7,25.4 25.9,28.2 25.9,35.2 	"/>
	<polygon class="st36" points="26.8,27.7 26.8,35.7 25.9,35.2 25.9,28.2 	"/>
	<polygon class="st35" points="30.1,25.8 30.1,36.9 27.2,35.2 27.2,27.5 	"/>
	<polygon class="st31" points="27.4,27.6 27.4,30.3 27.7,30.4 27.7,27.7 	"/>
	<polygon class="st35" points="36.7,29.1 36.7,38.2 43.8,34 43.8,24.9 	"/>
	<polygon class="st34" points="29.6,24.7 26.5,22.9 29.5,21.2 29,20.9 26,22.6 22.8,20.8 22.2,21.1 25.3,22.9 22.2,24.7 22.7,25 
		25.9,23.2 29,25 	"/>
	<polygon class="st37" points="33.9,23 33.9,23.6 30.7,25.4 30.7,39.3 31.8,39.8 31.8,40.9 32.8,41.4 32.8,42.7 33.9,43.3 
		33.9,27.6 36.7,29.1 36.7,24.5 	"/>
	<polygon class="st35" points="17.9,23.6 25.5,28 25.5,33.7 17.9,38 	"/>
	<polygon class="st30" points="17.9,39.8 25.9,35.2 30.7,38 22.8,42.6 	"/>
	<polygon class="st37" points="18.8,44.9 25.9,49 25.8,47.9 24.8,47.3 24.8,46.1 23.8,45.6 23.8,44.4 22.8,43.9 22.8,42.6 
		21.9,42.1 18.2,40 18.2,40 18.2,40 17.9,39.8 17.9,39.8 17.9,39.8 17.9,23 1.8,13.7 1.8,35.2 17,43.9 18.8,44.9 	"/>
	<path class="st5" d="M21.9,2.2l26.7,15.3v4.6l-2.6,1.6v9.2l3.7,2.2v4.6l-12,6.9l-3.8-2.1l-8,4.6l-24-13.9V13.7L21.9,2.2 M22,1.8
		l-0.2,0.1L1.7,13.4l-0.2,0.1v21.8l0.1,0.1l24,13.9l0.2,0.1l0.2-0.1l7.9-4.5l3.6,2l0.2,0.1l0.2-0.1l12-6.9l0.2-0.1v-5h-0.2l-3.6-2.1
		v-8.8l2.5-1.5l0.2-0.1v-5l-0.2-0.1L22,1.8h-0.1H22z"/>
</g>
</svg>
