<svg id="Layer_1" data-name="Layer 1" xmlns="http://www.w3.org/2000/svg" viewBox="0 0 603.04 109.89"><title>logo</title><path d="M184.15,68.16a11.59,11.59,0,0,1-1.69,6.29,13,13,0,0,1-4.55,4.37,21.32,21.32,0,0,1-6,2.32,33.27,33.27,0,0,1-7.5.78q-2.23,0-4.62-.14L157,81.61l-.28-5q.49.07,2.72.26t5.26.19a30.18,30.18,0,0,0,4.77-.49A16.89,16.89,0,0,0,174,75.31a8.74,8.74,0,0,0,3.15-2.44,5.77,5.77,0,0,0,1.1-3.62,6.88,6.88,0,0,0-1.1-4,11.13,11.13,0,0,0-3.64-3.12q-1.64-1-4.25-2.19a46.27,46.27,0,0,1-4.7-2.51,14.37,14.37,0,0,1-5.07-4.72,11,11,0,0,1-1.52-5.7,10.79,10.79,0,0,1,1.38-5.56,13.74,13.74,0,0,1,3.58-4A15.49,15.49,0,0,1,168.37,35a28.62,28.62,0,0,1,7.17-.84q2.16,0,4.38.12t2.53.16l.49,5.05-2.54-.24q-2.23-.21-5.5-.21a19.57,19.57,0,0,0-4,.44,12.28,12.28,0,0,0-3.64,1.34A7.21,7.21,0,0,0,164.85,43a5.78,5.78,0,0,0-1,3.34,6,6,0,0,0,1,3.29,11.55,11.55,0,0,0,3.85,3.26q1.43.87,3.78,2t4.62,2.46a15.64,15.64,0,0,1,5.24,4.72A10.78,10.78,0,0,1,184.15,68.16Z" style="stroke:#000;stroke-miterlimit:10"/><path d="M225.89,50.61a14.36,14.36,0,0,1-3.29,9.2,16.24,16.24,0,0,1-8.78,5.57,32.9,32.9,0,0,1-5.17.91q-2.8.28-6.24.28l.07,14.74h-5.75q0-2.09.1-7.75T196.9,56q0-3.76,0-9.23t-.14-12.16q1.5,0,2.94,0H202a58.52,58.52,0,0,1,10.25.77A19.6,19.6,0,0,1,219.38,38a13.35,13.35,0,0,1,4.84,5.17A15.8,15.8,0,0,1,225.89,50.61Zm-5.92,0a10.16,10.16,0,0,0-6.65-10.1,14.74,14.74,0,0,0-4.53-1.13q-2.44-.23-5-.23h-1.29q0,.38-.07,5.23T202.34,52q0,2.58,0,6.1t0,4h1.39a42.07,42.07,0,0,0,5-.31,15.69,15.69,0,0,0,4.51-1.15,11.28,11.28,0,0,0,5-3.87A10.59,10.59,0,0,0,220,50.61Z" style="stroke:#000;stroke-miterlimit:10"/><path d="M275.81,79.43l-5.42,2.8q-.14-.38-2.23-5.19t-5.52-12.37H242q-3.67,8.12-5.67,12.58t-2.2,5l-4.67-2.53q.91-1.81,7.47-16T250.59,34h4.53q7,15.6,13.69,30.23T275.81,79.43ZM260.68,60.22q-1.85-4.25-3.9-8.89t-4.31-9.69l-.14,0q-1.75,3.83-4.23,9.42T244,60.22l0,0h16.69Z" style="stroke:#000;stroke-miterlimit:10"/><path d="M320.33,78.51,316,82.1q-.77-.8-5.43-6T296.16,59.68l0-.31a17.71,17.71,0,0,0,3.52-1.52,18.13,18.13,0,0,0,3.69-2.53,11.35,11.35,0,0,0,2.25-2.93,9.72,9.72,0,0,0,1-4.67,7.63,7.63,0,0,0-1.41-4.62,8.13,8.13,0,0,0-3.88-2.84,14.84,14.84,0,0,0-4.25-.92q-2.23-.16-4.11-.16l-1.92,0-1,0Q290,45.84,290,50.89T290,58q0,4.78.05,13t.09,10.29h-5.75q0-2.09.1-8.1t.07-15V51.79q0-4.7-.17-17.14l3.48-.07q3.13-.07,5.78-.07a48.45,48.45,0,0,1,5.88.35,20.62,20.62,0,0,1,5.57,1.5,12.55,12.55,0,0,1,5.46,4.3,11.2,11.2,0,0,1,2,6.67,11.66,11.66,0,0,1-3,8.23,26.49,26.49,0,0,1-5.75,4.89v.17q4.78,5.58,10.47,11.51T320.33,78.51Z" style="stroke:#000;stroke-miterlimit:10"/><path d="M370.85,58a27.1,27.1,0,0,1-1.93,10.36,23.07,23.07,0,0,1-5,7.79,21.13,21.13,0,0,1-15.6,6.52,22.41,22.41,0,0,1-8.15-1.48,20.72,20.72,0,0,1-6.89-4.41,23.48,23.48,0,0,1-5.45-8,27.26,27.26,0,0,1-2.07-10.85,27.89,27.89,0,0,1,1.64-9.77,23.62,23.62,0,0,1,4.91-7.93,21,21,0,0,1,7.21-5.07A22.88,22.88,0,0,1,357,35a21,21,0,0,1,6.93,4.69,23.09,23.09,0,0,1,5.17,8.21A28.56,28.56,0,0,1,370.85,58Zm-5.92.56a27,27,0,0,0-1.52-8.9,18.2,18.2,0,0,0-4.62-7.33,15.54,15.54,0,0,0-4.69-3.13,14.57,14.57,0,0,0-5.81-1.12,15,15,0,0,0-5.84,1.13,15.23,15.23,0,0,0-4.9,3.33,19.15,19.15,0,0,0-4.34,6.9,25.33,25.33,0,0,0,0,17.56,18.7,18.7,0,0,0,4.48,6.72,15.5,15.5,0,0,0,4.71,3.08A14.59,14.59,0,0,0,348.26,78a14.86,14.86,0,0,0,5.81-1.13,15.76,15.76,0,0,0,4.9-3.26,19.29,19.29,0,0,0,4.29-6.39A21.56,21.56,0,0,0,364.93,58.55Z" style="stroke:#000;stroke-miterlimit:10"/><path d="M406.88,68.16a11.59,11.59,0,0,1-1.69,6.29,13,13,0,0,1-4.55,4.37,21.32,21.32,0,0,1-6,2.32,33.28,33.28,0,0,1-7.5.78q-2.23,0-4.62-.14l-2.77-.17-.28-5q.49.07,2.72.26t5.26.19a30.18,30.18,0,0,0,4.77-.49,16.89,16.89,0,0,0,4.49-1.25,8.74,8.74,0,0,0,3.15-2.44,5.77,5.77,0,0,0,1.1-3.62,6.89,6.89,0,0,0-1.1-4,11.14,11.14,0,0,0-3.64-3.12q-1.64-1-4.25-2.19a46.36,46.36,0,0,1-4.7-2.51,14.37,14.37,0,0,1-5.07-4.72,11,11,0,0,1-1.51-5.7,10.8,10.8,0,0,1,1.38-5.56,13.73,13.73,0,0,1,3.58-4A15.49,15.49,0,0,1,391.09,35a28.63,28.63,0,0,1,7.17-.84q2.16,0,4.38.12t2.53.16l.49,5.05-2.54-.24q-2.23-.21-5.5-.21a19.57,19.57,0,0,0-4,.44,12.28,12.28,0,0,0-3.64,1.34A7.22,7.22,0,0,0,387.58,43a5.78,5.78,0,0,0-1,3.34,6,6,0,0,0,1,3.29,11.54,11.54,0,0,0,3.85,3.26q1.43.87,3.78,2t4.62,2.46a15.64,15.64,0,0,1,5.24,4.72A10.79,10.79,0,0,1,406.88,68.16Z" style="stroke:#000;stroke-miterlimit:10"/><path d="M448.62,50.61a14.36,14.36,0,0,1-3.29,9.2,16.25,16.25,0,0,1-8.78,5.57,32.88,32.88,0,0,1-5.17.91q-2.8.28-6.25.28l.07,14.74h-5.75q0-2.09.1-7.75T419.63,56q0-3.76,0-9.23t-.14-12.16q1.5,0,2.94,0h2.35a58.52,58.52,0,0,1,10.25.77A19.59,19.59,0,0,1,442.11,38a13.35,13.35,0,0,1,4.84,5.17A15.81,15.81,0,0,1,448.62,50.61Zm-5.92,0A10.17,10.17,0,0,0,436,40.5a14.74,14.74,0,0,0-4.53-1.13q-2.44-.23-5-.23H425.2q0,.38-.07,5.23T425.06,52q0,2.58,0,6.1t0,4h1.39a42.05,42.05,0,0,0,5-.31A15.69,15.69,0,0,0,436,60.67a11.28,11.28,0,0,0,5-3.87A10.59,10.59,0,0,0,442.69,50.61Z" style="stroke:#000;stroke-miterlimit:10"/><path d="M498.54,79.43v2.8h-5.42q-.14-.38-2.23-5.19c-1.39-3.21-6.31-13.9-8.59-18.93H467.63c-2.45,5.41-7.22,16.17-8.55,19.14s-2.06,4.63-2.2,5H452.2V79.71q.91-1.81,7.47-16T473.32,34h4.53q7,15.6,13.69,30.23T498.54,79.43Z" style="stroke:#000;stroke-miterlimit:10"/><path d="M538,77l-.19,1.76q-.16,1.45-.3,3.15h-1.22a49,49,0,0,1-15.12-2.14,27.75,27.75,0,0,1-10.87-6.22,20.67,20.67,0,0,1-4.69-6.76,22.21,22.21,0,0,1-1.72-9,19.73,19.73,0,0,1,1.71-8.28A22.45,22.45,0,0,1,510,43,27.83,27.83,0,0,1,520.8,36.6a43.38,43.38,0,0,1,14.46-2.37h1.57q0,.63.14,2t.24,3H536a45,45,0,0,0-9,1A27.49,27.49,0,0,0,518.93,43a18.31,18.31,0,0,0-6.77,6.43,16,16,0,0,0-2.37,8.45,17.38,17.38,0,0,0,2.13,8.55,17,17,0,0,0,6.73,6.46,28.53,28.53,0,0,0,8.42,3.14,45,45,0,0,0,9.26,1H537C537.3,77,537.63,77,538,77Z" style="stroke:#000;stroke-miterlimit:10"/><path d="M577.9,81.23l-4.63,0q-4.32,0-10.7,0-4.43,0-8.1,0l-6.22,0q.07-2,.12-8.75t.05-13.9q0-3.94,0-10.42t-.14-13.41l6.18,0q3.71,0,7.65,0,6.65,0,10.83,0l4.53,0V39.6l-4.37-.05q-4-.05-10-.05l-5.12,0-4,0q0,3.94-.07,7.86t-.07,7.4l3.71,0,3.81,0q6.13,0,11-.05l5.14-.05v4.81l-5.75-.05q-5.47-.05-10-.05l-4,0-3.88,0q0,6.59,0,10.45t.07,6.48l5,.05,6.31,0q5.19,0,8.73,0l4,0Z" style="stroke:#000;stroke-miterlimit:10"/><polygon points="125.41 23.53 106.18 23.53 90.3 35.86 99.87 35.86 99.87 92.38 108.82 92.38 135.83 37.19 125.41 23.53" style="fill:none;stroke:#000;stroke-linejoin:bevel;stroke-width:5px"/><polygon points="41.15 74.03 25.73 64.69 53.91 64.12 41.15 74.03" style="fill:none;stroke:#000;stroke-linejoin:bevel;stroke-width:5px"/><polygon points="86.22 92.38 60.67 35.86 99.87 35.86 99.87 92.38 86.22 92.38" style="fill:none;stroke:#000;stroke-miterlimit:10;stroke-width:5px"/><polyline points="135.45 36.69 143.17 52.16 130.32 48.45" style="fill:none;stroke:#000;stroke-linejoin:bevel;stroke-width:5px"/><polygon points="68.37 52.89 41.15 74.03 71.98 92.38 86.22 92.38 68.37 52.89" style="fill:none;stroke:#000;stroke-linejoin:bevel;stroke-width:5px"/></svg>