<svg id="store-taipei" xmlns="http://www.w3.org/2000/svg" viewBox="0 0 65.98 51.05"><title>store-taipei2</title><polygon id="shadow" points="38.7 24.62 10.27 29.35 0 40.44 14.22 51.05 41.92 47.38 38.7 24.62" style="fill:#111;opacity:0.10000000149011612;isolation:isolate"/><g id="store-inside"><polygon points="17.7 14.84 37.88 3.23 61.9 17.17 62.04 31.21 65.8 33.36 65.8 37.97 53.62 44.98 49.85 42.75 41.91 47.41 17.74 33.46 17.7 14.84" style="fill:none;stroke:#231916;stroke-linecap:round;stroke-linejoin:round;stroke-width:0.15348978340625763px"/><polygon points="33.85 38.11 38.81 40.98 46.8 36.28 41.91 33.48 33.85 38.11" style="fill:none;stroke:#231916;stroke-linecap:round;stroke-linejoin:round;stroke-width:0.15348978340625763px"/><polygon points="38.81 42.2 46.8 37.57 46.8 36.28 38.81 40.98 38.81 42.2" style="fill:#e7e7de;stroke:#231916;stroke-linecap:round;stroke-linejoin:round;stroke-width:0.15348978340625763px"/><polygon points="38.81 42.2 46.8 37.57 47.79 38.11 39.87 42.71 38.81 42.2" style="fill:#f3f3e8;stroke:#231916;stroke-linecap:round;stroke-linejoin:round;stroke-width:0.15348978340625763px"/><polygon points="39.87 42.71 47.83 38.1 47.83 39.28 39.87 43.92 39.87 42.71" style="fill:#e7e7de;stroke:#231916;stroke-linecap:round;stroke-linejoin:round;stroke-width:0.15348978340625763px"/><polygon points="39.87 43.92 40.83 44.47 48.77 39.83 47.83 39.28 39.87 43.92" style="fill:#f3f3e8;stroke:#231916;stroke-linecap:round;stroke-linejoin:round;stroke-width:0.15348978340625763px"/><polygon points="40.83 44.47 48.8 39.83 48.84 41.1 40.83 45.69 40.83 44.47" style="fill:#e7e7de;stroke:#231916;stroke-linecap:round;stroke-linejoin:round;stroke-width:0.15348978340625763px"/><polygon points="40.83 45.69 48.84 41.1 49.84 41.65 41.88 46.28 40.83 45.69" style="fill:#f3f3e8;stroke:#231916;stroke-linecap:round;stroke-linejoin:round;stroke-width:0.15348978340625763px"/><polygon points="41.91 47.41 49.85 42.75 49.84 41.65 41.88 46.28 41.91 47.41" style="fill:#e7e7de;stroke:#231916;stroke-linecap:round;stroke-linejoin:round;stroke-width:0.15348978340625763px"/><polygon points="49.85 38.2 53.63 40.4 53.63 44.99 49.85 42.75 49.85 38.2" style="fill:#b5b6b6;stroke:#231916;stroke-linecap:round;stroke-linejoin:round;stroke-width:0.15348978340625763px"/><polygon points="41.95 33.49 33.81 38.11 17.86 28.96 37.91 17.42 61.89 31.21 49.93 38.21 41.95 33.49" style="fill:#f7f8f8"/><path d="M37.88,17.53l23.9,13.68L50,38.12l-8-4.7h-.16l-8,4.59L18,29,37.89,17.58m0-.18L17.72,29l16.15,9.22,8-4.63,8,4.74L62,31.25,37.88,17.36h0Z" style="fill:#231916"/><polygon points="18.64 15.47 38.67 4 38.66 17.91 18.68 29.29 18.64 15.47" style="fill:#f3f3e8"/><path d="M38.59,4.13V17.82L18.78,29.16V15.56L38.65,4.14m.15-.27L18.62,15.47v14L38.78,17.92v-14h0Z" style="fill:#231916"/><polygon points="37.91 18.32 37.96 4.48 61.86 18.27 61.97 32.11 37.91 18.32" style="fill:#f3f3e8"/><path d="M38,4.61,61.78,18.28,61.92,32,38,18.28V4.61m-.15-.27v14L62,32.28l-.14-14-24-13.86h0Z" style="fill:#231916"/><polygon points="41.76 30.32 46.72 33.23 50.73 30.91 50.73 29.3 45.72 26.44 41.75 28.72 41.76 30.32" style="fill:#def0f3;stroke:#000;stroke-linecap:round;stroke-linejoin:round;stroke-width:0.15348978340625763px"/><polygon points="41.75 28.72 46.72 31.65 46.72 33.23 41.76 30.32 41.75 28.72" style="fill:#727171;stroke:#000;stroke-linecap:round;stroke-linejoin:round;stroke-width:0.15348978340625763px"/><polygon points="50.73 29.3 46.72 31.65 46.72 33.23 50.73 30.91 50.73 29.3" style="fill:#898989;stroke:#000;stroke-linecap:round;stroke-linejoin:round;stroke-width:0.15348978340625763px"/><polygon points="41.75 28.72 46.72 31.65 50.73 29.3 45.72 26.44 41.75 28.72" style="fill:#def0f3;stroke:#000;stroke-linecap:round;stroke-linejoin:round;stroke-width:0.15348978340625763px"/><polygon points="46.32 18.38 44.85 17.5 41.94 19.27 36.38 16.06 34.81 16.93 41.78 21.01 46.32 18.38" style="fill:#9fa0a0;stroke:#000;stroke-linecap:round;stroke-linejoin:round;stroke-width:0.15348978340625763px"/><polygon points="34.81 16.93 41.78 21.01 41.78 25.66 34.81 21.58 34.81 16.93" style="fill:#727171;stroke:#000;stroke-linecap:round;stroke-linejoin:round;stroke-width:0.15348978340625763px"/><polygon points="41.78 21.01 44.32 19.55 44.32 24.2 41.78 25.66 41.78 21.01" style="fill:#898989;stroke:#000;stroke-linecap:round;stroke-linejoin:round;stroke-width:0.15348978340625763px"/><path d="M34.42,35.9v.43a.2.2,0,0,0,.28,0h0V35.9" style="fill:#b5b6b6;stroke:#000;stroke-linecap:round;stroke-linejoin:round;stroke-width:0.15348978340625763px"/><path d="M37.55,34.21v.43a.2.2,0,0,0,.28,0h0v-.43" style="fill:#b5b6b6;stroke:#000;stroke-linecap:round;stroke-linejoin:round;stroke-width:0.15348978340625763px"/><path d="M32.57,34.82v.43a.2.2,0,0,0,.28,0h0v-.43" style="fill:#b5b6b6;stroke:#000;stroke-linecap:round;stroke-linejoin:round;stroke-width:0.15348978340625763px"/><polygon points="34.61 32.83 34.61 32.49 33.8 31.98 33.81 31.25 33.18 30.88 33.18 31.62 32.44 31.18 32.44 31.53 33.19 31.97 33.19 32.63 32.46 32.2 32.44 34.87 34.61 36.17 34.6 33.51 33.8 33 33.8 32.32 34.61 32.83" style="fill:#727171;stroke:#000;stroke-linecap:round;stroke-linejoin:round;stroke-width:0.15348978340625763px"/><polygon points="34.6 33.51 37.97 31.56 37.97 34.24 34.61 36.17 34.6 33.51" style="fill:#898989;stroke:#000;stroke-linecap:round;stroke-linejoin:round;stroke-width:0.15348978340625763px"/><polygon points="34.61 32.49 37.97 30.55 37.97 30.91 34.61 32.83 34.61 32.49" style="fill:#898989;stroke:#000;stroke-linecap:round;stroke-linejoin:round;stroke-width:0.15348978340625763px"/><polygon points="37.97 30.55 37.15 30.02 33.8 31.98 34.61 32.49 37.97 30.55" style="fill:#def0f3;stroke:#000;stroke-linecap:round;stroke-linejoin:round;stroke-width:0.15348978340625763px"/><polygon points="37.97 31.56 37.39 31.24 34.61 32.83 34.34 32.66 33.8 33 34.6 33.51 37.97 31.56" style="fill:#898989;stroke:#000;stroke-linecap:round;stroke-linejoin:round;stroke-width:0.15348978340625763px"/><polygon points="33.8 32.32 34.34 32.66 33.8 33 33.8 32.32" style="fill:#727171;stroke:#000;stroke-linecap:round;stroke-linejoin:round;stroke-width:0.15348978340625763px"/><polygon points="32.46 32.2 32.99 31.86 33.19 31.97 33.19 32.63 32.46 32.2" style="fill:#898989;stroke:#000;stroke-linecap:round;stroke-linejoin:round;stroke-width:0.15348978340625763px"/><polygon points="33.8 31.98 37.15 30.02 37.15 29.31 33.81 31.25 33.8 31.98" style="fill:#898989;stroke:#000;stroke-linecap:round;stroke-linejoin:round;stroke-width:0.15348978340625763px"/><polygon points="33.81 31.25 33.18 30.88 36.58 28.98 37.15 29.31 33.81 31.25" style="fill:#def0f3;stroke:#000;stroke-linecap:round;stroke-linejoin:round;stroke-width:0.15348978340625763px"/><polygon points="32.44 31.18 35.88 29.26 35.98 29.31 33.18 30.88 33.18 31.62 32.44 31.18" style="fill:#def0f3;stroke:#000;stroke-linecap:round;stroke-linejoin:round;stroke-width:0.15348978340625763px"/><polygon points="34.61 33.9 37.97 32 38.11 32.08 38.11 32.89 34.78 34.76 34.61 34.66 34.61 33.9" style="fill:#b5b6b6;stroke:#000;stroke-linecap:round;stroke-linejoin:round;stroke-width:0.15348978340625763px"/><polygon points="34.78 34.76 34.61 34.66 34.61 33.9 34.77 34 34.78 34.76" style="fill:#727171;stroke:#000;stroke-linecap:round;stroke-linejoin:round;stroke-width:0.15348978340625763px"/><polygon points="34.77 34 38.11 32.08 38.11 32.89 34.78 34.76 34.77 34" style="fill:#898989;stroke:#000;stroke-linecap:round;stroke-linejoin:round;stroke-width:0.15348978340625763px"/><polygon points="38.11 32.08 37.97 32 34.61 33.9 34.77 34 38.11 32.08" style="fill:#b5b6b6;stroke:#000;stroke-linecap:round;stroke-linejoin:round;stroke-width:0.15348978340625763px"/><polygon points="34.78 35.84 34.61 35.74 34.61 34.99 34.77 35.09 34.78 35.84" style="fill:#727171;stroke:#000;stroke-linecap:round;stroke-linejoin:round;stroke-width:0.15348978340625763px"/><polygon points="34.77 35.09 38.11 33.17 38.11 33.97 34.78 35.84 34.77 35.09" style="fill:#898989;stroke:#000;stroke-linecap:round;stroke-linejoin:round;stroke-width:0.15348978340625763px"/><polygon points="38.11 33.17 37.97 33.08 34.61 34.99 34.77 35.09 38.11 33.17" style="fill:#b5b6b6;stroke:#000;stroke-linecap:round;stroke-linejoin:round;stroke-width:0.15348978340625763px"/><polygon points="44.32 10.23 58.37 18.38 60.38 17.22 46.33 9.07 44.32 10.23" style="fill:#9fa0a0;stroke:#000;stroke-linecap:round;stroke-linejoin:round;stroke-width:0.15348978340625763px"/><polygon points="60.38 17.22 60.36 21.92 58.35 23.08 58.37 18.38 60.38 17.22" style="fill:#898989;stroke:#000;stroke-linecap:round;stroke-linejoin:round;stroke-width:0.15348978340625763px"/><polygon points="44.32 10.23 58.37 18.38 58.35 23.08 44.32 14.89 44.32 10.23" style="fill:#727171;stroke:#000;stroke-linecap:round;stroke-linejoin:round;stroke-width:0.15348978340625763px"/><polygon points="44.32 19.55 58.35 27.68 58.35 32.34 44.32 24.2 44.32 19.55" style="fill:#727171;stroke:#000;stroke-linecap:round;stroke-linejoin:round;stroke-width:0.15348978340625763px"/><polygon points="58.35 27.68 60.37 26.52 60.36 31.17 58.35 32.34 58.35 27.68" style="fill:#898989;stroke:#000;stroke-linecap:round;stroke-linejoin:round;stroke-width:0.15348978340625763px"/><polygon points="46.32 16.06 46.32 18.38 60.37 26.52 60.36 21.92 58.35 23.08 46.32 16.06" style="fill:#def0f3;stroke:#000;stroke-linecap:round;stroke-linejoin:round;stroke-width:0.15348978340625763px"/><polygon points="44.32 19.55 46.32 18.38 60.37 26.52 58.35 27.68 44.32 19.55" style="fill:#def0f3;stroke:#000;stroke-linecap:round;stroke-linejoin:round;stroke-width:0.15348978340625763px"/><polygon points="24.26 27.25 24.37 28.63 24.45 28.68 24.52 28.63 24.67 27.31 24.26 27.25" style="fill:#826c49;stroke:#000;stroke-linecap:round;stroke-linejoin:round;stroke-width:0.15348978340625763px"/><polygon points="24.46 27.41 24.45 28.68 24.37 28.63 24.26 27.38 24.46 27.41" style="fill:#65553d;stroke:#000;stroke-linecap:round;stroke-linejoin:round;stroke-width:0.15348978340625763px"/><polygon points="23.43 26.8 23.53 28.18 23.61 28.23 23.69 28.18 23.83 26.86 23.43 26.8" style="fill:#826c49;stroke:#000;stroke-linecap:round;stroke-linejoin:round;stroke-width:0.15348978340625763px"/><polygon points="23.63 26.96 23.61 28.23 23.53 28.18 23.43 26.93 23.63 26.96" style="fill:#65553d;stroke:#000;stroke-linecap:round;stroke-linejoin:round;stroke-width:0.15348978340625763px"/><polygon points="25.29 26.61 25.39 27.99 25.47 28.04 25.55 27.99 25.69 26.67 25.29 26.61" style="fill:#826c49;stroke:#000;stroke-linecap:round;stroke-linejoin:round;stroke-width:0.15348978340625763px"/><polygon points="25.49 26.77 25.47 28.04 25.39 27.99 25.29 26.74 25.49 26.77" style="fill:#65553d;stroke:#000;stroke-linecap:round;stroke-linejoin:round;stroke-width:0.15348978340625763px"/><polygon points="24.61 26.21 24.72 27.59 24.8 27.64 24.87 27.59 25.02 26.27 24.61 26.21" style="fill:#826c49;stroke:#000;stroke-linecap:round;stroke-linejoin:round;stroke-width:0.15348978340625763px"/><polygon points="24.81 26.37 24.8 27.64 24.72 27.59 24.61 26.34 24.81 26.37" style="fill:#65553d;stroke:#000;stroke-linecap:round;stroke-linejoin:round;stroke-width:0.15348978340625763px"/><path d="M24.25,27.08l-.84-.48,1.26-.73.86.48a.43.43,0,0,1,.24.36,1,1,0,0,1-1.17.42l-.33,0h0Z" style="fill:#61657a;stroke:#000;stroke-linecap:round;stroke-linejoin:round;stroke-width:0.15348978340625763px"/><path d="M24.27,27.38V27.1l.33,0a1.24,1.24,0,0,0,1.13-.3h0a.27.27,0,0,0,0-.12h0V27a1,1,0,0,1-1.17.42l-.33,0h0" style="fill:#464c56;stroke:#000;stroke-linecap:round;stroke-linejoin:round;stroke-width:0.15348978340625763px"/><polygon points="24.67 25.87 24.67 24.22 23.39 24.96 23.4 26.6 24.67 25.87" style="fill:#61657a;stroke:#000;stroke-linecap:round;stroke-linejoin:round;stroke-width:0.15348978340625763px"/><polygon points="23.68 26.76 23.59 25.06 23.39 24.96 23.4 26.6 23.4 26.91 24.26 27.38 24.26 27.09 23.68 26.76" style="fill:#464c56;stroke:#000;stroke-linecap:round;stroke-linejoin:round;stroke-width:0.15348978340625763px"/><polygon points="24.86 24.31 23.59 25.06 23.68 26.76 24.96 26.02 24.86 24.31" style="fill:#61657a;stroke:#000;stroke-linecap:round;stroke-linejoin:round;stroke-width:0.15348978340625763px"/><polygon points="24.67 24.22 24.86 24.32 23.59 25.06 23.39 24.96 24.67 24.22" style="fill:#61657a;stroke:#000;stroke-linecap:round;stroke-linejoin:round;stroke-width:0.15348978340625763px"/><polygon points="30.65 30.75 30.75 32.13 30.84 32.18 30.91 32.13 31.05 30.81 30.65 30.75" style="fill:#826c49;stroke:#000;stroke-linecap:round;stroke-linejoin:round;stroke-width:0.15348978340625763px"/><polygon points="30.85 30.91 30.84 32.18 30.75 32.13 30.65 30.88 30.85 30.91" style="fill:#65553d;stroke:#000;stroke-linecap:round;stroke-linejoin:round;stroke-width:0.15348978340625763px"/><polygon points="29.93 30.3 30.04 31.68 30.12 31.73 30.19 31.68 30.34 30.36 29.93 30.3" style="fill:#826c49;stroke:#000;stroke-linecap:round;stroke-linejoin:round;stroke-width:0.15348978340625763px"/><polygon points="30.14 30.46 30.12 31.73 30.04 31.68 29.93 30.42 30.14 30.46" style="fill:#65553d;stroke:#000;stroke-linecap:round;stroke-linejoin:round;stroke-width:0.15348978340625763px"/><polygon points="31.68 30.11 31.78 31.49 31.86 31.54 31.94 31.49 32.08 30.17 31.68 30.11" style="fill:#826c49;stroke:#000;stroke-linecap:round;stroke-linejoin:round;stroke-width:0.15348978340625763px"/><polygon points="31.88 30.27 31.86 31.54 31.78 31.49 31.68 30.24 31.88 30.27" style="fill:#65553d;stroke:#000;stroke-linecap:round;stroke-linejoin:round;stroke-width:0.15348978340625763px"/><polygon points="31 29.71 31.1 31.09 31.18 31.14 31.26 31.09 31.4 29.77 31 29.71" style="fill:#826c49;stroke:#000;stroke-linecap:round;stroke-linejoin:round;stroke-width:0.15348978340625763px"/><polygon points="31.2 29.87 31.18 31.14 31.1 31.09 31 29.84 31.2 29.87" style="fill:#65553d;stroke:#000;stroke-linecap:round;stroke-linejoin:round;stroke-width:0.15348978340625763px"/><polygon points="31.97 28.22 32.16 28.32 30.89 29.06 30.7 28.96 31.97 28.22" style="fill:#61657a;stroke:#000;stroke-linecap:round;stroke-linejoin:round;stroke-width:0.15348978340625763px"/><path d="M32.16,30l-1.26.73-.9-.52a.43.43,0,0,1-.24-.36A1,1,0,0,1,31,29.45l.33,0Z" style="fill:#61657a;stroke:#000;stroke-linecap:round;stroke-linejoin:round;stroke-width:0.15348978340625763px"/><polygon points="32.16 28.32 30.88 29.07 30.88 31 32.15 30.29 32.16 28.32" style="fill:#5a6071;stroke:#000;stroke-linecap:round;stroke-linejoin:round;stroke-width:0.15348978340625763px"/><path d="M30.7,29l-.23,1.52h0L30,30.22a.41.41,0,0,1-.22-.35v.29a.41.41,0,0,0,.23.37l.86.47V29.08Z" style="fill:#464c56;stroke:#000;stroke-linecap:round;stroke-linejoin:round;stroke-width:0.15348978340625763px"/><polygon points="28.22 32.06 28.33 33.44 28.41 33.49 28.48 33.44 28.63 32.12 28.22 32.06" style="fill:#826c49;stroke:#000;stroke-linecap:round;stroke-linejoin:round;stroke-width:0.15348978340625763px"/><polygon points="28.43 32.22 28.41 33.49 28.33 33.44 28.22 32.18 28.43 32.22" style="fill:#65553d;stroke:#000;stroke-linecap:round;stroke-linejoin:round;stroke-width:0.15348978340625763px"/><polygon points="27.51 31.6 27.61 32.98 27.69 33.04 27.77 32.98 27.91 31.66 27.51 31.6" style="fill:#826c49;stroke:#000;stroke-linecap:round;stroke-linejoin:round;stroke-width:0.15348978340625763px"/><polygon points="27.71 31.77 27.69 33.04 27.61 32.98 27.51 31.73 27.71 31.77" style="fill:#65553d;stroke:#000;stroke-linecap:round;stroke-linejoin:round;stroke-width:0.15348978340625763px"/><polygon points="29.25 31.42 29.35 32.8 29.43 32.85 29.51 32.8 29.65 31.48 29.25 31.42" style="fill:#826c49;stroke:#000;stroke-linecap:round;stroke-linejoin:round;stroke-width:0.15348978340625763px"/><polygon points="29.45 31.58 29.43 32.85 29.35 32.8 29.25 31.54 29.45 31.58" style="fill:#65553d;stroke:#000;stroke-linecap:round;stroke-linejoin:round;stroke-width:0.15348978340625763px"/><polygon points="28.57 31.02 28.68 32.4 28.76 32.45 28.83 32.4 28.98 31.08 28.57 31.02" style="fill:#826c49;stroke:#000;stroke-linecap:round;stroke-linejoin:round;stroke-width:0.15348978340625763px"/><polygon points="28.77 31.18 28.76 32.45 28.68 32.4 28.57 31.14 28.77 31.18" style="fill:#65553d;stroke:#000;stroke-linecap:round;stroke-linejoin:round;stroke-width:0.15348978340625763px"/><polygon points="29.54 29.52 29.74 29.63 28.47 30.37 28.27 30.27 29.54 29.52" style="fill:#61657a;stroke:#000;stroke-linecap:round;stroke-linejoin:round;stroke-width:0.15348978340625763px"/><path d="M29.73,31.28,28.47,32l-.86-.48a.43.43,0,0,1-.24-.36,1,1,0,0,1,1.17-.42l.33,0Z" style="fill:#61657a;stroke:#000;stroke-linecap:round;stroke-linejoin:round;stroke-width:0.15348978340625763px"/><polygon points="29.74 29.63 28.45 30.38 28.45 32.31 29.73 31.6 29.74 29.63" style="fill:#5a6071;stroke:#000;stroke-linecap:round;stroke-linejoin:round;stroke-width:0.15348978340625763px"/><path d="M28.27,30.28,28,31.8h0l-.46-.27a.41.41,0,0,1-.22-.35v.29a.41.41,0,0,0,.23.37l.86.47V30.38Z" style="fill:#464c56;stroke:#000;stroke-linecap:round;stroke-linejoin:round;stroke-width:0.15348978340625763px"/><polygon points="25.93 29.17 23.69 27.87 28.17 25.28 30.41 26.57 25.93 29.17" style="fill:#b5b6b6;stroke:#000;stroke-linecap:round;stroke-linejoin:round;stroke-width:0.15348978340625763px"/><polygon points="23.69 27.87 23.69 28.48 23.69 30.47 25.93 31.77 25.93 29.79 25.93 29.17 23.69 27.87" style="fill:#727171;stroke:#000;stroke-linecap:round;stroke-linejoin:round;stroke-width:0.15348978340625763px"/><polygon points="30.41 29.17 30.41 27.22 30.41 26.57 25.93 29.17 25.93 29.79 25.93 31.77 27.37 30.93 27.37 28.96 29.9 27.51 29.9 29.47 30.41 29.17" style="fill:#9fa0a0;stroke:#000;stroke-linecap:round;stroke-linejoin:round;stroke-width:0.15348978340625763px"/><polygon points="29.9 29.47 28.22 28.48 29.9 27.51 29.9 29.47" style="fill:#898989;stroke:#000;stroke-linecap:round;stroke-linejoin:round;stroke-width:0.15348978340625763px"/><polygon points="33.85 38.18 38.81 41.05 46.76 36.42 41.91 33.55 33.85 38.18" style="fill:#f3f3e8;stroke:#231916;stroke-linecap:round;stroke-linejoin:round;stroke-width:0.15348978340625763px"/><polygon points="53.71 40.42 65.72 33.5 65.72 37.99 53.71 44.88 53.71 40.42" style="fill:#c9caca"/><path d="M65.65,33.63V37.9L53.78,44.75V40.51l11.86-6.88m.15-.27L53.62,40.42V45l12.17-7V33.39h0Z" style="fill:#231916"/><polygon points="50 38.28 62.08 31.27 65.65 33.36 53.63 40.38 50 38.28" style="fill:#dcdddd"/><path d="M62,31.39l3.45,2L53.64,40.28l-3.48-2L62,31.39m0-.18L49.8,38.28l3.79,2.2,12.14-7.11L62,31.21Z" style="fill:#231916"/><polygon points="48.84 41.03 48.84 39.83 47.83 39.21 47.87 38.1 46.8 37.5 46.8 36.48 49.81 38.27 49.77 41.52 48.84 41.03" style="fill:#e7e7de"/><path d="M46.89,36.63,49.7,38.3v3.1L49,41V39.84a.15.15,0,0,0-.08-.13L48,39.2V38.11a.15.15,0,0,0-.08-.14l-1-.49v-.85m-.16-.27v1.22l1,.53v1.17l1,.56V41.1l1,.55V38.2l-3.12-1.86h0Z" style="fill:#231916"/><polygon points="61.14 17.72 37.94 4.3 37.95 3.37 61.86 17.23 61.97 31.21 61.25 31.59 61.14 17.72" style="fill:#e7e7de"/><path d="M38,3.51,61.78,17.28l.14,13.86-.56.33-.11-13.73a.15.15,0,0,0-.08-.13L38.06,4.28V3.51m-.18-.23V4.41L61,17.77l.11,14,.87-.51-.14-14-24-14Z" style="fill:#231916"/><polygon points="41.91 47.41 41.88 46.28 40.8 45.69 40.83 44.47 39.87 43.92 39.87 42.71 38.81 42.2 38.81 41.05 18.6 29.42 18.6 15.45 37.88 4.37 37.85 3.23 17.67 14.84 17.71 33.46 18.6 33.97 18.6 33.97 41.91 47.41" style="fill:#e7e7de;stroke:#231916;stroke-linecap:round;stroke-linejoin:round;stroke-width:0.15348978340625763px"/><polygon points="17.67 14.84 18.6 15.45 37.87 4.37 37.85 3.23 17.67 14.84" style="fill:#f3f3e8;stroke:#231916;stroke-linecap:round;stroke-linejoin:round;stroke-width:0.15348978340625763px"/><polygon points="37.93 3.23 61.98 17.17 61.15 17.72 37.96 4.37 37.93 3.23" style="fill:#f3f3e8;stroke:#231916;stroke-linecap:round;stroke-linejoin:round;stroke-width:0.15348978340625763px"/><path d="M46.63,19.92a.37.37,0,0,1-.32-.15h0a.32.32,0,0,0,.63,0h0A.37.37,0,0,1,46.63,19.92Z" style="fill:#fff;stroke:#231916;stroke-linejoin:round;stroke-width:0.1332954317331314px"/><path d="M47,19.2h0a.31.31,0,0,0-.11-.23h0a.39.39,0,0,0-.55,0h0a.31.31,0,0,0-.11.27h0l.06.46a.35.35,0,0,0,.65,0l.06-.46h0Z" style="fill:#fff;stroke:#231916;stroke-linejoin:round;stroke-width:0.1332954317331314px"/><path d="M47,19.28c0-.12-.23-.14-.34-.14s-.33,0-.33.14h0v.34a.3.3,0,0,0,.55,0v-.34Z" style="fill:#f5eaf3"/><path d="M46.38,18.68V19a.29.29,0,0,0,.49,0v-.28Z" style="fill:#c9caca;stroke:#231916;stroke-linejoin:round;stroke-width:0.1332954317331314px"/><ellipse cx="46.62" cy="18.68" rx="0.25" ry="0.14" style="fill:#ddd;stroke:#231916;stroke-linejoin:round;stroke-width:0.1332954317331314px"/><path d="M46.78,18.5h0a.16.16,0,1,0-.25,0h0a.21.21,0,0,1,0,.13h0a.15.15,0,0,0,.21,0h0a.2.2,0,0,1,0-.15h0Z" style="fill:#fff;stroke:#231916;stroke-linejoin:round;stroke-width:0.1332954317331314px"/><path d="M46.34,19.28a.4.4,0,0,0,.28.09.43.43,0,0,0,.29-.12.49.49,0,0,1-.29.09A.44.44,0,0,1,46.34,19.28Z" style="fill:#fff"/><path d="M48.78,21.17a.37.37,0,0,1-.32-.15h0a.32.32,0,0,0,.63,0h0A.37.37,0,0,1,48.78,21.17Z" style="fill:#fff;stroke:#231916;stroke-linejoin:round;stroke-width:0.1332954317331314px"/><path d="M49.12,20.45h0a.31.31,0,0,0-.12-.23h0a.39.39,0,0,0-.55,0h0a.31.31,0,0,0-.11.27h0l.06.46a.35.35,0,0,0,.65,0l.06-.46h0Z" style="fill:#fff;stroke:#231916;stroke-linejoin:round;stroke-width:0.1332954317331314px"/><path d="M49.07,20.55c0-.12-.23-.14-.34-.14s-.33,0-.33.14h0v.34a.3.3,0,0,0,.55,0v-.34Z" style="fill:#f6c5c9"/><path d="M48.48,19.93v.28a.29.29,0,0,0,.49,0v-.28Z" style="fill:#c9caca;stroke:#231916;stroke-linejoin:round;stroke-width:0.1332954317331314px"/><ellipse cx="48.73" cy="19.93" rx="0.25" ry="0.14" style="fill:#ddd;stroke:#231916;stroke-linejoin:round;stroke-width:0.1332954317331314px"/><path d="M48.86,19.75h0a.16.16,0,1,0-.25,0h0a.21.21,0,0,1,0,.13h0a.15.15,0,0,0,.21,0h0a.2.2,0,0,1,0-.15h0Z" style="fill:#fff;stroke:#231916;stroke-linejoin:round;stroke-width:0.1332954317331314px"/><path d="M48.44,20.55a.4.4,0,0,0,.28.09.43.43,0,0,0,.28-.12.49.49,0,0,1-.29.09A.44.44,0,0,1,48.44,20.55Z" style="fill:#fff"/><path d="M50.78,22.28a.37.37,0,0,1-.32-.15h0a.32.32,0,0,0,.63,0h0A.37.37,0,0,1,50.78,22.28Z" style="fill:#fff;stroke:#231916;stroke-linejoin:round;stroke-width:0.1332954317331314px"/><path d="M51.13,21.58h0a.31.31,0,0,0-.11-.23h0a.39.39,0,0,0-.55,0h0a.31.31,0,0,0-.11.27h0l.06.46a.35.35,0,0,0,.65,0l.06-.46h0Z" style="fill:#fff;stroke:#231916;stroke-linejoin:round;stroke-width:0.1332954317331314px"/><path d="M51.07,21.68c0-.12-.23-.14-.34-.14s-.33,0-.33.14h0V22a.3.3,0,0,0,.6,0v-.34Z" style="fill:#f1c772"/><path d="M50.49,21.07v.28a.29.29,0,0,0,.49,0v-.28Z" style="fill:#c9caca;stroke:#231916;stroke-linejoin:round;stroke-width:0.1332954317331314px"/><ellipse cx="50.73" cy="21.06" rx="0.25" ry="0.14" style="fill:#ddd;stroke:#231916;stroke-linejoin:round;stroke-width:0.1332954317331314px"/><path d="M50.87,20.89h0a.16.16,0,1,0-.25,0h0a.21.21,0,0,1,0,.13h0a.15.15,0,0,0,.21,0h0a.2.2,0,0,1,0-.15h0Z" style="fill:#fff;stroke:#231916;stroke-linejoin:round;stroke-width:0.1332954317331314px"/><path d="M50.45,21.69a.4.4,0,0,0,.28.09.43.43,0,0,0,.29-.12.49.49,0,0,1-.29.09A.44.44,0,0,1,50.45,21.69Z" style="fill:#fff"/><path d="M53,23.55a.37.37,0,0,1-.32-.15h0a.32.32,0,0,0,.63,0h0A.37.37,0,0,1,53,23.55Z" style="fill:#fff;stroke:#231916;stroke-linejoin:round;stroke-width:0.1332954317331314px"/><path d="M53.35,22.83h0a.31.31,0,0,0-.11-.23h0a.39.39,0,0,0-.55,0h0a.31.31,0,0,0-.11.27h0l.06.46a.35.35,0,0,0,.65,0l.06-.46h0Z" style="fill:#fff;stroke:#231916;stroke-linejoin:round;stroke-width:0.1332954317331314px"/><path d="M53.29,22.93c0-.12-.23-.14-.34-.14s-.33,0-.33.14h0l.06.35a.3.3,0,0,0,.55,0v-.34Z" style="fill:#f5e9aa"/><path d="M52.7,22.28v.28a.29.29,0,0,0,.49,0v-.28Z" style="fill:#c9caca;stroke:#231916;stroke-linejoin:round;stroke-width:0.1332954317331314px"/><ellipse cx="52.95" cy="22.31" rx="0.25" ry="0.14" style="fill:#ddd;stroke:#231916;stroke-linejoin:round;stroke-width:0.1332954317331314px"/><path d="M53.08,22.13h0a.16.16,0,1,0-.25,0h0a.21.21,0,0,1,0,.13h0a.15.15,0,0,0,.21,0h0a.2.2,0,0,1,0-.15h0Z" style="fill:#fff;stroke:#231916;stroke-linejoin:round;stroke-width:0.1332954317331314px"/><path d="M52.66,22.94a.4.4,0,0,0,.28.09.43.43,0,0,0,.29-.12.49.49,0,0,1-.29.09A.44.44,0,0,1,52.66,22.94Z" style="fill:#fff"/><path d="M55.27,24.8a.37.37,0,0,1-.32-.15h0a.32.32,0,0,0,.63,0h0A.37.37,0,0,1,55.27,24.8Z" style="fill:#fff;stroke:#231916;stroke-linejoin:round;stroke-width:0.1332954317331314px"/><path d="M55.66,24.08h0a.31.31,0,0,0-.11-.23h0a.39.39,0,0,0-.55,0h0a.31.31,0,0,0-.11.27h0l.06.46a.35.35,0,0,0,.65,0l.06-.46h0Z" style="fill:#fff;stroke:#231916;stroke-linejoin:round;stroke-width:0.1332954317331314px"/><path d="M55.6,24.18c0-.12-.23-.14-.34-.14s-.33,0-.33.14h0v.34a.3.3,0,0,0,.55,0v-.34Z" style="fill:#b2ca92"/><path d="M55,23.56v.28a.29.29,0,0,0,.49,0v-.28Z" style="fill:#c9caca;stroke:#231916;stroke-linejoin:round;stroke-width:0.1332954317331314px"/><ellipse cx="55.26" cy="23.56" rx="0.25" ry="0.14" style="fill:#ddd;stroke:#231916;stroke-linejoin:round;stroke-width:0.1332954317331314px"/><path d="M55.39,23.38h0a.16.16,0,1,0-.25,0h0a.21.21,0,0,1,0,.13h0a.15.15,0,0,0,.21,0h0a.2.2,0,0,1,0-.15h0Z" style="fill:#fff;stroke:#231916;stroke-linejoin:round;stroke-width:0.1332954317331314px"/><path d="M55,24.18a.4.4,0,0,0,.28.09.43.43,0,0,0,.29-.12.49.49,0,0,1-.29.09A.44.44,0,0,1,55,24.18Z" style="fill:#fff"/><path d="M57.44,26.1a.37.37,0,0,1-.32-.15h0a.32.32,0,0,0,.63,0h0A.37.37,0,0,1,57.44,26.1Z" style="fill:#fff;stroke:#231916;stroke-linejoin:round;stroke-width:0.1332954317331314px"/><path d="M57.78,25.38h0a.31.31,0,0,0-.11-.23h0a.39.39,0,0,0-.55,0h0a.31.31,0,0,0-.11.27h0l.06.46a.35.35,0,0,0,.65,0l.06-.46h0Z" style="fill:#fff;stroke:#231916;stroke-linejoin:round;stroke-width:0.1332954317331314px"/><path d="M57.78,25.48c0-.12-.23-.14-.34-.14s-.33,0-.33.14h0v.34a.3.3,0,0,0,.55,0v-.34Z" style="fill:#8d5ea4"/><path d="M57.19,24.86v.28a.29.29,0,0,0,.49,0v-.28Z" style="fill:#c9caca;stroke:#231916;stroke-linejoin:round;stroke-width:0.1332954317331314px"/><ellipse cx="57.43" cy="24.86" rx="0.25" ry="0.14" style="fill:#ddd;stroke:#231916;stroke-linejoin:round;stroke-width:0.1332954317331314px"/><path d="M57.56,24.68h0a.16.16,0,1,0-.25,0h0a.21.21,0,0,1,0,.13h0a.15.15,0,0,0,.21,0h0a.2.2,0,0,1,0-.15h0Z" style="fill:#fff;stroke:#231916;stroke-linejoin:round;stroke-width:0.1332954317331314px"/><path d="M57.14,25.48a.4.4,0,0,0,.28.09.43.43,0,0,0,.29-.12.49.49,0,0,1-.29.09A.44.44,0,0,1,57.14,25.48Z" style="fill:#fff"/><path d="M46.25,29.22a.37.37,0,0,1-.32-.15h0a.32.32,0,0,0,.63,0h0A.37.37,0,0,1,46.25,29.22Z" style="fill:#fff;stroke:#231916;stroke-linejoin:round;stroke-width:0.1332954317331314px"/><path d="M46.64,28.5h0a.31.31,0,0,0-.11-.23h0a.39.39,0,0,0-.55,0h0a.31.31,0,0,0-.11.27h0l.06.46a.35.35,0,0,0,.65,0l.06-.46h0Z" style="fill:#fff;stroke:#231916;stroke-linejoin:round;stroke-width:0.1332954317331314px"/><path d="M46.58,28.6c0-.12-.23-.14-.34-.14s-.33,0-.33.14h0v.34a.3.3,0,0,0,.55,0V28.6Z" style="fill:#8d5ea4"/><path d="M46,28v.29a.29.29,0,0,0,.49,0V28Z" style="fill:#c9caca;stroke:#231916;stroke-linejoin:round;stroke-width:0.1332954317331314px"/><ellipse cx="46.24" cy="27.98" rx="0.25" ry="0.14" style="fill:#ddd;stroke:#231916;stroke-linejoin:round;stroke-width:0.1332954317331314px"/><path d="M46.37,27.8h0a.16.16,0,1,0-.25,0h0a.21.21,0,0,1,0,.13h0a.15.15,0,0,0,.21,0h0a.2.2,0,0,1,0-.15h0Z" style="fill:#fff;stroke:#231916;stroke-linejoin:round;stroke-width:0.1332954317331314px"/><path d="M46,28.61a.4.4,0,0,0,.28.09.43.43,0,0,0,.29-.12.49.49,0,0,1-.29.09A.44.44,0,0,1,46,28.61Z" style="fill:#fff"/><path d="M34.22,30.72a.37.37,0,0,1-.32-.15h0a.32.32,0,0,0,.63,0h0A.37.37,0,0,1,34.22,30.72Z" style="fill:#fff;stroke:#231916;stroke-linejoin:round;stroke-width:0.1332954317331314px"/><path d="M34.61,30h0a.31.31,0,0,0-.11-.23h0a.39.39,0,0,0-.55,0h0a.31.31,0,0,0-.11.27h0l.06.46a.35.35,0,0,0,.65,0l0-.5h0Z" style="fill:#fff;stroke:#231916;stroke-linejoin:round;stroke-width:0.1332954317331314px"/><path d="M34.55,30.1c0-.12-.23-.14-.34-.14s-.33,0-.33.14h0v.34a.3.3,0,0,0,.55,0V30.1Z" style="fill:#8d5ea4"/><path d="M34,29.49v.28a.29.29,0,0,0,.49,0v-.28Z" style="fill:#c9caca;stroke:#231916;stroke-linejoin:round;stroke-width:0.1332954317331314px"/><ellipse cx="34.21" cy="29.48" rx="0.25" ry="0.14" style="fill:#ddd;stroke:#231916;stroke-linejoin:round;stroke-width:0.1332954317331314px"/><path d="M34.34,29.28h0a.16.16,0,1,0-.25,0h0a.21.21,0,0,1,0,.13h0a.15.15,0,0,0,.21,0h0a.2.2,0,0,1,0-.15h0Z" style="fill:#fff;stroke:#231916;stroke-linejoin:round;stroke-width:0.1332954317331314px"/><path d="M33.93,30.11a.4.4,0,0,0,.28.09.43.43,0,0,0,.29-.12.49.49,0,0,1-.29.09A.44.44,0,0,1,33.93,30.11Z" style="fill:#fff"/><path d="M36,29.84a.37.37,0,0,1-.32-.15h0a.32.32,0,0,0,.63,0h0A.37.37,0,0,1,36,29.84Z" style="fill:#fff;stroke:#231916;stroke-linejoin:round;stroke-width:0.1332954317331314px"/><path d="M36.38,29.11h0a.31.31,0,0,0-.11-.23h0a.39.39,0,0,0-.55,0h0a.31.31,0,0,0-.11.27h0l.06.46a.35.35,0,0,0,.65,0l.06-.46h0Z" style="fill:#fff;stroke:#231916;stroke-linejoin:round;stroke-width:0.1332954317331314px"/><path d="M36.32,29.22c0-.12-.23-.14-.34-.14s-.33,0-.33.14h0v.34a.3.3,0,0,0,.55,0v-.34Z" style="fill:#8d5ea4"/><path d="M35.78,28.6v.28a.29.29,0,0,0,.49,0V28.6Z" style="fill:#c9caca;stroke:#231916;stroke-linejoin:round;stroke-width:0.1332954317331314px"/><ellipse cx="35.98" cy="28.6" rx="0.25" ry="0.14" style="fill:#ddd;stroke:#231916;stroke-linejoin:round;stroke-width:0.1332954317331314px"/><path d="M36.11,28.42h0a.16.16,0,1,0-.25,0h0a.21.21,0,0,1,0,.13h0a.15.15,0,0,0,.21,0h0a.2.2,0,0,1,0-.15h0Z" style="fill:#fff;stroke:#231916;stroke-linejoin:round;stroke-width:0.1332954317331314px"/><path d="M35.7,29.22a.4.4,0,0,0,.28.09.43.43,0,0,0,.29-.12.49.49,0,0,1-.29.09A.44.44,0,0,1,35.7,29.22Z" style="fill:#fff"/><path d="M25.78,28.45a.37.37,0,0,1-.32-.15h0a.32.32,0,0,0,.63,0h0A.37.37,0,0,1,25.78,28.45Z" style="fill:#fff;stroke:#231916;stroke-linejoin:round;stroke-width:0.1332954317331314px"/><path d="M26.17,27.73h0a.31.31,0,0,0-.11-.23h0a.39.39,0,0,0-.55,0h0a.31.31,0,0,0-.11.27h0l.06.46a.35.35,0,0,0,.65,0l.06-.46h0Z" style="fill:#fff;stroke:#231916;stroke-linejoin:round;stroke-width:0.1332954317331314px"/><path d="M26.11,27.84c0-.12-.23-.14-.34-.14s-.33,0-.33.14h0v.34a.3.3,0,0,0,.55,0v-.34Z" style="fill:#8d5ea4"/><path d="M25.52,27.22v.28a.29.29,0,0,0,.49,0v-.28Z" style="fill:#c9caca;stroke:#231916;stroke-linejoin:round;stroke-width:0.1332954317331314px"/><ellipse cx="25.77" cy="27.22" rx="0.25" ry="0.14" style="fill:#ddd;stroke:#231916;stroke-linejoin:round;stroke-width:0.1332954317331314px"/><path d="M25.9,27h0a.16.16,0,1,0-.25,0h0a.21.21,0,0,1,0,.13h0a.15.15,0,0,0,.21,0h0a.2.2,0,0,1,0-.15h0Z" style="fill:#fff;stroke:#231916;stroke-linejoin:round;stroke-width:0.1332954317331314px"/><path d="M25.48,27.84a.4.4,0,0,0,.28.09.43.43,0,0,0,.29-.12.49.49,0,0,1-.29.09A.44.44,0,0,1,25.48,27.84Z" style="fill:#fff"/></g><g id="store-taipei-outside"><polygon points="61.93 21.9 61.93 31.08 49.92 38.02 49.92 25.81 52.74 27.36 61.93 21.9" style="fill:#f3f3e8;stroke:#231916;stroke-linejoin:round;stroke-width:0.11600784212350845px"/><polygon points="53.68 40.2 65.67 33.26 65.67 37.89 53.68 44.77 53.68 40.2" style="fill:#c9caca;stroke:#231916;stroke-linejoin:round;stroke-width:0.11600784212350845px"/><polygon points="49.92 38.02 61.93 31.08 65.67 33.25 53.68 40.2 49.92 38.02" style="fill:#dcdddd;stroke:#231916;stroke-linejoin:round;stroke-width:0.11600784212350845px"/><polygon points="49.92 38.02 53.68 40.2 53.68 44.77 49.92 42.64 49.92 38.02" style="fill:#b5b6b6;stroke:#231916;stroke-linejoin:round;stroke-width:0.11600784212350845px"/><polygon points="52.74 22.74 64.58 15.7 64.58 20.33 52.74 27.36 52.74 22.74" style="fill:#f3f3e8;stroke:#231916;stroke-linejoin:round;stroke-width:0.11600784212350845px"/><polygon points="61.88 14.22 37.9 0.38 17.84 11.91 33.9 21.19 41.91 16.56 49.92 21.19 52.74 22.74 64.58 15.7 61.88 14.22" style="fill:#f3f3e8;stroke:#231916;stroke-linejoin:round;stroke-width:0.11600784212350845px"/><polygon points="33.9 21.19 41.91 25.81 49.92 21.19 41.91 16.56 33.9 21.19" style="fill:#595857;stroke:#231916;stroke-linejoin:round;stroke-width:0.11600784212350845px"/><polygon points="35.13 21.17 41.91 25.06 48.57 21.17 41.85 17.21 35.13 21.17" style="fill:#eff8fc;stroke:#231916;stroke-linejoin:round;stroke-width:0.11600784212350845px"/><polygon points="33.9 21.19 41.91 25.81 41.91 26.46 33.9 21.84 33.9 21.19" style="fill:#595857;stroke:#231916;stroke-linejoin:round;stroke-width:0.11600784212350845px"/><polygon points="41.91 25.81 41.91 26.46 49.92 21.84 49.92 21.19 41.91 25.81" style="fill:#595857;stroke:#231916;stroke-linejoin:round;stroke-width:0.11600784212350845px"/><polygon points="33.9 38.02 38.83 40.86 46.77 36.2 41.91 33.41 33.9 38.02" style="fill:none;stroke:#231916;stroke-linejoin:round;stroke-width:0.11600784212350845px"/><polygon points="38.83 42.08 46.77 37.48 46.77 36.2 38.83 40.86 38.83 42.08" style="fill:#e7e7de;stroke:#231916;stroke-linejoin:round;stroke-width:0.11600784212350845px"/><polygon points="38.83 42.08 46.77 37.48 47.88 38.02 39.88 42.59 38.83 42.08" style="fill:#f3f3e8;stroke:#231916;stroke-linejoin:round;stroke-width:0.11600784212350845px"/><polygon points="39.88 42.59 47.88 38.02 47.88 39.11 39.88 43.79 39.88 42.59" style="fill:#e7e7de;stroke:#231916;stroke-linejoin:round;stroke-width:0.11600784212350845px"/><polygon points="39.88 43.79 40.83 44.34 48.8 39.65 47.88 39.11 39.88 43.79" style="fill:#f3f3e8;stroke:#231916;stroke-linejoin:round;stroke-width:0.11600784212350845px"/><polygon points="40.83 44.34 48.8 39.65 48.8 40.9 40.83 45.56 40.83 44.34" style="fill:#e7e7de;stroke:#231916;stroke-linejoin:round;stroke-width:0.11600784212350845px"/><polygon points="40.87 45.54 48.8 40.9 49.92 41.48 41.91 46.12 40.87 45.54" style="fill:#f3f3e8;stroke:#231916;stroke-linejoin:round;stroke-width:0.11600784212350845px"/><polygon points="41.91 47.27 49.92 42.64 49.92 41.48 41.88 46.14 41.91 47.27" style="fill:#e7e7de;stroke:#231916;stroke-linejoin:round;stroke-width:0.11600784212350845px"/><polygon points="33.9 21.84 41.91 26.46 41.91 33.41 33.9 38.02 33.9 21.84" style="fill:none;stroke:#231916;stroke-linejoin:round;stroke-width:0.11600784212350845px"/><polygon points="33.9 38.02 41.91 33.41 41.91 32.14 33.9 36.62 33.9 38.02" style="fill:#e7e7de;stroke:#231916;stroke-linejoin:round;stroke-width:0.11600784212350845px"/><polygon points="33.9 36.62 33.9 36.2 41.56 31.94 41.91 32.14 33.9 36.62" style="fill:#e7e7de;stroke:#231916;stroke-linejoin:round;stroke-width:0.11600784212350845px"/><polygon points="41.91 32.14 41.56 31.94 41.56 26.26 41.91 26.46 41.91 32.14" style="fill:#e7e7de;stroke:#231916;stroke-linejoin:round;stroke-width:0.11600784212350845px"/><polygon points="46.77 36.2 46.77 23.65 41.91 26.46 41.91 33.41 46.77 36.2" style="fill:#727171;stroke:#231916;stroke-linejoin:round;stroke-width:0.11600784212350845px"/><polygon points="42.8 25.94 42.8 33.92 41.91 33.41 41.91 26.46 42.8 25.94" style="fill:none;stroke:#231916;stroke-linejoin:round;stroke-width:0.11600784212350845px"/><polygon points="46.13 24.02 46.13 35.08 43.24 33.41 43.24 25.69 46.13 24.02" style="fill:#eff8fc;stroke:#231916;stroke-linejoin:round;stroke-width:0.11600784212350845px"/><polygon points="43.48 25.81 43.48 28.51 43.69 28.65 43.69 25.96 43.48 25.81" style="fill:#c9caca;stroke:#231916;stroke-linejoin:round;stroke-width:0.11600784212350845px"/><polygon points="52.74 27.36 52.74 36.39 59.88 32.26 59.88 23.12 52.74 27.36" style="fill:#eff8fc;stroke:#231916;stroke-linejoin:round;stroke-width:0.11600784212350845px"/><polygon points="45.63 22.89 42.53 21.1 45.53 19.38 45.03 19.08 42 20.8 38.84 18.98 38.23 19.34 41.37 21.16 38.23 22.95 38.77 23.26 41.89 21.47 44.99 23.26 45.63 22.89" style="fill:#595857;stroke:#231916;stroke-linejoin:round;stroke-width:0.11600784212350845px"/><polygon points="49.92 21.19 49.92 21.84 46.77 23.65 46.77 37.48 47.88 38.02 47.88 39.11 48.8 39.65 48.8 40.9 49.92 41.48 49.92 25.81 52.74 27.36 52.74 22.74 49.92 21.19" style="fill:#e7e7de;stroke:#231916;stroke-linejoin:round;stroke-width:0.11600784212350845px"/><polygon points="33.9 21.84 41.56 26.26 41.56 31.94 33.9 36.2 33.9 21.84" style="fill:#eff8fc;stroke:#231916;stroke-linejoin:round;stroke-width:0.11600784212350845px"/><polygon points="33.9 38.02 41.91 33.41 46.77 36.2 38.83 40.86 33.9 38.02" style="fill:#f3f3e8;stroke:#231916;stroke-linejoin:round;stroke-width:0.11600784212350845px"/><polygon points="34.87 43.16 41.91 47.27 41.88 46.14 40.83 45.56 40.83 44.34 39.88 43.79 39.88 42.59 38.83 42.08 38.83 40.86 37.9 40.33 34.26 38.22 34.26 38.22 34.26 38.22 33.9 38.02 33.9 38.03 33.9 38.03 33.9 21.19 17.84 11.91 17.88 33.39 33.01 42.08 34.87 43.16 34.87 43.16" style="fill:#e7e7de;stroke:#231916;stroke-linejoin:round;stroke-width:0.11600784212350845px"/><path d="M37.91.38,64.59,15.71v4.62L61.94,21.9v9.18l3.74,2.17v4.64l-12,6.88-3.77-2.13-8,4.62-24-13.87V11.91L38,.37M38,0l-.15.09L17.76,11.64l-.16.09V33.57l.15.09,24,13.87.15.09.15-.09L49.91,43l3.61,2,.15.09.15-.09,12-6.88L66,38V33h-.2L62.2,30.9V22.08l2.5-1.48.15-.09v-5l-.16-.09L38,.09,37.86,0Z" style="fill:#231916"/><path d="M19.81,21.63l.16.1.1.06,0,.25L20,22l-.21-.14-.15-.07-.13,0-.09.05,0,.14,0,.18a1.33,1.33,0,0,0,.15.24l.15.18.17.22a1.33,1.33,0,0,1,.2.34.88.88,0,0,1,.07.33.43.43,0,0,1-.07.26.25.25,0,0,1-.17.11.55.55,0,0,1-.22,0,1.09,1.09,0,0,1-.29-.13l-.18-.11-.1-.07v-.24l.1.07.2.13.18.08a.55.55,0,0,0,.17,0l.12,0,0-.15,0-.21a1.13,1.13,0,0,0-.13-.23l-.16-.19-.18-.22a1.58,1.58,0,0,1-.19-.33.93.93,0,0,1-.05-.31.4.4,0,0,1,.05-.23l.13-.11a.35.35,0,0,1,.21,0A1.22,1.22,0,0,1,19.81,21.63Z"/><path d="M21.61,23.66a1.27,1.27,0,0,1,.08.42.66.66,0,0,1-.09.38.32.32,0,0,1-.25.14.71.71,0,0,1-.29,0,2,2,0,0,1-.3-.15v.76L20.54,25s0-.17,0-.45V23.23c0-.19,0-.4,0-.62l.08,0,.06,0a3.53,3.53,0,0,1,.43.29,1.71,1.71,0,0,1,.28.29A1.43,1.43,0,0,1,21.61,23.66Zm-.21.59a.45.45,0,0,0,.07-.29.85.85,0,0,0-.06-.32,1.07,1.07,0,0,0-.16-.28,1.12,1.12,0,0,0-.2-.21,1.5,1.5,0,0,0-.24-.17l0,0,0,0v.2c0,.11,0,.29,0,.57,0,.06,0,.14,0,.25v.24l.24.12a.54.54,0,0,0,.21,0,.22.22,0,0,0,.2-.1"/><path d="M22.91,24.38a1.66,1.66,0,0,1,0,.39v.94l-.12-.06-.28-.15a1.32,1.32,0,0,1-.22-.16,1.42,1.42,0,0,1-.19-.18.92.92,0,0,1-.17-.27.7.7,0,0,1-.07-.29.28.28,0,0,1,.08-.23.26.26,0,0,1,.21-.06,1.21,1.21,0,0,1,.23.05l.32.14a.87.87,0,0,0,0-.23l-.13-.2-.13-.12-.16-.11-.1,0-.12-.06,0-.21.07,0,.16.1a1.39,1.39,0,0,1,.27.2,1,1,0,0,1,.21.25A1.15,1.15,0,0,1,22.91,24.38Zm-.16.52v-.2l-.2-.09a.88.88,0,0,0-.24-.07l-.13,0-.05.14,0,.21.13.18.14.13.16.1.07,0,.08,0V24.9"/><path d="M24.15,24.7l0,.26-.22,0-.35,0v.9c0,.19,0,.28,0,.3L23.42,26v-.18c0-.11,0-.28,0-.53s0-.25,0-.44v-.52l.2.12v.25h.3Z"/><path d="M25.57,26.05a1.65,1.65,0,0,1,0,.39,1,1,0,0,1-.05.33.42.42,0,0,1-.16.2.35.35,0,0,1-.19,0,.65.65,0,0,1-.24-.09,1.21,1.21,0,0,1-.24-.19,1.66,1.66,0,0,1-.2-.28,1.49,1.49,0,0,1-.15-.39,1.58,1.58,0,0,1-.05-.4.85.85,0,0,1,0-.32.46.46,0,0,1,.14-.2.3.3,0,0,1,.21-.05.52.52,0,0,1,.25.09,1.07,1.07,0,0,1,.25.2,1.28,1.28,0,0,1,.19.28A2.1,2.1,0,0,1,25.57,26.05Zm-.2.53a.82.82,0,0,0,0-.26,1.22,1.22,0,0,0,0-.32,1.21,1.21,0,0,0-.12-.32l-.12-.17L25,25.39l-.16-.05-.13,0a.29.29,0,0,0-.11.16.82.82,0,0,0,0,.26,1.53,1.53,0,0,0,0,.34,1.35,1.35,0,0,0,.13.32l.12.15.15.12.15.06.13,0a.41.41,0,0,0,.12-.17"/><path d="M26.61,25.62l.16.1.1.06,0,.25-.1-.06-.21-.14-.15-.07-.14,0-.08.06,0,.14,0,.18a1.13,1.13,0,0,0,.15.24l.14.17.18.22a1.61,1.61,0,0,1,.2.34.88.88,0,0,1,.07.33.43.43,0,0,1-.07.26.25.25,0,0,1-.17.11.58.58,0,0,1-.23,0,1,1,0,0,1-.28-.13L26,27.52l-.1-.07v-.24l.1.08.2.13.18.08a.49.49,0,0,0,.17,0l.12,0,0-.15,0-.21a1.21,1.21,0,0,0-.14-.23l-.16-.19a2.18,2.18,0,0,1-.18-.22,1.42,1.42,0,0,1-.19-.33.93.93,0,0,1-.05-.31.49.49,0,0,1,0-.23l.14-.11a.36.36,0,0,1,.2,0A1.33,1.33,0,0,1,26.61,25.62Z"/><path d="M28.4,27.64a1.24,1.24,0,0,1,.07.42.66.66,0,0,1-.09.38.31.31,0,0,1-.24.14.82.82,0,0,1-.29,0,2,2,0,0,1-.31-.15v.76L27.34,29v-.46c0-.29,0-.57,0-.86v-.5c0-.19,0-.4,0-.62l.08,0,.06,0a3.61,3.61,0,0,1,.43.29,1.65,1.65,0,0,1,.27.29A1.47,1.47,0,0,1,28.4,27.64Zm-.21.59a.45.45,0,0,0,.07-.29,1,1,0,0,0-.06-.32,1.2,1.2,0,0,0-.16-.28,1.12,1.12,0,0,0-.2-.21,1.54,1.54,0,0,0-.24-.17l0,0,0,0v.2c0,.1,0,.29,0,.57v.49l.25.12a.54.54,0,0,0,.21,0,.24.24,0,0,0,.2-.1"/><path d="M29.71,28.36a1.66,1.66,0,0,1,0,.39v.94l-.12-.06-.29-.15a1.25,1.25,0,0,1-.21-.15,1.29,1.29,0,0,1-.19-.18.92.92,0,0,1-.17-.27.63.63,0,0,1-.07-.29.28.28,0,0,1,.08-.23A.26.26,0,0,1,29,28.3a1.31,1.31,0,0,1,.22,0l.33.14a.73.73,0,0,0-.05-.24l-.13-.2-.13-.11-.16-.11-.1-.05-.11-.06,0-.21.08,0,.16.1a1.39,1.39,0,0,1,.27.2.93.93,0,0,1,.2.25A1,1,0,0,1,29.71,28.36Zm-.16.52v-.2l-.2-.09a.94.94,0,0,0-.25-.07l-.13,0-.06.14.05.21.13.17.15.13.16.1.07,0,.08,0v-.52"/><path d="M31.06,28.79V29h0l-.25-.13a.94.94,0,0,0-.2,0,.25.25,0,0,0-.21.08.44.44,0,0,0-.07.26,1.05,1.05,0,0,0,.07.37,1.24,1.24,0,0,0,.19.31,1.32,1.32,0,0,0,.21.2l.24.17,0,0,0,0,0,.21,0,0,0,0a2.51,2.51,0,0,1-.32-.22,2,2,0,0,1-.26-.27,1.55,1.55,0,0,1-.25-.43,1.21,1.21,0,0,1-.09-.45.59.59,0,0,1,.08-.32.34.34,0,0,1,.22-.15.63.63,0,0,1,.28,0,1.63,1.63,0,0,1,.34.15l0,0Z"/><path d="M32.15,30.89l.14.07.07,0,0,.21-.07,0-.14-.08a1.71,1.71,0,0,1-.36-.28,1.54,1.54,0,0,1-.25-.34,1.42,1.42,0,0,1-.15-.34,1.23,1.23,0,0,1-.06-.39,1,1,0,0,1,0-.32.62.62,0,0,1,.13-.2.25.25,0,0,1,.19-.05.49.49,0,0,1,.24.08.94.94,0,0,1,.22.17,1.16,1.16,0,0,1,.16.23,1.45,1.45,0,0,1,.12.33,2.53,2.53,0,0,1,0,.4l-1-.56a1.08,1.08,0,0,0,.06.35,1.25,1.25,0,0,0,.18.35,1.39,1.39,0,0,0,.18.19A1.72,1.72,0,0,0,32.15,30.89Zm-.49-1.47a.33.33,0,0,0-.13.23l.73.43a1,1,0,0,0-.11-.38.64.64,0,0,0-.24-.25.22.22,0,0,0-.25,0"/></g></svg>