<svg id="airport" xmlns="http://www.w3.org/2000/svg" viewBox="0 0 118.8 93.3"><title>airport</title><g id="airport-outside" class="building-outside"><polygon points="0.3 60.8 56.3 93.1 118.6 57.2 62.5 24.9 0.3 60.8" style="fill:#c9caca;stroke:#000;stroke-linejoin:round;stroke-width:0.0718793123960495px"/><polygon points="50 89.5 112.4 53.6 99.8 46.4 37.6 82.3 50 89.5" style="fill:#9fa0a0;stroke:#000;stroke-linejoin:round;stroke-width:0.0718793123960495px"/><polygon points="29.6 61.5 29.6 49.6 19.3 43.6 19.3 55.5 29.6 61.5" style="fill:#dcdddd;stroke:#000;stroke-linejoin:round;stroke-width:0.0718793123960495px"/><path d="M42.1,45.5" transform="translate(-2.3 -1.8)" style="fill:none;stroke:#000;stroke-linejoin:round;stroke-width:0.0718793123960495px"/><polygon points="39.8 43.7 29.5 49.6 29.5 61.5 39.8 55.5 39.8 48.7 55.2 39.8 55.2 34.7 39.8 43.7" style="fill:#efefef;stroke:#000;stroke-linejoin:round;stroke-width:0.0718793123960495px"/><polygon points="60.4 43.6 55.2 39.8 39.8 48.7 45 52.6 60.4 43.6" style="fill:#9fa0a0;stroke:#000;stroke-linejoin:round;stroke-width:0.0718793123960495px"/><polygon points="55.3 34.7 65.5 40.7 65.5 52.5 55.9 47 60.4 44.4 60.4 43.6 55.3 39.8 55.3 34.7" style="fill:#dcdddd;stroke:#000;stroke-linejoin:round;stroke-width:0.0718793123960495px"/><polygon points="65.5 52.5 81 43.6 81 14 70.7 19.9 70.6 37.7 65.5 40.7 65.5 52.5" style="fill:#efefef;stroke:#000;stroke-linejoin:round;stroke-width:0.0718793123960495px"/><polygon points="70.6 37.7 50.2 25.8 50.2 8 70.7 19.9 70.6 37.7" style="fill:#dcdddd;stroke:#000;stroke-linejoin:round;stroke-width:0.0718793123960495px"/><polygon points="19.3 43.6 50.2 25.8 70.6 37.7 65.5 40.7 55.3 34.7 29.6 49.6 19.3 43.6" style="fill:#f7f8f8;stroke:#000;stroke-linejoin:round;stroke-width:0.0718793123960495px"/><polygon points="60.4 49.6 60.4 44.4 59.8 44.8 59.8 49.9 60.4 49.6" style="fill:#9fa0a0;stroke:#000;stroke-linejoin:round;stroke-width:0.0718793123960495px"/><polygon points="55.6 52.4 55.6 47.2 54.9 47.6 54.9 52.8 55.6 52.4" style="fill:#9fa0a0;stroke:#000;stroke-linejoin:round;stroke-width:0.0718793123960495px"/><polygon points="50.5 55.4 50.5 50.2 49.8 50.5 49.8 55.7 50.5 55.4" style="fill:#9fa0a0;stroke:#000;stroke-linejoin:round;stroke-width:0.0718793123960495px"/><polygon points="45 53.3 44.6 53.1 44.7 58.3 45 58.5 45.3 58.3 45.3 53.1 45 53.3" style="fill:#9fa0a0;stroke:#000;stroke-linejoin:round;stroke-width:0.0718793123960495px"/><polygon points="39.9 55.5 39.8 50.3 40.5 50.7 40.5 55.8 39.9 55.5" style="fill:#727171;stroke:#000;stroke-linejoin:round;stroke-width:0.0718793123960495px"/><polygon points="45 53.3 45 52.6 39.8 48.7 39.8 50.3 45 53.3" style="fill:#727171;stroke:#000;stroke-linejoin:round;stroke-width:0.0718793123960495px"/><polygon points="45 52.6 45 53.3 60.4 44.4 60.4 43.6 45 52.6" style="fill:#9fa0a0;stroke:#000;stroke-linejoin:round;stroke-width:0.0718793123960495px"/><polygon points="81 12.1 60.4 0.3 50.2 6.2 70.7 18.1 81 12.1" style="fill:#c9caca;stroke:#000;stroke-linejoin:round;stroke-width:0.0718793123960495px"/><polygon points="50.2 8 50.2 6.2 70.7 18.1 70.7 19.9 50.2 8" style="fill:#9fa0a0;stroke:#000;stroke-linejoin:round;stroke-width:0.0718793123960495px"/><polygon points="81 12.1 81 14 70.7 19.9 70.7 18.1 81 12.1" style="fill:#dcdddd;stroke:#000;stroke-linejoin:round;stroke-width:0.0718793123960495px"/><polygon points="51.6 6.2 60.4 1.1 79.5 12.2 70.7 17.3 51.6 6.2" style="fill:#c9caca;stroke:#000;stroke-linejoin:round;stroke-width:0.0718793123960495px"/><polygon points="52.4 6.7 60.4 2.1 78.7 12.7 70.7 17.3 52.4 6.7" style="fill:#c9caca;stroke:#000;stroke-linejoin:round;stroke-width:0.0718793123960495px"/><polygon points="60.4 1.1 60.4 2.1 52.4 6.7 51.6 6.2 60.4 1.1" style="fill:#dcdddd;stroke:#000;stroke-linejoin:round;stroke-width:0.0718793123960495px"/><polygon points="78.7 12.7 79.5 12.2 60.4 1.1 60.4 2.1 78.7 12.7" style="fill:#9fa0a0;stroke:#000;stroke-linejoin:round;stroke-width:0.0718793123960495px"/><polygon points="19.2 37.7 29.6 49.6 55.3 34.7 45.1 22.9 19.2 37.7" style="fill:#c9caca;stroke:#000;stroke-linejoin:round;stroke-width:0.0718793123960495px"/><polygon points="19.2 37.7 19.2 39.5 26.3 47.6 29.6 49.6 19.2 37.7" style="fill:#9fa0a0;stroke:#000;stroke-linejoin:round;stroke-width:0.0718793123960495px"/><path d="M23.9,44.1" transform="translate(-2.3 -1.8)" style="fill:none;stroke:#000;stroke-linejoin:round;stroke-width:0.0718793123960495px"/><polygon points="19.9 40.3 19.9 44 20.9 44.6 20.9 41.4 19.9 40.3" style="fill:#9fa0a0;stroke:#000;stroke-linejoin:round;stroke-width:0.0718793123960495px"/><polygon points="20.9 44.6 22.7 43.5 20.9 41.4 20.9 44.6" style="fill:#727171;stroke:#000;stroke-linejoin:round;stroke-width:0.0718793123960495px"/><polygon points="70.6 21.6 51.8 10.7 51.8 13.6 70.6 24.4 70.6 21.6" style="fill:#a1cae3;stroke:#000;stroke-linejoin:round;stroke-width:0.0718793123960495px"/><polygon points="51.8 10.7 52.2 10.9 52.2 13.3 51.8 13.6 51.8 10.7" style="fill:#dcdddd;stroke:#000;stroke-linejoin:round;stroke-width:0.0718793123960495px"/><polygon points="51.8 13.6 52.2 13.3 70.6 23.9 70.6 24.4 51.8 13.6" style="fill:#dcdddd;stroke:#000;stroke-linejoin:round;stroke-width:0.0718793123960495px"/><polygon points="70.6 21.6 79.3 16.6 79.3 19.4 70.6 24.4 70.6 21.6" style="fill:#a9dcf3;stroke:#000;stroke-linejoin:round;stroke-width:0.0718793123960495px"/><polygon points="79.3 16.6 78.9 16.8 78.9 19.2 79.3 19.4 79.3 16.6" style="fill:#dcdddd;stroke:#000;stroke-linejoin:round;stroke-width:0.0718793123960495px"/><polygon points="70.6 23.9 78.9 19.2 79.3 19.4 70.6 24.4 70.6 23.9" style="fill:#dcdddd;stroke:#000;stroke-linejoin:round;stroke-width:0.0718793123960495px"/><polygon points="52.2 13.3 70.6 23.9 78.9 19.2 79.3 19.4 70.6 24.4 51.8 13.6 52.2 13.3" style="fill:#dcdddd;stroke:#000;stroke-linejoin:round;stroke-width:0.0718793123960495px"/><polygon points="70.6 25.5 79.3 20.5 79.3 23.4 70.6 28.3 70.6 25.5" style="fill:#a9dcf3;stroke:#000;stroke-linejoin:round;stroke-width:0.0718793123960495px"/><polygon points="79.3 20.5 78.9 20.7 78.9 23.1 79.3 23.4 79.3 20.5" style="fill:#dcdddd;stroke:#000;stroke-linejoin:round;stroke-width:0.0718793123960495px"/><polygon points="70.6 27.8 78.9 23.1 79.3 23.4 70.6 28.3 70.6 27.8" style="fill:#dcdddd;stroke:#000;stroke-linejoin:round;stroke-width:0.0718793123960495px"/><polygon points="70.6 25.5 51.8 14.6 51.8 17.5 70.6 28.3 70.6 25.5" style="fill:#a1cae3;stroke:#000;stroke-linejoin:round;stroke-width:0.0718793123960495px"/><polygon points="51.8 14.6 52.2 14.8 52.2 17.2 51.8 17.5 51.8 14.6" style="fill:#dcdddd;stroke:#000;stroke-linejoin:round;stroke-width:0.0718793123960495px"/><polygon points="51.8 17.5 52.2 17.2 70.6 27.8 70.6 28.3 51.8 17.5" style="fill:#dcdddd;stroke:#000;stroke-linejoin:round;stroke-width:0.0718793123960495px"/><polygon points="52.2 17.2 70.6 27.8 78.9 23.1 79.3 23.3 70.6 28.3 51.8 17.5 52.2 17.2" style="fill:#dcdddd;stroke:#000;stroke-linejoin:round;stroke-width:0.0718793123960495px"/><polygon points="70.6 29.3 79.3 24.3 79.3 27.2 70.6 32.1 70.6 29.3" style="fill:#a9dcf3;stroke:#000;stroke-linejoin:round;stroke-width:0.0718793123960495px"/><polygon points="79.3 24.3 78.9 24.5 78.9 26.9 79.3 27.2 79.3 24.3" style="fill:#dcdddd;stroke:#000;stroke-linejoin:round;stroke-width:0.0718793123960495px"/><polygon points="70.6 31.6 78.9 26.9 79.3 27.2 70.6 32.1 70.6 31.6" style="fill:#dcdddd;stroke:#000;stroke-linejoin:round;stroke-width:0.0718793123960495px"/><polygon points="70.6 29.3 51.8 18.4 51.8 21.3 70.6 32.1 70.6 29.3" style="fill:#a1cae3;stroke:#000;stroke-linejoin:round;stroke-width:0.0718793123960495px"/><polygon points="51.8 18.4 52.2 18.6 52.2 21 51.8 21.3 51.8 18.4" style="fill:#dcdddd;stroke:#000;stroke-linejoin:round;stroke-width:0.0718793123960495px"/><polygon points="51.8 21.3 52.2 21 70.6 31.6 70.6 32.1 51.8 21.3" style="fill:#dcdddd;stroke:#000;stroke-linejoin:round;stroke-width:0.0718793123960495px"/><polygon points="52.2 21 70.6 31.6 78.9 26.9 79.3 27.1 70.6 32.1 51.8 21.3 52.2 21" style="fill:#dcdddd;stroke:#000;stroke-linejoin:round;stroke-width:0.0718793123960495px"/><polygon points="70.6 33 79.3 28 79.3 30.9 70.6 35.9 70.6 33" style="fill:#a9dcf3;stroke:#000;stroke-linejoin:round;stroke-width:0.0718793123960495px"/><polygon points="79.3 28 78.9 28.2 78.9 30.6 79.3 30.9 79.3 28" style="fill:#dcdddd;stroke:#000;stroke-linejoin:round;stroke-width:0.0718793123960495px"/><polygon points="70.6 35.3 78.9 30.6 79.3 30.9 70.6 35.9 70.6 35.3" style="fill:#dcdddd;stroke:#000;stroke-linejoin:round;stroke-width:0.0718793123960495px"/><polygon points="70.6 33 51.8 22.2 51.8 25 70.6 35.9 70.6 33" style="fill:#a1cae3;stroke:#000;stroke-linejoin:round;stroke-width:0.0718793123960495px"/><polygon points="51.8 22.2 52.2 22.4 52.2 24.7 51.8 25 51.8 22.2" style="fill:#dcdddd;stroke:#000;stroke-linejoin:round;stroke-width:0.0718793123960495px"/><polygon points="51.8 25 52.2 24.7 70.6 35.3 70.6 35.9 51.8 25" style="fill:#dcdddd;stroke:#000;stroke-linejoin:round;stroke-width:0.0718793123960495px"/><polygon points="52.2 24.7 70.6 35.3 78.9 30.6 79.3 30.9 70.6 35.9 51.8 25 52.2 24.7" style="fill:#dcdddd;stroke:#000;stroke-linejoin:round;stroke-width:0.0718793123960495px"/><polygon points="29.5 51.3 38.1 46.4 38.1 49.2 29.5 54.2 29.5 51.3" style="fill:#a9dcf3;stroke:#000;stroke-linejoin:round;stroke-width:0.0718793123960495px"/><polygon points="38.1 46.4 37.8 46.6 37.8 49 38.1 49.2 38.1 46.4" style="fill:#dcdddd;stroke:#000;stroke-linejoin:round;stroke-width:0.0718793123960495px"/><polygon points="29.5 53.7 37.8 49 38.5 49 29.5 54.2 29.5 53.7" style="fill:#dcdddd;stroke:#000;stroke-linejoin:round;stroke-width:0.0718793123960495px"/><polygon points="29.5 51.3 20.9 46.4 20.9 49.2 29.5 54.2 29.5 51.3" style="fill:#a1cae3;stroke:#000;stroke-linejoin:round;stroke-width:0.0718793123960495px"/><polygon points="20.9 46.4 21.3 46.6 21.3 49 20.9 49.2 20.9 46.4" style="fill:#dcdddd;stroke:#000;stroke-linejoin:round;stroke-width:0.0718793123960495px"/><polygon points="20.9 49.2 21.3 49 29.5 53.7 29.5 54.2 20.9 49.2" style="fill:#dcdddd;stroke:#000;stroke-linejoin:round;stroke-width:0.0718793123960495px"/><polygon points="21.3 49 29.5 53.7 37.8 49 38.1 49.2 29.5 54.2 20.9 49.2 21.3 49" style="fill:#dcdddd;stroke:#000;stroke-linejoin:round;stroke-width:0.0718793123960495px"/><polygon points="29.5 56.4 38.1 51.4 38.1 54.3 29.5 59.3 29.5 56.4" style="fill:#a9dcf3;stroke:#000;stroke-linejoin:round;stroke-width:0.0718793123960495px"/><polygon points="38.1 51.4 37.8 51.6 37.8 54 38.1 54.3 38.1 51.4" style="fill:#dcdddd;stroke:#000;stroke-linejoin:round;stroke-width:0.0718793123960495px"/><polygon points="29.5 58.7 37.8 54 38.1 54.3 29.5 59.3 29.5 58.7" style="fill:#dcdddd;stroke:#000;stroke-linejoin:round;stroke-width:0.0718793123960495px"/><polygon points="29.5 56.4 20.9 51.4 20.9 54.3 29.5 59.3 29.5 56.4" style="fill:#a1cae3;stroke:#000;stroke-linejoin:round;stroke-width:0.0718793123960495px"/><polygon points="20.9 51.4 21.3 51.6 21.3 54 20.9 54.3 20.9 51.4" style="fill:#dcdddd;stroke:#000;stroke-linejoin:round;stroke-width:0.0718793123960495px"/><polygon points="20.9 54.3 21.3 54 29.5 58.7 29.5 59.3 20.9 54.3" style="fill:#dcdddd;stroke:#000;stroke-linejoin:round;stroke-width:0.0718793123960495px"/><polygon points="21.3 54 29.5 58.7 37.8 54 38.1 54.3 29.5 59.3 20.9 54.3 21.3 54" style="fill:#dcdddd;stroke:#000;stroke-linejoin:round;stroke-width:0.0718793123960495px"/><path d="M52.8,57.1" transform="translate(-2.3 -1.8)" style="fill:#9fa0a0;stroke:#000;stroke-linejoin:round;stroke-width:0.0718793123960495px"/><polygon points="36.1 75.1 32.8 77 29.5 75.1 29.5 63.7 32.8 65.6 36.1 63.7 36.1 75.1" style="fill:#f7f8f8;stroke:#000;stroke-linejoin:round;stroke-width:0.0718793123960495px"/><polygon points="36.8 63.3 32.8 65.6 28.7 63.3 28.7 62.1 32.8 64.3 36.8 62.1 36.8 63.3" style="fill:#dcdddd;stroke:#000;stroke-linejoin:round;stroke-width:0.0718793123960495px"/><polygon points="32.8 65.6 32.8 64.3 36.9 62.1 36.8 63.3 32.8 65.6" style="fill:#efefef;stroke:#000;stroke-linejoin:round;stroke-width:0.0718793123960495px"/><polygon points="32.8 65.6 32.8 77 29.5 75.1 29.5 63.7 32.8 65.6" style="fill:#dcdddd;stroke:#000;stroke-linejoin:round;stroke-width:0.0718793123960495px"/><polygon points="36.1 63.7 36.1 75.1 32.8 77 32.8 65.6 36.1 63.7" style="fill:#efefef;stroke:#000;stroke-linejoin:round;stroke-width:0.0718793123960495px"/><polygon points="32.8 64.3 32.8 60.6 37.8 58 36.8 62.1 32.8 64.3" style="fill:#a9dcf3;stroke:#000;stroke-linejoin:round;stroke-width:0.0718793123960495px"/><polygon points="32.8 64.3 32.8 60.6 27.7 58 28.7 62.1 32.8 64.3" style="fill:#a1cae3;stroke:#000;stroke-linejoin:round;stroke-width:0.0718793123960495px"/><polygon points="27.1 57.7 32.7 60.6 38.4 57.7 38.6 55.9 32.8 52.9 26.9 56 27.1 57.7" style="fill:#595757;stroke:#000;stroke-linejoin:round;stroke-width:0.0718793123960495px"/><polygon points="26.9 56 32.7 58.9 38.6 55.9 32.8 52.9 26.9 56" style="fill:#c9caca;stroke:#000;stroke-linejoin:round;stroke-width:0.0718793123960495px"/><polygon points="32.7 60.6 32.7 58.9 26.9 56 27.1 57.7 32.7 60.6" style="fill:#dcdddd;stroke:#000;stroke-linejoin:round;stroke-width:0.0718793123960495px"/><polygon points="38.4 57.7 38.6 55.9 32.7 58.9 32.7 60.6 38.4 57.7" style="fill:#efefef;stroke:#000;stroke-linejoin:round;stroke-width:0.0718793123960495px"/><polygon points="51.1 90.1 113.5 54.2 112.4 53.6 50.1 89.5 51.1 90.1" style="fill:#b5b5b6;stroke:#000;stroke-linejoin:round;stroke-width:0.0718793123960495px"/><polygon points="37.7 82.3 100 46.4 98.9 45.8 36.6 81.7 37.7 82.3" style="fill:#b5b5b6;stroke:#000;stroke-linejoin:round;stroke-width:0.0718793123960495px"/><line x1="22.7" y1="35.8" x2="33.1" y2="47.6" style="fill:none;stroke:#000;stroke-linejoin:round;stroke-width:0.0718793123960495px"/><polygon points="26.2 33.7 29.6 31.8 40 43.6 36.5 45.6 26.2 33.7" style="fill:#c9caca;stroke:#000;stroke-linejoin:round;stroke-width:0.0718793123960495px"/><polygon points="32.7 30 36.2 28 46.5 39.8 43 41.8 32.7 30" style="fill:#c9caca;stroke:#000;stroke-linejoin:round;stroke-width:0.0718793123960495px"/><polygon points="39.6 26 43.1 24.1 53.4 35.8 49.9 37.8 39.6 26" style="fill:#c9caca;stroke:#000;stroke-linejoin:round;stroke-width:0.0718793123960495px"/><path d="M62.7,2.1,83.3,14V37.4L120.9,59,58.6,94.9,2.6,62.6l19-11V45.4l.6-.4V42l-.7-.8V39.4L47.3,24.6l3.4,3.9,1.7-1V8L62.7,2.1m0-.3h-.1L52.3,7.7c-.1.1-.1.1-.1.2V27.4l-1.4.8-3.2-3.7c-.1-.1-.1-.1-.2-.1h-.1L21.4,39.3c-.1.1-.1.1-.1.2v1.8c0,.1,0,.1.1.2l.6.7v2.7l-.5.3c-.1.1-.1.1-.1.2v6.1L2.4,62.4c-.1.1-.1.1-.1.2a.35.35,0,0,0,.1.2l56,32.3h.2L121,59.2c.1-.1.1-.1.1-.2a.35.35,0,0,0-.1-.2L83.6,37.1V13.9a.35.35,0,0,0-.1-.2L62.8,1.8Z" transform="translate(-2.3 -1.8)"/></g></svg>