<svg id="extraction" xmlns="http://www.w3.org/2000/svg" viewBox="0 0 101.29 78.98"><title>extraction</title><polygon id="shadow" class="shadow" points="25.14 50.18 25.14 35.5 4.42 39.26 0 57.24 34.15 78.98 66.8 74.87 25.14 50.18" style="fill:#101111;opacity:0.10000000149011612;isolation:isolate"/><g id="extraction-inside" class="building-inside"><polygon points="25.07 22.18 26.37 22.92 26.37 49.88 66.12 72.91 66.12 74.32 25.07 50.62 25.07 22.18" style="fill:#e0e2db;stroke:#231815;stroke-linejoin:round;stroke-width:0.13921183347702026px"/><polygon points="25.07 22.18 26.37 22.92 57.86 4.73 97.56 27.65 98.96 26.92 57.91 3.22 25.07 22.18" style="fill:#fdfef8;stroke:#231815;stroke-linejoin:round;stroke-width:0.13921183347702026px"/><polygon points="98.96 26.92 97.56 27.65 97.56 54.56 66.12 72.91 66.12 74.32 98.96 55.36 98.96 26.92" style="fill:#f2f4ed;stroke:#231815;stroke-linejoin:round;stroke-width:0.13921183347702026px"/><polygon points="26.37 22.92 57.86 4.73 57.91 31.66 26.37 49.88 26.37 22.92" style="fill:#f2f4ed;stroke:#231815;stroke-linejoin:round;stroke-width:0.13921183347702026px"/><polygon points="57.86 4.73 97.56 27.65 97.56 54.56 57.91 31.66 57.86 4.73" style="fill:#e0e2db;stroke:#231815;stroke-linejoin:round;stroke-width:0.13921183347702026px"/><polygon points="26.37 49.88 66.12 72.91 97.56 54.56 57.91 31.66 26.37 49.88" style="fill:#fdfef8;stroke:#231815;stroke-linejoin:round;stroke-width:0.13921183347702026px"/><path d="M57.91,3.23l41,23.7V55.36l-32.84,19-41-23.7V22.16l32.84-19m0-.37a.37.37,0,0,0-.19,0l-32.84,19a.37.37,0,0,0-.19.32V50.62a.37.37,0,0,0,.19.32l41,23.7a.37.37,0,0,0,.37,0l32.84-19a.37.37,0,0,0,.19-.32V26.92a.37.37,0,0,0-.19-.32l-41-23.7a.37.37,0,0,0-.19,0Z" transform="translate(0 0)" style="fill:#231815"/><path d="M74.5,36.54a3.89,3.89,0,0,1,1.92.46,1.26,1.26,0,0,1,.76,1.28h0v6.46a1.43,1.43,0,0,1,.44.75v-.06h0l.85,3.17h0c.26.75-.11,1.56-1.11,2.14a5.91,5.91,0,0,1-2.89.69,6,6,0,0,1-2.9-.69,2,2,0,0,1-1.2-1.68,1.42,1.42,0,0,1,.08-.46h0l.85-3.17h0a1.06,1.06,0,0,0,0,.28,1.1,1.1,0,0,1,0-.28h0a1.51,1.51,0,0,1,.44-.68V38.11a1.36,1.36,0,0,1,.8-1.11,4,4,0,0,1,1.93-.46m0-.25a4.17,4.17,0,0,0-2.05.49,1.59,1.59,0,0,0-.92,1.32v6.54a1.71,1.71,0,0,0-.42.69h0l-.85,3.17a1.64,1.64,0,0,0-.09.52,2.25,2.25,0,0,0,1.33,1.9,6.22,6.22,0,0,0,3,.72,6.13,6.13,0,0,0,3-.72,2,2,0,0,0,1.22-2.44l-.84-3.16a.25.25,0,0,0,0-.08,1.69,1.69,0,0,0-.4-.65V41.51c0-2,0-2.82-.06-3.19h0a1.5,1.5,0,0,0-.88-1.54,4.11,4.11,0,0,0-2-.5Z" transform="translate(0 0)" style="fill:#231815"/><polygon points="46.51 28.78 57.55 35.16 57.55 47.38 46.51 41.01 46.51 28.78" style="fill:#99dcbc;stroke:#231815;stroke-linejoin:round;stroke-width:0.1398482471704483px"/><polygon points="65.78 30.41 57.55 35.16 57.55 47.38 65.78 42.64 65.78 30.41" style="fill:#99dcbc;stroke:#231815;stroke-linejoin:round;stroke-width:0.1398482471704483px"/><polygon points="46.51 28.78 54.68 24.02 65.78 30.41 57.55 35.16 46.51 28.78" style="fill:#a1ebcc;stroke:#231815;stroke-linejoin:round;stroke-width:0.1398482471704483px"/><polyline points="45.13 35.45 45.13 42.62 44.05 43.25 44.05 33.35" style="fill:#99dcbc;stroke:#231815;stroke-linejoin:round;stroke-width:0.1398482471704483px"/><polygon points="37.32 47.14 49.42 40.16 50.64 40.85 50.63 45.85 42.84 50.32 37.32 47.14" style="fill:#62bfa7;stroke:#231815;stroke-linejoin:round;stroke-width:0.09278737008571625px"/><polygon points="37.78 47.4 37.77 48.17 42.39 50.82 42.39 50.07 37.78 47.4" style="fill:#c9caca;stroke:#231815;stroke-linejoin:round;stroke-width:0.09278737008571625px"/><polygon points="50.63 45.85 42.84 50.32 42.84 50.37 42.84 51.08 42.84 52.53 43.28 52.28 43.28 50.82 50.63 46.6 50.63 45.85" style="fill:#62bfa7;stroke:#231815;stroke-linejoin:round;stroke-width:0.09278737008571625px"/><polygon points="42.84 52.53 42.39 52.28 42.39 50.05 42.84 50.31 42.84 52.53" style="fill:#62bfa7;stroke:#231815;stroke-linejoin:round;stroke-width:0.09278737008571625px"/><polygon points="37.76 49.79 37.32 49.53 37.32 47.14 37.78 47.4 37.76 49.79" style="fill:#62bfa7;stroke:#231815;stroke-linejoin:round;stroke-width:0.09278737008571625px"/><polygon points="37.76 49.79 38.21 49.53 38.21 48.42 37.77 48.17 37.76 49.79" style="fill:#62bfa7;stroke:#231815;stroke-linejoin:round;stroke-width:0.09278737008571625px"/><polygon points="42.84 50.32 42.39 50.07 50.63 45.31 50.63 45.85 42.84 50.32" style="fill:#62bfa7;stroke:#231815;stroke-linejoin:round;stroke-width:0.09278737008571625px"/><polygon points="37.78 47.4 37.32 47.14 50.93 39.3 51.38 39.55 37.78 47.4" style="fill:#62bfa7;stroke:#231815;stroke-linejoin:round;stroke-width:0.09278737008571625px"/><polygon points="37.8 47.39 50.64 39.97 50.64 40.85 50.63 45.31 42.41 50.05 37.8 47.39" style="fill:#b5b5b6;stroke:#231815;stroke-linejoin:round;stroke-width:0.09278737008571625px"/><polygon points="37.8 47.39 42.41 50.05 43.46 49.45 38.83 46.79 37.8 47.39" style="fill:#c9caca;stroke:#231815;stroke-linejoin:round;stroke-width:0.09278737008571625px"/><polygon points="40.08 46.07 44.69 48.74 45.74 48.13 41.11 45.48 40.08 46.07" style="fill:#c9caca;stroke:#231815;stroke-linejoin:round;stroke-width:0.09278737008571625px"/><polygon points="42.36 44.76 46.97 47.42 48.02 46.82 43.39 44.17 42.36 44.76" style="fill:#c9caca;stroke:#231815;stroke-linejoin:round;stroke-width:0.09278737008571625px"/><polygon points="44.64 43.44 49.25 46.11 50.3 45.5 45.67 42.85 44.64 43.44" style="fill:#c9caca;stroke:#231815;stroke-linejoin:round;stroke-width:0.09278737008571625px"/><polygon points="46.93 42.12 50.63 44.25 50.63 43.05 47.97 41.52 46.93 42.12" style="fill:#c9caca;stroke:#231815;stroke-linejoin:round;stroke-width:0.09278737008571625px"/><polygon points="49.2 40.81 50.64 41.65 50.65 40.44 50.23 40.21 49.2 40.81" style="fill:#c9caca;stroke:#231815;stroke-linejoin:round;stroke-width:0.09278737008571625px"/><polygon points="45.13 35.45 50.64 38.63 50.64 39.43 45.13 42.62 45.13 35.45" style="fill:#92c6ab;stroke:#231815;stroke-linejoin:round;stroke-width:0.1398482471704483px"/><g id="extraction-flower"><path d="M45.45,45.08s.59-.15.62-.56c0,0,.14-1.3-.64-1.55,0,0-.75.08-.84,1.52a.68.68,0,0,0,.48.57Z" transform="translate(0 0)" style="fill:#fff;stroke:#3f3b3a;stroke-miterlimit:10;stroke-width:0.09385327994823456px"/><path d="M44.86,45.16s-.49-.26-.81,0c0,0-1,.86-.74,1.52,0,0,.54.41,1.66-.58,0,0,.32-.39.12-.71Z" transform="translate(0 0)" style="fill:#fff;stroke:#3f3b3a;stroke-miterlimit:10;stroke-width:0.09385327994823456px"/><path d="M45.21,45.37s-.26.49,0,.81c0,0,.86,1,1.52.74,0,0,.41-.54-.58-1.66,0,0-.39-.32-.71-.12Z" transform="translate(0 0)" style="fill:#fff;stroke:#3f3b3a;stroke-miterlimit:10;stroke-width:0.09385327994823456px"/><path d="M44.71,45.16c-.67-.31-.81.93-.81.93a.38.38,0,0,1-.53-.06h0a1.23,1.23,0,0,1-.51-1.83A1.7,1.7,0,0,1,45,43.4h.08a.16.16,0,0,1,.07.21v.07a2.14,2.14,0,0,0-.27.9,1.15,1.15,0,0,1,.25.35h0V45c-.07.1-.18.15-.24.11Z" transform="translate(0 0)" style="fill:#fff;stroke:#3f3b3a;stroke-miterlimit:10;stroke-width:0.09385327994823456px"/><path d="M45.41,44.91c.71-.21.25-1.2.25-1.2a.38.38,0,0,1,.45-.3h0a1.28,1.28,0,0,1,1.57.9v.1c.23.87-.09,2-1,2h-.09a.16.16,0,0,1-.2-.11h0v-.07a1.4,1.4,0,0,0-.65-.89,1.15,1.15,0,0,1-.42-.1h0v-.11c0-.12,0-.23.11-.24Z" transform="translate(0 0)" style="fill:#fff;stroke:#3f3b3a;stroke-miterlimit:10;stroke-width:0.09385327994823456px"/><path d="M45.06,45.07s-.34.07-.35.28c0,0-.08.65.37.78,0,0,.43,0,.48-.76a.36.36,0,0,0-.28-.29Z" transform="translate(0 0)" style="fill:#fff;stroke:#3f3b3a;stroke-miterlimit:10;stroke-width:0.09385327994823456px"/><path d="M45.23,45s.86.18.16.92A1,1,0,0,0,45.23,45Z" transform="translate(0 0)" style="fill:#fff;stroke:#3f3b3a;stroke-miterlimit:10;stroke-width:0.09385327994823456px"/><path d="M45.07,45s-.87.08-.26.9A1,1,0,0,1,45.07,45Z" transform="translate(0 0)" style="fill:#fff;stroke:#3f3b3a;stroke-miterlimit:10;stroke-width:0.09385327994823456px"/><ellipse cx="45.14" cy="45.52" rx="0.32" ry="0.18" transform="translate(-2.77 88.12) rotate(-86.88)" style="fill:#eee43c"/></g><polygon points="48.09 31.02 55.72 35.45 51.73 37.75 44.05 33.35 48.09 31.02" style="fill:#a1ebcc;stroke:#231815;stroke-linejoin:round;stroke-width:0.1398482471704483px"/><polyline points="44.05 33.35 51.73 37.75 51.7 48.63 50.62 47.98 50.64 38.63 45.13 35.45" style="fill:#99dcbc;stroke:#231815;stroke-linejoin:round;stroke-width:0.1398482471704483px"/><polygon points="55.72 35.45 55.72 46.31 51.7 48.63 51.73 37.75 55.72 35.45" style="fill:#99dcbc;stroke:#231815;stroke-linejoin:round;stroke-width:0.1398482471704483px"/><path d="M76.76,44.4a5,5,0,0,0-4.53,0,1.6,1.6,0,0,0-.94,1.3A1.58,1.58,0,0,0,72.23,47a5.05,5.05,0,0,0,4.53,0,1.38,1.38,0,0,0,0-2.61Z" transform="translate(0 0)" style="fill:#eee;stroke:#1b1b1b;stroke-linejoin:round;stroke-width:0.1398482471704483px"/><path d="M76.42,37a4.24,4.24,0,0,0-3.85,0,1.36,1.36,0,0,0-.8,1.11,1.34,1.34,0,0,0,.8,1.11,4.29,4.29,0,0,0,3.85,0,1.18,1.18,0,0,0,0-2.22Z" transform="translate(0 0)" style="fill:#fff;stroke:#231815;stroke-miterlimit:10;stroke-width:0.09278737008571625px"/><polygon points="77.21 38.11 77.21 38.1 77.21 38.1 77.21 38.11" style="fill:#fcffff;stroke:#231815;stroke-linejoin:round;stroke-width:0.09278737008571625px"/><path d="M76.42,39.22a4.29,4.29,0,0,1-3.85,0,1.34,1.34,0,0,1-.8-1.11h0v7h0a1.34,1.34,0,0,0,.8,1.11,4.29,4.29,0,0,0,3.85,0,1.34,1.34,0,0,0,.79-1.11v-7A1.34,1.34,0,0,1,76.42,39.22Z" transform="translate(0 0)" style="fill:#bdffff;stroke:#231815;stroke-linejoin:round;stroke-width:0.1398482471704483px"/><polygon points="77.21 38.13 77.21 38.12 77.21 38.12 77.21 38.13" style="fill:#d1d1d1;stroke:#1b1b1b;stroke-linejoin:round;stroke-width:0.1398482471704483px"/><path d="M76.42,39.25a4.29,4.29,0,0,1-3.85,0,1.34,1.34,0,0,1-.8-1.11h0v1.52h0a1.34,1.34,0,0,0,.8,1.11,4.29,4.29,0,0,0,3.85,0,1.34,1.34,0,0,0,.79-1.11V38.19A1.34,1.34,0,0,1,76.42,39.25Z" transform="translate(0 0)" style="fill:#d1d1d1;stroke:#1b1b1b;stroke-linejoin:round;stroke-width:0.1398482471704483px"/><path d="M76.42,37a4.24,4.24,0,0,0-3.85,0,1.36,1.36,0,0,0-.8,1.11,1.34,1.34,0,0,0,.8,1.11,4.29,4.29,0,0,0,3.85,0,1.18,1.18,0,0,0,0-2.22Z" transform="translate(0 0)" style="fill:#eee;stroke:#1b1b1b;stroke-linejoin:round;stroke-width:0.1398482471704483px"/><path d="M78.5,48.6h0l-.85-3.17h0A1.45,1.45,0,0,1,76.76,47a5.05,5.05,0,0,1-4.53,0,1.58,1.58,0,0,1-.94-1.31,1.1,1.1,0,0,1,0-.28h0l-.85,3.17h0a1.43,1.43,0,0,0-.08.46,2,2,0,0,0,1.2,1.68,6.46,6.46,0,0,0,5.79,0C78.39,50.16,78.76,49.36,78.5,48.6Z" transform="translate(0 0)" style="fill:#d1d1d1;stroke:#1b1b1b;stroke-linejoin:round;stroke-width:0.1398482471704483px"/><path d="M54.68,24l11.1,6.39V42.64l-8.23,4.75-1.84-1.06-4,2.31L50.63,48v-1.4l-7.34,4.22v1.45l-.44.26-.44-.26V50.83l-4.19-2.4v1.11l-.44.26-.44-.26V47.16L44,43.25v-9.9l2.46-1.42V28.79L54.63,24m0-.25a.25.25,0,0,0-.13,0l-8.17,4.77a.25.25,0,0,0-.12.22v3l-2.29,1.4a.25.25,0,0,0-.13.22v9.76l-6.61,3.81a.25.25,0,0,0-.13.22v2.4a.25.25,0,0,0,.13.22l.44.26a.25.25,0,0,0,.25,0l.44-.26a.25.25,0,0,0,.13-.22v-.71L42.13,51v1.31a.25.25,0,0,0,.13.22l.44.26a.25.25,0,0,0,.25,0l.44-.26a.25.25,0,0,0,.13-.22V51l6.84-4v1a.25.25,0,0,0,.12.21l1.08.65a.25.25,0,0,0,.25,0l3.88-2.24,1.72,1a.25.25,0,0,0,.25,0l8.23-4.75a.25.25,0,0,0,.13-.22V30.41a.25.25,0,0,0-.13-.22L54.79,23.8h-.12Z" transform="translate(0 0)" style="fill:#231815"/><path d="M69.09,46.57a1.12,1.12,0,0,1-.56-.15L60.91,42A1.15,1.15,0,1,1,62,40l6,3.49V32.2a1.12,1.12,0,0,1,1.66-1L75,34.14a1.12,1.12,0,0,1,.59,1v2.62a1.13,1.13,0,0,1-2.25,0v-2l-3.11-1.7V45.44a1.13,1.13,0,0,1-1.12,1.13Z" transform="translate(0 0)" style="fill:#fff"/><path d="M69.09,31.2a1,1,0,0,1,.48.12l5.36,2.93a1,1,0,0,1,.52.88v2.62a1,1,0,0,1-2,0v-2l-3.36-1.84V45.44a1,1,0,0,1-1.5.87L61,41.94a1,1,0,1,1,.93-1.77l.07,0,6.12,3.51V32.2a1,1,0,0,1,1-1m0-.25a1.25,1.25,0,0,0-1.25,1.25V43.28L62.1,40a1.25,1.25,0,0,0-1.29,2.14l.05,0,7.62,4.37a1.25,1.25,0,0,0,1.87-1.08V34.31l2.86,1.56v1.88a1.25,1.25,0,0,0,2.5,0V35.13a1.25,1.25,0,0,0-.65-1.1L69.7,31.1a1.25,1.25,0,0,0-.6-.15Z" transform="translate(0 0)" style="fill:#14211e"/><path d="M67.37,52.9a1.12,1.12,0,0,1-1.12-1.08l-.08-2.08L63.55,51.3a1.13,1.13,0,1,1-1.15-1.94l4.25-2.52a1.12,1.12,0,0,1,1.7.92l.08,2.08,3.19-1.89a1.12,1.12,0,0,1,1.54.38h0a1.12,1.12,0,0,1-.38,1.54h0l-4.82,2.86A1.13,1.13,0,0,1,67.37,52.9Z" transform="translate(0 0)" style="fill:#fff"/><path d="M67.22,46.81a1,1,0,0,1,1,1L68.3,50l3.38-2a1,1,0,0,1,1,1.72l-4.82,2.86a1,1,0,0,1-1.51-.82l-.09-2.29-2.81,1.66a1,1,0,1,1-1.18-1.62l.18-.1L66.7,46.9a1,1,0,0,1,.51-.14m0-.25a1.25,1.25,0,0,0-.64.17L62.32,49.2a1.25,1.25,0,0,0-.5,1.7l.07.11a1.25,1.25,0,0,0,1.71.44l2.4-1.5.07,1.87a1.25,1.25,0,0,0,1.89,1L72.83,50a1.25,1.25,0,1,0-1.27-2.15l-3,1.79-.07-1.87a1.25,1.25,0,0,0-1.25-1.2Z" transform="translate(0 0)" style="fill:#14211e"/><path id="extraction-fill" d="M89.35,55.76A24.23,24.23,0,0,0,87.49,53c-.91-1.26-5.46-1.25-6.38,0a24.14,24.14,0,0,0-1.87,2.79h0a1.5,1.5,0,0,0,0,.22c0,1.51,2.27,2.74,5.08,2.74S89.4,57.53,89.4,56a1.51,1.51,0,0,0,0-.24Z" transform="translate(0 0)" style="fill:#dd83d4"/><path d="M90.44,55.84h0c-.09-.56-4.46-7-4.46-7h0V46.55h0a1.15,1.15,0,0,0,.66-.93c0-.74-1-1.34-2.27-1.34S82,44.89,82,45.64a1.15,1.15,0,0,0,.66.93h0v2.28s-4.41,6.46-4.49,7h0a2.2,2.2,0,0,0,0,.29c0,2,2.76,3.65,6.16,3.65s6.16-1.63,6.16-3.65A2.21,2.21,0,0,0,90.44,55.84Z" transform="translate(0 0)" style="fill:none;stroke:#231815;stroke-linejoin:round;stroke-width:0.4172711670398712px"/><polygon points="53.7 56.87 59.75 53.35 65.79 56.87 59.75 60.37 53.7 56.87" style="fill:#f2ffff;stroke:#000;stroke-miterlimit:10;stroke-width:0.03968073055148125px"/><path d="M58.33,47.25a.87.87,0,0,1,0-1.65,3.13,3.13,0,0,1,2.84,0,.87.87,0,0,1,0,1.65A3.14,3.14,0,0,1,58.33,47.25Z" transform="translate(0 0)" style="fill:#f2ffff;stroke:#000;stroke-miterlimit:10;stroke-width:0.03968073055148125px"/><polygon points="53.7 56.87 53.3 57.86 59.75 61.59 59.75 60.37 53.7 56.87" style="fill:#f2ffff;stroke:#000;stroke-miterlimit:10;stroke-width:0.03968073055148125px"/><polygon points="65.79 56.87 66.19 57.86 59.75 61.59 59.75 60.37 65.79 56.87" style="fill:#f2ffff;stroke:#000;stroke-miterlimit:10;stroke-width:0.03968073055148125px"/><path d="M63.61,48.8a1.92,1.92,0,0,1-1.13,1.59,6,6,0,0,1-5.47,0,1.93,1.93,0,0,1-1.12-1.58h0v7.7h0A1.93,1.93,0,0,0,57,58.1a6,6,0,0,0,5.47,0,1.93,1.93,0,0,0,1.13-1.58h0V48.8Z" transform="translate(0 0)" style="fill:#f2ffff;stroke:#000;stroke-miterlimit:10;stroke-width:0.03968073055148125px"/><path d="M63.61,48.8a1.92,1.92,0,0,1-1.13,1.59,6,6,0,0,1-5.47,0,1.93,1.93,0,0,1-1.12-1.58h0v3.51h0A1.93,1.93,0,0,0,57,53.92a6,6,0,0,0,5.47,0,1.93,1.93,0,0,0,1.13-1.58h0V48.8Z" transform="translate(0 0)" style="fill:#f2ffff;stroke:#000;stroke-miterlimit:10;stroke-width:0.03968073055148125px"/><path d="M63.18,47.82h0L61.7,46.13h0c.18.39,0,.82-.52,1.12a3.17,3.17,0,0,1-2.85,0c-.53-.3-.7-.73-.52-1.12h0l-1.43,1.63h0c-.82.85-.61,1.94.64,2.65a6.1,6.1,0,0,0,5.47,0C63.7,49.71,63.93,48.65,63.18,47.82Z" transform="translate(0 0)" style="fill:#f2ffff;stroke:#000;stroke-miterlimit:10;stroke-width:0.03968073055148125px"/><path d="M56.72,57.91v-2.5s.43.7,1.94.7v2.55A4.81,4.81,0,0,1,56.72,57.91Z" transform="translate(0 0)" style="fill:#f2ffff;stroke:#000;stroke-miterlimit:10;stroke-width:0.03968073055148125px"/><polygon points="53.7 56.87 59.75 53.35 65.79 56.87 59.75 60.37 53.7 56.87" style="fill:#eee;stroke:#1b1b1b;stroke-linejoin:round;stroke-width:0.1398482471704483px"/><path d="M58.33,47.25a.87.87,0,0,1,0-1.65,3.13,3.13,0,0,1,2.84,0,.87.87,0,0,1,0,1.65A3.14,3.14,0,0,1,58.33,47.25Z" transform="translate(0 0)" style="fill:#eee;stroke:#1b1b1b;stroke-linejoin:round;stroke-width:0.1398482471704483px"/><polygon points="53.7 56.87 53.3 57.86 59.75 61.59 59.75 60.37 53.7 56.87" style="fill:#d1d1d1;stroke:#1b1b1b;stroke-linejoin:round;stroke-width:0.1398482471704483px"/><polygon points="65.79 56.87 66.19 57.86 59.75 61.59 59.75 60.37 65.79 56.87" style="fill:#d1d1d1;stroke:#1b1b1b;stroke-linejoin:round;stroke-width:0.1398482471704483px"/><path d="M63.61,48.8a1.92,1.92,0,0,1-1.13,1.59,6,6,0,0,1-5.47,0,1.93,1.93,0,0,1-1.12-1.58h0v7.7h0A1.93,1.93,0,0,0,57,58.1a6,6,0,0,0,5.47,0,1.93,1.93,0,0,0,1.13-1.58h0V48.8Z" transform="translate(0 0)" style="fill:#d1d1d1;stroke:#1b1b1b;stroke-linejoin:round;stroke-width:0.1398482471704483px"/><path d="M63.61,48.8a1.92,1.92,0,0,1-1.13,1.59,6,6,0,0,1-5.47,0,1.93,1.93,0,0,1-1.12-1.58h0v3.51h0A1.93,1.93,0,0,0,57,53.92a6,6,0,0,0,5.47,0,1.93,1.93,0,0,0,1.13-1.58h0V48.8Z" transform="translate(0 0)" style="fill:#c9fff1;stroke:#231815;stroke-linejoin:round;stroke-width:0.1398482471704483px"/><path d="M63.18,47.82h0L61.7,46.13h0c.18.39,0,.82-.52,1.12a3.17,3.17,0,0,1-2.85,0c-.53-.3-.7-.73-.52-1.12h0l-1.43,1.63h0c-.82.85-.61,1.94.64,2.65a6.1,6.1,0,0,0,5.47,0C63.7,49.71,63.93,48.65,63.18,47.82Z" transform="translate(0 0)" style="fill:#d1d1d1;stroke:#1b1b1b;stroke-linejoin:round;stroke-width:0.1398482471704483px"/><path d="M56.72,57.91v-2.5s.43.7,1.94.7v2.55A4.81,4.81,0,0,1,56.72,57.91Z" transform="translate(0 0)" style="fill:#d1d1d1;stroke:#1b1b1b;stroke-linejoin:round;stroke-width:0.1398482471704483px"/><path d="M59.75,45.26a2.8,2.8,0,0,1,1.42.35,1.56,1.56,0,0,1,.54.55h0l1.48,1.69h0a1.54,1.54,0,0,1,.43,1h0v3.53h0v3.26l2.19,1.27.39,1-6.44,3.73L53.3,57.86l.39-1,2.19-1.27V52.34h0V48.89a1.54,1.54,0,0,1,.48-1.13h0l1.43-1.63s.06-.23.53-.52a2.8,2.8,0,0,1,1.42-.35m0-.16a2.94,2.94,0,0,0-1.5.38,1.35,1.35,0,0,0-.59.57l-1.41,1.6h0l-.13.14-.1.11h0a1.6,1.6,0,0,0-.31,1v6.61l-2.11,1.23h0v0l-.39,1,0,.13.12.07,6.44,3.73h.16L66.27,58l.12-.07-.05-.13-.39-1v0h0l-2.18-1.25V48.64h0a1.76,1.76,0,0,0-.46-.93L61.81,46h0a1.75,1.75,0,0,0-.56-.54,2.94,2.94,0,0,0-1.5-.38Z" transform="translate(0 0)"/><path d="M68.29,58.75a1.12,1.12,0,0,1-.56-.15L62.1,55.37a1.12,1.12,0,0,1-.43-1.52v0a1.12,1.12,0,0,1,1.52-.43h0l5.07,2.91,6.65-3.77-.07-6.78a1.13,1.13,0,0,1,.55-1l8.29-4.9a1.12,1.12,0,0,1,1.7,1v8.59a1.13,1.13,0,1,1-2.25,0V42.79l-6,3.57.07,6.79a1.13,1.13,0,0,1-.57,1l-7.79,4.42A1.13,1.13,0,0,1,68.29,58.75Z" transform="translate(0 0)" style="fill:#fff"/><path d="M84.29,39.87a1,1,0,0,1,1,1v8.59a1,1,0,0,1-1,1h0a1,1,0,0,1-1-1V42.61L77,46.34l.07,6.86a1,1,0,0,1-.51.88L68.77,58.5a1,1,0,0,1-1,0l-5.63-3.23a1,1,0,1,1,.93-1.77l.07,0,5.13,2.94L75,52.64l0-6.86a1,1,0,0,1,.49-.87L83.78,40a1,1,0,0,1,.51-.14m0-.25a1.24,1.24,0,0,0-.64.17l-8.29,4.9a1.25,1.25,0,0,0-.61,1.09l.07,6.7-6.53,3.7-5-2.87A1.26,1.26,0,1,0,62,55.48l5.63,3.23a1.25,1.25,0,0,0,1.24,0l7.79-4.42a1.25,1.25,0,0,0,.63-1.1l-.07-6.72L83.05,43v6.42a1.25,1.25,0,0,0,2.5,0V40.84A1.25,1.25,0,0,0,84.3,39.6Z" transform="translate(0 0)" style="fill:#14211e"/><path d="M74.45,34.13" transform="translate(0 0)" style="fill:none;stroke:#231815;stroke-linecap:round;stroke-linejoin:round;stroke-width:2px"/><g id="fill-line"><path id="fill-line-1" d="M61.66 41.26 69.07 45.48 69.07 32.31 74.44 35.24 74.5 37.88"></path><path id="fill-line-2" d="M72.13 49 67.41 51.76 67.27 47.9 64.28 49.65"></path><path id="fill-line-3" d="M62.79 54.54 68.31 57.67 76.02 53.28 75.96 45.93 84.32 40.98 84.32 49.42"></path></g></g><g id="extraction-outside" class="building-outside"><polygon points="99.11 36.95 82.67 27.39 49.67 46.44 66.12 56 99.11 36.95" style="fill:none;stroke:#231815;stroke-linejoin:round;stroke-width:0.186464324593544px"/><path d="M57.89,51.29" transform="translate(0 0)" style="fill:none;stroke:#231815;stroke-linejoin:round;stroke-width:0.186464324593544px"/><polygon points="82.64 17.84 49.64 37.11 49.67 46.64 82.67 27.58 82.64 17.84" style="fill:#f2f4ed;stroke:#231815;stroke-linejoin:round;stroke-width:0.1398482471704483px"/><polygon points="24.89 22.82 36.64 24.22 49.64 37.11 49.64 47.3 66.12 56.81 66.14 75.1 24.89 51.29 24.89 22.82" style="fill:#e0e2db;stroke:#231815;stroke-linejoin:round;stroke-width:0.1398482471704483px"/><polygon points="99.11 36.95 66.12 56 66.14 75.06 99.14 56 99.11 36.95" style="fill:#f2f4ed;stroke:#231815;stroke-linejoin:round;stroke-width:0.1398482471704483px"/><polygon points="100.86 35.01 83.59 24.97 48.94 44.98 66.21 55.01 100.86 35.01" style="fill:#92cfba;stroke:#231815;stroke-linejoin:round;stroke-width:0.1398482471704483px"/><polygon points="100.86 35.01 100.86 37.42 66.21 57.42 66.21 55.01 100.86 35.01" style="fill:#8ac0aa;stroke:#231815;stroke-linejoin:round;stroke-width:0.1398482471704483px"/><polygon points="48.94 44.98 48.94 47.39 66.21 57.42 66.21 55.01 48.94 44.98" style="fill:#7fb7a3;stroke:#231815;stroke-linejoin:round;stroke-width:0.1398482471704483px"/><polygon points="71.79 1.91 36.45 22.55 23.87 21.05 59.21 0.41 71.79 1.91" style="fill:#7fb7a3;stroke:#231815;stroke-linejoin:round;stroke-width:0.1398482471704483px"/><polygon points="71.79 1.91 85.71 15.71 50.37 36.35 36.45 22.55 71.79 1.91" style="fill:#92cfba;stroke:#231815;stroke-linejoin:round;stroke-width:0.1398482471704483px"/><polygon points="85.71 15.71 85.71 17.84 50.37 38.48 50.37 36.35 85.71 15.71" style="fill:#8ac0aa;stroke:#231815;stroke-linejoin:round;stroke-width:0.1398482471704483px"/><polygon points="36.45 22.55 50.37 36.35 50.37 38.48 35.9 24.49 23.87 22.8 23.87 21.05 36.45 22.55" style="fill:#7fb7a3;stroke:#231815;stroke-linejoin:round;stroke-width:0.1398482471704483px"/><polygon points="88.56 48.87 95.28 44.99 95.28 52.76 88.56 56.59 88.56 48.87" style="fill:#70c0a5;stroke:#231815;stroke-linejoin:round;stroke-width:0.1398482471704483px"/><polygon points="89.61 49.46 94.24 46.79 94.24 52.15 89.61 54.79 89.61 49.46" style="fill:#b2dee7;stroke:#231815;stroke-linejoin:round;stroke-width:0.1398482471704483px"/><polygon points="79.39 54.04 86.11 50.17 86.11 57.94 79.39 61.77 79.39 54.04" style="fill:#70c0a5;stroke:#231815;stroke-linejoin:round;stroke-width:0.1398482471704483px"/><polygon points="80.43 54.64 85.06 51.97 85.06 57.32 80.43 59.97 80.43 54.64" style="fill:#b2dee7;stroke:#231815;stroke-linejoin:round;stroke-width:0.1398482471704483px"/><polygon points="70.06 59.29 76.77 55.41 76.77 63.18 70.06 67.01 70.06 59.29" style="fill:#70c0a5;stroke:#231815;stroke-linejoin:round;stroke-width:0.1398482471704483px"/><polygon points="71.1 59.89 75.73 57.21 75.73 62.57 71.1 65.21 71.1 59.89" style="fill:#b2dee7;stroke:#231815;stroke-linejoin:round;stroke-width:0.1398482471704483px"/><polygon points="44.99 36.59 27.83 26.65 27.83 34.88 44.99 44.83 44.99 36.59" style="fill:#92cfba;stroke:#231815;stroke-linejoin:round;stroke-width:0.1398482471704483px"/><polygon points="44.17 37.23 28.73 28.32 28.73 34.26 44.17 43.17 44.17 37.23" style="fill:#a4d1d4;stroke:#231815;stroke-linejoin:round;stroke-width:0.1398482471704483px"/><polygon points="28.83 44.83 43.7 53.41 43.7 62 28.83 53.42 28.83 44.83" style="fill:#b2c4c1;stroke:#231815;stroke-linejoin:round;stroke-width:0.186464324593544px"/><polygon points="28.83 45.47 43.7 54.06 43.7 55.37 28.83 46.79 28.83 45.47" style="fill:#b2c4c1;stroke:#231815;stroke-linejoin:round;stroke-width:0.186464324593544px"/><polygon points="28.83 44.25 43.7 52.84 43.7 54.15 28.83 45.57 28.83 44.25" style="fill:#b2c4c1;stroke:#231815;stroke-linejoin:round;stroke-width:0.186464324593544px"/><polygon points="28.83 46.78 43.7 55.36 43.7 56.68 28.83 48.1 28.83 46.78" style="fill:#b2c4c1;stroke:#231815;stroke-linejoin:round;stroke-width:0.186464324593544px"/><polygon points="28.83 48.11 43.7 56.69 43.7 58.01 28.83 49.42 28.83 48.11" style="fill:#b2c4c1;stroke:#231815;stroke-linejoin:round;stroke-width:0.186464324593544px"/><polygon points="28.83 49.42 43.7 58 43.7 59.31 28.83 50.73 28.83 49.42" style="fill:#b2c4c1;stroke:#231815;stroke-linejoin:round;stroke-width:0.186464324593544px"/><polygon points="28.83 50.75 43.7 59.34 43.7 60.65 28.83 52.07 28.83 50.75" style="fill:#b2c4c1;stroke:#231815;stroke-linejoin:round;stroke-width:0.186464324593544px"/><polygon points="28.83 52.06 43.7 60.64 43.7 61.96 28.83 53.38 28.83 52.06" style="fill:#b2c4c1;stroke:#231815;stroke-linejoin:round;stroke-width:0.186464324593544px"/><polygon points="26.76 39.56 44.56 49.84 44.56 53.35 26.77 43.06 26.76 39.56" style="fill:#7fb7a3;stroke:#231815;stroke-linejoin:round;stroke-width:0.1398482471704483px"/><polygon points="46.53 48.74 44.56 49.84 44.56 53.35 46.52 52.24 46.53 48.74" style="fill:#8ac0aa;stroke:#231815;stroke-linejoin:round;stroke-width:0.1398482471704483px"/><polygon points="26.76 39.56 28.7 38.42 46.53 48.74 44.56 49.85 26.76 39.56" style="fill:#92cfba;stroke:#231815;stroke-linejoin:round;stroke-width:0.1398482471704483px"/><polygon points="51.42 56.98 59.75 61.84 59.81 71.49 51.42 66.65 51.42 56.98" style="fill:#cecfc6;stroke:#231815;stroke-linejoin:round;stroke-width:0.1398482471704483px"/><polygon points="51.45 66.67 59.81 61.81 51.43 56.98 51.45 66.67" style="fill:#cecfc6;stroke:#231815;stroke-linejoin:round;stroke-width:0.1398482471704483px"/><polygon points="61.32 57.61 61.32 61.59 57.88 63.57 48.94 58.41 52.38 52.44 61.32 57.61" style="fill:#70c0a5;stroke:#231815;stroke-linejoin:round;stroke-width:0.1420825719833374px"/><polygon points="57.88 63.57 61.32 57.61 52.38 52.44 48.94 58.41 57.88 63.57" style="fill:#92cfba;stroke:#231815;stroke-linejoin:round;stroke-width:0.1398482471704483px"/><path d="M59.21.41l12.58,1.5,13.92,13.8v2.13l-3.07,1.79V25.5l.93-.54,17.27,10v2.41l-1.75,1V55.95l-33,19h0L24.89,51.29V22.95l-1-.14V21L59.21.41m0-.4A.4.4,0,0,0,59,0L23.67,20.7a.4.4,0,0,0-.2.35v1.76a.4.4,0,0,0,.34.4l.68.1v28a.4.4,0,0,0,.2.35L65.94,75.45a.4.4,0,0,0,.53-.12l32.87-19a.4.4,0,0,0,.2-.35V38.64l1.55-.89a.4.4,0,0,0,.2-.35V35a.4.4,0,0,0-.2-.35l-17.27-10a.4.4,0,0,0-.4,0l-.33.19v-5l2.82-1.69a.4.4,0,0,0,.2-.35v-2.1a.4.4,0,0,0-.12-.28L72.07,1.63a.4.4,0,0,0-.23-.11L59.26,0Z" transform="translate(0 0)" style="fill:#231815"/></g></svg>