<svg id="factory" xmlns="http://www.w3.org/2000/svg" viewBox="0 0 95 76"><title>factory2</title><polygon id="shadow" class="shadow" points="25.1 47.2 25.1 32.5 4.4 36.3 0 54.3 34.2 76 66.8 71.4 25.1 47.2" style="fill:#111;opacity:0.10000000149011612;isolation:isolate"/><g id="factory-outside" class="building-outside"><polygon points="39 11.2 52.9 19.2 52.9 31.3 39.1 23.2 39 11.2" style="fill:#e0e2db;stroke:#231916;stroke-miterlimit:10;stroke-width:0.15690000355243683px"/><polygon points="66.8 11.2 66.8 23.2 52.9 31.3 52.9 19.2 66.8 11.2" style="fill:#f2f4ed;stroke:#231916;stroke-miterlimit:10;stroke-width:0.15690000355243683px"/><polygon points="52.9 3.1 39 11.2 52.9 19.2 66.8 11.2 52.9 3.1" style="fill:#a9bbc3;stroke:#231916;stroke-miterlimit:10;stroke-width:0.15690000355243683px"/><polygon points="66.8 55.2 46 43.2 46 51.2 39 47.2 39 39.1 25.1 31.1 25.1 47.2 39 55.2 66.8 71.3 66.8 55.2" style="fill:#e0e2db;stroke:#231916;stroke-linecap:round;stroke-linejoin:round;stroke-width:0.15690000355243683px"/><polygon points="49.1 52.8 49.1 53.3 49.1 53.9 49.1 54 49.1 55.1 49.1 55.1 49.1 56.4 49.1 56.4 49.1 57.6 49.1 57.6 49.1 58.7 49.1 58.7 49.1 60 49.1 60 49.1 61.2 49.1 61.2 62.9 69.1 62.9 69.1 62.9 67.9 62.9 67.9 62.9 66.8 62.9 66.7 62.9 65.5 62.9 65.5 62.9 64.3 62.9 64.3 62.9 63.1 62.9 63 62.9 61.9 62.9 61.8 62.9 61.2 62.9 60.7 49.1 52.8" style="fill:#dee0e0;stroke:#231916;stroke-miterlimit:10;stroke-width:0.15690000355243683px"/><polygon points="49.1 60.8 56.27 56.65 49.02 52.5 49.1 60.8" style="fill:#c6c6c6;stroke:#231916;stroke-miterlimit:10;stroke-width:0.15690000355243683px"/><path d="M52.9.6l15.5,9v2l-1.6.9V23.1L94.6,39.2v16l-27.8,16h0L39,55.2l-13.9-8V32.4L22.7,31V29l15.5-9,.8.5V12.4l-1.6-.9v-2L52.9.6m0-.7-.2.1L37.2,9l-.2.1v2.6l.2.1,1.4.8v6.9h-.1l-.2-.1-.2.1-15.5,9-.2.1v2.6l.2.1,2.1,1.2V47.2l.2.1,13.9,8,27.8,16,.2.1.2-.1,27.8-16,.2-.1V38.8l-.2-.1-27.5-16v-10l1.4-.8.2-.1V9.2l-.2-.1L53.2.1l-.3-.2Z" transform="translate(0 0.1)" style="fill:#231916"/><g id="factory-truck"><g id="factory-truck-2" data-name="factory-truck"><polygon points="56.43 54.06 60.24 56.25 60.24 55.44 56.43 53.25 56.43 54.06" style="fill:none;stroke:#000;stroke-linejoin:round;stroke-width:0.08242378894987468px"/><polygon points="66.02 56.6 66.02 57.75 60.24 60.98 60.24 59.48 60.7 59.71 66.02 56.6" style="fill:#3e3a39;stroke:#000;stroke-linejoin:round;stroke-width:0.08242378894987468px"/><path d="M60.47,60.65c0-.58-.46-.69-.92-.46a1.8,1.8,0,0,0-.81,1.5c0,.58.46.69.92.46A1.4,1.4,0,0,0,60.47,60.65Z" transform="translate(0 0.1)" style="fill:#595857;stroke:#000;stroke-linejoin:round;stroke-width:0.08242378894987468px"/><path d="M59.2,62.38" transform="translate(0 0.1)" style="fill:#595857;stroke:#000;stroke-linejoin:round;stroke-width:0.08242378894987468px"/><path d="M58.28,61.46a1.8,1.8,0,0,1,.81-1.5.42.42,0,0,1,.35-.12h.12a2.87,2.87,0,0,1,.81.35s-.35-.23-.81.23A1.41,1.41,0,0,0,59,61.81a1,1,0,0,0,.35.58,2.56,2.56,0,0,1-.81-.46h0C58.28,61.81,58.28,61.69,58.28,61.46Z" transform="translate(0 0.1)" style="fill:#595857;stroke:#000;stroke-linejoin:round;stroke-width:0.08242378894987468px"/><path d="M60.13,61c0-.23-.23-.35-.46-.23a.82.82,0,0,0-.35.69c0,.23.23.35.46.23A.82.82,0,0,0,60.13,61Z" transform="translate(0 0.1)" style="fill:#595857;stroke:#000;stroke-linejoin:round;stroke-width:0.08242378894987468px"/><path d="M66.36,57.42c0-.58-.46-.69-.92-.46a2,2,0,0,0-.81,1.5c0,.58.46.69.92.46A1.82,1.82,0,0,0,66.36,57.42Z" transform="translate(0 0.1)" style="fill:#595857;stroke:#000;stroke-linejoin:round;stroke-width:0.08242378894987468px"/><path d="M65.09,59" transform="translate(0 0.1)" style="fill:#595857;stroke:#000;stroke-linejoin:round;stroke-width:0.08242378894987468px"/><path d="M64.17,58.11a1.8,1.8,0,0,1,.81-1.5.42.42,0,0,1,.35-.12h.12a2.87,2.87,0,0,1,.81.35s-.35-.23-.81.23a1.41,1.41,0,0,0-.58,1.39,1,1,0,0,0,.35.58,2.56,2.56,0,0,1-.81-.46h0C64.17,58.46,64.17,58.34,64.17,58.11Z" transform="translate(0 0.1)" style="fill:#595857;stroke:#000;stroke-linejoin:round;stroke-width:0.08242378894987468px"/><path d="M65.9,57.65c0-.23-.23-.35-.46-.23a.82.82,0,0,0-.35.69c0,.23.23.35.46.23S66,57.88,65.9,57.65Z" transform="translate(0 0.1)" style="fill:#595857;stroke:#000;stroke-linejoin:round;stroke-width:0.08242378894987468px"/><polygon points="67.98 50.94 67.98 55.79 60.7 60.06 60.24 59.71 60.24 56.25 56.43 54.06 56.43 53.25 64.05 48.75 67.98 50.94" style="fill:#f7f7f7;stroke:#000;stroke-linejoin:round;stroke-width:0.08242378894987468px"/><polygon points="67.98 50.94 60.24 55.44 60.24 59.71 60.7 60.06 60.94 59.83 67.98 55.79 67.98 50.94" style="fill:#eeeeef;stroke:#000;stroke-linejoin:round;stroke-width:0.08242378894987468px"/><polygon points="56.43 53.25 60.24 55.44 67.98 50.94 64.05 48.75 56.43 53.25" style="fill:#f7f7f7;stroke:#000;stroke-linejoin:round;stroke-width:0.08242378894987468px"/><polygon points="67.98 50.94 67.28 51.4 63.48 49.09 64.05 48.75 67.98 50.94" style="fill:#f7f7f7;stroke:#000;stroke-linejoin:round;stroke-width:0.08242378894987468px"/><polygon points="67.28 51.4 67.28 56.13 67.98 55.79 67.98 50.94 67.28 51.4" style="fill:#f7f7f7;stroke:#000;stroke-linejoin:round;stroke-width:0.08242378894987468px"/><polygon points="57.36 62.25 53.55 60.06 53.55 59.48 53.31 58.56 57.13 60.75 57.36 61.68 57.36 62.25" style="fill:#f7f7f7;stroke:#000;stroke-linejoin:round;stroke-width:0.08242378894987468px"/><polygon points="53.31 58.56 54.01 56.02 57.82 58.21 57.13 60.75 53.31 58.56" style="fill:#a7dbf2;stroke:#000;stroke-linejoin:round;stroke-width:0.08242378894987468px"/><polygon points="54.24 55.33 56.43 54.06 60.24 56.25 58.05 57.52 54.24 55.33" style="fill:#f7f7f7;stroke:#000;stroke-linejoin:round;stroke-width:0.08242378894987468px"/><polygon points="57.36 62.25 53.55 60.06 53.55 59.48 57.36 61.68 57.36 62.25" style="fill:#f7f7f7;stroke:#000;stroke-linejoin:round;stroke-width:0.08242378894987468px"/><polygon points="60.24 56.83 60.24 59.71 58.97 60.52 58.63 61.45 57.82 61.91 57.82 58.21 60.24 56.83" style="fill:#eeeeef;stroke:#000;stroke-linejoin:round;stroke-width:0.08242378894987468px"/><polygon points="54.24 55.33 54.01 56.02 57.82 58.21 58.05 57.52 54.24 55.33" style="fill:#f7f7f7;stroke:#000;stroke-linejoin:round;stroke-width:0.08242378894987468px"/><polygon points="60.24 56.25 60.24 56.83 57.82 58.21 58.05 57.52 60.24 56.25" style="fill:#eeeeef;stroke:#000;stroke-linejoin:round;stroke-width:0.08242378894987468px"/><polygon points="57.13 60.75 60.01 58.91 60.01 56.94 57.82 58.21 57.13 60.75" style="fill:#a7dbf2;stroke:#000;stroke-linejoin:round;stroke-width:0.08242378894987468px"/><polygon points="57.36 62.25 57.82 61.91 57.82 58.21 57.13 60.75 57.36 61.68 57.36 62.25" style="fill:#eeeeef;stroke:#000;stroke-linejoin:round;stroke-width:0.08242378894987468px"/><polygon points="58.16 57.98 57.82 60.41 57.13 60.75 57.82 58.21 58.16 57.98" style="fill:#eeeeef;stroke:#000;stroke-linejoin:round;stroke-width:0.08242378894987468px"/><polygon points="58.4 58.91 57.82 58.56 57.82 59.83 58.4 60.18 58.4 58.91" style="fill:#eeeeef;stroke:#000;stroke-linejoin:round;stroke-width:0.08242378894987468px"/><path d="M57.82,61.81" transform="translate(0 0.1)" style="fill:#595857;stroke:#000;stroke-linejoin:round;stroke-width:0.08242378894987468px"/><polygon points="58.86 60.87 57.36 61.68 57.36 62.25 58.63 61.45 58.86 60.87" style="fill:#eeeeef;stroke:#000;stroke-linejoin:round;stroke-width:0.08242378894987468px"/><path d="M64.05,48.65l3.81,2.19v4.85l-1.85,1,.12.12h0a.6.6,0,0,1,.23.46,1.8,1.8,0,0,1-.81,1.5.42.42,0,0,1-.35.12h-.12a7.69,7.69,0,0,1-.81-.35l-3.81,2.19a1.8,1.8,0,0,1-.69,1.39.42.42,0,0,1-.35.12h-.12a2.56,2.56,0,0,1-.81-.46h0a.42.42,0,0,1-.12-.35l-.92.58-3.81-2.19v-.58l-.35-.81h0l.58-2.54.23-.69L56.32,54h.12v-.81l7-4,.58-.46m0-.23h-.12l-.58.46-7,4c-.12,0-.12.12-.12.23v.69L54.12,55l-.12.12-.23.69-.58,2.54v.23l.23.92V60c0,.12,0,.12.12.23l3.81,2.19h.23l.69-.46.12.12h0a1.61,1.61,0,0,0,.92.46h.23c.23,0,.35-.12.58-.23a2,2,0,0,0,.81-1.5l3.58-2a1.88,1.88,0,0,0,.69.35h.23c.23,0,.35-.12.58-.23a1.81,1.81,0,0,0,.81-1.73c0-.23-.12-.35-.12-.46l1.62-.92c.12,0,.12-.12.12-.23V50.72c0-.12,0-.12-.12-.23L64.51,48.3c-.35.12-.35.12-.46.12Z" transform="translate(0 0.1)"/><path d="M57.82,58.11" transform="translate(0 0.1)" style="fill:#eeeeef;stroke:#000;stroke-linejoin:round;stroke-width:0.08242378894987468px"/></g><path d="M61.05,57.3v-.23q.35-.17.35-.35c0-.12.12-.23.12-.35l.23-.12v1.85l-.23.12V56.84Z" transform="translate(0 0.1)" style="fill:#295aa8"/><path d="M62.55,56.61c-.12,0-.12-.12-.12-.23a.69.69,0,0,1,.12-.46c.12-.12.23-.35.46-.46a.87.87,0,0,1,.46-.12c.12,0,.12.12.12.23a.42.42,0,0,1-.12.35c0,.12-.12.12-.12.23h.23c.12,0,.12.12.12.23a1.26,1.26,0,0,1-.12.58.9.9,0,0,1-.46.46.87.87,0,0,1-.46.12c-.12,0-.23-.12-.23-.35a.42.42,0,0,1,.12-.35c0-.12.12-.23.23-.35A.36.36,0,0,1,62.55,56.61Zm.81.46a.42.42,0,0,0,.12-.35c0-.12,0-.23-.12-.23a.42.42,0,0,0-.35.12c-.12.12-.23.12-.23.23a.42.42,0,0,0-.12.35c0,.12,0,.12.12.23s.12,0,.35-.12A.25.25,0,0,1,63.36,57.07Zm-.12-.92a.36.36,0,0,0,.12-.23c0-.12,0-.12-.12-.12a.36.36,0,0,0-.23.12c-.12.12-.23.12-.23.23s-.12.12-.12.23,0,.12.12.12.12,0,.23-.12S63.24,56.27,63.24,56.15Z" transform="translate(0 0.1)" style="fill:#295aa8"/><path d="M64.63,54.77c.12,0,.12.12.12.23a.42.42,0,0,1-.12.35l-.23.23a.22.22,0,0,1-.35,0c-.12,0-.12-.12-.12-.23a.42.42,0,0,1,.12-.35l.23-.23Zm-.46.69h.23c.12,0,.12-.12.23-.23s.12-.12.12-.23,0-.12-.12-.12H64.4c-.12,0-.12.12-.23.23s-.12.12-.12.23Zm2.42-1.85c.12,0,.23.12.23.35l-.23.12a.25.25,0,0,0-.23-.23A.42.42,0,0,0,66,54a.9.9,0,0,0-.46.46,1.64,1.64,0,0,0-.23.69c0,.23,0,.35.12.46s.23.12.46-.12a.9.9,0,0,0,.46-.46c0-.12.12-.23.12-.35l.23-.12a1.64,1.64,0,0,1-.23.69,1.39,1.39,0,0,1-.58.58,1.26,1.26,0,0,1-.58.12c-.23-.12-.35-.23-.35-.69a2.14,2.14,0,0,1,.23-.81,1,1,0,0,1,.69-.69A1.72,1.72,0,0,1,66.59,53.61Z" transform="translate(0 0.1)" style="fill:#295aa8"/></g><g id="iron-door"><polygon points="49.1 53.01 62.9 61.01 62.9 69.01 49.1 61.01 49.1 53.01" style="fill:#c0c1bc;stroke:#231916;stroke-linecap:round;stroke-linejoin:round;stroke-width:0.15690000355243683px"/><polygon points="49.1 53.61 62.9 61.61 62.9 62.81 49.1 54.81 49.1 53.61" style="fill:#c0c1bc;stroke:#231916;stroke-linecap:round;stroke-linejoin:round;stroke-width:0.15690000355243683px"/><polygon points="49.1 51.81 62.9 59.81 62.9 61.71 49.1 53.71 49.1 51.81" style="fill:#c0c1bc;stroke:#231916;stroke-linecap:round;stroke-linejoin:round;stroke-width:0.15690000355243683px"/><polygon points="49.1 54.81 62.9 62.81 62.9 64.21 49.1 56.01 49.1 54.81" style="fill:#c0c1bc;stroke:#231916;stroke-linecap:round;stroke-linejoin:round;stroke-width:0.15690000355243683px"/><polygon points="49.1 56.01 62.9 64.11 62.9 65.31 49.1 57.31 49.1 56.01" style="fill:#c0c1bc;stroke:#231916;stroke-linecap:round;stroke-linejoin:round;stroke-width:0.15690000355243683px"/><polygon points="49.1 57.31 62.9 65.31 62.9 66.51 49.1 58.51 49.1 57.31" style="fill:#c0c1bc;stroke:#231916;stroke-linecap:round;stroke-linejoin:round;stroke-width:0.15690000355243683px"/><polygon points="49.1 58.51 62.9 66.51 62.9 67.71 49.1 59.71 49.1 58.51" style="fill:#c0c1bc;stroke:#231916;stroke-linecap:round;stroke-linejoin:round;stroke-width:0.15690000355243683px"/><polygon points="49.1 59.71 62.9 67.71 62.9 69.01 49.1 61.01 49.1 59.71" style="fill:#c0c1bc;stroke:#231916;stroke-linecap:round;stroke-linejoin:round;stroke-width:0.15690000355243683px"/></g><polygon points="47.91 42.6 47.91 51.2 66.81 62.1 66.81 53.5 47.91 42.6" style="fill:#e0e2db"/><polygon points="66.8 23.1 94.6 39.2 66.8 55.2 46 43.2 59.8 35.2 52.9 31.2 66.8 23.1" style="fill:#f9f9f9;stroke:#231916;stroke-miterlimit:10;stroke-width:0.15690000355243683px"/><polygon points="25.1 31.1 39.1 23.2 52.9 31.2 39 39.1 25.1 31.1" style="fill:#a9bbc3;stroke:#231916;stroke-miterlimit:10;stroke-width:0.15690000355243683px"/><polygon points="52.9 31.2 59.8 35.2 52.9 39.2 52.9 31.2" style="fill:#e0e2db;stroke:#231916;stroke-miterlimit:10;stroke-width:0.15690000355243683px"/><polygon points="39 47.2 46 43.2 46 51.2 39 47.2" style="fill:#f9f9f9;stroke:#231916;stroke-miterlimit:10;stroke-width:0.15690000355243683px"/><polygon points="39 39.1 52.9 31.2 52.9 39.2 39 47.2 39 39.1" style="fill:#f2f4ed;stroke:#231916;stroke-miterlimit:10;stroke-width:0.15690000355243683px"/><polygon points="56.3 37.3 70.3 29.3 84.2 37.3 70.3 45.3 56.3 37.3" style="fill:none;stroke:#231916;stroke-miterlimit:10;stroke-width:0.15690000355243683px"/><polygon points="56.3 37.3 70.3 45.3 70.3 49.1 56.3 41.1 56.3 37.3" style="fill:#e0e2db;stroke:#231916;stroke-miterlimit:10;stroke-width:0.15690000355243683px"/><polygon points="84.2 37.3 84.2 41.1 70.3 49.1 70.3 45.3 84.2 37.3" style="fill:#f2f4ed;stroke:#231916;stroke-miterlimit:10;stroke-width:0.15690000355243683px"/><polygon points="28.6 41.2 35.5 45.2 35.5 53.2 28.6 49.2 28.6 41.2" style="fill:#dee0e0;stroke:#231916;stroke-miterlimit:10;stroke-width:0.15690000355243683px"/><polygon points="28.6 49.2 35.5 45.2 28.6 41.2 28.6 49.2" style="fill:#c6c6c6;stroke:#231916;stroke-miterlimit:10;stroke-width:0.15690000355243683px"/><polygon points="35.9 42.2 35.9 45.5 33 47.1 25.6 42.9 28.5 37.9 35.9 42.2" style="fill:#e2b061;stroke:#231916;stroke-linecap:round;stroke-linejoin:round;stroke-width:0.15690000355243683px"/><rect x="27.91" y="38.23" width="5.7" height="8.6" transform="translate(-21.45 48.04) rotate(-60.03)" style="fill:#f9c569;stroke:#231916;stroke-linecap:round;stroke-linejoin:round;stroke-width:0.15690000355243683px"/><polygon points="37.4 9.6 52.9 18.6 52.9 20.6 37.4 11.6 37.4 9.6" style="fill:#b78544;stroke:#231916;stroke-miterlimit:10;stroke-width:0.15690000355243683px"/><polygon points="52.9 18.6 68.4 9.6 68.4 11.6 52.9 20.6 52.9 18.6" style="fill:#e2b061;stroke:#231916;stroke-miterlimit:10;stroke-width:0.15690000355243683px"/><polygon points="52.9 0.7 68.4 9.6 52.9 18.6 37.4 9.6 52.9 0.7" style="fill:#f9c569;stroke:#231916;stroke-miterlimit:10;stroke-width:0.15690000355243683px"/><polygon points="55.9 35.4 70.3 43.7 70.3 45.6 55.9 37.3 55.9 35.4" style="fill:#b78544;stroke:#231916;stroke-miterlimit:10;stroke-width:0.15690000355243683px"/><polygon points="70.3 43.7 84.7 35.4 84.7 37.3 70.3 45.6 70.3 43.7" style="fill:#e2b061;stroke:#231916;stroke-miterlimit:10;stroke-width:0.15690000355243683px"/><polygon points="70.3 27.1 84.7 35.4 70.3 43.7 55.9 35.4 70.3 27.1" style="fill:#f9c569;stroke:#231916;stroke-miterlimit:10;stroke-width:0.1459999978542328px"/><polygon points="22.8 29.1 39.8 39 39.8 41 22.7 31.1 22.8 29.1" style="fill:#b78544;stroke:#231916;stroke-miterlimit:10;stroke-width:0.15690000355243683px"/><polygon points="39.8 39 55.3 30.1 55.3 32 39.8 41 39.8 39" style="fill:#e2b061;stroke:#231916;stroke-miterlimit:10;stroke-width:0.15690000355243683px"/><polygon points="38.2 20.2 55.3 30.1 39.8 39 22.8 29.1 38.2 20.2" style="fill:#f9c569;stroke:#231916;stroke-miterlimit:10;stroke-width:0.15690000355243683px"/><polygon points="47.1 48.1 63.7 57.7 63.7 60.9 47.1 51.4 47.1 48.1" style="fill:#b78544;stroke:#231916;stroke-linecap:round;stroke-linejoin:round;stroke-width:0.15690000355243683px"/><polygon points="65.6 56.6 63.7 57.7 63.7 60.9 65.6 59.9 65.6 56.6" style="fill:#e2b061;stroke:#231916;stroke-miterlimit:10;stroke-width:0.15690000355243683px"/><polygon points="47.1 48.1 49 47 65.6 56.6 63.7 57.7 47.1 48.1" style="fill:#f9c569;stroke:#231916;stroke-linecap:round;stroke-linejoin:round;stroke-width:0.15690000355243683px"/><polygon points="94.6 39.2 94.6 55.3 66.8 71.3 66.8 55.2 94.6 39.2" style="fill:#f2f4ed;stroke:#231916;stroke-miterlimit:10;stroke-width:0.15690000355243683px"/><polygon points="70.9 57.5 76.5 54.2 76.5 60.8 70.9 64 70.9 57.5" style="fill:#e2b061;stroke:#231916;stroke-miterlimit:10;stroke-width:0.15690000355243683px"/><polygon points="71.8 58 75.7 55.8 75.7 60.3 71.8 62.5 71.8 58" style="fill:#dcdddd;stroke:#231916;stroke-miterlimit:10;stroke-width:0.1340000033378601px"/><polygon points="78.2 53.3 83.9 50 83.9 56.6 78.2 59.8 78.2 53.3" style="fill:#e2b061;stroke:#231916;stroke-miterlimit:10;stroke-width:0.15690000355243683px"/><polygon points="79.1 53.8 83 51.5 83 56 79.1 58.3 79.1 53.8" style="fill:#dcdddd;stroke:#231916;stroke-miterlimit:10;stroke-width:0.1340000033378601px"/><polygon points="85.6 49.1 91.3 45.8 91.3 52.3 85.6 55.6 85.6 49.1" style="fill:#e2b061;stroke:#231916;stroke-miterlimit:10;stroke-width:0.15690000355243683px"/><polygon points="86.5 49.6 90.4 47.3 90.4 51.8 86.5 54 86.5 49.6" style="fill:#dcdddd;stroke:#231916;stroke-miterlimit:10;stroke-width:0.1340000033378601px"/></g></svg>