<svg id="future-experience" xmlns="http://www.w3.org/2000/svg" viewBox="0 0 99.99 74.02"><title>future_experience2</title><path id="shadow" d="M70.93,33.27s-54.34,7.85-55.71,8.57S-.08,57.13,0,58.27,19.2,73.69,21.09,74s54.63-7,54.63-7Z" transform="translate(-0.02 0.01)" style="fill:#101111;opacity:0.10000000149011612;isolation:isolate"/><g id="future-experience-outside" class="building-outside"><path d="M47.55,48.69a1,1,0,0,1,0-1.93l21-12.13a3.7,3.7,0,0,1,3.34,0L99,50.28a1,1,0,0,1,0,1.93L78,64.33a3.7,3.7,0,0,1-3.34,0Z" transform="translate(-0.02 0.01)" style="fill:#eeeeef;stroke:#231916;stroke-linejoin:round;stroke-width:0.15953272581100464px"/><polygon points="99.65 53.16 99.65 53.15 99.64 53.15 99.65 53.16" style="fill:#c8c9ca;stroke:#231916;stroke-linejoin:round;stroke-width:0.15953272581100464px"/><path d="M99.66,53.13V51.45a1.27,1.27,0,0,1-.67.8L78,64.33a3.7,3.7,0,0,1-3.34,0L47.58,48.69a1.17,1.17,0,0,1-.69-1v1.83h0a1.08,1.08,0,0,0,.67,1.14L74.66,66.3a3.7,3.7,0,0,0,3.34,0L99,54.17A1.09,1.09,0,0,0,99.67,53h0Z" transform="translate(-0.02 0.01)" style="fill:#c8c9ca;stroke:#231916;stroke-linejoin:round;stroke-width:0.15953272581100464px"/><path d="M46.87,49.71h0v0Z" transform="translate(-0.02 0.01)" style="fill:#c8c9ca;stroke:#231916;stroke-linejoin:round;stroke-width:0.15953272581100464px"/><path d="M50.56,48.13a1.18,1.18,0,0,1,0-2.23l17.3-10a4.29,4.29,0,0,1,3.87,0L96.09,50a1.18,1.18,0,0,1,0,2.23l-17.3,10a4.29,4.29,0,0,1-3.87,0Z" transform="translate(-0.02 0.01)" style="fill:none;stroke:#231916;stroke-linejoin:round;stroke-width:0.15953272581100464px"/><g style="opacity:0.6299999952316284"><path d="M96.89,51.06h0V18.25a1,1,0,0,0-.17-.61L93.16,13h0a1.57,1.57,0,0,0-.5-.43L72,.65a3.64,3.64,0,0,0-3.29,0L54,9.13a1.52,1.52,0,0,0-.53.48h0l-3.23,3.63a1.52,1.52,0,0,0-.3.34h0a1,1,0,0,0-.16.49h0V47.13h0a1.46,1.46,0,0,0,.78,1l24.34,14a4.29,4.29,0,0,0,3.87,0l17.3-10a1.61,1.61,0,0,0,.72-.75h.08v-.32Zm0-32.71Z" transform="translate(-0.02 0.01)" style="fill:#84c1cf;stroke:#231916;stroke-linejoin:round;stroke-width:0.15953272581100464px"/><path d="M96.89,18.13Z" transform="translate(-0.02 0.01)" style="fill:#84c1cf;stroke:#231916;stroke-linejoin:round;stroke-width:0.15953272581100464px"/><path d="M96.71,17.63Z" transform="translate(-0.02 0.01)" style="fill:#84c1cf;stroke:#231916;stroke-linejoin:round;stroke-width:0.15953272581100464px"/><path d="M96.89,51.06h0V18.25a1,1,0,0,0-.17-.61L93.16,13h0a1.57,1.57,0,0,0-.5-.43L72,.65a3.64,3.64,0,0,0-3.29,0L54,9.13a1.52,1.52,0,0,0-.53.48h0l-3.23,3.63a1.52,1.52,0,0,0-.3.34h0a1,1,0,0,0-.16.49h0V47.13h0a1.46,1.46,0,0,0,.78,1l24.34,14a4.29,4.29,0,0,0,3.87,0l17.3-10a1.61,1.61,0,0,0,.72-.75h.08v-.32Zm0-32.71Z" transform="translate(-0.02 0.01)" style="fill:#eeeeef;stroke:#231916;stroke-linejoin:round;stroke-width:0.15953272581100464px"/><path d="M96.89,51.06h0V18.25a1,1,0,0,0-.17-.61L93.16,13h0a1.57,1.57,0,0,0-.5-.43L72,.65a3.64,3.64,0,0,0-3.29,0L54,9.13a1.52,1.52,0,0,0-.53.48h0l-3.23,3.63a1.52,1.52,0,0,0-.3.34h0a1,1,0,0,0-.16.49h0V47.13h0a1.46,1.46,0,0,0,.78,1l24.34,14a4.29,4.29,0,0,0,3.87,0l17.3-10a1.61,1.61,0,0,0,.72-.75h.08v-.32Zm0-32.71Z" transform="translate(-0.02 0.01)" style="fill:none;stroke:#231916;stroke-linejoin:round;stroke-width:0.15953272581100464px"/></g><path d="M69.3.39,68.35,3V36.55c1.67,1.07,3.87,0,3.87,0V3.39l-1.07-3A4.17,4.17,0,0,0,69.3.39Z" transform="translate(-0.02 0.01)" style="fill:#eeeeef;stroke:#231916;stroke-linejoin:round;stroke-width:0.15953272581100464px"/><path d="M63.76,35.14c-1,.38-2.76-.23-.23-1.87.26.11,8.69-4.61,20.85,3.75,4.5,3,9.72,14.73-12.11,17.46l-3.21-2c12.73-.27,21-7,13.64-13.58C72.22,30.18,64.07,35.38,63.76,35.14Z" transform="translate(-0.02 0.01)" style="fill:#eeeeef;stroke:#231916;stroke-linejoin:round;stroke-width:0.15953272581100464px"/><path d="M50.56,21.8l17.3-10a4.29,4.29,0,0,1,3.87,0l3.9,2.26L84.21,19,96.1,25.86" transform="translate(-0.02 0.01)" style="fill:none;stroke:#231916;stroke-linejoin:round;stroke-width:0.15953272581100464px"/><path d="M50.56,30.13l17.3-10a4.29,4.29,0,0,1,3.87,0l3.9,2.26,8.58,4.91L96.1,34.19" transform="translate(-0.02 0.01)" style="fill:none;stroke:#231916;stroke-linejoin:round;stroke-width:0.15953272581100464px"/><path d="M50.56,37.8l17.3-10a4.29,4.29,0,0,1,3.87,0l3.9,2.26L84.21,35,96.1,41.86" transform="translate(-0.02 0.01)" style="fill:none;stroke:#231916;stroke-linejoin:round;stroke-width:0.15953272581100464px"/><g id="earth-jump"><circle cx="73.65" cy="27.45" r="13.51" style="fill:#046eb7;stroke:#231916;stroke-linejoin:round;stroke-width:0.15953272581100464px"/><path d="M63,19.2l3.39,3.94H70L72.41,25,78,27.43v1.78l-4.34,1.58-.93,1.34a16,16,0,0,1-1.49,2.62,32.85,32.85,0,0,0-3.09,1.56l-1-1.75-1.43,2.53-.91.59s-4.79-3.5-4.69-11A15.57,15.57,0,0,1,63,19.2Z" transform="translate(-0.02 0.01)" style="fill:#00913a;stroke:#231916;stroke-linejoin:round;stroke-width:0.15953272581100464px"/><path d="M84,18.69l-.68,2,1.2,2.91-1.2,1.69-.5,2.63,2.49-1.22,1.9,1.69A13.34,13.34,0,0,0,84,18.69Z" transform="translate(-0.02 0.01)" style="fill:#00913a;stroke:#231916;stroke-linejoin:round;stroke-width:0.15953272581100464px"/><path d="M67.94,39.68l4.58-1.49,1,1.22L75,40.88A13,13,0,0,1,67.94,39.68Z" transform="translate(-0.02 0.01)" style="fill:#00913a;stroke:#231916;stroke-linejoin:round;stroke-width:0.15953272581100464px"/><polyline points="86.34 32.08 83.36 34.56 83.11 37.09" style="fill:#00913a;stroke:#231916;stroke-linejoin:round;stroke-width:0.15953272581100464px"/></g><path d="M60.61,30.69s3.48,6.32,15.5,3.89c0,0,12.67-2.82,11.17-13.51L91,20.86s1,13.72-17.09,16.22c0,0-7.12,1.11-11.91-2.19,0,0-5.28-3.88-1.82-8.22A10.81,10.81,0,0,0,60.61,30.69Z" transform="translate(-0.02 0.01)" style="fill:#eeeeef;stroke:#231916;stroke-linejoin:round;stroke-width:0.15953272581100464px"/><path d="M67.86,19.93" transform="translate(-0.02 0.01)" style="fill:none;stroke:#231916;stroke-linejoin:round;stroke-width:0.15953272581100464px"/><path d="M96.09,25.87a1.18,1.18,0,0,1,0,2.23l-17.3,10a4.29,4.29,0,0,1-3.87,0L50.56,24a1.18,1.18,0,0,1,0-2.23" transform="translate(-0.02 0.01)" style="fill:none;stroke:#231916;stroke-linejoin:round;stroke-width:0.15953272581100464px"/><path d="M96.09,34.19a1.18,1.18,0,0,1,0,2.23l-17.3,10a4.29,4.29,0,0,1-3.87,0L50.56,32.35a1.18,1.18,0,0,1,0-2.23" transform="translate(-0.02 0.01)" style="fill:none;stroke:#231916;stroke-linejoin:round;stroke-width:0.15953272581100464px"/><path d="M96.09,41.88a1.18,1.18,0,0,1,0,2.23l-17.3,10a4.29,4.29,0,0,1-3.87,0L50.56,40a1.18,1.18,0,0,1,0-2.23" transform="translate(-0.02 0.01)" style="fill:none;stroke:#231916;stroke-linejoin:round;stroke-width:0.15953272581100464px"/><path d="M50.56,15.42a1.18,1.18,0,0,1,0-2.23l17.3-10a4.29,4.29,0,0,1,3.87,0L96.09,17.26a1.18,1.18,0,0,1,0,2.23l-17.3,10a4.29,4.29,0,0,1-3.87,0Z" transform="translate(-0.02 0.01)" style="fill:none;stroke:#231916;stroke-linejoin:round;stroke-width:0.15953272581100464px"/><path d="M76.32,23.54" transform="translate(-0.02 0.01)" style="fill:none;stroke:#231916;stroke-linejoin:round;stroke-width:0.15953272581100464px"/><path d="M96.89,51.07h0V18.25a1,1,0,0,0-.17-.61L93.16,13h0a1.57,1.57,0,0,0-.5-.43L72,.65a3.64,3.64,0,0,0-3.29,0L54,9.13a1.52,1.52,0,0,0-.53.48h0l-3.23,3.63a1.52,1.52,0,0,0-.3.34h0a1,1,0,0,0-.16.49h0V47.13h0a1.46,1.46,0,0,0,.78,1l24.34,14a4.29,4.29,0,0,0,3.87,0l17.3-10a1.61,1.61,0,0,0,.72-.75Zm0-32.72Z" transform="translate(-0.02 0.01)" style="fill:none;stroke:#231916;stroke-linejoin:round;stroke-width:0.15953272581100464px"/><polygon points="57.56 46.47 67.68 52.31 67.68 57.96 57.56 52.12 57.56 46.47" style="fill:none;stroke:#231916;stroke-linejoin:round;stroke-width:0.15953272581100464px"/><path d="M57.39,44.73l10.73,6.19A1.3,1.3,0,0,1,68.77,52v6.55L56.52,51.52V45.23a.58.58,0,0,1,.87-.5Z" transform="translate(-0.02 0.01)" style="fill:none;stroke:#231916;stroke-linejoin:round;stroke-width:0.15953272581100464px"/><path d="M53.75,9.47s-.76.82-.19,1.4L51,15.7V48.39a2.08,2.08,0,0,1-1.27-1.22l-.06-32.32a2.06,2.06,0,0,1,.23-1.27Z" transform="translate(-0.02 0.01)" style="fill:#eeeeef;stroke:#231916;stroke-linejoin:round;stroke-width:0.15953272581100464px"/><path d="M93.16,13a1,1,0,0,1-.19,1.4l-.1.07,2.56,5.41-.14,32.72s1.43-.54,1.51-1.35L96.86,19a2.06,2.06,0,0,0-.23-1.27Z" transform="translate(-0.02 0.01)" style="fill:#eeeeef;stroke:#231916;stroke-linejoin:round;stroke-width:0.15953272581100464px"/><polygon points="67.67 57.84 67.67 62.25 62.62 65.19 67.67 57.84" style="fill:#eeeeef;stroke:#231916;stroke-linejoin:round;stroke-width:0.15953272581100464px"/><polygon points="68.75 58.49 68.75 62.9 63.7 65.84 68.75 58.49" style="fill:#eeeeef;stroke:#231916;stroke-linejoin:round;stroke-width:0.15953272581100464px"/><polygon points="63.7 65.84 62.62 65.19 67.67 57.84 68.75 58.49 63.7 65.84" style="fill:#eeeeef;stroke:#231916;stroke-linejoin:round;stroke-width:0.15953272581100464px"/><polygon points="56.48 51.38 56.48 55.79 51.44 58.73 56.48 51.38" style="fill:#eeeeef;stroke:#231916;stroke-linejoin:round;stroke-width:0.15953272581100464px"/><polygon points="57.56 52.03 57.56 56.44 52.52 59.38 57.56 52.03" style="fill:#eeeeef;stroke:#231916;stroke-linejoin:round;stroke-width:0.15953272581100464px"/><polygon points="52.52 59.38 51.44 58.73 56.48 51.38 57.56 52.03 52.52 59.38" style="fill:#eeeeef;stroke:#231916;stroke-linejoin:round;stroke-width:0.15953272581100464px"/><polygon points="52.52 59.38 62.62 65.19 67.67 57.84 57.56 52.03 52.52 59.38" style="fill:#eeeeef;stroke:#231916;stroke-linejoin:round;stroke-width:0.15953272581100464px"/><polygon points="53.18 58.49 63.26 64.26 62.62 65.19 53.18 59.78 53.18 58.49" style="fill:#c8c9ca;stroke:#231916;stroke-linejoin:round;stroke-width:0.15953272581100464px"/><polygon points="54.5 56.5 64.58 62.28 63.94 63.21 54.5 57.79 54.5 56.5" style="fill:#c8c9ca;stroke:#231916;stroke-linejoin:round;stroke-width:0.15953272581100464px"/><polygon points="53.18 58.49 54.5 57.79 63.94 63.21 63.26 64.26 53.18 58.49" style="fill:#eeeeef;stroke:#231916;stroke-linejoin:round;stroke-width:0.15953272581100464px"/><polygon points="55.85 54.52 65.93 60.3 65.29 61.22 55.85 55.81 55.85 54.52" style="fill:#c8c9ca;stroke:#231916;stroke-linejoin:round;stroke-width:0.15953272581100464px"/><polygon points="54.53 56.5 55.85 55.81 65.29 61.22 64.61 62.28 54.53 56.5" style="fill:#eeeeef;stroke:#231916;stroke-linejoin:round;stroke-width:0.15953272581100464px"/><polygon points="57.18 52.63 67.25 58.4 66.62 59.33 57.18 53.92 57.18 52.63" style="fill:#c8c9ca;stroke:#231916;stroke-linejoin:round;stroke-width:0.15953272581100464px"/><polygon points="55.85 54.61 57.18 53.92 66.62 59.33 65.93 60.38 55.85 54.61" style="fill:#eeeeef;stroke:#231916;stroke-linejoin:round;stroke-width:0.15953272581100464px"/><path d="M70.35.25a3.16,3.16,0,0,1,.81.1,2.87,2.87,0,0,1,.83.3L92.68,12.59a1.57,1.57,0,0,1,.5.43h0l3.56,4.62a1,1,0,0,1,.17.61V49.07L99,50.28a1.07,1.07,0,0,1,.65,1.17v1.7h0A1.1,1.1,0,0,1,99,54.22L78,66.35a3.7,3.7,0,0,1-3.34,0l-5.94-3.43-5,2.91L51.45,58.72l2.83-4.12-6.73-3.89a1.08,1.08,0,0,1-.67-1.14V47.83a1.11,1.11,0,0,1,.67-1.06l2.16-1.24V14.06h0a1,1,0,0,1,.16-.49h0a1.52,1.52,0,0,1,.3-.34L53.4,9.6h0a1.52,1.52,0,0,1,.53-.48L68.62.64a2.79,2.79,0,0,1,.67-.26,3.93,3.93,0,0,1,1-.14m0-.25a4.17,4.17,0,0,0-1.1.15,3,3,0,0,0-.73.28L53.77,8.9a1.78,1.78,0,0,0-.6.53L50,13.07a1.63,1.63,0,0,0-.33.37.22.22,0,0,0,0,.08,1.27,1.27,0,0,0-.15.47.24.24,0,0,0,0,.08V45.39l-2,1.17a1.35,1.35,0,0,0-.8,1.3v1.69a1.34,1.34,0,0,0,.79,1.38L54,54.68l-2.68,3.9a.25.25,0,0,0,.06.35h0L63.69,66a.25.25,0,0,0,.25,0l4.86-2.83,5.81,3.36a4,4,0,0,0,3.59,0l21-12.13a1.34,1.34,0,0,0,.79-1.32V51.5a1.32,1.32,0,0,0-.78-1.42l-2-1.14V18.25a1.26,1.26,0,0,0-.21-.74l-3.57-4.64h0a1.83,1.83,0,0,0-.56-.48L72.1.43A3.11,3.11,0,0,0,71.2.1,3.38,3.38,0,0,0,70.34,0h-.05Z" transform="translate(-0.02 0.01)" style="fill:#231916"/><path d="M96.84,51.06h0V18.25a1,1,0,0,0-.17-.61L93.11,13h0a1.57,1.57,0,0,0-.5-.43L71.92.65a3.64,3.64,0,0,0-3.29,0L53.94,9.13a1.52,1.52,0,0,0-.53.48h0l-3.23,3.63a1.52,1.52,0,0,0-.3.34h0a1,1,0,0,0-.16.49h0V47.13h0a1.46,1.46,0,0,0,.78,1l24.37,14a4.29,4.29,0,0,0,3.87,0L96,52.13a1.61,1.61,0,0,0,.72-.75h.08V51ZM92.61,14.67l-14.7,8.46a3.64,3.64,0,0,1-3.29,0L53.93,11.19a1,1,0,0,1,0-1.9L68.62.81a3.64,3.64,0,0,1,3.29,0L92.6,12.75a1,1,0,0,1,0,1.92Z" transform="translate(-0.02 0.01)" style="fill:#eeeeef;stroke:#231916;stroke-linejoin:round;stroke-width:0.15953272581100464px;opacity:0.4000000059604645;isolation:isolate"/><path d="M53.94,11a1,1,0,0,1,0-1.9L68.63.66a3.64,3.64,0,0,1,3.29,0L92.61,12.6a1,1,0,0,1,0,1.9L77.92,23a3.64,3.64,0,0,1-3.29,0Z" transform="translate(-0.02 0.01)" style="fill:#eeeeef;stroke:#231916;stroke-linejoin:round;stroke-width:0.15953272581100464px;opacity:0.4000000059604645;isolation:isolate"/><path d="M75.63,23.49l-.71,6V62.13c1.67,1.07,3.87,0,3.87,0V29.43l-1.32-6.12A2.92,2.92,0,0,1,75.63,23.49Z" transform="translate(-0.02 0.01)" style="fill:#eeeeef;stroke:#231916;stroke-linejoin:round;stroke-width:0.15953272581100464px"/></g></svg>