<svg id="圖層_5" data-name="圖層 5" xmlns="http://www.w3.org/2000/svg" xmlns:xlink="http://www.w3.org/1999/xlink" viewBox="0 0 378.39 243.91"><defs><linearGradient id="未命名漸層_20" x1="187.28" y1="143.95" x2="187.22" y2="138.99" gradientUnits="userSpaceOnUse"><stop offset="0" stop-color="#92d2de" stop-opacity="0.4"/><stop offset="1" stop-color="#2ca6e0"/></linearGradient><linearGradient id="未命名漸層_20-2" x1="195.6" y1="139.39" x2="195.54" y2="134.42" xlink:href="#未命名漸層_20"/><linearGradient id="未命名漸層_20-3" x1="203.88" y1="134.33" x2="203.83" y2="129.37" xlink:href="#未命名漸層_20"/><linearGradient id="未命名漸層_20-4" x1="211.94" y1="129.74" x2="211.88" y2="124.77" xlink:href="#未命名漸層_20"/><linearGradient id="未命名漸層_20-5" x1="220.24" y1="124.6" x2="220.18" y2="119.63" xlink:href="#未命名漸層_20"/><linearGradient id="未命名漸層_20-6" x1="164.1" y1="130.76" x2="164.04" y2="125.8" xlink:href="#未命名漸層_20"/><linearGradient id="未命名漸層_20-7" x1="172.41" y1="126.19" x2="172.36" y2="121.23" xlink:href="#未命名漸層_20"/><linearGradient id="未命名漸層_20-8" x1="180.7" y1="121.13" x2="180.64" y2="116.17" xlink:href="#未命名漸層_20"/><linearGradient id="未命名漸層_20-9" x1="188.75" y1="116.54" x2="188.69" y2="111.58" xlink:href="#未命名漸層_20"/><linearGradient id="未命名漸層_20-10" x1="197.06" y1="111.4" x2="197" y2="106.44" xlink:href="#未命名漸層_20"/><linearGradient id="未命名漸層_20-11" x1="120.71" y1="186.76" x2="120.65" y2="181.8" xlink:href="#未命名漸層_20"/><linearGradient id="未命名漸層_20-12" x1="129.03" y1="182.2" x2="128.97" y2="177.23" xlink:href="#未命名漸層_20"/><linearGradient id="未命名漸層_20-13" x1="137.31" y1="177.14" x2="137.26" y2="172.18" xlink:href="#未命名漸層_20"/><linearGradient id="未命名漸層_20-14" x1="145.37" y1="172.54" x2="145.31" y2="167.58" xlink:href="#未命名漸層_20"/><linearGradient id="未命名漸層_20-15" x1="153.67" y1="167.4" x2="153.61" y2="162.44" xlink:href="#未命名漸層_20"/><linearGradient id="未命名漸層_20-16" x1="97.53" y1="173.57" x2="97.47" y2="168.61" xlink:href="#未命名漸層_20"/><linearGradient id="未命名漸層_20-17" x1="105.84" y1="169" x2="105.79" y2="164.04" xlink:href="#未命名漸層_20"/><linearGradient id="未命名漸層_20-18" x1="114.13" y1="163.94" x2="114.07" y2="158.98" xlink:href="#未命名漸層_20"/><linearGradient id="未命名漸層_20-19" x1="122.18" y1="159.35" x2="122.12" y2="154.39" xlink:href="#未命名漸層_20"/><linearGradient id="未命名漸層_20-20" x1="130.49" y1="154.21" x2="130.43" y2="149.25" xlink:href="#未命名漸層_20"/></defs><title>greenhouse_tainan_component</title><polygon points="349.32 120.65 349.32 119.02 349.67 118.81 350.03 119.43 350.03 121.06 350.02 121.06 349.67 121.27 349.32 120.66 349.32 120.66 349.32 120.65 349.32 120.65 349.32 120.65" style="fill:#f7f7f7"/><polygon points="347.03 119.43 347.03 117.79 347.38 117.59 347.73 118.2 347.73 119.84 347.73 119.84 347.38 120.04 347.03 119.43 347.03 119.43 347.03 119.43 347.03 119.43 347.03 119.43" style="fill:#f7f7f7"/><polygon points="347.45 120.11 347.81 119.9 349.22 120.72 349.58 121.33 349.22 121.54 347.81 120.72 347.81 120.72 347.45 120.11" style="fill:#f7f7f7"/><polygon points="347.45 117.51 347.81 117.3 349.22 118.12 349.58 118.73 349.22 118.94 347.81 118.12 347.81 118.12 347.45 117.51" style="fill:#f7f7f7"/><g id="fnum1"><polygon points="342.51 116.81 342.51 115.17 342.87 114.97 343.22 115.58 343.22 117.22 343.22 117.22 342.87 117.42 342.52 116.81 342.51 116.81 342.51 116.81 342.51 116.81 342.51 116.81" style="fill:#f7f7f7"/><polygon points="342.51 119.42 342.51 117.78 342.87 117.58 343.22 118.19 343.22 119.83 343.22 119.83 342.87 120.03 342.52 119.42 342.51 119.42 342.51 119.42 342.51 119.42 342.51 119.42" style="fill:#f7f7f7"/></g><g id="bnum8"><polygon points="345.91 121.32 345.91 119.69 346.26 119.48 346.62 120.09 346.62 121.73 346.62 121.73 346.26 121.93 345.91 121.32 345.91 121.32 345.91 121.32 345.91 121.32 345.91 121.32" style="fill:#f7f7f7"/><polygon points="343.62 120.09 343.62 118.46 343.97 118.25 344.33 118.87 344.33 120.5 344.32 120.5 343.97 120.71 343.62 120.1 343.62 120.09 343.62 120.09 343.62 120.09 343.62 120.09" style="fill:#f7f7f7"/><polygon points="344.04 118.16 344.4 117.96 345.81 118.78 346.17 119.39 345.81 119.59 344.4 118.78 344.4 118.78 344.04 118.16" style="fill:#f7f7f7"/><polygon points="344.04 120.8 344.4 120.59 345.81 121.41 346.17 122.03 345.81 122.23 344.4 121.41 344.4 121.41 344.04 120.8" style="fill:#f7f7f7"/><polygon points="343.62 117.49 343.62 115.85 343.97 115.65 344.33 116.26 344.33 117.9 344.32 117.9 343.97 118.1 343.62 117.49 343.62 117.49 343.62 117.49 343.62 117.49 343.62 117.49" style="fill:#f7f7f7"/><polygon points="344.04 115.56 344.4 115.36 345.81 116.18 346.17 116.79 345.81 117 344.4 116.18 344.4 116.18 344.04 115.56" style="fill:#f7f7f7"/><polygon points="345.92 118.73 345.92 117.1 346.28 116.89 346.63 117.51 346.63 119.14 346.63 119.14 346.28 119.34 345.93 118.73 345.92 118.73 345.92 118.73 345.92 118.73 345.92 118.73" style="fill:#f7f7f7"/></g><g id="bnum9"><polygon points="345.91 121.32 345.91 119.69 346.26 119.48 346.62 120.09 346.62 121.73 346.62 121.73 346.26 121.93 345.91 121.32 345.91 121.32 345.91 121.32 345.91 121.32 345.91 121.32" style="fill:#f7f7f7"/><polygon points="344.04 118.16 344.4 117.96 345.81 118.78 346.17 119.39 345.81 119.59 344.4 118.78 344.4 118.78 344.04 118.16" style="fill:#f7f7f7"/><polygon points="344.04 120.8 344.4 120.59 345.81 121.41 346.17 122.03 345.81 122.23 344.4 121.41 344.4 121.41 344.04 120.8" style="fill:#f7f7f7"/><polygon points="343.62 117.49 343.62 115.85 343.97 115.65 344.33 116.26 344.33 117.9 344.32 117.9 343.97 118.1 343.62 117.49 343.62 117.49 343.62 117.49 343.62 117.49 343.62 117.49" style="fill:#f7f7f7"/><polygon points="344.04 115.56 344.4 115.36 345.81 116.18 346.17 116.79 345.81 117 344.4 116.18 344.4 116.18 344.04 115.56" style="fill:#f7f7f7"/><polygon points="345.92 118.73 345.92 117.1 346.28 116.89 346.63 117.51 346.63 119.14 346.63 119.14 346.28 119.34 345.93 118.73 345.92 118.73 345.92 118.73 345.92 118.73 345.92 118.73" style="fill:#f7f7f7"/></g><g id="bnum0"><polygon points="345.91 121.32 345.91 119.69 346.26 119.48 346.62 120.09 346.62 121.73 346.62 121.73 346.26 121.93 345.91 121.32 345.91 121.32 345.91 121.32 345.91 121.32 345.91 121.32" style="fill:#f7f7f7"/><polygon points="343.62 120.09 343.62 118.46 343.97 118.25 344.33 118.87 344.33 120.5 344.32 120.5 343.97 120.71 343.62 120.1 343.62 120.09 343.62 120.09 343.62 120.09 343.62 120.09" style="fill:#f7f7f7"/><polygon points="344.04 120.8 344.4 120.59 345.81 121.41 346.17 122.03 345.81 122.23 344.4 121.41 344.4 121.41 344.04 120.8" style="fill:#f7f7f7"/><polygon points="343.62 117.49 343.62 115.85 343.97 115.65 344.33 116.26 344.33 117.9 344.32 117.9 343.97 118.1 343.62 117.49 343.62 117.49 343.62 117.49 343.62 117.49 343.62 117.49" style="fill:#f7f7f7"/><polygon points="344.04 115.56 344.4 115.36 345.81 116.18 346.17 116.79 345.81 117 344.4 116.18 344.4 116.18 344.04 115.56" style="fill:#f7f7f7"/><polygon points="345.92 118.73 345.92 117.1 346.28 116.89 346.63 117.51 346.63 119.14 346.63 119.14 346.28 119.34 345.93 118.73 345.92 118.73 345.92 118.73 345.92 118.73 345.92 118.73" style="fill:#f7f7f7"/></g><g id="bnum1"><polygon points="345.91 121.32 345.91 119.69 346.26 119.48 346.62 120.09 346.62 121.73 346.62 121.73 346.26 121.93 345.91 121.32 345.91 121.32 345.91 121.32 345.91 121.32 345.91 121.32" style="fill:#f7f7f7"/><polygon points="345.92 118.73 345.92 117.1 346.28 116.89 346.63 117.51 346.63 119.14 346.63 119.14 346.28 119.34 345.93 118.73 345.92 118.73 345.92 118.73 345.92 118.73 345.92 118.73" style="fill:#f7f7f7"/></g><g id="fnum2"><polygon points="340.19 118.18 340.19 116.55 340.54 116.34 340.9 116.95 340.9 118.59 340.89 118.59 340.54 118.79 340.19 118.18 340.19 118.18 340.19 118.18 340.19 118.18 340.19 118.18" style="fill:#f7f7f7"/><polygon points="340.61 118.89 340.97 118.68 342.38 119.5 342.74 120.11 342.38 120.32 340.97 119.5 340.97 119.5 340.61 118.89" style="fill:#f7f7f7"/><polygon points="342.49 116.82 342.49 115.18 342.85 114.98 343.2 115.59 343.2 117.23 343.2 117.23 342.85 117.43 342.49 116.82 342.49 116.82 342.49 116.82 342.49 116.82 342.49 116.82" style="fill:#f7f7f7"/><polygon points="340.63 116.27 340.98 116.06 342.4 116.88 342.75 117.5 342.4 117.7 340.98 116.88 340.98 116.88 340.63 116.27" style="fill:#f7f7f7"/><polygon points="340.63 113.67 340.98 113.47 342.4 114.28 342.75 114.9 342.4 115.1 340.98 114.28 340.98 114.28 340.63 113.67" style="fill:#f7f7f7"/></g><polygon points="350.42 121.34 350.42 119.7 350.78 119.5 351.13 120.11 351.13 121.75 351.13 121.75 350.78 121.95 350.43 121.34 350.42 121.34 350.42 121.34 350.42 121.34 350.42 121.34" style="fill:#f7f7f7"/><polygon points="350.42 123.94 350.42 122.31 350.78 122.11 351.13 122.72 351.13 124.36 351.13 124.35 350.78 124.56 350.43 123.95 350.42 123.95 350.42 123.94 350.42 123.94 350.42 123.94" style="fill:#f7f7f7"/><polygon points="350.85 124.65 351.2 124.45 352.62 125.26 352.97 125.88 352.62 126.08 351.2 125.26 351.2 125.26 350.85 124.65" style="fill:#f7f7f7"/><polygon points="350.85 119.42 351.2 119.21 352.62 120.03 352.97 120.64 352.62 120.85 351.2 120.03 351.2 120.03 350.85 119.42" style="fill:#f7f7f7"/><g id="sun-cover"><g id="outer-hidden_4"><path id="sun-cover-2" data-name="sun-cover" d="M158,22c10.41,1.07,18.65-2.2,23.11-13.35l11.56,6.67c-7,10.22-14.48,16.29-23.11,13.35Z" style="fill:#3e3a39;stroke:#000;stroke-linejoin:round;stroke-width:0.20571692296440755px;opacity:0.46"/><path d="M178.94,7.85a1,1,0,0,1,.43-.74.29.29,0,0,1,.33,0h0l15,8.65-.61,1-15-8.66h0A.29.29,0,0,1,178.94,7.85Z" style="fill:#c8c9ca;stroke:#000;stroke-linejoin:round;stroke-width:0.20571692296440755px"/><path d="M194.77,16c0-.27-.19-.38-.43-.25a1,1,0,0,0-.43.74c0,.27.19.38.43.25A1,1,0,0,0,194.77,16Z" style="fill:#c8c9ca;stroke:#000;stroke-linejoin:round;stroke-width:0.20571692296440755px"/><path id="sun-cover-3" data-name="sun-cover" d="M134.85,35.78c10.41,1.07,18.65-2.2,23.11-13.35l11.56,6.67c-7,10.22-14.48,16.29-23.11,13.35Z" style="fill:#3e3a39;stroke:#000;stroke-linejoin:round;stroke-width:0.20571692296440755px;opacity:0.46"/><path d="M155.82,21.65a1,1,0,0,1,.43-.74.29.29,0,0,1,.33,0h0l15,8.65-.61,1-15-8.66h0A.29.29,0,0,1,155.82,21.65Z" style="fill:#c8c9ca;stroke:#000;stroke-linejoin:round;stroke-width:0.20571692296440755px"/><path d="M171.65,29.81c0-.27-.19-.38-.43-.25a1,1,0,0,0-.43.74c0,.27.19.38.43.25A1,1,0,0,0,171.65,29.81Z" style="fill:#c8c9ca;stroke:#000;stroke-linejoin:round;stroke-width:0.20571692296440755px"/><path d="M132.58,34.93a1,1,0,0,1,.43-.74.29.29,0,0,1,.33,0h0l15,8.65-.61,1-15-8.66h0A.29.29,0,0,1,132.58,34.93Z" style="fill:#c8c9ca;stroke:#000;stroke-linejoin:round;stroke-width:0.20571692296440755px"/><path d="M148.41,43.08c0-.27-.19-.38-.43-.25a1,1,0,0,0-.43.74c0,.27.19.38.43.25A1,1,0,0,0,148.41,43.08Z" style="fill:#c8c9ca;stroke:#000;stroke-linejoin:round;stroke-width:0.20571692296440755px"/><path d="M146,42.86l1.72,1h0a.31.31,0,0,0,.28,0,1,1,0,0,0,.43-.74.4.4,0,0,0,0-.11c7.67,1.44,14.42-4.23,20.81-13.39l1.72,1h0a.31.31,0,0,0,.28,0,1,1,0,0,0,.43-.74.31.31,0,0,0-.11-.26h0l-1-.6c8.1,2.17,15.16-3.59,21.83-13.15l1.72,1h0a.31.31,0,0,0,.28,0,1,1,0,0,0,.43-.74.31.31,0,0,0-.11-.26h0L179.7,7.09a.29.29,0,0,0-.33,0,1,1,0,0,0-.43.74.29.29,0,0,0,.14.28h0l1.79,1C176.44,19.69,168.51,22.91,158.53,22l-2-1.13a.29.29,0,0,0-.33,0,1,1,0,0,0-.43.74.29.29,0,0,0,.14.28h0l1.79,1c-4.29,10.19-11.87,13.54-21.41,12.93l-3-1.73a.29.29,0,0,0-.33,0,1,1,0,0,0-.43.74.29.29,0,0,0,.14.28h0l1.79,1Z" style="fill:none;stroke:#000;stroke-linejoin:round;stroke-width:0.20571692296440755px"/><path id="sun-cover-4" data-name="sun-cover" d="M179.34,34.54c10.41,1.07,18.65-2.2,23.11-13.35L214,27.86c-7,10.22-14.48,16.29-23.11,13.35Z" style="fill:#3e3a39;stroke:#000;stroke-linejoin:round;stroke-width:0.20571692296440755px;opacity:0.46"/><path d="M200.3,20.41a1,1,0,0,1,.43-.74.29.29,0,0,1,.33,0h0l15,8.65-.61,1-15-8.66h0A.29.29,0,0,1,200.3,20.41Z" style="fill:#c8c9ca;stroke:#000;stroke-linejoin:round;stroke-width:0.20571692296440755px"/><path d="M216.13,28.57c0-.27-.19-.38-.43-.25a1,1,0,0,0-.43.74c0,.27.19.38.43.25A1,1,0,0,0,216.13,28.57Z" style="fill:#c8c9ca;stroke:#000;stroke-linejoin:round;stroke-width:0.20571692296440755px"/><path id="sun-cover-5" data-name="sun-cover" d="M156.21,48.34c10.41,1.07,18.65-2.2,23.11-13.35l11.56,6.67C183.86,51.89,176.4,58,167.77,55Z" style="fill:#3e3a39;stroke:#000;stroke-linejoin:round;stroke-width:0.20571692296440755px;opacity:0.46"/><path d="M177.18,34.21a1,1,0,0,1,.43-.74.29.29,0,0,1,.33,0h0l15,8.65-.61,1-15-8.66h0A.29.29,0,0,1,177.18,34.21Z" style="fill:#c8c9ca;stroke:#000;stroke-linejoin:round;stroke-width:0.20571692296440755px"/><path d="M193,42.37c0-.27-.19-.38-.43-.25a1,1,0,0,0-.43.74c0,.27.19.38.43.25A1,1,0,0,0,193,42.37Z" style="fill:#c8c9ca;stroke:#000;stroke-linejoin:round;stroke-width:0.20571692296440755px"/><path d="M153.94,47.49a1,1,0,0,1,.43-.74.29.29,0,0,1,.33,0h0l15,8.65-.61,1-15-8.66h0A.29.29,0,0,1,153.94,47.49Z" style="fill:#c8c9ca;stroke:#000;stroke-linejoin:round;stroke-width:0.20571692296440755px"/><path d="M169.77,55.65c0-.27-.19-.38-.43-.25a1,1,0,0,0-.43.74c0,.27.19.38.43.25A1,1,0,0,0,169.77,55.65Z" style="fill:#c8c9ca;stroke:#000;stroke-linejoin:round;stroke-width:0.20571692296440755px"/><path d="M167.31,55.42l1.72,1h0a.31.31,0,0,0,.28,0,1,1,0,0,0,.43-.74.4.4,0,0,0,0-.11c7.67,1.44,14.42-4.23,20.81-13.39l1.72,1h0a.31.31,0,0,0,.28,0,1,1,0,0,0,.43-.74.31.31,0,0,0-.11-.26h0l-1-.6c8.1,2.17,15.16-3.59,21.83-13.15l1.72,1h0a.31.31,0,0,0,.28,0,1,1,0,0,0,.43-.74.31.31,0,0,0-.11-.26h0l-14.94-8.64a.29.29,0,0,0-.33,0,1,1,0,0,0-.43.74.29.29,0,0,0,.14.28h0l1.79,1c-4.43,10.52-12.36,13.74-22.34,12.86l-2-1.13a.29.29,0,0,0-.33,0,1,1,0,0,0-.43.74.29.29,0,0,0,.14.28h0l1.79,1c-4.29,10.19-11.87,13.54-21.41,12.93l-3-1.73a.29.29,0,0,0-.33,0,1,1,0,0,0-.43.74.29.29,0,0,0,.14.28h0l1.79,1Z" style="fill:none;stroke:#000;stroke-linejoin:round;stroke-width:0.20571692296440755px"/></g><g id="outer-hidden_1"><path id="sun-cover-6" data-name="sun-cover" d="M218.33,168.36c10.41,1.07,18.65-2.2,23.11-13.35L253,161.69C246,171.91,238.51,178,229.88,175Z" style="fill:#3e3a39;stroke:#000;stroke-linejoin:round;stroke-width:0.20571692296440755px;opacity:0.46"/><path d="M239.29,154.23a1,1,0,0,1,.43-.74.29.29,0,0,1,.33,0h0l15,8.65-.61,1-15-8.66h0A.29.29,0,0,1,239.29,154.23Z" style="fill:#c8c9ca;stroke:#000;stroke-linejoin:round;stroke-width:0.20571692296440755px"/><path d="M255.12,162.39c0-.27-.19-.38-.43-.25a1,1,0,0,0-.43.74c0,.27.19.38.43.25A1,1,0,0,0,255.12,162.39Z" style="fill:#c8c9ca;stroke:#000;stroke-linejoin:round;stroke-width:0.20571692296440755px"/><path id="sun-cover-7" data-name="sun-cover" d="M195.2,182.17c10.41,1.07,18.65-2.2,23.11-13.35l11.56,6.67c-7,10.22-14.48,16.29-23.11,13.35Z" style="fill:#3e3a39;stroke:#000;stroke-linejoin:round;stroke-width:0.20571692296440755px;opacity:0.46"/><path d="M216.17,168a1,1,0,0,1,.43-.74.29.29,0,0,1,.33,0h0l15,8.65-.61,1-15-8.66h0A.29.29,0,0,1,216.17,168Z" style="fill:#c8c9ca;stroke:#000;stroke-linejoin:round;stroke-width:0.20571692296440755px"/><path d="M232,176.2c0-.27-.19-.38-.43-.25a1,1,0,0,0-.43.74c0,.27.19.38.43.25A1,1,0,0,0,232,176.2Z" style="fill:#c8c9ca;stroke:#000;stroke-linejoin:round;stroke-width:0.20571692296440755px"/><path d="M192.92,181.31a1,1,0,0,1,.43-.74.29.29,0,0,1,.33,0h0l15,8.65-.61,1-15-8.66h0A.29.29,0,0,1,192.92,181.31Z" style="fill:#c8c9ca;stroke:#000;stroke-linejoin:round;stroke-width:0.20571692296440755px"/><path d="M208.76,189.47c0-.27-.19-.38-.43-.25a1,1,0,0,0-.43.74c0,.27.19.38.43.25A1,1,0,0,0,208.76,189.47Z" style="fill:#c8c9ca;stroke:#000;stroke-linejoin:round;stroke-width:0.20571692296440755px"/><path d="M206.3,189.24l1.72,1h0a.31.31,0,0,0,.28,0,1,1,0,0,0,.43-.74.4.4,0,0,0,0-.11c7.67,1.44,14.42-4.23,20.81-13.39l1.72,1h0a.31.31,0,0,0,.28,0,1,1,0,0,0,.43-.74.31.31,0,0,0-.11-.26h0l-1-.6c8.1,2.17,15.16-3.59,21.83-13.15l1.72,1h0a.31.31,0,0,0,.28,0,1,1,0,0,0,.43-.74.31.31,0,0,0-.11-.26h0L240,153.48a.29.29,0,0,0-.33,0,1,1,0,0,0-.43.74.29.29,0,0,0,.14.28h0l1.79,1c-4.43,10.52-12.36,13.74-22.34,12.86l-2-1.13a.29.29,0,0,0-.33,0,1,1,0,0,0-.43.74.29.29,0,0,0,.14.28h0l1.79,1c-4.29,10.19-11.87,13.54-21.41,12.93l-3-1.73a.29.29,0,0,0-.33,0,1,1,0,0,0-.43.74.29.29,0,0,0,.14.28h0l1.79,1Z" style="fill:none;stroke:#000;stroke-linejoin:round;stroke-width:0.20571692296440755px"/><path id="sun-cover-8" data-name="sun-cover" d="M239.68,180.92c10.41,1.07,18.65-2.2,23.11-13.35l11.56,6.67c-7,10.22-14.48,16.29-23.11,13.35Z" style="fill:#3e3a39;stroke:#000;stroke-linejoin:round;stroke-width:0.20571692296440755px;opacity:0.46"/><path d="M260.65,166.79a1,1,0,0,1,.43-.74.29.29,0,0,1,.33,0h0l15,8.65-.61,1-15-8.66h0A.29.29,0,0,1,260.65,166.79Z" style="fill:#c8c9ca;stroke:#000;stroke-linejoin:round;stroke-width:0.20571692296440755px"/><path d="M276.48,174.95c0-.27-.19-.38-.43-.25a1,1,0,0,0-.43.74c0,.27.19.38.43.25A1,1,0,0,0,276.48,174.95Z" style="fill:#c8c9ca;stroke:#000;stroke-linejoin:round;stroke-width:0.20571692296440755px"/><path id="sun-cover-9" data-name="sun-cover" d="M216.56,194.73c10.41,1.07,18.65-2.2,23.11-13.35l11.56,6.67c-7,10.22-14.48,16.29-23.11,13.35Z" style="fill:#3e3a39;stroke:#000;stroke-linejoin:round;stroke-width:0.20571692296440755px;opacity:0.46"/><path d="M237.53,180.6a1,1,0,0,1,.43-.74.29.29,0,0,1,.33,0h0l15,8.65-.61,1-15-8.66h0A.29.29,0,0,1,237.53,180.6Z" style="fill:#c8c9ca;stroke:#000;stroke-linejoin:round;stroke-width:0.20571692296440755px"/><path d="M253.36,188.76c0-.27-.19-.38-.43-.25a1,1,0,0,0-.43.74c0,.27.19.38.43.25A1,1,0,0,0,253.36,188.76Z" style="fill:#c8c9ca;stroke:#000;stroke-linejoin:round;stroke-width:0.20571692296440755px"/><path d="M214.28,193.87a1,1,0,0,1,.43-.74.29.29,0,0,1,.33,0h0l15,8.65-.61,1-15-8.66h0A.29.29,0,0,1,214.28,193.87Z" style="fill:#c8c9ca;stroke:#000;stroke-linejoin:round;stroke-width:0.20571692296440755px"/><path d="M230.11,202c0-.27-.19-.38-.43-.25a1,1,0,0,0-.43.74c0,.27.19.38.43.25A1,1,0,0,0,230.11,202Z" style="fill:#c8c9ca;stroke:#000;stroke-linejoin:round;stroke-width:0.20571692296440755px"/><path d="M227.66,201.8l1.72,1h0a.31.31,0,0,0,.28,0,1,1,0,0,0,.43-.74.4.4,0,0,0,0-.11c7.67,1.44,14.42-4.23,20.81-13.39l1.72,1h0a.31.31,0,0,0,.28,0,1,1,0,0,0,.43-.74.31.31,0,0,0-.11-.26h0l-1-.6c8.1,2.17,15.16-3.59,21.83-13.15l1.72,1h0a.31.31,0,0,0,.28,0,1,1,0,0,0,.43-.74.31.31,0,0,0-.11-.26h0L261.41,166a.29.29,0,0,0-.33,0,1,1,0,0,0-.43.74.29.29,0,0,0,.14.28h0l1.79,1c-4.43,10.52-12.36,13.74-22.34,12.86l-2-1.13a.29.29,0,0,0-.33,0,1,1,0,0,0-.43.74.29.29,0,0,0,.14.28h0l1.79,1c-4.29,10.19-11.87,13.54-21.41,12.93l-3-1.73a.29.29,0,0,0-.33,0,1,1,0,0,0-.43.74.29.29,0,0,0,.14.28h0l1.79,1Z" style="fill:none;stroke:#000;stroke-linejoin:round;stroke-width:0.20571692296440755px"/></g></g><g id="spread-water"><path d="M190.83,141.18h0l-2.27-2.23,0,0h0a.84.84,0,0,0-.33-.32,2.12,2.12,0,0,0-1.91,0,.84.84,0,0,0-.33.32h0l0,0-2.22,2.13c-.41.74-.11,1.59.9,2.17a5.82,5.82,0,0,0,5.25,0C190.85,142.69,191.17,141.89,190.83,141.18Z" style="opacity:0.84;fill:url(#未命名漸層_20)"/><path d="M199.15,136.61h0l-2.27-2.23,0,0h0a.84.84,0,0,0-.33-.32,2.12,2.12,0,0,0-1.91,0,.84.84,0,0,0-.33.32h0l0,0L192,136.51c-.41.74-.11,1.59.9,2.17a5.82,5.82,0,0,0,5.25,0C199.16,138.12,199.48,137.32,199.15,136.61Z" style="opacity:0.84;fill:url(#未命名漸層_20-2)"/><path d="M207.43,131.55h0l-2.27-2.23,0,0h0a.84.84,0,0,0-.33-.32,2.12,2.12,0,0,0-1.91,0,.84.84,0,0,0-.33.32h0l0,0-2.22,2.13c-.41.74-.11,1.59.9,2.17a5.82,5.82,0,0,0,5.25,0C207.45,133.06,207.77,132.27,207.43,131.55Z" style="opacity:0.84;fill:url(#未命名漸層_20-3)"/><path d="M215.49,127h0l-2.27-2.23,0,0h0a.84.84,0,0,0-.33-.32,2.12,2.12,0,0,0-1.91,0,.84.84,0,0,0-.33.32h0l0,0-2.22,2.13c-.41.74-.11,1.59.9,2.17a5.82,5.82,0,0,0,5.25,0C215.5,128.47,215.82,127.67,215.49,127Z" style="opacity:0.84;fill:url(#未命名漸層_20-4)"/><path d="M223.79,121.82h0l-2.27-2.23,0,0h0a.84.84,0,0,0-.33-.32,2.12,2.12,0,0,0-1.91,0,.84.84,0,0,0-.33.32h0l0,0-2.22,2.13c-.41.74-.11,1.59.9,2.17a5.82,5.82,0,0,0,5.25,0C223.81,123.33,224.12,122.53,223.79,121.82Z" style="opacity:0.84;fill:url(#未命名漸層_20-5)"/><path d="M167.65,128h0l-2.27-2.23,0,0h0a.84.84,0,0,0-.33-.32,2.12,2.12,0,0,0-1.91,0,.84.84,0,0,0-.33.32h0l0,0-2.22,2.13c-.41.74-.11,1.59.9,2.17a5.82,5.82,0,0,0,5.25,0C167.67,129.49,168,128.7,167.65,128Z" style="opacity:0.84;fill:url(#未命名漸層_20-6)"/><path d="M176,123.41h0l-2.27-2.23,0,0h0a.84.84,0,0,0-.33-.32,2.12,2.12,0,0,0-1.91,0,.84.84,0,0,0-.33.32h0l0,0-2.22,2.13c-.41.74-.11,1.59.9,2.17a5.82,5.82,0,0,0,5.25,0C176,124.93,176.3,124.13,176,123.41Z" style="opacity:0.84;fill:url(#未命名漸層_20-7)"/><path d="M184.25,118.35h0L182,116.12l0,0h0a.84.84,0,0,0-.33-.32,2.12,2.12,0,0,0-1.91,0,.84.84,0,0,0-.33.32h0l0,0-2.22,2.13c-.41.74-.11,1.59.9,2.17a5.82,5.82,0,0,0,5.25,0C184.27,119.87,184.59,119.07,184.25,118.35Z" style="opacity:0.84;fill:url(#未命名漸層_20-8)"/><path d="M192.3,113.76h0L190,111.53l0,0h0a.84.84,0,0,0-.33-.32,2.12,2.12,0,0,0-1.91,0,.84.84,0,0,0-.33.32h0l0,0-2.22,2.13c-.41.74-.11,1.59.9,2.17a5.82,5.82,0,0,0,5.25,0C192.32,115.28,192.64,114.48,192.3,113.76Z" style="opacity:0.84;fill:url(#未命名漸層_20-9)"/><path d="M200.61,108.62h0l-2.27-2.23,0,0h0A.84.84,0,0,0,198,106a2.12,2.12,0,0,0-1.91,0,.84.84,0,0,0-.33.32h0l0,0-2.22,2.13c-.41.74-.11,1.59.9,2.17a5.82,5.82,0,0,0,5.25,0C200.62,110.14,200.94,109.34,200.61,108.62Z" style="opacity:0.84;fill:url(#未命名漸層_20-10)"/><path d="M124.26,184h0L122,181.75l0,0h0a.84.84,0,0,0-.33-.32,2.12,2.12,0,0,0-1.91,0,.84.84,0,0,0-.33.32h0l0,0-2.22,2.13c-.41.74-.11,1.59.9,2.17a5.82,5.82,0,0,0,5.25,0C124.28,185.5,124.6,184.7,124.26,184Z" style="opacity:0.84;fill:url(#未命名漸層_20-11)"/><path d="M132.58,179.42h0l-2.27-2.23,0,0h0a.84.84,0,0,0-.33-.32,2.12,2.12,0,0,0-1.91,0,.84.84,0,0,0-.33.32h0l0,0-2.22,2.13c-.41.74-.11,1.59.9,2.17a5.82,5.82,0,0,0,5.25,0C132.59,180.93,132.91,180.13,132.58,179.42Z" style="opacity:0.84;fill:url(#未命名漸層_20-12)"/><path d="M140.86,174.36h0l-2.27-2.23,0,0h0a.84.84,0,0,0-.33-.32,2.12,2.12,0,0,0-1.91,0,.84.84,0,0,0-.33.32h0l0,0-2.22,2.13c-.41.74-.11,1.59.9,2.17a5.82,5.82,0,0,0,5.25,0C140.88,175.87,141.2,175.07,140.86,174.36Z" style="opacity:0.84;fill:url(#未命名漸層_20-13)"/><path d="M148.92,169.77h0l-2.27-2.23,0,0h0a.84.84,0,0,0-.33-.32,2.12,2.12,0,0,0-1.91,0,.84.84,0,0,0-.33.32h0l0,0-2.22,2.13c-.41.74-.11,1.59.9,2.17a5.82,5.82,0,0,0,5.25,0C148.93,171.28,149.25,170.48,148.92,169.77Z" style="opacity:0.84;fill:url(#未命名漸層_20-14)"/><path d="M157.22,164.63h0l-2.27-2.23,0,0h0a.84.84,0,0,0-.33-.32,2.12,2.12,0,0,0-1.91,0,.84.84,0,0,0-.33.32h0l0,0-2.22,2.13c-.41.74-.11,1.59.9,2.17a5.82,5.82,0,0,0,5.25,0C157.24,166.14,157.55,165.34,157.22,164.63Z" style="opacity:0.84;fill:url(#未命名漸層_20-15)"/><path d="M101.08,170.79h0l-2.27-2.23,0,0h0a.84.84,0,0,0-.33-.32,2.12,2.12,0,0,0-1.91,0,.84.84,0,0,0-.33.32h0l0,0L94,170.69c-.41.74-.11,1.59.9,2.17a5.82,5.82,0,0,0,5.25,0C101.1,172.3,101.41,171.51,101.08,170.79Z" style="opacity:0.84;fill:url(#未命名漸層_20-16)"/><path d="M109.39,166.22h0L107.12,164l0,0h0a.84.84,0,0,0-.33-.32,2.12,2.12,0,0,0-1.91,0,.84.84,0,0,0-.33.32h0l0,0-2.22,2.13c-.41.74-.11,1.59.9,2.17a5.82,5.82,0,0,0,5.25,0C109.41,167.74,109.73,166.94,109.39,166.22Z" style="opacity:0.84;fill:url(#未命名漸層_20-17)"/><path d="M117.68,161.16h0l-2.27-2.23,0,0h0a.84.84,0,0,0-.33-.32,2.12,2.12,0,0,0-1.91,0,.84.84,0,0,0-.33.32h0l0,0-2.22,2.13c-.41.74-.11,1.59.9,2.17a5.82,5.82,0,0,0,5.25,0C117.7,162.68,118,161.88,117.68,161.16Z" style="opacity:0.84;fill:url(#未命名漸層_20-18)"/><path d="M125.73,156.57h0l-2.27-2.23,0,0h0a.84.84,0,0,0-.33-.32,2.12,2.12,0,0,0-1.91,0,.84.84,0,0,0-.33.32h0l0,0-2.22,2.13c-.41.74-.11,1.59.9,2.17a5.82,5.82,0,0,0,5.25,0C125.75,158.08,126.07,157.29,125.73,156.57Z" style="opacity:0.84;fill:url(#未命名漸層_20-19)"/><path d="M134,151.43h0l-2.27-2.23,0,0h0a.84.84,0,0,0-.33-.32,2.12,2.12,0,0,0-1.91,0,.84.84,0,0,0-.33.32h0l0,0-2.22,2.13c-.41.74-.11,1.59.9,2.17a5.82,5.82,0,0,0,5.25,0C134.05,152.94,134.37,152.15,134,151.43Z" style="opacity:0.84;fill:url(#未命名漸層_20-20)"/></g><g id="green-light"><path d="M76.16,83.6l-2.09,1.16c-.29.16,0,.61.26.44L76.42,84c.29-.16,0-.61-.26-.44Z" style="fill:#0cef00"/><path d="M76.16,85.79l-2.09,1.16c-.29.16,0,.61.26.44l2.09-1.16c.29-.16,0-.61-.26-.44Z" style="fill:#0cef00"/><path d="M76.16,87.75l-2.09,1.16c-.29.16,0,.61.26.44l2.09-1.16c.29-.16,0-.61-.26-.44Z" style="fill:#0cef00"/><path d="M76.16,89.72l-2.09,1.16c-.29.16,0,.61.26.44l2.09-1.16c.29-.16,0-.61-.26-.44Z" style="fill:#0cef00"/><path d="M76.16,91.71l-2.09,1.16c-.29.16,0,.61.26.44l2.09-1.16c.29-.16,0-.61-.26-.44Z" style="fill:#0cef00"/><path d="M76.16,93.9l-2.09,1.16c-.29.16,0,.61.26.44l2.09-1.16c.29-.16,0-.61-.26-.44Z" style="fill:#0cef00"/><path d="M76.16,95.86,74.07,97c-.29.16,0,.61.26.44l2.09-1.16c.29-.16,0-.61-.26-.44Z" style="fill:#0cef00"/><path d="M76.16,97.83,74.07,99c-.29.16,0,.61.26.44l2.09-1.16c.29-.16,0-.61-.26-.44Z" style="fill:#0cef00"/><path d="M76.16,99.8,74.07,101c-.29.16,0,.61.26.44l2.09-1.16c.29-.16,0-.61-.26-.44Z" style="fill:#0cef00"/><path d="M76.16,101.76l-2.09,1.16c-.29.16,0,.61.26.44l2.09-1.16c.29-.16,0-.61-.26-.44Z" style="fill:#0cef00"/><path d="M59.33,93.14,57.24,94.3c-.29.16,0,.61.26.44l2.09-1.16c.29-.16,0-.61-.26-.44Z" style="fill:#0cef00"/><path d="M59.33,95.33l-2.09,1.16c-.29.16,0,.61.26.44l2.09-1.16c.29-.16,0-.61-.26-.44Z" style="fill:#0cef00"/><path d="M59.33,97.3l-2.09,1.16c-.29.16,0,.61.26.44l2.09-1.16c.29-.16,0-.61-.26-.44Z" style="fill:#0cef00"/><path d="M59.33,99.26l-2.09,1.16c-.29.16,0,.61.26.44l2.09-1.16c.29-.16,0-.61-.26-.44Z" style="fill:#0cef00"/><path d="M59.33,101.26l-2.09,1.16c-.29.16,0,.61.26.44l2.09-1.16c.29-.16,0-.61-.26-.44Z" style="fill:#0cef00"/><path d="M59.33,103.45l-2.09,1.16c-.29.16,0,.61.26.44l2.09-1.16c.29-.16,0-.61-.26-.44Z" style="fill:#0cef00"/><path d="M59.33,105.41l-2.09,1.16c-.29.16,0,.61.26.44l2.09-1.16c.29-.16,0-.61-.26-.44Z" style="fill:#0cef00"/><path d="M59.33,107.37l-2.09,1.16c-.29.16,0,.61.26.44l2.09-1.16c.29-.16,0-.61-.26-.44Z" style="fill:#0cef00"/><path d="M59.33,109.35l-2.09,1.16c-.29.16,0,.61.26.44l2.09-1.16c.29-.16,0-.61-.26-.44Z" style="fill:#0cef00"/><path d="M59.33,111.31l-2.09,1.16c-.29.16,0,.61.26.44l2.09-1.16c.29-.16,0-.61-.26-.44Z" style="fill:#0cef00"/></g><polygon id="screen-flash" points="86.22 102.21 78.04 107.02 77.99 112.68 86.22 107.74 86.22 102.21" style="fill:#b8ffa4;stroke:#231916;stroke-linejoin:round;stroke-width:0.1336227864645193px"/></svg>