<svg id="laboratory" xmlns="http://www.w3.org/2000/svg" viewBox="0 0 99.34 79.9"><title>laboratory2</title><polygon id="shadow" class="shadow" points="70.93 39.17 15.22 47.74 0 64.17 21.07 79.9 75.7 72.9 70.93 39.17" style="fill:#101111;opacity:0.10000000149011612;isolation:isolate"/><g id="laboratory-inside"><polygon points="68.12 26.37 47.54 38.26 47.54 54.32 68.12 42.43 68.12 26.37" style="fill:#5f82a9;stroke:#231916;stroke-linejoin:round;stroke-width:0.03902600705623627px"/><polygon points="68.12 42.43 68.12 26.37 94.84 41.8 94.84 57.86 68.12 42.43" style="fill:#4d7193;stroke:#231916;stroke-linejoin:round;stroke-width:0.03902600705623627px"/><polygon points="97.19 57.47 74.28 70.71 74.28 71.96 97.19 58.71 97.19 57.47" style="fill:#c8c9ca;stroke:#231916;stroke-linejoin:round;stroke-width:0.07062170654535294px"/><polygon points="74.28 70.71 45.25 53.96 45.25 55.2 74.28 71.96 74.28 70.71" style="fill:#b4b5b5;stroke:#231916;stroke-linejoin:round;stroke-width:0.07062170654535294px"/><polygon points="97.19 57.47 95.75 56.64 95.75 57.34 89.65 60.87 74.28 69.75 74.28 70.71 97.19 57.47" style="fill:#eeeeef;stroke:#231916;stroke-linejoin:round;stroke-width:0.07062170654535294px"/><polygon points="46.65 53.15 45.25 53.96 74.28 70.71 74.28 69.75 46.65 53.8 46.65 53.15" style="fill:#eeeeef;stroke:#231916;stroke-linejoin:round;stroke-width:0.07062170654535294px"/><polygon points="46.65 37.72 47.54 38.26 47.54 54.32 46.65 53.8 46.65 37.72" style="fill:#e3ddd0;stroke:#231916;stroke-linejoin:round;stroke-width:0.07062170654535294px"/><polygon points="46.65 37.72 68.12 25.31 68.12 26.37 47.54 38.26 46.65 37.72" style="fill:#e3ddd0;stroke:#231916;stroke-linejoin:round;stroke-width:0.07062170654535294px"/><polygon points="68.12 25.31 95.75 41.27 94.84 41.8 68.12 26.37 68.12 25.31" style="fill:#e3ddd0;stroke:#231916;stroke-linejoin:round;stroke-width:0.07062170654535294px"/><polygon points="94.84 57.86 95.75 57.34 95.75 41.27 94.84 41.8 94.84 57.86" style="fill:#d0c4b0;stroke:#231916;stroke-linejoin:round;stroke-width:0.07062170654535294px"/><polygon points="47.54 54.32 74.28 69.75 94.84 57.86 68.12 42.43 47.54 54.32" style="fill:#7191b9;stroke:#231916;stroke-linejoin:round;stroke-width:0.03902600705623627px"/><path d="M68.14,25.3l27.63,16V56.67l1.44.83v1.24L74.3,72l-29-16.77V54l1.39-.8V37.7L68.14,25.3m0-.21H68L46.56,37.5a.21.21,0,0,0-.11.18V53l-1.29.74a.21.21,0,0,0-.11.18V55.2a.21.21,0,0,0,.11.18l29,16.77a.21.21,0,0,0,.21,0L97.28,58.9a.21.21,0,0,0,.11-.18V57.48a.21.21,0,0,0-.11-.18L96,56.53V41.2a.21.21,0,0,0-.11-.18L68.21,25H68.1Z" transform="translate(0 0)" style="fill:#231916"/><path d="M74.57,35.58" transform="translate(0 0)" style="fill:#eeeeef;stroke:#231916;stroke-linejoin:round;stroke-width:0.04613227769732475px"/><circle cx="65.07" cy="52.83" r="0.26" style="fill:#595857;stroke:#231916;stroke-linejoin:round;stroke-width:0.030754851177334785px"/><circle cx="67.69" cy="52.83" r="0.26" style="fill:#595857;stroke:#231916;stroke-linejoin:round;stroke-width:0.030754851177334785px"/><circle cx="65.04" cy="54.41" r="0.26" style="fill:#595857;stroke:#231916;stroke-linejoin:round;stroke-width:0.030754851177334785px"/><circle cx="67.69" cy="54.41" r="0.26" style="fill:#595857;stroke:#231916;stroke-linejoin:round;stroke-width:0.030754851177334785px"/><polygon points="67.95 53.68 66.76 52.94 67.94 52.22 67.54 51.99 66.36 52.69 65.19 51.99 64.78 52.22 65.97 52.94 64.78 53.68 65.19 53.92 66.36 53.18 67.54 53.92 67.95 53.68" style="fill:#c8c9ca;stroke:#231916;stroke-linejoin:round;stroke-width:0.030754851177334785px"/><path d="M66.73,51.38h0a.43.43,0,0,0-.72,0h0v1.35h0a.18.18,0,0,0,.11.15.57.57,0,0,0,.51,0,.18.18,0,0,0,.11-.16h0V51.37Z" transform="translate(0 0)" style="fill:#c8c9ca;stroke:#231916;stroke-linejoin:round;stroke-width:0.030754851177334785px"/><ellipse cx="66.37" cy="51.38" rx="0.36" ry="0.2" style="fill:#c8c9ca;stroke:#231916;stroke-linejoin:round;stroke-width:0.030754851177334785px"/><path d="M66.58,51.3h0V49.93h-.44v1.38h0a.1.1,0,0,0,.06.09.33.33,0,0,0,.3,0A.1.1,0,0,0,66.58,51.3Z" transform="translate(0 0)" style="fill:#c8c9ca;stroke:#231916;stroke-linejoin:round;stroke-width:0.030754851177334785px"/><path d="M68.69,48.59h0c0-.7-1-1.26-2.33-1.26S64,47.89,64,48.59h0v.51a.78.78,0,0,0,0,.12,1.15,1.15,0,0,0,.68,1,3.64,3.64,0,0,0,3.3,0,1.13,1.13,0,0,0,.68-1,.79.79,0,0,0,0-.1v-.53Z" transform="translate(0 0)" style="fill:#595857;stroke:#231916;stroke-linejoin:round;stroke-width:0.030754851177334785px"/><ellipse cx="66.36" cy="48.59" rx="2.33" ry="1.26" style="fill:#595857;stroke:#231916;stroke-linejoin:round;stroke-width:0.030754851177334785px"/><polygon points="64.78 52.22 64.78 52.64 65.65 53.14 65.97 52.94 64.78 52.22" style="fill:#c8c9ca;stroke:#231916;stroke-linejoin:round;stroke-width:0.030754851177334785px"/><polygon points="67.94 52.22 67.94 52.64 67.08 53.14 66.76 52.94 67.94 52.22" style="fill:#c8c9ca;stroke:#231916;stroke-linejoin:round;stroke-width:0.030754851177334785px"/><polygon points="64.78 53.68 64.78 54.18 65.19 54.41 66.36 53.68 66.36 53.18 65.19 53.92 64.78 53.68" style="fill:#c8c9ca;stroke:#231916;stroke-linejoin:round;stroke-width:0.030754851177334785px"/><polygon points="64.78 53.68 65.19 53.92 65.19 54.41 64.78 54.18 64.78 53.68" style="fill:#c8c9ca;stroke:#231916;stroke-linejoin:round;stroke-width:0.030754851177334785px"/><polygon points="66.36 53.18 67.54 53.92 67.54 54.41 66.36 53.68 66.36 53.18" style="fill:#c8c9ca;stroke:#231916;stroke-linejoin:round;stroke-width:0.030754851177334785px"/><polygon points="67.95 53.68 67.95 54.22 67.54 54.41 67.54 53.92 67.95 53.68" style="fill:#c8c9ca;stroke:#231916;stroke-linejoin:round;stroke-width:0.030754851177334785px"/><path d="M54.78,33.1" transform="translate(0 0)" style="fill:none;stroke:#231916;stroke-linejoin:round;stroke-width:0.07688713073730469px"/><polygon points="83.5 36.56 74.94 31.88 74.92 38.89 83.49 43.58 83.5 36.56" style="fill:#f7f7f7;stroke:#231916;stroke-linejoin:round;stroke-width:0.038443565368652344px"/><polygon points="83.96 36.29 83.5 36.56 83.49 43.58 83.96 43.31 83.96 36.29" style="fill:#f7f7f7;stroke:#231916;stroke-linejoin:round;stroke-width:0.038443565368652344px"/><polygon points="75.4 31.61 74.94 31.88 83.5 36.56 83.96 36.29 75.4 31.61" style="fill:#f7f7f7;stroke:#231916;stroke-linejoin:round;stroke-width:0.038443565368652344px"/><polygon points="83.02 37.01 75.42 32.85 75.4 38.58 83.01 42.74 83.02 37.01" style="fill:#a38a78;stroke:#231916;stroke-linejoin:round;stroke-width:0.038443565368652344px"/><polygon points="81.76 37.29 80.2 36.44 80.2 37.68 81.76 38.52 81.76 37.29" style="fill:#fff;stroke:#231916;stroke-linejoin:round;stroke-width:0.033735014498233795px"/><polygon points="81.35 37.88 79.21 36.71 79.21 38.42 81.35 39.58 81.35 37.88" style="fill:#fff;stroke:#231916;stroke-linejoin:round;stroke-width:0.033735014498233795px"/><polygon points="78.43 37.35 76.1 36.08 76.1 37.94 78.43 39.21 78.43 37.35" style="fill:#fff;stroke:#231916;stroke-linejoin:round;stroke-width:0.033735014498233795px"/><polygon points="82.03 40.48 79.56 39.13 79.56 40.23 82.03 41.56 82.03 40.48" style="fill:#fff;stroke:#231916;stroke-linejoin:round;stroke-width:0.033735014498233795px"/><polygon points="77.95 35.62 76.58 34.87 76.58 35.96 77.95 36.7 77.95 35.62" style="fill:#fff;stroke:#231916;stroke-linejoin:round;stroke-width:0.033735014498233795px"/><polygon points="68.23 52.7 81.95 44.76 87.44 47.91 73.73 55.85 68.23 52.7" style="fill:#eeeeef;stroke:#231916;stroke-linejoin:round;stroke-width:0.04613227769732475px"/><polygon points="68.23 52.7 68.23 58.94 73.73 62.09 73.73 55.85 68.23 52.7" style="fill:#eeeeef;stroke:#231916;stroke-linejoin:round;stroke-width:0.04613227769732475px"/><polygon points="87.44 47.91 87.44 54.15 83.06 51.63 83.06 50.45 87.44 47.91" style="fill:#eeeeef;stroke:#231916;stroke-linejoin:round;stroke-width:0.04613227769732475px"/><polygon points="73.73 55.85 87.44 47.91 87.44 49.52 73.73 57.45 73.73 55.85" style="fill:#eeeeef;stroke:#231916;stroke-linejoin:round;stroke-width:0.04613227769732475px"/><polygon points="75.21 49.09 82.17 45.04 84.01 46.11 77.05 50.16 75.21 49.09" style="fill:#fff"/><path d="M82.14,45.06l1.78,1-6.89,4-1.78-1,6.89-4m0,0-7,4.08L77,50.21l7-4.08L82.14,45h0Z" transform="translate(0 0)" style="fill:#231916"/><path d="M78.43,44.81a.26.26,0,0,0-.13-.28.65.65,0,0,0-.68,0,.26.26,0,0,0-.13.29v3.66h0a.36.36,0,0,0,.14.28.54.54,0,0,0,.67,0,.36.36,0,0,0,.14-.29h0V44.81Z" transform="translate(0 0)" style="fill:#fff;stroke:#231916;stroke-linejoin:round;stroke-width:0.03531085327267647px"/><path d="M78.25,46.53a.17.17,0,0,0-.08-.18.42.42,0,0,0-.43,0,.17.17,0,0,0-.09.19v1.92h0a.23.23,0,0,0,.09.18.35.35,0,0,0,.43,0,.23.23,0,0,0,.09-.19V46.53Z" transform="translate(0 0)" style="fill:#8c5ea3"/><path d="M77.63,45a.24.24,0,0,1,0-.43.62.62,0,0,1,.64,0,.24.24,0,0,1,0,.43A.64.64,0,0,1,77.63,45Z" transform="translate(0 0)" style="fill:#fff;stroke:#231916;stroke-linejoin:round;stroke-width:0.03531085327267647px"/><path d="M81.23,43.2a.26.26,0,0,0-.13-.28.65.65,0,0,0-.68,0,.26.26,0,0,0-.13.29v3.66h0a.36.36,0,0,0,.14.28.54.54,0,0,0,.67,0,.36.36,0,0,0,.14-.29h0V43.2Z" transform="translate(0 0)" style="fill:#fff;stroke:#231916;stroke-linejoin:round;stroke-width:0.03531085327267647px"/><path d="M80.44,43.35a.24.24,0,0,1,0-.43.62.62,0,0,1,.64,0,.24.24,0,0,1,0,.43A.64.64,0,0,1,80.44,43.35Z" transform="translate(0 0)" style="fill:#fff;stroke:#231916;stroke-linejoin:round;stroke-width:0.03531085327267647px"/><path d="M81.06,44.87a.17.17,0,0,0-.08-.18.42.42,0,0,0-.43,0,.17.17,0,0,0-.09.19V46.8h0a.23.23,0,0,0,.09.18A.35.35,0,0,0,81,47a.23.23,0,0,0,.09-.19V44.87Z" transform="translate(0 0)" style="fill:#8c5ea3"/><path d="M79.86,44a.26.26,0,0,0-.13-.28.65.65,0,0,0-.68,0,.26.26,0,0,0-.13.29v3.66h0a.36.36,0,0,0,.14.28.54.54,0,0,0,.67,0,.36.36,0,0,0,.14-.29h0V44Z" transform="translate(0 0)" style="fill:#fff;stroke:#231916;stroke-linejoin:round;stroke-width:0.03531085327267647px"/><path d="M79.07,44.2a.24.24,0,0,1,0-.43.62.62,0,0,1,.64,0,.24.24,0,0,1,0,.43A.64.64,0,0,1,79.07,44.2Z" transform="translate(0 0)" style="fill:#fff;stroke:#231916;stroke-linejoin:round;stroke-width:0.03531085327267647px"/><path d="M79.7,45.68a.17.17,0,0,0-.08-.18.42.42,0,0,0-.43,0,.17.17,0,0,0-.09.19v1.92h0a.23.23,0,0,0,.09.18.35.35,0,0,0,.43,0,.23.23,0,0,0,.09-.19V45.68Z" transform="translate(0 0)" style="fill:#8c5ea3"/><path d="M82.61,44.06a.16.16,0,0,0-.08-.18.41.41,0,0,0-.42,0,.16.16,0,0,0-.08.18v1.88h0a.23.23,0,0,0,.09.18.34.34,0,0,0,.42,0,.23.23,0,0,0,.09-.18V44Z" transform="translate(0 0)" style="fill:#fff;stroke:#231916;stroke-miterlimit:10;stroke-width:0.03531085327267647px"/><path d="M77.14,47.14a.16.16,0,0,0-.08-.18.41.41,0,0,0-.42,0,.16.16,0,0,0-.08.18V49h0a.23.23,0,0,0,.09.18.34.34,0,0,0,.42,0,.23.23,0,0,0,.09-.18v-1.9Z" transform="translate(0 0)" style="fill:#fff;stroke:#231916;stroke-miterlimit:10;stroke-width:0.03531085327267647px"/><g id="lab-yellow"><path d="M78.25,46.53a.17.17,0,0,0-.08-.18.42.42,0,0,0-.43,0,.17.17,0,0,0-.09.19v1.92h0a.23.23,0,0,0,.09.18.35.35,0,0,0,.43,0,.23.23,0,0,0,.09-.19V46.53Z" transform="translate(0 0)" style="fill:#fff578"/><path d="M81.06,44.87a.17.17,0,0,0-.08-.18.42.42,0,0,0-.43,0,.17.17,0,0,0-.09.19V46.8h0a.23.23,0,0,0,.09.18A.35.35,0,0,0,81,47a.23.23,0,0,0,.09-.19V44.87Z" transform="translate(0 0)" style="fill:#fff578"/><path d="M79.7,45.68a.17.17,0,0,0-.08-.18.42.42,0,0,0-.43,0,.17.17,0,0,0-.09.19v1.92h0a.23.23,0,0,0,.09.18.35.35,0,0,0,.43,0,.23.23,0,0,0,.09-.19V45.68Z" transform="translate(0 0)" style="fill:#fff578"/></g><g id="lab-green"><path d="M78.25,46.53a.17.17,0,0,0-.08-.18.42.42,0,0,0-.43,0,.17.17,0,0,0-.09.19v1.92h0a.23.23,0,0,0,.09.18.35.35,0,0,0,.43,0,.23.23,0,0,0,.09-.19V46.53Z" transform="translate(0 0)" style="fill:#92f464"/><path d="M81.06,44.87a.17.17,0,0,0-.08-.18.42.42,0,0,0-.43,0,.17.17,0,0,0-.09.19V46.8h0a.23.23,0,0,0,.09.18A.35.35,0,0,0,81,47a.23.23,0,0,0,.09-.19V44.87Z" transform="translate(0 0)" style="fill:#92f464"/><path d="M79.7,45.68a.17.17,0,0,0-.08-.18.42.42,0,0,0-.43,0,.17.17,0,0,0-.09.19v1.92h0a.23.23,0,0,0,.09.18.35.35,0,0,0,.43,0,.23.23,0,0,0,.09-.19V45.68Z" transform="translate(0 0)" style="fill:#92f464"/></g><path d="M81.23,43.33v1.3h0a.36.36,0,0,1-.14.29.54.54,0,0,1-.67,0,.36.36,0,0,1-.14-.28h0v-.76l-.43.25v1.31h0a.36.36,0,0,1-.14.29.54.54,0,0,1-.67,0,.36.36,0,0,1-.14-.28h0v-.77l-.5.29V46.2h0a.36.36,0,0,1-.14.29.54.54,0,0,1-.67,0,.36.36,0,0,1-.14-.28h0v-.74l-2.29,1.34L77,47.88l6.8-4L82,42.81Z" transform="translate(0 0)" style="fill:#fff;stroke:#231916;stroke-linejoin:round;stroke-width:0.03531085327267647px"/><polygon points="70.83 52.61 73.2 51.25 76.49 53.17 74.15 54.55 70.83 52.61" style="fill:none;stroke:#000;stroke-linejoin:round;stroke-width:0.05000000074505806px"/><polygon points="70.83 52.06 73.2 50.69 76.53 52.61 74.19 53.99 70.83 52.06" style="fill:#b4b5b5;stroke:#000;stroke-linejoin:round;stroke-width:0.05000000074505806px"/><polygon points="70.83 52.06 70.83 52.61 74.15 54.55 74.19 53.99 70.83 52.06" style="fill:#b4b5b5;stroke:#000;stroke-linejoin:round;stroke-width:0.05000000074505806px"/><polygon points="76.53 52.61 74.19 53.99 74.15 54.55 76.49 53.17 76.53 52.61" style="fill:#b4b5b5;stroke:#000;stroke-linejoin:round;stroke-width:0.05000000074505806px"/><polygon points="71.75 52.05 73.15 51.27 71.75 50.46 71.75 52.05" style="fill:#c8c9ca;stroke:#000;stroke-linejoin:round;stroke-width:0.05000000074505806px"/><polygon points="71.75 50.09 71.76 49.56 73.2 48.56 76.18 50.29 73.84 51.67 71.75 50.46 71.75 50.09" style="fill:#b4b5b5;stroke:#000;stroke-linejoin:round;stroke-width:0.05000000074505806px"/><polygon points="72.24 49.84 71.29 49.29 73.2 48.19 76.18 49.92 73.84 51.3 71.75 50.09 72.24 49.84" style="fill:#b4b5b5;stroke:#000;stroke-linejoin:round;stroke-width:0.05000000074505806px"/><polygon points="71.75 50.09 71.75 50.46 73.84 51.67 73.84 51.3 71.75 50.09" style="fill:#b4b5b5;stroke:#000;stroke-linejoin:round;stroke-width:0.05000000074505806px"/><polygon points="76.18 49.92 73.84 51.3 73.84 51.67 76.18 50.29 76.18 49.92" style="fill:#b4b5b5;stroke:#000;stroke-linejoin:round;stroke-width:0.05000000074505806px"/><path d="M71.28,50.2" transform="translate(0 0)" style="fill:#b4b5b5;stroke:#000;stroke-linejoin:round;stroke-width:0.05000000074505806px"/><polygon points="71.28 47.69 71.75 47.97 71.76 52.06 71.28 51.78 71.28 47.69" style="fill:#c8c9ca;stroke:#000;stroke-linejoin:round;stroke-width:0.05000000074505806px"/><polygon points="72.68 50.4 74.64 49.26 75.62 49.83 73.66 50.97 72.68 50.4" style="fill:#ddf0f7;stroke:#000;stroke-linejoin:round;stroke-width:0.05000000074505806px"/><polygon points="71.75 49.56 73.15 48.73 73.15 47.14 71.75 47.97 71.75 49.56" style="fill:#c8c9ca;stroke:#000;stroke-linejoin:round;stroke-width:0.05000000074505806px"/><path d="M71.14,49.09a.28.28,0,0,1,.46-.27,1,1,0,0,1,.45.79.28.28,0,0,1-.46.27A1,1,0,0,1,71.14,49.09Z" transform="translate(0 0)" style="fill:none;stroke:#000;stroke-linejoin:round;stroke-width:0.05000000074505806px"/><path d="M72.06,49.62a1,1,0,0,0-.45-.79.33.33,0,0,0-.31,0h0l-.39.23.62,1.13.41-.24A.33.33,0,0,0,72.06,49.62Z" transform="translate(0 0)" style="fill:#c8c9ca;stroke:#000;stroke-linejoin:round;stroke-width:0.05000000074505806px"/><path d="M70.76,49.31a.28.28,0,0,1,.46-.27,1,1,0,0,1,.45.79.28.28,0,0,1-.46.27A1,1,0,0,1,70.76,49.31Z" transform="translate(0 0)" style="fill:#c8c9ca;stroke:#000;stroke-miterlimit:10;stroke-width:0.05000000074505806px"/><path d="M70.76,49.31a.28.28,0,0,1,.46-.27,1,1,0,0,1,.45.79.28.28,0,0,1-.46.27A1,1,0,0,1,70.76,49.31Z" transform="translate(0 0)" style="fill:none;stroke:#000;stroke-linejoin:round;stroke-width:0.05000000074505806px"/><path d="M71.5,49.73a.57.57,0,0,0-.25-.44.18.18,0,0,0-.17,0h0l-.22.13.35.63.23-.13A.18.18,0,0,0,71.5,49.73Z" transform="translate(0 0)" style="fill:#c8c9ca;stroke:#000;stroke-linejoin:round;stroke-width:0.05000000074505806px"/><path d="M70.78,49.56a.16.16,0,0,1,.26-.15.57.57,0,0,1,.25.44A.16.16,0,0,1,71,50,.56.56,0,0,1,70.78,49.56Z" transform="translate(0 0)" style="fill:#c8c9ca;stroke:#000;stroke-miterlimit:10;stroke-width:0.05000000074505806px"/><path d="M70.78,49.56a.16.16,0,0,1,.26-.15.57.57,0,0,1,.25.44A.16.16,0,0,1,71,50,.56.56,0,0,1,70.78,49.56Z" transform="translate(0 0)" style="fill:none;stroke:#000;stroke-linejoin:round;stroke-width:0.05000000074505806px"/><polygon points="71.26 47.68 73.02 46.67 75.24 47.96 73.5 48.98 71.26 47.68" style="fill:#b4b5b5;stroke:#000;stroke-linejoin:round;stroke-width:0.05000000074505806px"/><polygon points="71.26 47.18 73.02 46.17 74.31 46.39 72.57 47.41 71.26 47.18" style="fill:#b4b5b5;stroke:#000;stroke-linejoin:round;stroke-width:0.05000000074505806px"/><polygon points="71.26 47.18 71.26 47.68 73.5 48.98 72.57 47.41 71.26 47.18" style="fill:#b4b5b5;stroke:#000;stroke-linejoin:round;stroke-width:0.05000000074505806px"/><polygon points="74.31 46.39 72.57 47.41 73.5 48.98 75.24 47.96 74.31 46.39" style="fill:#b4b5b5;stroke:#000;stroke-linejoin:round;stroke-width:0.05000000074505806px"/><path d="M71.6,47.88" transform="translate(0 0)" style="fill:#b4b5b5;stroke:#000;stroke-linejoin:round;stroke-width:0.05000000074505806px"/><path d="M74.46,49.11v-.28h-1v.28a.23.23,0,0,0,.14.2.74.74,0,0,0,.67,0A.23.23,0,0,0,74.46,49.11Z" transform="translate(0 0)" style="fill:#eeeeef;stroke:#000;stroke-linejoin:round;stroke-width:0.05000000074505806px"/><path d="M73.66,49a.21.21,0,0,1,0-.39.74.74,0,0,1,.67,0,.21.21,0,0,1,0,.39A.74.74,0,0,1,73.66,49Z" transform="translate(0 0)" style="fill:#eeeeef;stroke:#000;stroke-miterlimit:10;stroke-width:0.05000000074505806px"/><path d="M73.66,49a.21.21,0,0,1,0-.39.74.74,0,0,1,.67,0,.21.21,0,0,1,0,.39A.74.74,0,0,1,73.66,49Z" transform="translate(0 0)" style="fill:none;stroke:#000;stroke-linejoin:round;stroke-width:0.05000000074505806px"/><path d="M74.77,48.63v-.46H73.21v.47a.38.38,0,0,0,.23.33,1.22,1.22,0,0,0,1.1,0A.38.38,0,0,0,74.77,48.63Z" transform="translate(0 0)" style="fill:#eeeeef;stroke:#000;stroke-linejoin:round;stroke-width:0.05000000074505806px"/><path d="M73.44,48.5a.34.34,0,0,1,0-.64,1.22,1.22,0,0,1,1.1,0,.34.34,0,0,1,0,.64A1.22,1.22,0,0,1,73.44,48.5Z" transform="translate(0 0)" style="fill:#eeeeef;stroke:#000;stroke-miterlimit:10;stroke-width:0.05000000074505806px"/><path d="M73.44,48.5a.34.34,0,0,1,0-.64,1.22,1.22,0,0,1,1.1,0,.34.34,0,0,1,0,.64A1.22,1.22,0,0,1,73.44,48.5Z" transform="translate(0 0)" style="fill:none;stroke:#000;stroke-linejoin:round;stroke-width:0.05000000074505806px"/><polygon points="71.91 48.52 74.46 47.07 75.9 47.94 73.37 49.41 71.91 48.52" style="fill:#c8c9ca;stroke:#000;stroke-linejoin:round;stroke-width:0.05000000074505806px"/><polygon points="71.91 47.16 74.46 45.7 75.9 47.5 73.37 48.97 71.91 47.16" style="fill:#c8c9ca;stroke:#000;stroke-linejoin:round;stroke-width:0.05000000074505806px"/><polygon points="71.91 47.16 71.91 48.52 73.37 49.41 73.37 48.97 71.91 47.16" style="fill:#c8c9ca;stroke:#000;stroke-linejoin:round;stroke-width:0.05000000074505806px"/><polygon points="75.9 47.5 73.37 48.97 73.37 49.41 75.9 47.94 75.9 47.5" style="fill:#c8c9ca;stroke:#000;stroke-linejoin:round;stroke-width:0.05000000074505806px"/><path d="M72.24,48.72" transform="translate(0 0)" style="fill:#c8c9ca;stroke:#000;stroke-linejoin:round;stroke-width:0.05000000074505806px"/><path d="M74.91,47.69l.45-.25-.7-1.24-.47.26a.45.45,0,0,0-.22.36.92.92,0,0,0,.49.88A.45.45,0,0,0,74.91,47.69Z" transform="translate(0 0)" style="fill:#eeeeef;stroke:#000;stroke-linejoin:round;stroke-width:0.05000000074505806px"/><path d="M74.45,46.55a.42.42,0,0,1,.64-.36.92.92,0,0,1,.49.88.42.42,0,0,1-.64.36A.92.92,0,0,1,74.45,46.55Z" transform="translate(0 0)" style="fill:#eeeeef;stroke:#000;stroke-miterlimit:10;stroke-width:0.05000000074505806px"/><path d="M74.45,46.55a.42.42,0,0,1,.64-.36.92.92,0,0,1,.49.88.42.42,0,0,1-.64.36A.92.92,0,0,1,74.45,46.55Z" transform="translate(0 0)" style="fill:none;stroke:#000;stroke-linejoin:round;stroke-width:0.05000000074505806px"/><path d="M75.44,47.26l.25-.14-.59-1-.26.14a.38.38,0,0,0-.19.31.77.77,0,0,0,.42.74A.38.38,0,0,0,75.44,47.26Z" transform="translate(0 0)" style="fill:#eeeeef;stroke:#000;stroke-linejoin:round;stroke-width:0.05000000074505806px"/><path d="M74.92,46.38a.36.36,0,0,1,.54-.3.77.77,0,0,1,.42.74.36.36,0,0,1-.54.3A.77.77,0,0,1,74.92,46.38Z" transform="translate(0 0)" style="fill:#eeeeef;stroke:#000;stroke-miterlimit:10;stroke-width:0.05000000074505806px"/><path d="M74.92,46.38a.36.36,0,0,1,.54-.3.77.77,0,0,1,.42.74.36.36,0,0,1-.54.3A.77.77,0,0,1,74.92,46.38Z" transform="translate(0 0)" style="fill:none;stroke:#000;stroke-linejoin:round;stroke-width:0.05000000074505806px"/><path d="M75.06,46.45a.25.25,0,0,1,.38-.21.54.54,0,0,1,.29.52.25.25,0,0,1-.38.21A.54.54,0,0,1,75.06,46.45Z" transform="translate(0 0)" style="fill:none;stroke:#000;stroke-linejoin:round;stroke-width:0.05000000074505806px"/><path d="M75.54,46.86a.54.54,0,0,0-.29-.52.11.11,0,0,0-.19.11.54.54,0,0,0,.29.52.11.11,0,0,0,.19-.11Z" transform="translate(0 0)" style="fill:#ddf0f7;stroke:#000;stroke-linejoin:round;stroke-width:0.05000000074505806px"/><path d="M73.72,48.3l.45-.25-.7-1.24-.47.26a.45.45,0,0,0-.22.36.92.92,0,0,0,.49.88A.45.45,0,0,0,73.72,48.3Z" transform="translate(0 0)" style="fill:#eeeeef;stroke:#000;stroke-linejoin:round;stroke-width:0.05000000074505806px"/><path d="M73.26,47.2a.42.42,0,0,1,.64-.36.92.92,0,0,1,.49.88.42.42,0,0,1-.64.36A.92.92,0,0,1,73.26,47.2Z" transform="translate(0 0)" style="fill:#eeeeef;stroke:#000;stroke-miterlimit:10;stroke-width:0.05000000074505806px"/><path d="M73.26,47.2a.42.42,0,0,1,.64-.36.92.92,0,0,1,.49.88.42.42,0,0,1-.64.36A.92.92,0,0,1,73.26,47.2Z" transform="translate(0 0)" style="fill:none;stroke:#000;stroke-linejoin:round;stroke-width:0.05000000074505806px"/><path d="M74.25,47.87l.25-.14-.59-1-.26.14a.38.38,0,0,0-.19.31.77.77,0,0,0,.42.74A.38.38,0,0,0,74.25,47.87Z" transform="translate(0 0)" style="fill:#eeeeef;stroke:#000;stroke-linejoin:round;stroke-width:0.05000000074505806px"/><path d="M73.73,47a.36.36,0,0,1,.54-.3.77.77,0,0,1,.42.74.36.36,0,0,1-.54.3A.77.77,0,0,1,73.73,47Z" transform="translate(0 0)" style="fill:#eeeeef;stroke:#000;stroke-miterlimit:10;stroke-width:0.05000000074505806px"/><path d="M73.73,47a.36.36,0,0,1,.54-.3.77.77,0,0,1,.42.74.36.36,0,0,1-.54.3A.77.77,0,0,1,73.73,47Z" transform="translate(0 0)" style="fill:none;stroke:#000;stroke-linejoin:round;stroke-width:0.05000000074505806px"/><path d="M73.87,47.05a.25.25,0,0,1,.38-.21.54.54,0,0,1,.29.52.25.25,0,0,1-.38.21A.54.54,0,0,1,73.87,47.05Z" transform="translate(0 0)" style="fill:none;stroke:#000;stroke-linejoin:round;stroke-width:0.05000000074505806px"/><path d="M74.35,47.47a.54.54,0,0,0-.29-.52.11.11,0,0,0-.19.11.54.54,0,0,0,.29.52.11.11,0,0,0,.19-.11Z" transform="translate(0 0)" style="fill:#ddf0f7;stroke:#000;stroke-linejoin:round;stroke-width:0.05000000074505806px"/><path d="M54.58,35.57" transform="translate(0 0)" style="fill:#c8c9ca;stroke:#231916;stroke-linejoin:round;stroke-width:0.03326593339443207px"/><polygon points="54.06 44.19 67.95 36.15 73.51 39.35 59.63 47.39 54.06 44.19" style="fill:#eeeeef;stroke:#231916;stroke-linejoin:round;stroke-width:0.04613227769732475px"/><polygon points="54.06 44.19 54.06 50.51 59.63 53.7 59.63 47.39 54.06 44.19" style="fill:#eeeeef;stroke:#231916;stroke-linejoin:round;stroke-width:0.04613227769732475px"/><polygon points="73.51 39.35 73.51 45.67 69.08 43.11 69.08 41.92 73.51 39.35" style="fill:#eeeeef;stroke:#231916;stroke-linejoin:round;stroke-width:0.04613227769732475px"/><polygon points="59.63 47.39 73.51 39.35 73.51 40.97 59.63 49.01 59.63 47.39" style="fill:#eeeeef;stroke:#231916;stroke-linejoin:round;stroke-width:0.04613227769732475px"/><polygon points="63.92 38.52 68.08 36.12 72.25 38.52 68.08 40.94 63.92 38.52" style="fill:#595857;stroke:#231916;stroke-linejoin:round;stroke-width:0.038443565368652344px"/><polygon points="68.08 41.35 68.08 40.94 63.92 38.52 63.93 39 68.08 41.35" style="fill:#595857;stroke:#231916;stroke-linejoin:round;stroke-width:0.038443565368652344px"/><polygon points="68.08 41.35 68.08 40.94 72.25 38.52 72.24 39 68.08 41.35" style="fill:#595857;stroke:#231916;stroke-linejoin:round;stroke-width:0.038443565368652344px"/><polygon points="63.77 32.31 67.67 34.58 68.09 36.07 68.09 41.09 63.75 38.57 63.77 32.31" style="fill:#c8c9ca;stroke:#231916;stroke-linejoin:round;stroke-width:0.038443565368652344px"/><polygon points="71.99 32.05 67.67 34.58 63.77 32.31 68.09 29.81 71.99 32.05" style="fill:#c8c9ca;stroke:#231916;stroke-linejoin:round;stroke-width:0.038443565368652344px"/><polygon points="72.41 38.58 68.09 41.09 68.09 36.07 67.67 34.58 71.99 32.05 72.41 33.53 72.41 38.58" style="fill:#c8c9ca;stroke:#231916;stroke-linejoin:round;stroke-width:0.038443565368652344px"/><polygon points="68.09 36.07 72.41 33.53 71.99 32.05 67.67 34.58 68.09 36.07" style="fill:#c8c9ca;stroke:#231916;stroke-linejoin:round;stroke-width:0.038443565368652344px"/><polygon points="63.77 32.31 67.67 34.58 68.09 36.07 63.75 33.58 63.77 32.31" style="fill:#c8c9ca;stroke:#231916;stroke-linejoin:round;stroke-width:0.038443565368652344px"/><polygon points="67.26 35.59 67.25 40.6 63.75 38.57 63.75 33.58 67.26 35.59" style="fill:#c8c9ca;stroke:#231916;stroke-linejoin:round;stroke-width:0.038443565368652344px"/><polygon points="68.43 37.69 68.86 37.44 68.86 39.15 68.43 39.39 68.43 37.69" style="fill:#595857;stroke:#231916;stroke-linejoin:round;stroke-width:0.038443565368652344px"/><ellipse cx="71.68" cy="33.08" rx="0.29" ry="0.39" transform="matrix(0.94, -0.35, 0.35, 0.94, -7.06, 27.35)" style="fill:#595857;stroke:#231916;stroke-linejoin:round;stroke-width:0.038443565368652344px"/><polygon points="68.55 35.45 70.95 34.03 70.72 33.21 68.31 34.62 68.55 35.45" style="fill:#a7dbf2;stroke:#231916;stroke-linejoin:round;stroke-width:0.038443565368652344px"/><path d="M65.29,42.35h0V41.2h1.48v1.11h0a.36.36,0,0,1-.22.31,1.16,1.16,0,0,1-1,0A.36.36,0,0,1,65.29,42.35Z" transform="translate(0 0)" style="fill:#fff;stroke:#231916;stroke-linejoin:round;stroke-width:0.03531085327267647px"/><path d="M65.21,42.13h0V40.9h1.64v1.23h0a.41.41,0,0,1-.24.34,1.29,1.29,0,0,1-1.16,0A.4.4,0,0,1,65.21,42.13Z" transform="translate(0 0)" style="fill:#fff;stroke:#231916;stroke-linejoin:round;stroke-width:0.03531085327267647px"/><path d="M65.2,40.9a.52.52,0,0,1,.33-.49h1a.48.48,0,0,1,.33.49.4.4,0,0,1-.24.35,1.29,1.29,0,0,1-1.17,0A.41.41,0,0,1,65.2,40.9Z" transform="translate(0 0)" style="fill:#fff;stroke:#231916;stroke-linejoin:round;stroke-width:0.03531085327267647px"/><path d="M66.5,40.92a.29.29,0,0,0,0-.55,1,1,0,0,0-.94,0,.29.29,0,0,0,0,.55A1,1,0,0,0,66.5,40.92Z" transform="translate(0 0)" style="fill:#fff"/><path d="M66.5,40.92a.29.29,0,0,0,0-.55,1,1,0,0,0-.94,0,.29.29,0,0,0,0,.55A1,1,0,0,0,66.5,40.92Z" transform="translate(0 0)" style="fill:none;stroke:#231916;stroke-linejoin:round;stroke-width:0.03531085327267647px"/><path d="M65.34,40.6h0v-.15h1.37v.15h0a.34.34,0,0,1-.2.29,1.07,1.07,0,0,1-1,0A.33.33,0,0,1,65.34,40.6Z" transform="translate(0 0)" style="fill:#fff;stroke:#231916;stroke-linejoin:round;stroke-width:0.03531085327267647px"/><path d="M66.51,40.68a.3.3,0,0,0,0-.56,1.07,1.07,0,0,0-1,0,.3.3,0,0,0,0,.56A1.07,1.07,0,0,0,66.51,40.68Z" transform="translate(0 0)" style="fill:#fff"/><path d="M66.51,40.68a.3.3,0,0,0,0-.56,1.07,1.07,0,0,0-1,0,.3.3,0,0,0,0,.56A1.07,1.07,0,0,0,66.51,40.68Z" transform="translate(0 0)" style="fill:#fff;stroke:#231916;stroke-linejoin:round;stroke-width:0.03531085327267647px"/><path d="M63.14,42.1h0V41h1.48v1.11h0a.36.36,0,0,1-.22.31,1.16,1.16,0,0,1-1,0A.36.36,0,0,1,63.14,42.1Z" transform="translate(0 0)" style="fill:#fff;stroke:#231916;stroke-linejoin:round;stroke-width:0.03531085327267647px"/><path d="M63,41.88h0V40.65h1.64v1.23h0a.41.41,0,0,1-.24.34,1.29,1.29,0,0,1-1.16,0A.4.4,0,0,1,63,41.88Z" transform="translate(0 0)" style="fill:#fff;stroke:#231916;stroke-linejoin:round;stroke-width:0.03531085327267647px"/><path d="M63,40.65a.52.52,0,0,1,.33-.49h1a.48.48,0,0,1,.33.49.4.4,0,0,1-.24.35,1.29,1.29,0,0,1-1.17,0A.41.41,0,0,1,63,40.65Z" transform="translate(0 0)" style="fill:#fff;stroke:#231916;stroke-linejoin:round;stroke-width:0.03531085327267647px"/><path d="M64.31,40.67a.29.29,0,0,0,0-.55,1,1,0,0,0-.94,0,.29.29,0,0,0,0,.55A1,1,0,0,0,64.31,40.67Z" transform="translate(0 0)" style="fill:#fff"/><path d="M64.31,40.67a.29.29,0,0,0,0-.55,1,1,0,0,0-.94,0,.29.29,0,0,0,0,.55A1,1,0,0,0,64.31,40.67Z" transform="translate(0 0)" style="fill:none;stroke:#231916;stroke-linejoin:round;stroke-width:0.03531085327267647px"/><path d="M63.14,40.35h0V40.2h1.37v.15h0a.34.34,0,0,1-.2.29,1.07,1.07,0,0,1-1,0A.33.33,0,0,1,63.14,40.35Z" transform="translate(0 0)" style="fill:#fff;stroke:#231916;stroke-linejoin:round;stroke-width:0.03531085327267647px"/><path d="M64.32,40.43a.3.3,0,0,0,0-.56,1.07,1.07,0,0,0-1,0,.3.3,0,0,0,0,.56A1.07,1.07,0,0,0,64.32,40.43Z" transform="translate(0 0)" style="fill:#fff"/><path d="M64.32,40.43a.3.3,0,0,0,0-.56,1.07,1.07,0,0,0-1,0,.3.3,0,0,0,0,.56A1.07,1.07,0,0,0,64.32,40.43Z" transform="translate(0 0)" style="fill:#fff;stroke:#231916;stroke-linejoin:round;stroke-width:0.03531085327267647px"/><path d="M58.06,43.9h0a21.77,21.77,0,0,1,1.28-2h0v-.7l.17.08a.74.74,0,0,0,.61,0l.17-.08v.65s1.26,1.85,1.29,2h0a.62.62,0,0,1,0,.08c0,.58-.79,1-1.77,1s-1.77-.47-1.77-1Z" transform="translate(0 0)" style="fill:none;stroke:#231916;stroke-linejoin:round;stroke-width:0.05000000074505806px"/><path d="M59.82,40.59a.57.57,0,0,1,.65.39.37.37,0,0,1-.26.3.21.21,0,0,0,.08-.16.54.54,0,0,0-1,0,.21.21,0,0,0,.08.16.37.37,0,0,1-.26-.3A.57.57,0,0,1,59.82,40.59Z" transform="translate(0 0)" style="fill:none;stroke:#231916;stroke-linejoin:round;stroke-width:0.05000000074505806px"/><path d="M58.06,43.9h0a21.77,21.77,0,0,1,1.28-2h0v-.7l.17.08a.74.74,0,0,0,.61,0l.17-.08v.65s1.26,1.85,1.29,2h0a.62.62,0,0,1,0,.08c0,.58-.79,1-1.77,1s-1.77-.47-1.77-1Z" transform="translate(0 0)" style="fill:#e5e5e5;opacity:0.5;isolation:isolate"/><path d="M59.82,40.59a.57.57,0,0,1,.65.39.37.37,0,0,1-.26.3.21.21,0,0,0,.08-.16.54.54,0,0,0-1,0,.21.21,0,0,0,.08.16.37.37,0,0,1-.26-.3A.57.57,0,0,1,59.82,40.59Z" transform="translate(0 0)" style="fill:#eeeeef;opacity:0.5;isolation:isolate"/><path d="M58.37,43.88a7,7,0,0,1,.53-.8,1.68,1.68,0,0,1,1.83,0,6.93,6.93,0,0,1,.54.8h0a.43.43,0,0,1,0,.06,1.74,1.74,0,0,1-2.91,0,.43.43,0,0,1,0-.07h0Z" transform="translate(0 0)" style="fill:#f96491"/><g id="lab-dish"><path d="M80.86,50.32v-.44H78.54v.46a.57.57,0,0,0,.34.49,1.81,1.81,0,0,0,1.64,0A.56.56,0,0,0,80.86,50.32Z" transform="translate(0 0)" style="fill:#fff;stroke:#000;stroke-linejoin:round;stroke-width:0.05000000074505806px"/><path d="M78.88,50.36a.5.5,0,0,1,0-1,1.81,1.81,0,0,1,1.64,0,.5.5,0,0,1,0,1A1.81,1.81,0,0,1,78.88,50.36Z" transform="translate(0 0)" style="fill:#fff;stroke:#000;stroke-miterlimit:10;stroke-width:0.05000000074505806px"/><path d="M78.88,50.36a.5.5,0,0,1,0-1,1.81,1.81,0,0,1,1.64,0,.5.5,0,0,1,0,1A1.81,1.81,0,0,1,78.88,50.36Z" transform="translate(0 0)" style="fill:#fff;stroke:#000;stroke-linejoin:round;stroke-width:0.05000000074505806px"/><path d="M80.54,49.81a1.78,1.78,0,0,0-1.68,0,.26.26,0,0,0,0,.52h0a1.77,1.77,0,0,0,1.68,0,.26.26,0,1,0,0-.52Z" transform="translate(0 0)" style="fill:#fff;stroke:#000;stroke-miterlimit:10;stroke-width:0.05000000074505806px"/><path id="lab-purple" d="M80.54,49.81a1.78,1.78,0,0,0-1.68,0,.26.26,0,0,0,0,.52h0a1.77,1.77,0,0,0,1.68,0,.26.26,0,1,0,0-.52Z" transform="translate(0 0)" style="fill:#8c5ea3"/></g><circle cx="82.79" cy="58.81" r="0.26" style="fill:#595857;stroke:#231916;stroke-linejoin:round;stroke-width:0.030754851177334785px"/><circle cx="85.42" cy="58.81" r="0.26" style="fill:#595857;stroke:#231916;stroke-linejoin:round;stroke-width:0.030754851177334785px"/><circle cx="82.76" cy="60.39" r="0.26" style="fill:#595857;stroke:#231916;stroke-linejoin:round;stroke-width:0.030754851177334785px"/><circle cx="85.42" cy="60.39" r="0.26" style="fill:#595857;stroke:#231916;stroke-linejoin:round;stroke-width:0.030754851177334785px"/><polygon points="85.67 59.65 84.48 58.91 85.67 58.2 85.26 57.96 84.09 58.67 82.92 57.96 82.51 58.2 83.7 58.91 82.51 59.65 82.92 59.89 84.09 59.16 85.26 59.89 85.67 59.65" style="fill:#c8c9ca;stroke:#231916;stroke-linejoin:round;stroke-width:0.030754851177334785px"/><path d="M84.45,57.36h0a.43.43,0,0,0-.72,0h0v1.35h0a.18.18,0,0,0,.11.15.57.57,0,0,0,.51,0,.18.18,0,0,0,.11-.16h0V57.35Z" transform="translate(0 0)" style="fill:#c8c9ca;stroke:#231916;stroke-linejoin:round;stroke-width:0.030754851177334785px"/><ellipse cx="84.09" cy="57.36" rx="0.36" ry="0.2" style="fill:#c8c9ca;stroke:#231916;stroke-linejoin:round;stroke-width:0.030754851177334785px"/><path d="M84.3,57.28h0V55.9h-.42v1.38h0a.1.1,0,0,0,.06.09.33.33,0,0,0,.3,0A.1.1,0,0,0,84.3,57.28Z" transform="translate(0 0)" style="fill:#c8c9ca;stroke:#231916;stroke-linejoin:round;stroke-width:0.030754851177334785px"/><path d="M86.42,54.57h0c0-.7-1-1.26-2.33-1.26s-2.33.56-2.33,1.26h0v.51a.78.78,0,0,0,0,.12,1.15,1.15,0,0,0,.68,1,3.64,3.64,0,0,0,3.3,0,1.13,1.13,0,0,0,.68-1,.79.79,0,0,0,0-.1v-.53Z" transform="translate(0 0)" style="fill:#595857;stroke:#231916;stroke-linejoin:round;stroke-width:0.030754851177334785px"/><ellipse cx="84.09" cy="54.57" rx="2.33" ry="1.26" style="fill:#595857;stroke:#231916;stroke-linejoin:round;stroke-width:0.030754851177334785px"/><polygon points="82.51 58.2 82.51 58.61 83.37 59.12 83.7 58.91 82.51 58.2" style="fill:#c8c9ca;stroke:#231916;stroke-linejoin:round;stroke-width:0.030754851177334785px"/><polygon points="85.67 58.2 85.67 58.61 84.81 59.12 84.48 58.91 85.67 58.2" style="fill:#c8c9ca;stroke:#231916;stroke-linejoin:round;stroke-width:0.030754851177334785px"/><polygon points="82.51 59.65 82.51 60.16 82.92 60.39 84.09 59.65 84.09 59.16 82.92 59.89 82.51 59.65" style="fill:#c8c9ca;stroke:#231916;stroke-linejoin:round;stroke-width:0.030754851177334785px"/><polygon points="82.51 59.65 82.92 59.89 82.92 60.39 82.51 60.16 82.51 59.65" style="fill:#c8c9ca;stroke:#231916;stroke-linejoin:round;stroke-width:0.030754851177334785px"/><polygon points="84.09 59.16 85.26 59.89 85.26 60.39 84.09 59.65 84.09 59.16" style="fill:#c8c9ca;stroke:#231916;stroke-linejoin:round;stroke-width:0.030754851177334785px"/><polygon points="85.67 59.65 85.67 60.2 85.26 60.39 85.26 59.89 85.67 59.65" style="fill:#c8c9ca;stroke:#231916;stroke-linejoin:round;stroke-width:0.030754851177334785px"/></g><g id="laboratory-outside" class="building-outside"><path d="M70,.58,96.48,15.81v1.57l-.66.38v27.9l3,1.79v14l-17.07,10-1.61-1L75.76,73,60.14,64.08,55.4,66.75,43.46,60V58.37l1.82-1V17.1l-.63-.36h0V15.17L70,.62M70,0,69.7.18,44.4,14.73l-.25.14V17l.25.14.38.21V57.05l-1.57.9-.25.14v2.2l.25.14L55.14,67.2l.25.14.25-.14,4.49-2.53,15.41,8.81.25.14.25-.14,4.13-2.39,1.35.8.25.15.25-.15,17.07-10,.25-.14V47.2l-.25-.15-2.77-1.64V18.08l.41-.24L97,17.7V15.55l-.25-.14L70.24.14,70,0h0Z" transform="translate(0 0)" style="fill:#231916"/><polygon points="43.47 58.37 55.4 65.13 60.14 62.46 75.8 71.41 96.96 59.13 69.53 43.38 43.47 58.37" style="fill:#eeeeef;stroke:#231916;stroke-linejoin:round;stroke-width:0.10000000149011612px"/><polygon points="46.18 58.41 55.4 63.64 60.14 60.97 75.8 69.92 94.27 59.2 69.53 44.99 46.18 58.41" style="fill:#eeeeef;stroke:#231916;stroke-linejoin:round;stroke-width:0.10000000149011612px"/><polygon points="96.96 59.13 96.96 60.75 75.8 73.03 75.8 71.41 96.96 59.13" style="fill:#c8c9ca;stroke:#231916;stroke-linejoin:round;stroke-width:0.10000000149011612px"/><polygon points="60.14 62.46 75.8 71.41 75.8 73.03 60.14 64.08 60.14 62.46" style="fill:#b4b5b5;stroke:#231916;stroke-linejoin:round;stroke-width:0.10000000149011612px"/><polygon points="55.4 65.13 55.4 66.75 60.14 64.08 60.14 62.46 55.4 65.13" style="fill:#c8c9ca;stroke:#231916;stroke-linejoin:round;stroke-width:0.10000000149011612px"/><polygon points="43.47 58.37 43.47 59.99 55.4 66.75 55.4 65.13 43.47 58.37" style="fill:#b4b5b5;stroke:#231916;stroke-linejoin:round;stroke-width:0.10000000149011612px"/><polygon points="69.53 46.56 69.53 44.99 46.18 58.41 47.58 59.2 69.53 46.56" style="fill:#c8c9ca;stroke:#231916;stroke-linejoin:round;stroke-width:0.10000000149011612px"/><polygon points="69.53 44.99 94.27 59.2 92.91 59.99 69.53 46.56 69.53 44.99" style="fill:#b4b5b5;stroke:#231916;stroke-linejoin:round;stroke-width:0.10000000149011612px"/><polygon points="69.53 43.38 43.47 58.37 43.47 59.99 55.4 66.75 60.14 64.08 75.8 73.03 96.96 60.75 96.96 59.13 69.53 43.38" style="fill:none;stroke:#231916;stroke-linejoin:round;stroke-width:0.10000000149011612px"/><polygon points="95.82 17.49 95.84 56.82 75.8 68.44 49.95 53.58 49.92 14.25 69.97 2.62 95.82 17.49" style="fill:#5f82a9;stroke:#231916;stroke-linejoin:round;stroke-width:0.10000000149011612px"/><polygon points="95.82 17.41 75.77 29.04 75.78 70.51 95.83 58.88 95.82 17.41" style="fill:#5f82a9;stroke:#231916;stroke-linejoin:round;stroke-width:0.10000000149011612px"/><polygon points="69.97 2.56 49.92 14.19 75.77 29.06 95.82 17.43 69.97 2.56" style="fill:#7191b9;stroke:#231916;stroke-linejoin:round;stroke-width:0.10000000149011612px"/><polygon points="49.95 55.64 49.95 14.2 75.8 29.07 75.8 70.51 49.95 55.64" style="fill:#4d7193;stroke:#231916;stroke-linejoin:round;stroke-width:0.10000000149011612px"/><polyline points="97.19 56.93 95.84 56.16 95.84 56.82" style="fill:#dbdcdc;stroke:#231916;stroke-linejoin:round;stroke-width:0.10000000149011612px"/><polygon points="77.47 54.96 94.61 44.94 98.85 47.45 81.79 57.43 77.47 54.96" style="fill:#7191b9;stroke:#231916;stroke-linejoin:round;stroke-width:0.10000000149011612px"/><polygon points="81.79 57.43 81.79 71.44 77.48 68.88 77.47 54.96 81.79 57.43" style="fill:#4d7193;stroke:#231916;stroke-linejoin:round;stroke-width:0.10000000149011612px"/><polygon points="98.85 47.45 98.85 61.42 81.79 71.44 81.79 57.43 98.85 47.45" style="fill:#5f82a9;stroke:#231916;stroke-linejoin:round;stroke-width:0.10000000149011612px"/><polygon points="45.28 16.72 49.92 14.15 60.14 20.04 55.65 22.57 45.28 16.72" style="fill:#7191b9;stroke:#231916;stroke-linejoin:round;stroke-width:0.10000000149011612px"/><polygon points="55.71 22.48 55.65 64.13 45.29 58.43 45.33 16.64 55.71 22.48" style="fill:#4d7193;stroke:#231916;stroke-linejoin:round;stroke-width:0.10000000149011612px"/><polygon points="60.19 20.01 60.14 61.56 55.65 64.13 55.7 22.54 60.19 20.01" style="fill:#5f82a9;stroke:#231916;stroke-linejoin:round;stroke-width:0.10000000149011612px"/><polygon points="85.46 63.13 85.46 67.2 83.31 68.47 83.31 64.39 85.46 63.13" style="fill:#a7dbf2;stroke:#231916;stroke-linejoin:round;stroke-width:0.10000000149011612px"/><polygon points="84.78 63.52 85.46 63.13 85.46 67.2 84.78 66.81 84.78 63.52" style="fill:#4d7193;stroke:#231916;stroke-linejoin:round;stroke-width:0.10000000149011612px"/><polygon points="85.46 67.2 84.78 66.81 83.31 67.68 83.31 68.47 85.46 67.2" style="fill:#7191b9;stroke:#231916;stroke-linejoin:round;stroke-width:0.10000000149011612px"/><polygon points="88.48 61.16 88.48 65.23 86.33 66.49 86.33 62.42 88.48 61.16" style="fill:#a7dbf2;stroke:#231916;stroke-linejoin:round;stroke-width:0.10000000149011612px"/><polygon points="87.8 61.54 88.48 61.16 88.48 65.23 87.8 64.84 87.8 61.54" style="fill:#4d7193;stroke:#231916;stroke-linejoin:round;stroke-width:0.10000000149011612px"/><polygon points="88.48 65.23 87.8 64.84 86.33 65.71 86.33 66.49 88.48 65.23" style="fill:#7191b9;stroke:#231916;stroke-linejoin:round;stroke-width:0.10000000149011612px"/><polygon points="91.51 59.5 91.51 63.58 89.35 64.84 89.35 60.76 91.51 59.5" style="fill:#a7dbf2;stroke:#231916;stroke-linejoin:round;stroke-width:0.10000000149011612px"/><polygon points="90.83 59.89 91.51 59.5 91.51 63.58 90.83 63.19 90.83 59.89" style="fill:#4d7193;stroke:#231916;stroke-linejoin:round;stroke-width:0.10000000149011612px"/><polygon points="91.51 63.58 90.83 63.19 89.35 64.06 89.35 64.84 91.51 63.58" style="fill:#7191b9;stroke:#231916;stroke-linejoin:round;stroke-width:0.10000000149011612px"/><polygon points="94.53 57.61 94.53 61.68 92.37 62.95 92.37 58.87 94.53 57.61" style="fill:#a7dbf2;stroke:#231916;stroke-linejoin:round;stroke-width:0.10000000149011612px"/><polygon points="93.85 57.99 94.53 57.61 94.53 61.68 93.85 61.29 93.85 57.99" style="fill:#4d7193;stroke:#231916;stroke-linejoin:round;stroke-width:0.10000000149011612px"/><polygon points="94.53 61.68 93.85 61.29 92.37 62.16 92.37 62.95 94.53 61.68" style="fill:#7191b9;stroke:#231916;stroke-linejoin:round;stroke-width:0.10000000149011612px"/><polygon points="97.76 55.9 97.76 59.98 95.61 61.24 95.61 57.16 97.76 55.9" style="fill:#a7dbf2;stroke:#231916;stroke-linejoin:round;stroke-width:0.10000000149011612px"/><polygon points="97.08 56.29 97.76 55.9 97.76 59.98 97.08 59.59 97.08 56.29" style="fill:#4d7193;stroke:#231916;stroke-linejoin:round;stroke-width:0.10000000149011612px"/><polygon points="97.76 59.98 97.08 59.59 95.61 60.45 95.61 61.24 97.76 59.98" style="fill:#7191b9;stroke:#231916;stroke-linejoin:round;stroke-width:0.10000000149011612px"/><polygon points="85.46 57.3 85.46 61.37 83.31 62.64 83.31 58.56 85.46 57.3" style="fill:#a7dbf2;stroke:#231916;stroke-linejoin:round;stroke-width:0.10000000149011612px"/><polygon points="84.78 57.69 85.46 57.3 85.46 61.37 84.78 60.98 84.78 57.69" style="fill:#4d7193;stroke:#231916;stroke-linejoin:round;stroke-width:0.10000000149011612px"/><polygon points="85.46 61.37 84.78 60.98 83.31 61.85 83.31 62.64 85.46 61.37" style="fill:#7191b9;stroke:#231916;stroke-linejoin:round;stroke-width:0.10000000149011612px"/><polygon points="88.48 55.33 88.48 59.4 86.33 60.66 86.33 56.59 88.48 55.33" style="fill:#a7dbf2;stroke:#231916;stroke-linejoin:round;stroke-width:0.10000000149011612px"/><polygon points="87.8 55.71 88.48 55.33 88.48 59.4 87.8 59.01 87.8 55.71" style="fill:#4d7193;stroke:#231916;stroke-linejoin:round;stroke-width:0.10000000149011612px"/><polygon points="88.48 59.4 87.8 59.01 86.33 59.88 86.33 60.66 88.48 59.4" style="fill:#7191b9;stroke:#231916;stroke-linejoin:round;stroke-width:0.10000000149011612px"/><polygon points="91.51 53.67 91.51 57.75 89.35 59.01 89.35 54.93 91.51 53.67" style="fill:#a7dbf2;stroke:#231916;stroke-linejoin:round;stroke-width:0.10000000149011612px"/><polygon points="90.83 54.06 91.51 53.67 91.51 57.75 90.83 57.36 90.83 54.06" style="fill:#4d7193;stroke:#231916;stroke-linejoin:round;stroke-width:0.10000000149011612px"/><polygon points="91.51 57.75 90.83 57.36 89.35 58.23 89.35 59.01 91.51 57.75" style="fill:#7191b9;stroke:#231916;stroke-linejoin:round;stroke-width:0.10000000149011612px"/><polygon points="94.53 51.78 94.53 55.85 92.37 57.12 92.37 53.04 94.53 51.78" style="fill:#a7dbf2;stroke:#231916;stroke-linejoin:round;stroke-width:0.10000000149011612px"/><polygon points="93.85 52.16 94.53 51.78 94.53 55.85 93.85 55.46 93.85 52.16" style="fill:#4d7193;stroke:#231916;stroke-linejoin:round;stroke-width:0.10000000149011612px"/><polygon points="94.53 55.85 93.85 55.46 92.37 56.33 92.37 57.12 94.53 55.85" style="fill:#7191b9;stroke:#231916;stroke-linejoin:round;stroke-width:0.10000000149011612px"/><polygon points="97.76 50.07 97.76 54.15 95.61 55.41 95.61 51.33 97.76 50.07" style="fill:#a7dbf2;stroke:#231916;stroke-linejoin:round;stroke-width:0.10000000149011612px"/><polygon points="97.08 50.46 97.76 50.07 97.76 54.15 97.08 53.76 97.08 50.46" style="fill:#4d7193;stroke:#231916;stroke-linejoin:round;stroke-width:0.10000000149011612px"/><polygon points="97.76 54.15 97.08 53.76 95.61 54.62 95.61 55.41 97.76 54.15" style="fill:#7191b9;stroke:#231916;stroke-linejoin:round;stroke-width:0.10000000149011612px"/><polygon points="60.14 46.3 60.14 50.37 67.35 54.52 67.35 50.44 60.14 46.3" style="fill:#81b8cf;stroke:#231916;stroke-linejoin:round;stroke-width:0.10000000149011612px"/><polygon points="60.83 46.68 60.14 46.3 60.14 50.37 60.83 49.98 60.83 46.68" style="fill:#4d7193;stroke:#231916;stroke-linejoin:round;stroke-width:0.10000000149011612px"/><polygon points="60.14 50.37 60.83 49.98 67.35 53.73 67.35 54.52 60.14 50.37" style="fill:#5f82a9;stroke:#231916;stroke-linejoin:round;stroke-width:0.10000000149011612px"/><polygon points="67.86 50.64 67.86 54.71 75.07 58.86 75.07 54.78 67.86 50.64" style="fill:#81b8cf;stroke:#231916;stroke-linejoin:round;stroke-width:0.10000000149011612px"/><polygon points="68.54 51.02 67.86 50.64 67.86 54.71 68.54 54.32 68.54 51.02" style="fill:#4d7193;stroke:#231916;stroke-linejoin:round;stroke-width:0.10000000149011612px"/><polygon points="67.86 54.71 68.54 54.32 75.07 58.07 75.07 58.86 67.86 54.71" style="fill:#5f82a9;stroke:#231916;stroke-linejoin:round;stroke-width:0.10000000149011612px"/><polygon points="67.86 56.16 67.86 60.24 75.07 64.39 75.07 60.31 67.86 56.16" style="fill:#81b8cf;stroke:#231916;stroke-linejoin:round;stroke-width:0.10000000149011612px"/><polygon points="68.54 56.55 67.86 56.16 67.86 60.24 68.54 59.85 68.54 56.55" style="fill:#4d7193;stroke:#231916;stroke-linejoin:round;stroke-width:0.10000000149011612px"/><polygon points="67.86 60.24 68.54 59.85 75.07 63.6 75.07 64.39 67.86 60.24" style="fill:#5f82a9;stroke:#231916;stroke-linejoin:round;stroke-width:0.10000000149011612px"/><polygon points="60.14 51.74 60.14 55.81 67.35 59.96 67.35 55.88 60.14 51.74" style="fill:#81b8cf;stroke:#231916;stroke-linejoin:round;stroke-width:0.10000000149011612px"/><polygon points="60.83 52.13 60.14 51.74 60.14 55.81 60.83 55.42 60.83 52.13" style="fill:#4d7193;stroke:#231916;stroke-linejoin:round;stroke-width:0.10000000149011612px"/><polygon points="60.14 55.81 60.83 55.42 67.35 59.17 67.35 59.96 60.14 55.81" style="fill:#5f82a9;stroke:#231916;stroke-linejoin:round;stroke-width:0.10000000149011612px"/><polygon points="60.14 31.72 60.14 35.8 67.35 39.94 67.35 35.87 60.14 31.72" style="fill:#81b8cf;stroke:#231916;stroke-linejoin:round;stroke-width:0.10000000149011612px"/><polygon points="60.83 32.11 60.14 31.72 60.14 35.8 60.83 35.41 60.83 32.11" style="fill:#4d7193;stroke:#231916;stroke-linejoin:round;stroke-width:0.10000000149011612px"/><polygon points="60.14 35.8 60.83 35.41 67.35 39.16 67.35 39.94 60.14 35.8" style="fill:#5f82a9;stroke:#231916;stroke-linejoin:round;stroke-width:0.10000000149011612px"/><polygon points="67.86 36.06 67.86 40.14 75.07 44.29 75.07 40.21 67.86 36.06" style="fill:#81b8cf;stroke:#231916;stroke-linejoin:round;stroke-width:0.10000000149011612px"/><polygon points="68.54 36.45 67.86 36.06 67.86 40.14 68.54 39.75 68.54 36.45" style="fill:#4d7193;stroke:#231916;stroke-linejoin:round;stroke-width:0.10000000149011612px"/><polygon points="67.86 40.14 68.54 39.75 75.07 43.5 75.07 44.29 67.86 40.14" style="fill:#5f82a9;stroke:#231916;stroke-linejoin:round;stroke-width:0.10000000149011612px"/><polygon points="67.86 41.59 67.86 45.66 75.07 49.81 75.07 45.73 67.86 41.59" style="fill:#81b8cf;stroke:#231916;stroke-linejoin:round;stroke-width:0.10000000149011612px"/><polygon points="68.54 41.98 67.86 41.59 67.86 45.66 68.54 45.28 68.54 41.98" style="fill:#4d7193;stroke:#231916;stroke-linejoin:round;stroke-width:0.10000000149011612px"/><polygon points="67.86 45.66 68.54 45.28 75.07 49.03 75.07 49.81 67.86 45.66" style="fill:#5f82a9;stroke:#231916;stroke-linejoin:round;stroke-width:0.10000000149011612px"/><polygon points="60.14 37.16 60.14 41.24 67.35 45.39 67.35 41.31 60.14 37.16" style="fill:#81b8cf;stroke:#231916;stroke-linejoin:round;stroke-width:0.10000000149011612px"/><polygon points="60.83 37.55 60.14 37.16 60.14 41.24 60.83 40.85 60.83 37.55" style="fill:#4d7193;stroke:#231916;stroke-linejoin:round;stroke-width:0.10000000149011612px"/><polygon points="60.14 41.24 60.83 40.85 67.35 44.6 67.35 45.39 60.14 41.24" style="fill:#5f82a9;stroke:#231916;stroke-linejoin:round;stroke-width:0.10000000149011612px"/><polygon points="44.7 15.13 55.33 21.11 59.93 18.52 75.94 27.72 96.47 15.81 70 0.58 44.7 15.13" style="fill:#eeeeef;stroke:#231916;stroke-linejoin:round;stroke-width:0.10000000149011612px"/><polygon points="47.33 15.16 55.33 19.67 59.93 17.08 75.94 26.28 93.86 15.88 70 2.15 47.33 15.16" style="fill:#eeeeef;stroke:#231916;stroke-linejoin:round;stroke-width:0.10000000149011612px"/><polygon points="96.47 15.81 96.47 17.38 75.94 29.29 75.94 27.72 96.47 15.81" style="fill:#c8c9ca;stroke:#231916;stroke-linejoin:round;stroke-width:0.10000000149011612px"/><polygon points="59.93 18.52 75.94 27.72 75.94 29.29 59.93 20.09 59.93 18.52" style="fill:#b4b5b5;stroke:#231916;stroke-linejoin:round;stroke-width:0.10000000149011612px"/><polygon points="55.33 21.11 55.33 22.68 59.93 20.09 59.93 18.52 55.33 21.11" style="fill:#c8c9ca;stroke:#231916;stroke-linejoin:round;stroke-width:0.10000000149011612px"/><polygon points="44.7 15.13 44.7 16.7 55.33 22.68 55.33 21.11 44.7 15.13" style="fill:#b4b5b5;stroke:#231916;stroke-linejoin:round;stroke-width:0.10000000149011612px"/><polygon points="70 3.67 70 2.15 47.33 15.17 48.69 15.94 70 3.67" style="fill:#c8c9ca;stroke:#231916;stroke-linejoin:round;stroke-width:0.10000000149011612px"/><polygon points="70 2.15 93.86 15.88 92.55 16.64 70 3.67 70 2.15" style="fill:#b4b5b5;stroke:#231916;stroke-linejoin:round;stroke-width:0.10000000149011612px"/><path d="M70,.63,44.72,15.2h0v1.57h0l10.63,6h0L60,20.18h0l16,9.24h0l20.51-12h0V15.85h0Zm0-.1L96.48,15.76h0v1.57h0l-20.54,12h0l-16-9.16h0l-4.6,2.59h0l-10.63-6h0V15.15h0L70,.6h0Z" transform="translate(0 0)" style="fill:#231916"/><path d="M67.53,5.31a.27.27,0,0,1,0-.5L69.62,3.6a1,1,0,0,1,.86,0l2.09,1.21a.27.27,0,0,1,0,.5L70.48,6.52a1,1,0,0,1-.86,0Z" transform="translate(0 0)" style="fill:#9e9e9f"/><path d="M67.53,5.31a.27.27,0,0,1,0-.5L69.62,3.6a1,1,0,0,1,.86,0l2.09,1.21a.27.27,0,0,1,0,.5L70.48,6.52a1,1,0,0,1-.86,0Z" transform="translate(0 0)" style="fill:none;stroke:#231916;stroke-linejoin:round;stroke-width:0.10000000149011612px"/><path d="M72.72,8.57a.42.42,0,0,0,.19-.33V5.36a1,1,0,0,0,0-.24L70.25,6.69a.42.42,0,0,1-.38,0L67.22,5.13h0V8.2a.42.42,0,0,0,.19.33L69.89,10a.42.42,0,0,0,.38,0Z" transform="translate(0 0)" style="fill:#888;stroke:#231916;stroke-miterlimit:10;stroke-width:0.10000000149011612px"/><path d="M69,5.71a.67.67,0,0,1,0-1.27,2.42,2.42,0,0,1,2.19,0,.67.67,0,0,1,0,1.27A2.42,2.42,0,0,1,69,5.71Z" transform="translate(0 0)" style="fill:#888"/><path d="M69,5.71a.67.67,0,0,1,0-1.27,2.42,2.42,0,0,1,2.19,0,.67.67,0,0,1,0,1.27A2.42,2.42,0,0,1,69,5.71Z" transform="translate(0 0)" style="fill:none;stroke:#231916;stroke-miterlimit:10;stroke-width:0.10000000149011612px"/><path d="M69.21,5.56a.52.52,0,0,1,0-1,1.86,1.86,0,0,1,1.68,0,.52.52,0,0,1,0,1A1.86,1.86,0,0,1,69.21,5.56Z" transform="translate(0 0)" style="fill:#888"/><path d="M69.21,5.56a.52.52,0,0,1,0-1,1.86,1.86,0,0,1,1.68,0,.52.52,0,0,1,0,1A1.86,1.86,0,0,1,69.21,5.56Z" transform="translate(0 0)" style="fill:none;stroke:#231916;stroke-miterlimit:10;stroke-width:0.10000000149011612px"/><path d="M69.45,5.42a.37.37,0,0,1,0-.7,1.33,1.33,0,0,1,1.21,0,.37.37,0,0,1,0,.7A1.33,1.33,0,0,1,69.45,5.42Z" transform="translate(0 0)" style="fill:#888"/><path d="M69.45,5.42a.37.37,0,0,1,0-.7,1.33,1.33,0,0,1,1.21,0,.37.37,0,0,1,0,.7A1.33,1.33,0,0,1,69.45,5.42Z" transform="translate(0 0)" style="fill:none;stroke:#231916;stroke-miterlimit:10;stroke-width:0.10000000149011612px"/><path d="M69.65,5.31a.25.25,0,0,1,0-.47.9.9,0,0,1,.81,0,.25.25,0,0,1,0,.47A.9.9,0,0,1,69.65,5.31Z" transform="translate(0 0)" style="fill:#888"/><path d="M69.65,5.31a.25.25,0,0,1,0-.47.9.9,0,0,1,.81,0,.25.25,0,0,1,0,.47A.9.9,0,0,1,69.65,5.31Z" transform="translate(0 0)" style="fill:none;stroke:#231916;stroke-miterlimit:10;stroke-width:0.10000000149011612px"/><polygon points="71.04 4.36 68.85 5.63 69.11 5.78 71.25 4.48 71.04 4.36" style="fill:#888;stroke:#231916;stroke-miterlimit:10;stroke-width:0.10000000149011612px"/><polygon points="69.06 4.36 71.25 5.63 71 5.78 68.85 4.48 69.06 4.36" style="fill:#888;stroke:#231916;stroke-miterlimit:10;stroke-width:0.10000000149011612px"/><line x1="70.05" y1="6.78" x2="70.05" y2="10.06" style="fill:none;stroke:#231916;stroke-miterlimit:10;stroke-width:0.10000000149011612px"/><path d="M69.78,5.2a.17.17,0,0,1,0-.31.6.6,0,0,1,.54,0,.17.17,0,0,1,0,.31A.6.6,0,0,1,69.78,5.2Z" transform="translate(0 0)" style="fill:#888"/><path d="M69.78,5.2a.17.17,0,0,1,0-.31.6.6,0,0,1,.54,0,.17.17,0,0,1,0,.31A.6.6,0,0,1,69.78,5.2Z" transform="translate(0 0)" style="fill:none;stroke:#231916;stroke-miterlimit:10;stroke-width:0.10000000149011612px"/><polygon points="67.46 5.78 69.81 7.15 69.81 7.57 67.46 6.18 67.46 5.78" style="fill:#888;stroke:#231916;stroke-miterlimit:10;stroke-width:0.10000000149011612px"/><polygon points="67.46 6.67 69.81 8.04 69.81 8.46 67.46 7.07 67.46 6.67" style="fill:#888;stroke:#231916;stroke-miterlimit:10;stroke-width:0.10000000149011612px"/><polygon points="67.46 7.53 69.81 8.89 69.81 9.31 67.46 7.92 67.46 7.53" style="fill:#888;stroke:#231916;stroke-miterlimit:10;stroke-width:0.10000000149011612px"/><polygon points="72.73 5.8 70.38 7.17 70.38 7.58 72.73 6.2 72.73 5.8" style="fill:#888;stroke:#231916;stroke-miterlimit:10;stroke-width:0.10000000149011612px"/><polygon points="72.73 6.69 70.38 8.06 70.38 8.47 72.73 7.09 72.73 6.69" style="fill:#888;stroke:#231916;stroke-miterlimit:10;stroke-width:0.10000000149011612px"/><polygon points="72.73 7.55 70.38 8.91 70.38 9.33 72.73 7.94 72.73 7.55" style="fill:#888;stroke:#231916;stroke-miterlimit:10;stroke-width:0.10000000149011612px"/><path d="M71,7.54A.27.27,0,0,1,71,7l2.09-1.21a1,1,0,0,1,.86,0L76.06,7a.27.27,0,0,1,0,.5L74,8.75a1,1,0,0,1-.86,0Z" transform="translate(0 0)" style="fill:#9e9e9f"/><path d="M71,7.54A.27.27,0,0,1,71,7l2.09-1.21a1,1,0,0,1,.86,0L76.06,7a.27.27,0,0,1,0,.5L74,8.75a1,1,0,0,1-.86,0Z" transform="translate(0 0)" style="fill:none;stroke:#231916;stroke-linejoin:round;stroke-width:0.10000000149011612px"/><path d="M76.21,10.8a.42.42,0,0,0,.19-.33V7.59a1,1,0,0,0,0-.24L73.74,8.92a.42.42,0,0,1-.38,0L70.71,7.36h0V10.5a.42.42,0,0,0,.19.33l2.48,1.44a.42.42,0,0,0,.38,0Z" transform="translate(0 0)" style="fill:#888;stroke:#231916;stroke-miterlimit:10;stroke-width:0.10000000149011612px"/><path d="M72.45,7.94a.67.67,0,0,1,0-1.27,2.42,2.42,0,0,1,2.19,0,.67.67,0,0,1,0,1.27A2.42,2.42,0,0,1,72.45,7.94Z" transform="translate(0 0)" style="fill:#888"/><path d="M72.45,7.94a.67.67,0,0,1,0-1.27,2.42,2.42,0,0,1,2.19,0,.67.67,0,0,1,0,1.27A2.42,2.42,0,0,1,72.45,7.94Z" transform="translate(0 0)" style="fill:none;stroke:#231916;stroke-miterlimit:10;stroke-width:0.10000000149011612px"/><path d="M72.7,7.79a.52.52,0,0,1,0-1,1.86,1.86,0,0,1,1.68,0,.52.52,0,0,1,0,1A1.86,1.86,0,0,1,72.7,7.79Z" transform="translate(0 0)" style="fill:#888"/><path d="M72.7,7.79a.52.52,0,0,1,0-1,1.86,1.86,0,0,1,1.68,0,.52.52,0,0,1,0,1A1.86,1.86,0,0,1,72.7,7.79Z" transform="translate(0 0)" style="fill:none;stroke:#231916;stroke-miterlimit:10;stroke-width:0.10000000149011612px"/><path d="M72.94,7.65a.37.37,0,0,1,0-.7,1.33,1.33,0,0,1,1.21,0,.37.37,0,0,1,0,.7A1.33,1.33,0,0,1,72.94,7.65Z" transform="translate(0 0)" style="fill:#888"/><path d="M72.94,7.65a.37.37,0,0,1,0-.7,1.33,1.33,0,0,1,1.21,0,.37.37,0,0,1,0,.7A1.33,1.33,0,0,1,72.94,7.65Z" transform="translate(0 0)" style="fill:none;stroke:#231916;stroke-miterlimit:10;stroke-width:0.10000000149011612px"/><path d="M73.14,7.54a.25.25,0,0,1,0-.47.9.9,0,0,1,.81,0,.25.25,0,0,1,0,.47A.9.9,0,0,1,73.14,7.54Z" transform="translate(0 0)" style="fill:#888"/><path d="M73.14,7.54a.25.25,0,0,1,0-.47.9.9,0,0,1,.81,0,.25.25,0,0,1,0,.47A.9.9,0,0,1,73.14,7.54Z" transform="translate(0 0)" style="fill:none;stroke:#231916;stroke-miterlimit:10;stroke-width:0.10000000149011612px"/><polygon points="74.53 6.59 72.34 7.86 72.6 8.01 74.74 6.71 74.53 6.59" style="fill:#888;stroke:#231916;stroke-miterlimit:10;stroke-width:0.10000000149011612px"/><polygon points="72.55 6.59 74.74 7.86 74.48 8.01 72.34 6.71 72.55 6.59" style="fill:#888;stroke:#231916;stroke-miterlimit:10;stroke-width:0.10000000149011612px"/><line x1="73.54" y1="9" x2="73.54" y2="12.29" style="fill:none;stroke:#231916;stroke-miterlimit:10;stroke-width:0.10000000149011612px"/><path d="M73.27,7.46a.17.17,0,0,1,0-.31.6.6,0,0,1,.54,0,.17.17,0,0,1,0,.31A.6.6,0,0,1,73.27,7.46Z" transform="translate(0 0)" style="fill:#888"/><path d="M73.27,7.46a.17.17,0,0,1,0-.31.6.6,0,0,1,.54,0,.17.17,0,0,1,0,.31A.6.6,0,0,1,73.27,7.46Z" transform="translate(0 0)" style="fill:none;stroke:#231916;stroke-miterlimit:10;stroke-width:0.10000000149011612px"/><polygon points="70.95 8.01 73.3 9.38 73.3 9.79 70.95 8.41 70.95 8.01" style="fill:#888;stroke:#231916;stroke-miterlimit:10;stroke-width:0.10000000149011612px"/><polygon points="70.95 8.9 73.3 10.27 73.3 10.68 70.95 9.3 70.95 8.9" style="fill:#888;stroke:#231916;stroke-miterlimit:10;stroke-width:0.10000000149011612px"/><polygon points="70.95 9.75 73.3 11.12 73.3 11.54 70.95 10.15 70.95 9.75" style="fill:#888;stroke:#231916;stroke-miterlimit:10;stroke-width:0.10000000149011612px"/><polygon points="76.22 8.03 73.87 9.39 73.87 9.81 76.22 8.43 76.22 8.03" style="fill:#888;stroke:#231916;stroke-miterlimit:10;stroke-width:0.10000000149011612px"/><polygon points="76.22 8.92 73.87 10.29 73.87 10.7 76.22 9.32 76.22 8.92" style="fill:#888;stroke:#231916;stroke-miterlimit:10;stroke-width:0.10000000149011612px"/><polygon points="76.22 9.77 73.87 11.14 73.87 11.55 76.22 10.17 76.22 9.77" style="fill:#888;stroke:#231916;stroke-miterlimit:10;stroke-width:0.10000000149011612px"/><path d="M63.92,7.54a.27.27,0,0,1,0-.5L66,5.83a1,1,0,0,1,.86,0L69,7a.27.27,0,0,1,0,.5L66.87,8.75a1,1,0,0,1-.86,0Z" transform="translate(0 0)" style="fill:#9e9e9f"/><path d="M63.92,7.54a.27.27,0,0,1,0-.5L66,5.83a1,1,0,0,1,.86,0L69,7a.27.27,0,0,1,0,.5L66.87,8.75a1,1,0,0,1-.86,0Z" transform="translate(0 0)" style="fill:none;stroke:#231916;stroke-linejoin:round;stroke-width:0.10000000149011612px"/><path d="M69.14,10.8a.42.42,0,0,0,.19-.33V7.59a1,1,0,0,0,0-.24L66.67,8.92a.42.42,0,0,1-.38,0L63.64,7.36h0V10.5a.42.42,0,0,0,.19.33l2.48,1.44a.42.42,0,0,0,.38,0Z" transform="translate(0 0)" style="fill:#888;stroke:#231916;stroke-miterlimit:10;stroke-width:0.10000000149011612px"/><path d="M65.35,7.94a.67.67,0,0,1,0-1.27,2.42,2.42,0,0,1,2.19,0,.67.67,0,0,1,0,1.27A2.42,2.42,0,0,1,65.35,7.94Z" transform="translate(0 0)" style="fill:#888"/><path d="M65.35,7.94a.67.67,0,0,1,0-1.27,2.42,2.42,0,0,1,2.19,0,.67.67,0,0,1,0,1.27A2.42,2.42,0,0,1,65.35,7.94Z" transform="translate(0 0)" style="fill:none;stroke:#231916;stroke-miterlimit:10;stroke-width:0.10000000149011612px"/><path d="M65.61,7.79a.52.52,0,0,1,0-1,1.86,1.86,0,0,1,1.68,0,.52.52,0,0,1,0,1A1.86,1.86,0,0,1,65.61,7.79Z" transform="translate(0 0)" style="fill:#888"/><path d="M65.61,7.79a.52.52,0,0,1,0-1,1.86,1.86,0,0,1,1.68,0,.52.52,0,0,1,0,1A1.86,1.86,0,0,1,65.61,7.79Z" transform="translate(0 0)" style="fill:none;stroke:#231916;stroke-miterlimit:10;stroke-width:0.10000000149011612px"/><path d="M65.84,7.65a.37.37,0,0,1,0-.7,1.33,1.33,0,0,1,1.21,0,.37.37,0,0,1,0,.7A1.33,1.33,0,0,1,65.84,7.65Z" transform="translate(0 0)" style="fill:#888"/><path d="M65.84,7.65a.37.37,0,0,1,0-.7,1.33,1.33,0,0,1,1.21,0,.37.37,0,0,1,0,.7A1.33,1.33,0,0,1,65.84,7.65Z" transform="translate(0 0)" style="fill:none;stroke:#231916;stroke-miterlimit:10;stroke-width:0.10000000149011612px"/><path d="M66,7.54a.25.25,0,0,1,0-.47.9.9,0,0,1,.81,0,.25.25,0,0,1,0,.47A.9.9,0,0,1,66,7.54Z" transform="translate(0 0)" style="fill:#888"/><path d="M66,7.54a.25.25,0,0,1,0-.47.9.9,0,0,1,.81,0,.25.25,0,0,1,0,.47A.9.9,0,0,1,66,7.54Z" transform="translate(0 0)" style="fill:none;stroke:#231916;stroke-miterlimit:10;stroke-width:0.10000000149011612px"/><polygon points="67.44 6.59 65.25 7.86 65.51 8.01 67.65 6.71 67.44 6.59" style="fill:#888;stroke:#231916;stroke-miterlimit:10;stroke-width:0.10000000149011612px"/><polygon points="65.46 6.59 67.65 7.86 67.39 8.01 65.25 6.71 65.46 6.59" style="fill:#888;stroke:#231916;stroke-miterlimit:10;stroke-width:0.10000000149011612px"/><line x1="66.45" y1="9" x2="66.45" y2="12.29" style="fill:none;stroke:#231916;stroke-miterlimit:10;stroke-width:0.10000000149011612px"/><path d="M66.14,7.46a.17.17,0,0,1,0-.31.6.6,0,0,1,.54,0,.17.17,0,0,1,0,.31A.6.6,0,0,1,66.14,7.46Z" transform="translate(0 0)" style="fill:#888"/><path d="M66.14,7.46a.17.17,0,0,1,0-.31.6.6,0,0,1,.54,0,.17.17,0,0,1,0,.31A.6.6,0,0,1,66.14,7.46Z" transform="translate(0 0)" style="fill:none;stroke:#231916;stroke-miterlimit:10;stroke-width:0.10000000149011612px"/><polygon points="63.85 8.01 66.2 9.38 66.2 9.79 63.85 8.41 63.85 8.01" style="fill:#888;stroke:#231916;stroke-miterlimit:10;stroke-width:0.10000000149011612px"/><polygon points="63.85 8.9 66.2 10.27 66.2 10.68 63.85 9.3 63.85 8.9" style="fill:#888;stroke:#231916;stroke-miterlimit:10;stroke-width:0.10000000149011612px"/><polygon points="63.85 9.75 66.2 11.12 66.2 11.54 63.85 10.15 63.85 9.75" style="fill:#888;stroke:#231916;stroke-miterlimit:10;stroke-width:0.10000000149011612px"/><polygon points="69.13 8.03 66.78 9.39 66.78 9.81 69.13 8.43 69.13 8.03" style="fill:#888;stroke:#231916;stroke-miterlimit:10;stroke-width:0.10000000149011612px"/><polygon points="69.13 8.92 66.78 10.29 66.78 10.7 69.13 9.32 69.13 8.92" style="fill:#888;stroke:#231916;stroke-miterlimit:10;stroke-width:0.10000000149011612px"/><polygon points="69.13 9.77 66.78 11.14 66.78 11.55 69.13 10.17 69.13 9.77" style="fill:#888;stroke:#231916;stroke-miterlimit:10;stroke-width:0.10000000149011612px"/><path d="M89.5,29.33l2.78,4.4a.75.75,0,0,1-.27,1l-5.76,3.34a.33.33,0,0,1-.51-.4l2.34-7.57V28.7h-.41v-.46L89.85,27v.5l-.35.55v1.27Z" transform="translate(0 0)" style="fill:#fff;stroke:#231916;stroke-linejoin:round;stroke-width:0.3146023452281952px"/><path d="M89.79,30.75l1.81,2.94a.57.57,0,0,1-.21.78h0L87,37a.25.25,0,0,1-.39-.31l1.57-5.13" transform="translate(0 0)" style="fill:#2ca6e0"/><path d="M89.14,33.41a.26.26,0,0,0-.42-.24.93.93,0,0,0-.42.73.26.26,0,0,0,.42.24A.93.93,0,0,0,89.14,33.41Z" transform="translate(0 0)" style="fill:#fff"/><path d="M91.06,33.57a.35.35,0,0,0-.58-.33,1.28,1.28,0,0,0-.58,1,.35.35,0,0,0,.58.33A1.28,1.28,0,0,0,91.06,33.57Z" transform="translate(0 0)" style="fill:#fff"/><path d="M86.29,33.32,89.84,39a1,1,0,0,1-.35,1.31l-7.35,4.26a.42.42,0,0,1-.65-.52l3-9.68V32.53H84V32l2.78-1.58V31l-.44.7v1.57Z" transform="translate(0 0)" style="fill:#fff;stroke:#231916;stroke-linejoin:round;stroke-width:0.3146023452281952px"/><path d="M87.44,36.38,89,38.89a.73.73,0,0,1-.27,1h0l-5.58,3.23c-.74.51-.64.16-.49-.39L84,38.35" transform="translate(0 0)" style="fill:#2ca6e0"/><line x1="85.39" y1="33.12" x2="84.52" y2="33.62" style="fill:none"/><path d="M84.52,33.78h.08l.87-.5a.16.16,0,1,0-.16-.28l-.87.5a.16.16,0,0,0-.06.22h0A.16.16,0,0,0,84.52,33.78Z" transform="translate(0 0)" style="fill:#231916"/><line x1="85.39" y1="34.36" x2="84.52" y2="34.87" style="fill:none"/><path d="M84.52,35h.08l.87-.5a.16.16,0,1,0-.16-.28l-.87.5a.16.16,0,0,0-.06.22h0A.16.16,0,0,0,84.52,35Z" transform="translate(0 0)" style="fill:#231916"/><line x1="85.39" y1="35.61" x2="84.52" y2="36.11" style="fill:none"/><path d="M84.52,36.28h.08l.87-.5a.16.16,0,1,0-.16-.28l-.87.5a.16.16,0,0,0-.06.22h0A.16.16,0,0,0,84.52,36.28Z" transform="translate(0 0)" style="fill:#231916"/><line x1="85.39" y1="36.86" x2="84.52" y2="37.36" style="fill:none"/><path d="M84.52,37.52h.08l.87-.5a.16.16,0,1,0-.16-.28l-.87.5a.16.16,0,0,0-.06.22h0A.16.16,0,0,0,84.52,37.52Z" transform="translate(0 0)" style="fill:#231916"/><line x1="85.39" y1="38.11" x2="84.52" y2="38.61" style="fill:none"/><path d="M84.52,38.77h.08l.87-.5a.16.16,0,1,0-.16-.28l-.87.5a.16.16,0,0,0-.06.22h0A.16.16,0,0,0,84.52,38.77Z" transform="translate(0 0)" style="fill:#231916"/><line x1="85.39" y1="39.35" x2="84.52" y2="39.86" style="fill:none"/><path d="M84.52,40h.08l.87-.5a.16.16,0,1,0-.16-.28l-.87.5a.16.16,0,0,0-.06.22h0A.16.16,0,0,0,84.52,40Z" transform="translate(0 0)" style="fill:#231916"/></g></svg>