<svg id="north_solar" data-name="north_solar" xmlns="http://www.w3.org/2000/svg" viewBox="0 0 104.05 59.98"><title>north_solar</title><path id="shadow" class="shadow" d="M21.44,15.53s-6.93.18-10.39,1.89S4.3,24,4.91,27.31c.92,4.91,5.64,9.15,9.08,10.59s41.48-3.09,41.48-3.09Z" transform="translate(0 0)" style="fill:#101111;opacity:0.07000000029802322;isolation:isolate"/><polygon id="shadow-2" class="shadow" points="62 20.91 48.75 22.87 46.32 25.48 49.68 27.99 62.76 26.27 62 20.91" style="fill:#101111;opacity:0.10000000149011612;isolation:isolate"/><g id="solar-line"><line x1="0.37" y1="59.33" x2="6.02" y2="56.12" style="fill:none;stroke:#fff;stroke-miterlimit:10;stroke-width:1.5px"/><line x1="98.03" y1="3.86" x2="103.68" y2="0.65" style="fill:none;stroke:#fff;stroke-miterlimit:10;stroke-width:1.5px"/><path d="M12.91,53.07l-.74-1.3,10.58-6,.74,1.3ZM30,43.36l-.74-1.3,10.58-6,.74,1.3Zm17.1-9.71-.74-1.3,10.58-6,.74,1.3Zm17.1-9.71-.74-1.3,10.58-6,.74,1.3Zm17.1-9.71-.74-1.3,10.58-6,.74,1.3Z" transform="translate(0 0)" style="fill:#fff"/></g><g id="north_solar-outside" class="building-outside"><g id="solar-center-outside"><path d="M54.43,15.53S50.1,3.68,38.88,4.28V6.09c2-.46,4.57,0,6.73,5.07l.78.3,1.38-.26S50,13.93,52.4,16.71Z" transform="translate(0 0)" style="fill:#eeeeef;stroke:#231916;stroke-miterlimit:10;stroke-width:0.09066147357225418px"/><path d="M21.44,15.53S25.77,3.68,37,4.28V6.09c-2-.46-4.57,0-6.73,5.07l-.78.3L28.1,11.2s-2.25,2.73-4.63,5.51Z" transform="translate(0 0)" style="fill:#eeeeef;stroke:#231916;stroke-miterlimit:10;stroke-width:0.09066147357225418px"/><path d="M32.91,21.79v4.66c0,1.44,2.25,2.61,5,2.61s5-1.17,5-2.61V21.79Z" transform="translate(0 0)" style="fill:#f7f7f7;stroke:#231916;stroke-miterlimit:10;stroke-width:0.09066147357225418px"/><ellipse cx="37.94" cy="16.7" rx="14.47" ry="7.52" style="fill:#f7f7f7;stroke:#231916;stroke-miterlimit:10;stroke-width:0.09066147357225418px"/><ellipse cx="37.94" cy="15.85" rx="11.02" ry="5.72" style="fill:#f7f7f7;stroke:#231916;stroke-miterlimit:10;stroke-width:0.09066147357225418px"/><ellipse cx="37.94" cy="11.58" rx="5.31" ry="2.76" style="fill:#f7f7f7;stroke:#231916;stroke-miterlimit:10;stroke-width:0.09066147357225418px"/><path d="M37.94,24.23c-8,0-14.47-3.37-14.47-7.52h0v3c0,4.15,6.48,7.52,14.47,7.52s14.47-3.37,14.47-7.52v-3C52.41,20.86,45.93,24.23,37.94,24.23Z" transform="translate(0 0)" style="fill:#00a0e8;stroke:#231916;stroke-miterlimit:10;stroke-width:0.09066147357225418px"/><path d="M37.94,4.27v2s7.7.75,9.39,12.46l2.61,2.2v3a12.19,12.19,0,0,1-2.2,1.33l0,5.09,7.54,4.55.86-.51S55.2,7,38.89,4.31h-1Z" transform="translate(0 0)" style="fill:#f7f7f7;stroke:#231916;stroke-miterlimit:10;stroke-width:0.09066147357225418px"/><path d="M37.94,4.73c14.1,2,16.86,22,17.29,30.13l.86-.51S55.31,7,38.89,4.27" transform="translate(0 0)" style="fill:#f7f7f7;stroke:#231916;stroke-miterlimit:10;stroke-width:0.09066147357225418px"/><path d="M37.94,4.27v2s-7.7.75-9.39,12.46l-2.61,2.2v3a12.19,12.19,0,0,0,2.2,1.33l0,5.09L20.65,34.9l-.86-.51S20.68,7,37,4.31h1Z" transform="translate(0 0)" style="fill:#f7f7f7;stroke:#231916;stroke-miterlimit:10;stroke-width:0.09066147357225418px"/><path d="M37.94,4.73c-14.1,2-16.86,22-17.29,30.13l-.86-.51S20.57,7,37,4.27" transform="translate(0 0)" style="fill:#f7f7f7;stroke:#231916;stroke-miterlimit:10;stroke-width:0.09066147357225418px"/><path d="M48,7A12.55,12.55,0,0,0,37.94,4l1,.32S43,3.71,48,7Z" transform="translate(0 0)" style="fill:#dbdcdc;stroke:#231916;stroke-miterlimit:10;stroke-width:0.09066147357225418px"/><path d="M27.88,7A12.55,12.55,0,0,1,37.94,4l-1,.32S32.82,3.71,27.88,7Z" transform="translate(0 0)" style="fill:#dbdcdc;stroke:#231916;stroke-miterlimit:10;stroke-width:0.09066147357225418px"/><path d="M37,4.44v5.74h0v.34a1.16,1.16,0,0,0,1.9,0V4.44Z" transform="translate(0 0)" style="fill:#f7f7f7;stroke:#231916;stroke-miterlimit:10;stroke-width:0.09066147357225418px"/><ellipse cx="37.94" cy="4.44" rx="0.95" ry="0.49" style="fill:#f7f7f7;stroke:#231916;stroke-miterlimit:10;stroke-width:0.09066147357225418px"/><path d="M32.63,11.18v.42a1.48,1.48,0,0,1,.07-.42Z" transform="translate(0 0)" style="fill:#f7f7f7;stroke:#231916;stroke-miterlimit:10;stroke-width:0.09066147357225418px"/><path d="M37.94,14.36c-2.93,0-5.31-1.24-5.31-2.76v1.49c0,1.52,2.38,2.76,5.31,2.76s5.31-1.24,5.31-2.76V11.6C43.24,13.09,40.87,14.36,37.94,14.36Z" transform="translate(0 0)" style="fill:#f7f7f7;stroke:#231916;stroke-miterlimit:10;stroke-width:0.09066147357225418px"/><path d="M43.18,11.18a1.48,1.48,0,0,1,.07.42v-.42Z" transform="translate(0 0)" style="fill:#f7f7f7;stroke:#231916;stroke-miterlimit:10;stroke-width:0.09066147357225418px"/><line x1="37.94" y1="24.22" x2="37.94" y2="27.19" style="fill:none;stroke:#231916;stroke-miterlimit:10;stroke-width:0.09066147357225418px"/><line x1="29.1" y1="22.65" x2="29.1" y2="25.67" style="fill:none;stroke:#231916;stroke-miterlimit:10;stroke-width:0.09066147357225418px"/><line x1="33.15" y1="23.8" x2="33.15" y2="26.84" style="fill:none;stroke:#231916;stroke-miterlimit:10;stroke-width:0.09066147357225418px"/><line x1="42.73" y1="23.8" x2="42.73" y2="26.84" style="fill:none;stroke:#231916;stroke-miterlimit:10;stroke-width:0.09066147357225418px"/><line x1="47.02" y1="22.56" x2="47.02" y2="25.53" style="fill:none;stroke:#231916;stroke-miterlimit:10;stroke-width:0.09066147357225418px"/><path d="M52.41,16.9v-.19h0l2-1.18A20.64,20.64,0,0,0,48,7h0A18.14,18.14,0,0,0,27.84,7h0a20.64,20.64,0,0,0-6.45,8.54l2,1.18h0v.19a56.22,56.22,0,0,0-3.68,17.45l.86.51,7.54-4.55,0-5.09a30.18,30.18,0,0,0,4.8,1.52c.27,1.31,2.4,2.34,5,2.34s4.73-1,5-2.34a30.19,30.19,0,0,0,4.8-1.52l0,5.09,7.54,4.55.86-.51A56.22,56.22,0,0,0,52.41,16.9ZM37,6.46V8.88a8.35,8.35,0,0,0-2.2.5,24.67,24.67,0,0,0-2.71.46A10.25,10.25,0,0,1,37,6.45Zm4.1,2.91a8.35,8.35,0,0,0-2.2-.5V6.45A10.25,10.25,0,0,1,43.8,9.83,24.67,24.67,0,0,0,41.09,9.37Z" transform="translate(0 0)" style="fill:none;stroke:#231916;stroke-miterlimit:10;stroke-width:0.3626458942890167px"/></g><g id="monument-outside"><path d="M63.5,7.42a.73.73,0,0,1,.48.17,1.09,1.09,0,0,1,.33.81.83.83,0,0,1,0,1.63,1.57,1.57,0,0,1,0,.2l.71.36.39,11.5,1.11.64v1.14l-3.77,2.18L59,23.87V22.75l1.11-.64.38-11.46,1.11-.56h0a.83.83,0,0,1,0-1.63,1.08,1.08,0,0,1,.31-.79.74.74,0,0,1,.5-.18,1,1,0,0,1,.29,0,.36.36,0,0,0,.51,0h0a1,1,0,0,1,.32,0m.63.9a.87.87,0,0,0-.27-.57.58.58,0,0,0-.39-.14.89.89,0,0,0-.27,0h-.1a2.56,2.56,0,0,1,.52.48,2.92,2.92,0,0,1,.5.14m-2.39,0a2.89,2.89,0,0,1,.51-.14,2.56,2.56,0,0,1,.5-.48h-.1a.9.9,0,0,0-.25,0,.59.59,0,0,0-.4.15.86.86,0,0,0-.25.55m.76-.18h.88a.45.45,0,0,0-.88,0m-.39,1.62.64-.32.94.47a1,1,0,0,0-.16-1.6,3.64,3.64,0,0,0-1.18,0,3,3,0,0,0-.49.92,2.91,2.91,0,0,0,.25.53m2-.83V8.82a2,2,0,0,0,0-.33,2.61,2.61,0,0,0-.37-.12,3.25,3.25,0,0,1,.33.57m-2.31,0a3.27,3.27,0,0,1,.33-.6,2.58,2.58,0,0,0-.38.13,1.94,1.94,0,0,0,0,.36V9m2.54.89a.8.8,0,0,0,.5-.64.81.81,0,0,0-.52-.65,2.26,2.26,0,0,1,0,.25.84.84,0,0,0,0,.78,2.23,2.23,0,0,1,0,.28m-2.76,0a2.25,2.25,0,0,1,0-.25.84.84,0,0,0,0-.78,2.23,2.23,0,0,1,0-.28.8.8,0,0,0-.5.64.81.81,0,0,0,.52.65m2.34.16.24-.09a2,2,0,0,0,0-.36V9.43a3.27,3.27,0,0,1-.27.52h.09m-2.17-.08L62,9.76a3.23,3.23,0,0,1-.17-.34v.12a2,2,0,0,0,0,.33m2.4.2h0m-.69-3a1.38,1.38,0,0,0-.42.07l-.16.06-.16-.06a1.39,1.39,0,0,0-.39-.06,1.08,1.08,0,0,0-.73.27,1.33,1.33,0,0,0-.41.83,1.23,1.23,0,0,0-.67,1,1.09,1.09,0,0,0,.34.77l-.6.3-.18.09v.2l-.38,11.27-.94.55-.17.1V24l.17.1,3.77,2.18.17.1.17-.1,3.77-2.18.17-.1V22.48l-.17-.12-.94-.54-.38-11.27v-.21l-.18-.09-.33-.17a1.15,1.15,0,0,0,.48-.89,1.24,1.24,0,0,0-.69-1,1.34,1.34,0,0,0-.43-.86,1.07,1.07,0,0,0-.71-.25h0Zm-1,1.56h.8a2.6,2.6,0,0,1,.32.57,2.64,2.64,0,0,1-.11.25l-.65-.33-.16-.08-.16.08-.33.17V9.24a2.62,2.62,0,0,1,.31-.59h0Z" transform="translate(0 0)" style="fill:#231916"/><polygon points="58.98 23.81 62.75 25.99 66.52 23.81 66.52 22.68 62.75 20.5 58.98 22.7 58.98 23.81" style="fill:#f7f7f7;stroke:#000;stroke-linejoin:round;stroke-width:0.08655785024166107px"/><polygon points="58.98 23.81 62.75 25.99 62.75 24.9 58.98 22.7 58.98 23.81" style="fill:#f7f7f7;stroke:#000;stroke-linejoin:round;stroke-width:0.08655785024166107px"/><polygon points="66.52 23.81 62.75 25.99 62.75 24.9 66.52 22.7 66.52 23.81" style="fill:#f7f7f7;stroke:#000;stroke-linejoin:round;stroke-width:0.08655785024166107px"/><polygon points="60.06 22.69 62.75 24.24 65.43 22.69 65.03 10.58 62.75 9.44 60.47 10.59 60.06 22.69" style="fill:#f7f7f7;stroke:#000;stroke-linejoin:round;stroke-width:0.08655785024166107px"/><polygon points="60.47 10.59 62.75 12.16 65.03 10.58 62.75 9.44 60.47 10.59" style="fill:#f7f7f7;stroke:#000;stroke-linejoin:round;stroke-width:0.08655785024166107px"/><polygon points="62.75 11.75 62.75 24.24 60.06 22.69 60.47 10.59 62.75 11.75" style="fill:#f7f7f7;stroke:#000;stroke-linejoin:round;stroke-width:0.08655785024166107px"/><polygon points="65.03 10.58 65.43 22.69 62.75 24.24 62.75 11.75 65.03 10.58" style="fill:#f7f7f7;stroke:#000;stroke-linejoin:round;stroke-width:0.08655785024166107px"/><path d="M62.39,11a.73.73,0,0,1-.48-.17,1.31,1.31,0,0,1-.31-1.22,2.82,2.82,0,0,1,1.59-2.15h0a.81.81,0,0,1,.8.12,1.31,1.31,0,0,1,.31,1.22A2.82,2.82,0,0,1,62.71,11,1,1,0,0,1,62.39,11Zm1.09-3.4a.89.89,0,0,0-.27,0,2.57,2.57,0,0,0-1.44,2A1.15,1.15,0,0,0,62,10.67a.66.66,0,0,0,.66.09h0a2.57,2.57,0,0,0,1.44-2,1.15,1.15,0,0,0-.25-1.06.58.58,0,0,0-.39-.09Z" transform="translate(0 0)" style="fill:#f7e07e"/><path d="M63.52,11a1,1,0,0,1-.29,0,2.8,2.8,0,0,1-1.64-2.11,1.31,1.31,0,0,1,.28-1.23.81.81,0,0,1,.79-.14A2.8,2.8,0,0,1,64.3,9.63h0A1.31,1.31,0,0,1,64,10.86.74.74,0,0,1,63.52,11Zm-.28-.23a.66.66,0,0,0,.65-.11,1.15,1.15,0,0,0,.23-1.07,2.55,2.55,0,0,0-1.48-1.92.66.66,0,0,0-.65.11,1.15,1.15,0,0,0-.23,1.07,2.55,2.55,0,0,0,1.48,1.92Z" transform="translate(0 0)" style="fill:#f7e07e"/><path d="M62.94,10.32c-1.14,0-2-.48-2-1.1s.9-1.1,2-1.1,2,.48,2,1.1S64.09,10.32,62.94,10.32Zm0-2c-1,0-1.89.43-1.89,1s.85,1,1.89,1,1.89-.43,1.89-1-.84-1-1.89-1Z" transform="translate(0 0)" style="fill:#f7e07e"/></g></g></svg>