<svg id="store-taipei" xmlns="http://www.w3.org/2000/svg" viewBox="0 0 66 51.03"><title>store_taipei2</title><polygon id="shadow" class="shadow" points="38.7 24.6 10.27 29.33 0 40.42 14.22 51.03 41.92 47.36 38.7 24.6" style="fill:#111;opacity:0.10000000149011612;isolation:isolate"/><g id="store-inside" class="building-inside"><polygon points="17.7 14.82 37.88 3.21 61.9 17.15 62.04 31.19 65.8 33.34 65.8 37.95 53.62 44.96 49.85 42.73 41.91 47.39 17.74 33.44 17.7 14.82" style="fill:none;stroke:#231916;stroke-linecap:round;stroke-linejoin:round;stroke-width:0.15348978340625763px"/><path d="M62,31.14" transform="translate(0 -0.02)" style="fill:none;stroke:#231916;stroke-linecap:round;stroke-linejoin:round;stroke-width:0.15348978340625763px"/><polygon points="33.85 38.09 38.81 40.96 46.8 36.26 41.91 33.46 33.85 38.09" style="fill:none;stroke:#231916;stroke-linecap:round;stroke-linejoin:round;stroke-width:0.15348978340625763px"/><polygon points="38.81 42.18 46.8 37.55 46.8 36.26 38.81 40.96 38.81 42.18" style="fill:#e7e7de;stroke:#231916;stroke-linecap:round;stroke-linejoin:round;stroke-width:0.15348978340625763px"/><polygon points="38.81 42.18 46.8 37.55 47.79 38.09 39.87 42.69 38.81 42.18" style="fill:#f3f3e8;stroke:#231916;stroke-linecap:round;stroke-linejoin:round;stroke-width:0.15348978340625763px"/><polygon points="39.87 42.69 47.83 38.08 47.83 39.26 39.87 43.9 39.87 42.69" style="fill:#e7e7de;stroke:#231916;stroke-linecap:round;stroke-linejoin:round;stroke-width:0.15348978340625763px"/><polygon points="39.87 43.9 40.83 44.45 48.77 39.81 47.83 39.26 39.87 43.9" style="fill:#f3f3e8;stroke:#231916;stroke-linecap:round;stroke-linejoin:round;stroke-width:0.15348978340625763px"/><polygon points="40.83 44.45 48.8 39.81 48.84 41.08 40.83 45.67 40.83 44.45" style="fill:#e7e7de;stroke:#231916;stroke-linecap:round;stroke-linejoin:round;stroke-width:0.15348978340625763px"/><polygon points="40.83 45.67 48.84 41.08 49.84 41.63 41.88 46.26 40.83 45.67" style="fill:#f3f3e8;stroke:#231916;stroke-linecap:round;stroke-linejoin:round;stroke-width:0.15348978340625763px"/><polygon points="41.91 47.39 49.85 42.73 49.84 41.63 41.88 46.26 41.91 47.39" style="fill:#e7e7de;stroke:#231916;stroke-linecap:round;stroke-linejoin:round;stroke-width:0.15348978340625763px"/><polygon points="49.85 38.18 53.63 40.38 53.63 44.97 49.85 42.73 49.85 38.18" style="fill:#b5b6b6;stroke:#231916;stroke-linecap:round;stroke-linejoin:round;stroke-width:0.15348978340625763px"/><polygon points="41.95 33.47 33.81 38.09 17.86 28.94 37.91 17.4 61.89 31.19 49.93 38.19 41.95 33.47" style="fill:#f7f8f8"/><path d="M37.88,17.53l23.9,13.68L50,38.12l-8-4.7h-.16l-8,4.59L18,29,37.89,17.58m0-.18L17.72,29l16.15,9.22,8-4.63,8,4.74L62,31.25,37.88,17.36h0Z" transform="translate(0 -0.02)" style="fill:#231916"/><polygon points="18.64 15.45 38.67 3.98 38.66 17.89 18.68 29.27 18.64 15.45" style="fill:#f3f3e8"/><path d="M38.59,4.13V17.82L18.78,29.16V15.56L38.65,4.14m.15-.27L18.62,15.47v14L38.78,17.92v-14h0Z" transform="translate(0 -0.02)" style="fill:#231916"/><polygon points="37.91 18.3 37.96 4.46 61.86 18.25 61.97 32.09 37.91 18.3" style="fill:#f3f3e8"/><path d="M38,4.61,61.78,18.28,61.92,32,38,18.28V4.61m-.15-.27v14L62,32.28l-.14-14-24-13.86h0Z" transform="translate(0 -0.02)" style="fill:#231916"/><path d="M49,42.28" transform="translate(0 -0.02)" style="fill:none;stroke:#231916;stroke-linecap:round;stroke-linejoin:round;stroke-width:0.15348978340625763px"/><polygon points="41.76 30.3 46.72 33.21 50.73 30.89 50.73 29.28 45.72 26.42 41.75 28.7 41.76 30.3" style="fill:#def0f3;stroke:#000;stroke-linecap:round;stroke-linejoin:round;stroke-width:0.15348978340625763px"/><polygon points="41.75 28.7 46.72 31.63 46.72 33.21 41.76 30.3 41.75 28.7" style="fill:#727171;stroke:#000;stroke-linecap:round;stroke-linejoin:round;stroke-width:0.15348978340625763px"/><polygon points="50.73 29.28 46.72 31.63 46.72 33.21 50.73 30.89 50.73 29.28" style="fill:#898989;stroke:#000;stroke-linecap:round;stroke-linejoin:round;stroke-width:0.15348978340625763px"/><polygon points="41.75 28.7 46.72 31.63 50.73 29.28 45.72 26.42 41.75 28.7" style="fill:#def0f3;stroke:#000;stroke-linecap:round;stroke-linejoin:round;stroke-width:0.15348978340625763px"/><polygon points="46.32 18.36 44.85 17.48 41.94 19.25 36.38 16.04 34.81 16.91 41.78 20.99 46.32 18.36" style="fill:#9fa0a0;stroke:#000;stroke-linecap:round;stroke-linejoin:round;stroke-width:0.15348978340625763px"/><polygon points="34.81 16.91 41.78 20.99 41.78 25.64 34.81 21.56 34.81 16.91" style="fill:#727171;stroke:#000;stroke-linecap:round;stroke-linejoin:round;stroke-width:0.15348978340625763px"/><polygon points="41.78 20.99 44.32 19.53 44.32 24.18 41.78 25.64 41.78 20.99" style="fill:#898989;stroke:#000;stroke-linecap:round;stroke-linejoin:round;stroke-width:0.15348978340625763px"/><path d="M34.42,35.9v.43a.2.2,0,0,0,.28,0h0V35.9" transform="translate(0 -0.02)" style="fill:#b5b6b6;stroke:#000;stroke-linecap:round;stroke-linejoin:round;stroke-width:0.15348978340625763px"/><path d="M37.55,34.21v.43a.2.2,0,0,0,.28,0h0v-.43" transform="translate(0 -0.02)" style="fill:#b5b6b6;stroke:#000;stroke-linecap:round;stroke-linejoin:round;stroke-width:0.15348978340625763px"/><path d="M32.57,34.82v.43a.2.2,0,0,0,.28,0h0v-.43" transform="translate(0 -0.02)" style="fill:#b5b6b6;stroke:#000;stroke-linecap:round;stroke-linejoin:round;stroke-width:0.15348978340625763px"/><path d="M38,34.28" transform="translate(0 -0.02)" style="fill:#b5b6b6;stroke:#000;stroke-linecap:round;stroke-linejoin:round;stroke-width:0.15348978340625763px"/><path d="M37,34.28" transform="translate(0 -0.02)" style="fill:#b5b6b6;stroke:#000;stroke-linecap:round;stroke-linejoin:round;stroke-width:0.15348978340625763px"/><polygon points="34.61 32.81 34.61 32.47 33.8 31.96 33.81 31.23 33.18 30.86 33.18 31.6 32.44 31.16 32.44 31.51 33.19 31.95 33.19 32.61 32.46 32.18 32.44 34.85 34.61 36.15 34.6 33.49 33.8 32.98 33.8 32.3 34.61 32.81" style="fill:#727171;stroke:#000;stroke-linecap:round;stroke-linejoin:round;stroke-width:0.15348978340625763px"/><polygon points="34.6 33.49 37.97 31.54 37.97 34.22 34.61 36.15 34.6 33.49" style="fill:#898989;stroke:#000;stroke-linecap:round;stroke-linejoin:round;stroke-width:0.15348978340625763px"/><polygon points="34.61 32.47 37.97 30.53 37.97 30.89 34.61 32.81 34.61 32.47" style="fill:#898989;stroke:#000;stroke-linecap:round;stroke-linejoin:round;stroke-width:0.15348978340625763px"/><polygon points="37.97 30.53 37.15 30 33.8 31.96 34.61 32.47 37.97 30.53" style="fill:#def0f3;stroke:#000;stroke-linecap:round;stroke-linejoin:round;stroke-width:0.15348978340625763px"/><polygon points="37.97 31.54 37.39 31.22 34.61 32.81 34.34 32.64 33.8 32.98 34.6 33.49 37.97 31.54" style="fill:#898989;stroke:#000;stroke-linecap:round;stroke-linejoin:round;stroke-width:0.15348978340625763px"/><polygon points="33.8 32.3 34.34 32.64 33.8 32.98 33.8 32.3" style="fill:#727171;stroke:#000;stroke-linecap:round;stroke-linejoin:round;stroke-width:0.15348978340625763px"/><polygon points="32.46 32.18 32.99 31.84 33.19 31.95 33.19 32.61 32.46 32.18" style="fill:#898989;stroke:#000;stroke-linecap:round;stroke-linejoin:round;stroke-width:0.15348978340625763px"/><polygon points="33.8 31.96 37.15 30 37.15 29.29 33.81 31.23 33.8 31.96" style="fill:#898989;stroke:#000;stroke-linecap:round;stroke-linejoin:round;stroke-width:0.15348978340625763px"/><polygon points="33.81 31.23 33.18 30.86 36.58 28.96 37.15 29.29 33.81 31.23" style="fill:#def0f3;stroke:#000;stroke-linecap:round;stroke-linejoin:round;stroke-width:0.15348978340625763px"/><polygon points="32.44 31.16 35.88 29.24 35.98 29.29 33.18 30.86 33.18 31.6 32.44 31.16" style="fill:#def0f3;stroke:#000;stroke-linecap:round;stroke-linejoin:round;stroke-width:0.15348978340625763px"/><polygon points="34.61 33.88 37.97 31.98 38.11 32.06 38.11 32.87 34.78 34.74 34.61 34.64 34.61 33.88" style="fill:#b5b6b6;stroke:#000;stroke-linecap:round;stroke-linejoin:round;stroke-width:0.15348978340625763px"/><polygon points="34.78 34.74 34.61 34.64 34.61 33.88 34.77 33.98 34.78 34.74" style="fill:#727171;stroke:#000;stroke-linecap:round;stroke-linejoin:round;stroke-width:0.15348978340625763px"/><polygon points="34.77 33.98 38.11 32.06 38.11 32.87 34.78 34.74 34.77 33.98" style="fill:#898989;stroke:#000;stroke-linecap:round;stroke-linejoin:round;stroke-width:0.15348978340625763px"/><polygon points="38.11 32.06 37.97 31.98 34.61 33.88 34.77 33.98 38.11 32.06" style="fill:#b5b6b6;stroke:#000;stroke-linecap:round;stroke-linejoin:round;stroke-width:0.15348978340625763px"/><polygon points="34.78 35.82 34.61 35.72 34.61 34.97 34.77 35.07 34.78 35.82" style="fill:#727171;stroke:#000;stroke-linecap:round;stroke-linejoin:round;stroke-width:0.15348978340625763px"/><polygon points="34.77 35.07 38.11 33.15 38.11 33.95 34.78 35.82 34.77 35.07" style="fill:#898989;stroke:#000;stroke-linecap:round;stroke-linejoin:round;stroke-width:0.15348978340625763px"/><polygon points="38.11 33.15 37.97 33.06 34.61 34.97 34.77 35.07 38.11 33.15" style="fill:#b5b6b6;stroke:#000;stroke-linecap:round;stroke-linejoin:round;stroke-width:0.15348978340625763px"/><polygon points="44.32 10.21 58.37 18.36 60.38 17.2 46.33 9.05 44.32 10.21" style="fill:#9fa0a0;stroke:#000;stroke-linecap:round;stroke-linejoin:round;stroke-width:0.15348978340625763px"/><polygon points="60.38 17.2 60.36 21.9 58.35 23.06 58.37 18.36 60.38 17.2" style="fill:#898989;stroke:#000;stroke-linecap:round;stroke-linejoin:round;stroke-width:0.15348978340625763px"/><polygon points="44.32 10.21 58.37 18.36 58.35 23.06 44.32 14.87 44.32 10.21" style="fill:#727171;stroke:#000;stroke-linecap:round;stroke-linejoin:round;stroke-width:0.15348978340625763px"/><polygon points="44.32 19.53 58.35 27.66 58.35 32.32 44.32 24.18 44.32 19.53" style="fill:#727171;stroke:#000;stroke-linecap:round;stroke-linejoin:round;stroke-width:0.15348978340625763px"/><polygon points="58.35 27.66 60.37 26.5 60.36 31.15 58.35 32.32 58.35 27.66" style="fill:#898989;stroke:#000;stroke-linecap:round;stroke-linejoin:round;stroke-width:0.15348978340625763px"/><polygon points="46.32 16.04 46.32 18.36 60.37 26.5 60.36 21.9 58.35 23.06 46.32 16.04" style="fill:#def0f3;stroke:#000;stroke-linecap:round;stroke-linejoin:round;stroke-width:0.15348978340625763px"/><polygon points="44.32 19.53 46.32 18.36 60.37 26.5 58.35 27.66 44.32 19.53" style="fill:#def0f3;stroke:#000;stroke-linecap:round;stroke-linejoin:round;stroke-width:0.15348978340625763px"/><polygon points="24.26 27.23 24.37 28.61 24.45 28.66 24.52 28.61 24.67 27.29 24.26 27.23" style="fill:#826c49;stroke:#000;stroke-linecap:round;stroke-linejoin:round;stroke-width:0.15348978340625763px"/><polygon points="24.46 27.39 24.45 28.66 24.37 28.61 24.26 27.36 24.46 27.39" style="fill:#65553d;stroke:#000;stroke-linecap:round;stroke-linejoin:round;stroke-width:0.15348978340625763px"/><polygon points="23.43 26.78 23.53 28.16 23.61 28.21 23.69 28.16 23.83 26.84 23.43 26.78" style="fill:#826c49;stroke:#000;stroke-linecap:round;stroke-linejoin:round;stroke-width:0.15348978340625763px"/><polygon points="23.63 26.94 23.61 28.21 23.53 28.16 23.43 26.91 23.63 26.94" style="fill:#65553d;stroke:#000;stroke-linecap:round;stroke-linejoin:round;stroke-width:0.15348978340625763px"/><polygon points="25.29 26.59 25.39 27.97 25.47 28.02 25.55 27.97 25.69 26.65 25.29 26.59" style="fill:#826c49;stroke:#000;stroke-linecap:round;stroke-linejoin:round;stroke-width:0.15348978340625763px"/><polygon points="25.49 26.75 25.47 28.02 25.39 27.97 25.29 26.72 25.49 26.75" style="fill:#65553d;stroke:#000;stroke-linecap:round;stroke-linejoin:round;stroke-width:0.15348978340625763px"/><polygon points="24.61 26.19 24.72 27.57 24.8 27.62 24.87 27.57 25.02 26.25 24.61 26.19" style="fill:#826c49;stroke:#000;stroke-linecap:round;stroke-linejoin:round;stroke-width:0.15348978340625763px"/><polygon points="24.81 26.35 24.8 27.62 24.72 27.57 24.61 26.32 24.81 26.35" style="fill:#65553d;stroke:#000;stroke-linecap:round;stroke-linejoin:round;stroke-width:0.15348978340625763px"/><path d="M24.25,27.08l-.84-.48,1.26-.73.86.48a.43.43,0,0,1,.24.36,1,1,0,0,1-1.17.42l-.33,0h0Z" transform="translate(0 -0.02)" style="fill:#61657a;stroke:#000;stroke-linecap:round;stroke-linejoin:round;stroke-width:0.15348978340625763px"/><path d="M24.27,27.38V27.1l.33,0a1.24,1.24,0,0,0,1.13-.3h0a.27.27,0,0,0,0-.12h0V27a1,1,0,0,1-1.17.42l-.33,0h0" transform="translate(0 -0.02)" style="fill:#464c56;stroke:#000;stroke-linecap:round;stroke-linejoin:round;stroke-width:0.15348978340625763px"/><path d="M23.41,26.61" transform="translate(0 -0.02)" style="fill:#61657a;stroke:#000;stroke-linecap:round;stroke-linejoin:round;stroke-width:0.15348978340625763px"/><polygon points="24.67 25.85 24.67 24.2 23.39 24.94 23.4 26.58 24.67 25.85" style="fill:#61657a;stroke:#000;stroke-linecap:round;stroke-linejoin:round;stroke-width:0.15348978340625763px"/><polygon points="23.68 26.74 23.59 25.04 23.39 24.94 23.4 26.58 23.4 26.89 24.26 27.36 24.26 27.07 23.68 26.74" style="fill:#464c56;stroke:#000;stroke-linecap:round;stroke-linejoin:round;stroke-width:0.15348978340625763px"/><polygon points="24.86 24.29 23.59 25.04 23.68 26.74 24.96 26 24.86 24.29" style="fill:#61657a;stroke:#000;stroke-linecap:round;stroke-linejoin:round;stroke-width:0.15348978340625763px"/><polygon points="24.67 24.2 24.86 24.3 23.59 25.04 23.39 24.94 24.67 24.2" style="fill:#61657a;stroke:#000;stroke-linecap:round;stroke-linejoin:round;stroke-width:0.15348978340625763px"/><polygon points="30.65 30.73 30.75 32.11 30.84 32.16 30.91 32.11 31.05 30.79 30.65 30.73" style="fill:#826c49;stroke:#000;stroke-linecap:round;stroke-linejoin:round;stroke-width:0.15348978340625763px"/><polygon points="30.85 30.89 30.84 32.16 30.75 32.11 30.65 30.86 30.85 30.89" style="fill:#65553d;stroke:#000;stroke-linecap:round;stroke-linejoin:round;stroke-width:0.15348978340625763px"/><polygon points="29.93 30.28 30.04 31.66 30.12 31.71 30.19 31.66 30.34 30.34 29.93 30.28" style="fill:#826c49;stroke:#000;stroke-linecap:round;stroke-linejoin:round;stroke-width:0.15348978340625763px"/><polygon points="30.14 30.44 30.12 31.71 30.04 31.66 29.93 30.4 30.14 30.44" style="fill:#65553d;stroke:#000;stroke-linecap:round;stroke-linejoin:round;stroke-width:0.15348978340625763px"/><polygon points="31.68 30.09 31.78 31.47 31.86 31.52 31.94 31.47 32.08 30.15 31.68 30.09" style="fill:#826c49;stroke:#000;stroke-linecap:round;stroke-linejoin:round;stroke-width:0.15348978340625763px"/><polygon points="31.88 30.25 31.86 31.52 31.78 31.47 31.68 30.22 31.88 30.25" style="fill:#65553d;stroke:#000;stroke-linecap:round;stroke-linejoin:round;stroke-width:0.15348978340625763px"/><polygon points="31 29.69 31.1 31.07 31.18 31.12 31.26 31.07 31.4 29.75 31 29.69" style="fill:#826c49;stroke:#000;stroke-linecap:round;stroke-linejoin:round;stroke-width:0.15348978340625763px"/><polygon points="31.2 29.85 31.18 31.12 31.1 31.07 31 29.82 31.2 29.85" style="fill:#65553d;stroke:#000;stroke-linecap:round;stroke-linejoin:round;stroke-width:0.15348978340625763px"/><path d="M29.78,30.16" transform="translate(0 -0.02)" style="fill:#61657a;stroke:#000;stroke-linecap:round;stroke-linejoin:round;stroke-width:0.15348978340625763px"/><polygon points="31.97 28.2 32.16 28.3 30.89 29.04 30.7 28.94 31.97 28.2" style="fill:#61657a;stroke:#000;stroke-linecap:round;stroke-linejoin:round;stroke-width:0.15348978340625763px"/><path d="M32.16,30l-1.26.73-.9-.52a.43.43,0,0,1-.24-.36A1,1,0,0,1,31,29.45l.33,0Z" transform="translate(0 -0.02)" style="fill:#61657a;stroke:#000;stroke-linecap:round;stroke-linejoin:round;stroke-width:0.15348978340625763px"/><polygon points="32.16 28.3 30.88 29.05 30.88 30.98 32.15 30.27 32.16 28.3" style="fill:#5a6071;stroke:#000;stroke-linecap:round;stroke-linejoin:round;stroke-width:0.15348978340625763px"/><path d="M30.7,29l-.23,1.52h0L30,30.22a.41.41,0,0,1-.22-.35v.29a.41.41,0,0,0,.23.37l.86.47V29.08Z" transform="translate(0 -0.02)" style="fill:#464c56;stroke:#000;stroke-linecap:round;stroke-linejoin:round;stroke-width:0.15348978340625763px"/><polygon points="28.22 32.04 28.33 33.42 28.41 33.47 28.48 33.42 28.63 32.1 28.22 32.04" style="fill:#826c49;stroke:#000;stroke-linecap:round;stroke-linejoin:round;stroke-width:0.15348978340625763px"/><polygon points="28.43 32.2 28.41 33.47 28.33 33.42 28.22 32.16 28.43 32.2" style="fill:#65553d;stroke:#000;stroke-linecap:round;stroke-linejoin:round;stroke-width:0.15348978340625763px"/><polygon points="27.51 31.58 27.61 32.96 27.69 33.02 27.77 32.96 27.91 31.64 27.51 31.58" style="fill:#826c49;stroke:#000;stroke-linecap:round;stroke-linejoin:round;stroke-width:0.15348978340625763px"/><polygon points="27.71 31.75 27.69 33.02 27.61 32.96 27.51 31.71 27.71 31.75" style="fill:#65553d;stroke:#000;stroke-linecap:round;stroke-linejoin:round;stroke-width:0.15348978340625763px"/><polygon points="29.25 31.4 29.35 32.78 29.43 32.83 29.51 32.78 29.65 31.46 29.25 31.4" style="fill:#826c49;stroke:#000;stroke-linecap:round;stroke-linejoin:round;stroke-width:0.15348978340625763px"/><polygon points="29.45 31.56 29.43 32.83 29.35 32.78 29.25 31.52 29.45 31.56" style="fill:#65553d;stroke:#000;stroke-linecap:round;stroke-linejoin:round;stroke-width:0.15348978340625763px"/><polygon points="28.57 31 28.68 32.38 28.76 32.43 28.83 32.38 28.98 31.06 28.57 31" style="fill:#826c49;stroke:#000;stroke-linecap:round;stroke-linejoin:round;stroke-width:0.15348978340625763px"/><polygon points="28.77 31.16 28.76 32.43 28.68 32.38 28.57 31.12 28.77 31.16" style="fill:#65553d;stroke:#000;stroke-linecap:round;stroke-linejoin:round;stroke-width:0.15348978340625763px"/><path d="M27.36,31.47" transform="translate(0 -0.02)" style="fill:#61657a;stroke:#000;stroke-linecap:round;stroke-linejoin:round;stroke-width:0.15348978340625763px"/><polygon points="29.54 29.5 29.74 29.61 28.47 30.35 28.27 30.25 29.54 29.5" style="fill:#61657a;stroke:#000;stroke-linecap:round;stroke-linejoin:round;stroke-width:0.15348978340625763px"/><path d="M29.73,31.28,28.47,32l-.86-.48a.43.43,0,0,1-.24-.36,1,1,0,0,1,1.17-.42l.33,0Z" transform="translate(0 -0.02)" style="fill:#61657a;stroke:#000;stroke-linecap:round;stroke-linejoin:round;stroke-width:0.15348978340625763px"/><polygon points="29.74 29.61 28.45 30.36 28.45 32.29 29.73 31.58 29.74 29.61" style="fill:#5a6071;stroke:#000;stroke-linecap:round;stroke-linejoin:round;stroke-width:0.15348978340625763px"/><path d="M28.27,30.28,28,31.8h0l-.46-.27a.41.41,0,0,1-.22-.35v.29a.41.41,0,0,0,.23.37l.86.47V30.38Z" transform="translate(0 -0.02)" style="fill:#464c56;stroke:#000;stroke-linecap:round;stroke-linejoin:round;stroke-width:0.15348978340625763px"/><polygon points="25.93 29.15 23.69 27.85 28.17 25.26 30.41 26.55 25.93 29.15" style="fill:#b5b6b6;stroke:#000;stroke-linecap:round;stroke-linejoin:round;stroke-width:0.15348978340625763px"/><polygon points="23.69 27.85 23.69 28.46 23.69 30.45 25.93 31.75 25.93 29.77 25.93 29.15 23.69 27.85" style="fill:#727171;stroke:#000;stroke-linecap:round;stroke-linejoin:round;stroke-width:0.15348978340625763px"/><polygon points="30.41 29.15 30.41 27.2 30.41 26.55 25.93 29.15 25.93 29.77 25.93 31.75 27.37 30.91 27.37 28.94 29.9 27.49 29.9 29.45 30.41 29.15" style="fill:#9fa0a0;stroke:#000;stroke-linecap:round;stroke-linejoin:round;stroke-width:0.15348978340625763px"/><polygon points="29.9 29.45 28.22 28.46 29.9 27.49 29.9 29.45" style="fill:#898989;stroke:#000;stroke-linecap:round;stroke-linejoin:round;stroke-width:0.15348978340625763px"/><path d="M34.78,38.79" transform="translate(0 -0.02)" style="fill:#f3f3e8;stroke:#231916;stroke-linecap:round;stroke-linejoin:round;stroke-width:0.15348978340625763px"/><polygon points="33.85 38.16 38.81 41.03 46.76 36.4 41.91 33.53 33.85 38.16" style="fill:#f3f3e8;stroke:#231916;stroke-linecap:round;stroke-linejoin:round;stroke-width:0.15348978340625763px"/><polygon points="53.71 40.4 65.72 33.48 65.72 37.97 53.71 44.86 53.71 40.4" style="fill:#c9caca"/><path d="M65.65,33.63V37.9L53.78,44.75V40.51l11.86-6.88m.15-.27L53.62,40.42V45l12.17-7V33.39h0Z" transform="translate(0 -0.02)" style="fill:#231916"/><polygon points="50 38.26 62.08 31.25 65.65 33.34 53.63 40.36 50 38.26" style="fill:#dcdddd"/><path d="M62,31.39l3.45,2L53.64,40.28l-3.48-2L62,31.39m0-.18L49.8,38.28l3.79,2.2,12.14-7.11L62,31.21Z" transform="translate(0 -0.02)" style="fill:#231916"/><path d="M46.78,36.42" transform="translate(0 -0.02)" style="fill:#e7e7de;stroke:#231916;stroke-linecap:round;stroke-linejoin:round;stroke-width:0.15348978340625763px"/><polygon points="48.84 41.01 48.84 39.81 47.83 39.19 47.87 38.08 46.8 37.48 46.8 36.46 49.81 38.25 49.77 41.5 48.84 41.01" style="fill:#e7e7de"/><path d="M46.89,36.63,49.7,38.3v3.1L49,41V39.84a.15.15,0,0,0-.08-.13L48,39.2V38.11a.15.15,0,0,0-.08-.14l-1-.49v-.85m-.16-.27v1.22l1,.53v1.17l1,.56V41.1l1,.55V38.2l-3.12-1.86h0Z" transform="translate(0 -0.02)" style="fill:#231916"/><polygon points="61.14 17.7 37.94 4.28 37.95 3.35 61.86 17.21 61.97 31.19 61.25 31.57 61.14 17.7" style="fill:#e7e7de"/><path d="M38,3.51,61.78,17.28l.14,13.86-.56.33-.11-13.73a.15.15,0,0,0-.08-.13L38.06,4.28V3.51m-.18-.23V4.41L61,17.77l.11,14,.87-.51-.14-14-24-14Z" transform="translate(0 -0.02)" style="fill:#231916"/><polygon points="41.91 47.39 41.88 46.26 40.8 45.67 40.83 44.45 39.87 43.9 39.87 42.69 38.81 42.18 38.81 41.03 18.6 29.4 18.6 15.43 37.88 4.35 37.85 3.21 17.67 14.82 17.71 33.44 18.6 33.95 18.6 33.95 41.91 47.39" style="fill:#e7e7de;stroke:#231916;stroke-linecap:round;stroke-linejoin:round;stroke-width:0.15348978340625763px"/><polygon points="17.67 14.82 18.6 15.43 37.87 4.35 37.85 3.21 17.67 14.82" style="fill:#f3f3e8;stroke:#231916;stroke-linecap:round;stroke-linejoin:round;stroke-width:0.15348978340625763px"/><polygon points="37.93 3.21 61.98 17.15 61.15 17.7 37.96 4.35 37.93 3.21" style="fill:#f3f3e8;stroke:#231916;stroke-linecap:round;stroke-linejoin:round;stroke-width:0.15348978340625763px"/><path d="M46.63,19.92a.37.37,0,0,1-.32-.15h0a.32.32,0,0,0,.63,0h0A.37.37,0,0,1,46.63,19.92Z" transform="translate(0 -0.02)" style="fill:#fff;stroke:#231916;stroke-linejoin:round;stroke-width:0.1332954317331314px"/><path d="M47,19.2h0a.31.31,0,0,0-.11-.23h0a.39.39,0,0,0-.55,0h0a.31.31,0,0,0-.11.27h0l.06.46a.35.35,0,0,0,.65,0l.06-.46h0Z" transform="translate(0 -0.02)" style="fill:#fff;stroke:#231916;stroke-linejoin:round;stroke-width:0.1332954317331314px"/><path d="M47,19.28c0-.12-.23-.14-.34-.14s-.33,0-.33.14h0v.34a.3.3,0,0,0,.55,0v-.34Z" transform="translate(0 -0.02)" style="fill:#f5eaf3"/><path d="M46.38,18.68V19a.29.29,0,0,0,.49,0v-.28Z" transform="translate(0 -0.02)" style="fill:#c9caca;stroke:#231916;stroke-linejoin:round;stroke-width:0.1332954317331314px"/><ellipse cx="46.62" cy="18.66" rx="0.25" ry="0.14" style="fill:#ddd;stroke:#231916;stroke-linejoin:round;stroke-width:0.1332954317331314px"/><path d="M46.78,18.5h0a.16.16,0,1,0-.25,0h0a.21.21,0,0,1,0,.13h0a.15.15,0,0,0,.21,0h0a.2.2,0,0,1,0-.15h0Z" transform="translate(0 -0.02)" style="fill:#fff;stroke:#231916;stroke-linejoin:round;stroke-width:0.1332954317331314px"/><path d="M46.34,19.28a.4.4,0,0,0,.28.09.43.43,0,0,0,.29-.12.49.49,0,0,1-.29.09A.44.44,0,0,1,46.34,19.28Z" transform="translate(0 -0.02)" style="fill:#fff"/><path d="M48.78,21.17a.37.37,0,0,1-.32-.15h0a.32.32,0,0,0,.63,0h0A.37.37,0,0,1,48.78,21.17Z" transform="translate(0 -0.02)" style="fill:#fff;stroke:#231916;stroke-linejoin:round;stroke-width:0.1332954317331314px"/><path d="M49.12,20.45h0a.31.31,0,0,0-.12-.23h0a.39.39,0,0,0-.55,0h0a.31.31,0,0,0-.11.27h0l.06.46a.35.35,0,0,0,.65,0l.06-.46h0Z" transform="translate(0 -0.02)" style="fill:#fff;stroke:#231916;stroke-linejoin:round;stroke-width:0.1332954317331314px"/><path d="M49.07,20.55c0-.12-.23-.14-.34-.14s-.33,0-.33.14h0v.34a.3.3,0,0,0,.55,0v-.34Z" transform="translate(0 -0.02)" style="fill:#f6c5c9"/><path d="M48.48,19.93v.28a.29.29,0,0,0,.49,0v-.28Z" transform="translate(0 -0.02)" style="fill:#c9caca;stroke:#231916;stroke-linejoin:round;stroke-width:0.1332954317331314px"/><ellipse cx="48.73" cy="19.91" rx="0.25" ry="0.14" style="fill:#ddd;stroke:#231916;stroke-linejoin:round;stroke-width:0.1332954317331314px"/><path d="M48.86,19.75h0a.16.16,0,1,0-.25,0h0a.21.21,0,0,1,0,.13h0a.15.15,0,0,0,.21,0h0a.2.2,0,0,1,0-.15h0Z" transform="translate(0 -0.02)" style="fill:#fff;stroke:#231916;stroke-linejoin:round;stroke-width:0.1332954317331314px"/><path d="M48.44,20.55a.4.4,0,0,0,.28.09.43.43,0,0,0,.28-.12.49.49,0,0,1-.29.09A.44.44,0,0,1,48.44,20.55Z" transform="translate(0 -0.02)" style="fill:#fff"/><path d="M50.78,22.28a.37.37,0,0,1-.32-.15h0a.32.32,0,0,0,.63,0h0A.37.37,0,0,1,50.78,22.28Z" transform="translate(0 -0.02)" style="fill:#fff;stroke:#231916;stroke-linejoin:round;stroke-width:0.1332954317331314px"/><path d="M51.13,21.58h0a.31.31,0,0,0-.11-.23h0a.39.39,0,0,0-.55,0h0a.31.31,0,0,0-.11.27h0l.06.46a.35.35,0,0,0,.65,0l.06-.46h0Z" transform="translate(0 -0.02)" style="fill:#fff;stroke:#231916;stroke-linejoin:round;stroke-width:0.1332954317331314px"/><path d="M51.07,21.68c0-.12-.23-.14-.34-.14s-.33,0-.33.14h0V22a.3.3,0,0,0,.6,0v-.34Z" transform="translate(0 -0.02)" style="fill:#f1c772"/><path d="M50.49,21.07v.28a.29.29,0,0,0,.49,0v-.28Z" transform="translate(0 -0.02)" style="fill:#c9caca;stroke:#231916;stroke-linejoin:round;stroke-width:0.1332954317331314px"/><ellipse cx="50.73" cy="21.04" rx="0.25" ry="0.14" style="fill:#ddd;stroke:#231916;stroke-linejoin:round;stroke-width:0.1332954317331314px"/><path d="M50.87,20.89h0a.16.16,0,1,0-.25,0h0a.21.21,0,0,1,0,.13h0a.15.15,0,0,0,.21,0h0a.2.2,0,0,1,0-.15h0Z" transform="translate(0 -0.02)" style="fill:#fff;stroke:#231916;stroke-linejoin:round;stroke-width:0.1332954317331314px"/><path d="M50.45,21.69a.4.4,0,0,0,.28.09.43.43,0,0,0,.29-.12.49.49,0,0,1-.29.09A.44.44,0,0,1,50.45,21.69Z" transform="translate(0 -0.02)" style="fill:#fff"/><path d="M53,23.55a.37.37,0,0,1-.32-.15h0a.32.32,0,0,0,.63,0h0A.37.37,0,0,1,53,23.55Z" transform="translate(0 -0.02)" style="fill:#fff;stroke:#231916;stroke-linejoin:round;stroke-width:0.1332954317331314px"/><path d="M53.35,22.83h0a.31.31,0,0,0-.11-.23h0a.39.39,0,0,0-.55,0h0a.31.31,0,0,0-.11.27h0l.06.46a.35.35,0,0,0,.65,0l.06-.46h0Z" transform="translate(0 -0.02)" style="fill:#fff;stroke:#231916;stroke-linejoin:round;stroke-width:0.1332954317331314px"/><path d="M53.29,22.93c0-.12-.23-.14-.34-.14s-.33,0-.33.14h0l.06.35a.3.3,0,0,0,.55,0v-.34Z" transform="translate(0 -0.02)" style="fill:#f5e9aa"/><path d="M52.7,22.28v.28a.29.29,0,0,0,.49,0v-.28Z" transform="translate(0 -0.02)" style="fill:#c9caca;stroke:#231916;stroke-linejoin:round;stroke-width:0.1332954317331314px"/><ellipse cx="52.95" cy="22.29" rx="0.25" ry="0.14" style="fill:#ddd;stroke:#231916;stroke-linejoin:round;stroke-width:0.1332954317331314px"/><path d="M53.08,22.13h0a.16.16,0,1,0-.25,0h0a.21.21,0,0,1,0,.13h0a.15.15,0,0,0,.21,0h0a.2.2,0,0,1,0-.15h0Z" transform="translate(0 -0.02)" style="fill:#fff;stroke:#231916;stroke-linejoin:round;stroke-width:0.1332954317331314px"/><path d="M52.66,22.94a.4.4,0,0,0,.28.09.43.43,0,0,0,.29-.12.49.49,0,0,1-.29.09A.44.44,0,0,1,52.66,22.94Z" transform="translate(0 -0.02)" style="fill:#fff"/><path d="M55.27,24.8a.37.37,0,0,1-.32-.15h0a.32.32,0,0,0,.63,0h0A.37.37,0,0,1,55.27,24.8Z" transform="translate(0 -0.02)" style="fill:#fff;stroke:#231916;stroke-linejoin:round;stroke-width:0.1332954317331314px"/><path d="M55.66,24.08h0a.31.31,0,0,0-.11-.23h0a.39.39,0,0,0-.55,0h0a.31.31,0,0,0-.11.27h0l.06.46a.35.35,0,0,0,.65,0l.06-.46h0Z" transform="translate(0 -0.02)" style="fill:#fff;stroke:#231916;stroke-linejoin:round;stroke-width:0.1332954317331314px"/><path d="M55.6,24.18c0-.12-.23-.14-.34-.14s-.33,0-.33.14h0v.34a.3.3,0,0,0,.55,0v-.34Z" transform="translate(0 -0.02)" style="fill:#b2ca92"/><path d="M55,23.56v.28a.29.29,0,0,0,.49,0v-.28Z" transform="translate(0 -0.02)" style="fill:#c9caca;stroke:#231916;stroke-linejoin:round;stroke-width:0.1332954317331314px"/><ellipse cx="55.26" cy="23.54" rx="0.25" ry="0.14" style="fill:#ddd;stroke:#231916;stroke-linejoin:round;stroke-width:0.1332954317331314px"/><path d="M55.39,23.38h0a.16.16,0,1,0-.25,0h0a.21.21,0,0,1,0,.13h0a.15.15,0,0,0,.21,0h0a.2.2,0,0,1,0-.15h0Z" transform="translate(0 -0.02)" style="fill:#fff;stroke:#231916;stroke-linejoin:round;stroke-width:0.1332954317331314px"/><path d="M55,24.18a.4.4,0,0,0,.28.09.43.43,0,0,0,.29-.12.49.49,0,0,1-.29.09A.44.44,0,0,1,55,24.18Z" transform="translate(0 -0.02)" style="fill:#fff"/><path d="M57.44,26.1a.37.37,0,0,1-.32-.15h0a.32.32,0,0,0,.63,0h0A.37.37,0,0,1,57.44,26.1Z" transform="translate(0 -0.02)" style="fill:#fff;stroke:#231916;stroke-linejoin:round;stroke-width:0.1332954317331314px"/><path d="M57.78,25.38h0a.31.31,0,0,0-.11-.23h0a.39.39,0,0,0-.55,0h0a.31.31,0,0,0-.11.27h0l.06.46a.35.35,0,0,0,.65,0l.06-.46h0Z" transform="translate(0 -0.02)" style="fill:#fff;stroke:#231916;stroke-linejoin:round;stroke-width:0.1332954317331314px"/><path d="M57.78,25.48c0-.12-.23-.14-.34-.14s-.33,0-.33.14h0v.34a.3.3,0,0,0,.55,0v-.34Z" transform="translate(0 -0.02)" style="fill:#8d5ea4"/><path d="M57.19,24.86v.28a.29.29,0,0,0,.49,0v-.28Z" transform="translate(0 -0.02)" style="fill:#c9caca;stroke:#231916;stroke-linejoin:round;stroke-width:0.1332954317331314px"/><ellipse cx="57.43" cy="24.84" rx="0.25" ry="0.14" style="fill:#ddd;stroke:#231916;stroke-linejoin:round;stroke-width:0.1332954317331314px"/><path d="M57.56,24.68h0a.16.16,0,1,0-.25,0h0a.21.21,0,0,1,0,.13h0a.15.15,0,0,0,.21,0h0a.2.2,0,0,1,0-.15h0Z" transform="translate(0 -0.02)" style="fill:#fff;stroke:#231916;stroke-linejoin:round;stroke-width:0.1332954317331314px"/><path d="M57.14,25.48a.4.4,0,0,0,.28.09.43.43,0,0,0,.29-.12.49.49,0,0,1-.29.09A.44.44,0,0,1,57.14,25.48Z" transform="translate(0 -0.02)" style="fill:#fff"/><path d="M46.25,29.22a.37.37,0,0,1-.32-.15h0a.32.32,0,0,0,.63,0h0A.37.37,0,0,1,46.25,29.22Z" transform="translate(0 -0.02)" style="fill:#fff;stroke:#231916;stroke-linejoin:round;stroke-width:0.1332954317331314px"/><path d="M46.64,28.5h0a.31.31,0,0,0-.11-.23h0a.39.39,0,0,0-.55,0h0a.31.31,0,0,0-.11.27h0l.06.46a.35.35,0,0,0,.65,0l.06-.46h0Z" transform="translate(0 -0.02)" style="fill:#fff;stroke:#231916;stroke-linejoin:round;stroke-width:0.1332954317331314px"/><path d="M46.58,28.6c0-.12-.23-.14-.34-.14s-.33,0-.33.14h0v.34a.3.3,0,0,0,.55,0V28.6Z" transform="translate(0 -0.02)" style="fill:#8d5ea4"/><path d="M46,28v.29a.29.29,0,0,0,.49,0V28Z" transform="translate(0 -0.02)" style="fill:#c9caca;stroke:#231916;stroke-linejoin:round;stroke-width:0.1332954317331314px"/><ellipse cx="46.24" cy="27.96" rx="0.25" ry="0.14" style="fill:#ddd;stroke:#231916;stroke-linejoin:round;stroke-width:0.1332954317331314px"/><path d="M46.37,27.8h0a.16.16,0,1,0-.25,0h0a.21.21,0,0,1,0,.13h0a.15.15,0,0,0,.21,0h0a.2.2,0,0,1,0-.15h0Z" transform="translate(0 -0.02)" style="fill:#fff;stroke:#231916;stroke-linejoin:round;stroke-width:0.1332954317331314px"/><path d="M46,28.61a.4.4,0,0,0,.28.09.43.43,0,0,0,.29-.12.49.49,0,0,1-.29.09A.44.44,0,0,1,46,28.61Z" transform="translate(0 -0.02)" style="fill:#fff"/><path d="M34.22,30.72a.37.37,0,0,1-.32-.15h0a.32.32,0,0,0,.63,0h0A.37.37,0,0,1,34.22,30.72Z" transform="translate(0 -0.02)" style="fill:#fff;stroke:#231916;stroke-linejoin:round;stroke-width:0.1332954317331314px"/><path d="M34.61,30h0a.31.31,0,0,0-.11-.23h0a.39.39,0,0,0-.55,0h0a.31.31,0,0,0-.11.27h0l.06.46a.35.35,0,0,0,.65,0l0-.5h0Z" transform="translate(0 -0.02)" style="fill:#fff;stroke:#231916;stroke-linejoin:round;stroke-width:0.1332954317331314px"/><path d="M34.55,30.1c0-.12-.23-.14-.34-.14s-.33,0-.33.14h0v.34a.3.3,0,0,0,.55,0V30.1Z" transform="translate(0 -0.02)" style="fill:#8d5ea4"/><path d="M34,29.49v.28a.29.29,0,0,0,.49,0v-.28Z" transform="translate(0 -0.02)" style="fill:#c9caca;stroke:#231916;stroke-linejoin:round;stroke-width:0.1332954317331314px"/><ellipse cx="34.21" cy="29.46" rx="0.25" ry="0.14" style="fill:#ddd;stroke:#231916;stroke-linejoin:round;stroke-width:0.1332954317331314px"/><path d="M34.34,29.28h0a.16.16,0,1,0-.25,0h0a.21.21,0,0,1,0,.13h0a.15.15,0,0,0,.21,0h0a.2.2,0,0,1,0-.15h0Z" transform="translate(0 -0.02)" style="fill:#fff;stroke:#231916;stroke-linejoin:round;stroke-width:0.1332954317331314px"/><path d="M33.93,30.11a.4.4,0,0,0,.28.09.43.43,0,0,0,.29-.12.49.49,0,0,1-.29.09A.44.44,0,0,1,33.93,30.11Z" transform="translate(0 -0.02)" style="fill:#fff"/><path d="M36,29.84a.37.37,0,0,1-.32-.15h0a.32.32,0,0,0,.63,0h0A.37.37,0,0,1,36,29.84Z" transform="translate(0 -0.02)" style="fill:#fff;stroke:#231916;stroke-linejoin:round;stroke-width:0.1332954317331314px"/><path d="M36.38,29.11h0a.31.31,0,0,0-.11-.23h0a.39.39,0,0,0-.55,0h0a.31.31,0,0,0-.11.27h0l.06.46a.35.35,0,0,0,.65,0l.06-.46h0Z" transform="translate(0 -0.02)" style="fill:#fff;stroke:#231916;stroke-linejoin:round;stroke-width:0.1332954317331314px"/><path d="M36.32,29.22c0-.12-.23-.14-.34-.14s-.33,0-.33.14h0v.34a.3.3,0,0,0,.55,0v-.34Z" transform="translate(0 -0.02)" style="fill:#8d5ea4"/><path d="M35.78,28.6v.28a.29.29,0,0,0,.49,0V28.6Z" transform="translate(0 -0.02)" style="fill:#c9caca;stroke:#231916;stroke-linejoin:round;stroke-width:0.1332954317331314px"/><ellipse cx="35.98" cy="28.58" rx="0.25" ry="0.14" style="fill:#ddd;stroke:#231916;stroke-linejoin:round;stroke-width:0.1332954317331314px"/><path d="M36.11,28.42h0a.16.16,0,1,0-.25,0h0a.21.21,0,0,1,0,.13h0a.15.15,0,0,0,.21,0h0a.2.2,0,0,1,0-.15h0Z" transform="translate(0 -0.02)" style="fill:#fff;stroke:#231916;stroke-linejoin:round;stroke-width:0.1332954317331314px"/><path d="M35.7,29.22a.4.4,0,0,0,.28.09.43.43,0,0,0,.29-.12.49.49,0,0,1-.29.09A.44.44,0,0,1,35.7,29.22Z" transform="translate(0 -0.02)" style="fill:#fff"/><path d="M25.78,28.45a.37.37,0,0,1-.32-.15h0a.32.32,0,0,0,.63,0h0A.37.37,0,0,1,25.78,28.45Z" transform="translate(0 -0.02)" style="fill:#fff;stroke:#231916;stroke-linejoin:round;stroke-width:0.1332954317331314px"/><path d="M26.17,27.73h0a.31.31,0,0,0-.11-.23h0a.39.39,0,0,0-.55,0h0a.31.31,0,0,0-.11.27h0l.06.46a.35.35,0,0,0,.65,0l.06-.46h0Z" transform="translate(0 -0.02)" style="fill:#fff;stroke:#231916;stroke-linejoin:round;stroke-width:0.1332954317331314px"/><path d="M26.11,27.84c0-.12-.23-.14-.34-.14s-.33,0-.33.14h0v.34a.3.3,0,0,0,.55,0v-.34Z" transform="translate(0 -0.02)" style="fill:#8d5ea4"/><path d="M25.52,27.22v.28a.29.29,0,0,0,.49,0v-.28Z" transform="translate(0 -0.02)" style="fill:#c9caca;stroke:#231916;stroke-linejoin:round;stroke-width:0.1332954317331314px"/><ellipse cx="25.77" cy="27.2" rx="0.25" ry="0.14" style="fill:#ddd;stroke:#231916;stroke-linejoin:round;stroke-width:0.1332954317331314px"/><path d="M25.9,27h0a.16.16,0,1,0-.25,0h0a.21.21,0,0,1,0,.13h0a.15.15,0,0,0,.21,0h0a.2.2,0,0,1,0-.15h0Z" transform="translate(0 -0.02)" style="fill:#fff;stroke:#231916;stroke-linejoin:round;stroke-width:0.1332954317331314px"/><path d="M25.48,27.84a.4.4,0,0,0,.28.09.43.43,0,0,0,.29-.12.49.49,0,0,1-.29.09A.44.44,0,0,1,25.48,27.84Z" transform="translate(0 -0.02)" style="fill:#fff"/></g><g id="store-taipei-outside" class="building-outside"><polygon points="61.93 21.88 61.93 31.06 49.92 38 49.92 25.79 52.74 27.34 61.93 21.88" style="fill:#f3f3e8;stroke:#231916;stroke-linejoin:round;stroke-width:0.11600784212350845px"/><path d="M61.94,31.08" transform="translate(0 -0.02)" style="fill:none;stroke:#231916;stroke-linejoin:round;stroke-width:0.11600784212350845px"/><polygon points="53.68 40.18 65.67 33.24 65.67 37.87 53.68 44.75 53.68 40.18" style="fill:#c9caca;stroke:#231916;stroke-linejoin:round;stroke-width:0.11600784212350845px"/><polygon points="49.92 38 61.93 31.06 65.67 33.23 53.68 40.18 49.92 38" style="fill:#dcdddd;stroke:#231916;stroke-linejoin:round;stroke-width:0.11600784212350845px"/><polygon points="49.92 38 53.68 40.18 53.68 44.75 49.92 42.62 49.92 38" style="fill:#b5b6b6;stroke:#231916;stroke-linejoin:round;stroke-width:0.11600784212350845px"/><polygon points="52.74 22.72 64.58 15.68 64.58 20.31 52.74 27.34 52.74 22.72" style="fill:#f3f3e8;stroke:#231916;stroke-linejoin:round;stroke-width:0.11600784212350845px"/><path d="M33.9,25.81" transform="translate(0 -0.02)" style="fill:none;stroke:#231916;stroke-linejoin:round;stroke-width:0.11600784212350845px"/><polygon points="61.88 14.2 37.9 0.36 17.84 11.89 33.9 21.17 41.91 16.54 49.92 21.17 52.74 22.72 64.58 15.68 61.88 14.2" style="fill:#f3f3e8;stroke:#231916;stroke-linejoin:round;stroke-width:0.11600784212350845px"/><polygon points="33.9 21.17 41.91 25.79 49.92 21.17 41.91 16.54 33.9 21.17" style="fill:#595857;stroke:#231916;stroke-linejoin:round;stroke-width:0.11600784212350845px"/><polygon points="35.13 21.15 41.91 25.04 48.57 21.15 41.85 17.19 35.13 21.15" style="fill:#eff8fc;stroke:#231916;stroke-linejoin:round;stroke-width:0.11600784212350845px"/><path d="M33.9,21.19" transform="translate(0 -0.02)" style="fill:none;stroke:#231916;stroke-linejoin:round;stroke-width:0.11600784212350845px"/><polygon points="33.9 21.17 41.91 25.79 41.91 26.44 33.9 21.82 33.9 21.17" style="fill:#595857;stroke:#231916;stroke-linejoin:round;stroke-width:0.11600784212350845px"/><polygon points="41.91 25.79 41.91 26.44 49.92 21.82 49.92 21.17 41.91 25.79" style="fill:#595857;stroke:#231916;stroke-linejoin:round;stroke-width:0.11600784212350845px"/><polygon points="33.9 38 38.83 40.84 46.77 36.18 41.91 33.39 33.9 38" style="fill:none;stroke:#231916;stroke-linejoin:round;stroke-width:0.11600784212350845px"/><polygon points="38.83 42.06 46.77 37.46 46.77 36.18 38.83 40.84 38.83 42.06" style="fill:#e7e7de;stroke:#231916;stroke-linejoin:round;stroke-width:0.11600784212350845px"/><polygon points="38.83 42.06 46.77 37.46 47.88 38 39.88 42.57 38.83 42.06" style="fill:#f3f3e8;stroke:#231916;stroke-linejoin:round;stroke-width:0.11600784212350845px"/><polygon points="39.88 42.57 47.88 38 47.88 39.09 39.88 43.77 39.88 42.57" style="fill:#e7e7de;stroke:#231916;stroke-linejoin:round;stroke-width:0.11600784212350845px"/><polygon points="39.88 43.77 40.83 44.32 48.8 39.63 47.88 39.09 39.88 43.77" style="fill:#f3f3e8;stroke:#231916;stroke-linejoin:round;stroke-width:0.11600784212350845px"/><polygon points="40.83 44.32 48.8 39.63 48.8 40.88 40.83 45.54 40.83 44.32" style="fill:#e7e7de;stroke:#231916;stroke-linejoin:round;stroke-width:0.11600784212350845px"/><polygon points="40.87 45.52 48.8 40.88 49.92 41.46 41.91 46.1 40.87 45.52" style="fill:#f3f3e8;stroke:#231916;stroke-linejoin:round;stroke-width:0.11600784212350845px"/><polygon points="41.91 47.25 49.92 42.62 49.92 41.46 41.88 46.12 41.91 47.25" style="fill:#e7e7de;stroke:#231916;stroke-linejoin:round;stroke-width:0.11600784212350845px"/><polygon points="33.9 21.82 41.91 26.44 41.91 33.39 33.9 38 33.9 21.82" style="fill:none;stroke:#231916;stroke-linejoin:round;stroke-width:0.11600784212350845px"/><polygon points="33.9 38 41.91 33.39 41.91 32.12 33.9 36.6 33.9 38" style="fill:#e7e7de;stroke:#231916;stroke-linejoin:round;stroke-width:0.11600784212350845px"/><polygon points="33.9 36.6 33.9 36.18 41.56 31.92 41.91 32.12 33.9 36.6" style="fill:#e7e7de;stroke:#231916;stroke-linejoin:round;stroke-width:0.11600784212350845px"/><polygon points="41.91 32.12 41.56 31.92 41.56 26.24 41.91 26.44 41.91 32.12" style="fill:#e7e7de;stroke:#231916;stroke-linejoin:round;stroke-width:0.11600784212350845px"/><polygon points="46.77 36.18 46.77 23.63 41.91 26.44 41.91 33.39 46.77 36.18" style="fill:#727171;stroke:#231916;stroke-linejoin:round;stroke-width:0.11600784212350845px"/><polygon points="42.8 25.92 42.8 33.9 41.91 33.39 41.91 26.44 42.8 25.92" style="fill:none;stroke:#231916;stroke-linejoin:round;stroke-width:0.11600784212350845px"/><polygon points="46.13 24 46.13 35.06 43.24 33.39 43.24 25.67 46.13 24" style="fill:#eff8fc;stroke:#231916;stroke-linejoin:round;stroke-width:0.11600784212350845px"/><polygon points="43.48 25.79 43.48 28.49 43.69 28.63 43.69 25.94 43.48 25.79" style="fill:#c9caca;stroke:#231916;stroke-linejoin:round;stroke-width:0.11600784212350845px"/><polygon points="52.74 27.34 52.74 36.37 59.88 32.24 59.88 23.1 52.74 27.34" style="fill:#eff8fc;stroke:#231916;stroke-linejoin:round;stroke-width:0.11600784212350845px"/><polygon points="45.63 22.87 42.53 21.08 45.53 19.36 45.03 19.06 42 20.78 38.84 18.96 38.23 19.32 41.37 21.14 38.23 22.93 38.77 23.24 41.89 21.45 44.99 23.24 45.63 22.87" style="fill:#595857;stroke:#231916;stroke-linejoin:round;stroke-width:0.11600784212350845px"/><polygon points="49.92 21.17 49.92 21.82 46.77 23.63 46.77 37.46 47.88 38 47.88 39.09 48.8 39.63 48.8 40.88 49.92 41.46 49.92 25.79 52.74 27.34 52.74 22.72 49.92 21.17" style="fill:#e7e7de;stroke:#231916;stroke-linejoin:round;stroke-width:0.11600784212350845px"/><polygon points="33.9 21.82 41.56 26.24 41.56 31.92 33.9 36.18 33.9 21.82" style="fill:#eff8fc;stroke:#231916;stroke-linejoin:round;stroke-width:0.11600784212350845px"/><polygon points="33.9 38 41.91 33.39 46.77 36.18 38.83 40.84 33.9 38" style="fill:#f3f3e8;stroke:#231916;stroke-linejoin:round;stroke-width:0.11600784212350845px"/><polygon points="34.87 43.14 41.91 47.25 41.88 46.12 40.83 45.54 40.83 44.32 39.88 43.77 39.88 42.57 38.83 42.06 38.83 40.84 37.9 40.31 34.26 38.2 34.26 38.2 34.26 38.2 33.9 38 33.9 38.01 33.9 38.01 33.9 21.17 17.84 11.89 17.88 33.37 33.01 42.06 34.87 43.14 34.87 43.14" style="fill:#e7e7de;stroke:#231916;stroke-linejoin:round;stroke-width:0.11600784212350845px"/><path d="M49.78,36.58" transform="translate(0 -0.02)" style="fill:none;stroke:#231916;stroke-linejoin:round;stroke-width:0.11600784212350845px"/><path d="M37.91.38,64.59,15.71v4.62L61.94,21.9v9.18l3.74,2.17v4.64l-12,6.88-3.77-2.13-8,4.62-24-13.87V11.91L38,.37M38,0l-.15.09L17.76,11.64l-.16.09V33.57l.15.09,24,13.87.15.09.15-.09L49.91,43l3.61,2,.15.09.15-.09,12-6.88L66,38V33h-.2L62.2,30.9V22.08l2.5-1.48.15-.09v-5l-.16-.09L38,.09,37.86,0Z" transform="translate(0 -0.02)" style="fill:#231916"/></g></svg>