<svg id="taipei_city" data-name="taipei city" xmlns="http://www.w3.org/2000/svg" xmlns:xlink="http://www.w3.org/1999/xlink" viewBox="0 0 145.5 136.28"><defs><linearGradient id="未命名漸層_44" x1="333.8" y1="39.73" x2="332.27" y2="32.62" gradientTransform="matrix(1, 0, 0, -1, -242.49, 124.77)" gradientUnits="userSpaceOnUse"><stop offset="0" stop-color="#6dff57"/><stop offset="0.02" stop-color="#69fb54"/><stop offset="0.24" stop-color="#47dd3e"/><stop offset="0.43" stop-color="#32ca31"/><stop offset="0.54" stop-color="#2ac32c"/><stop offset="1" stop-color="#adff9e"/></linearGradient><linearGradient id="未命名漸層_44-2" x1="332.7" y1="42.91" x2="330.24" y2="39.94" xlink:href="#未命名漸層_44"/><linearGradient id="未命名漸層_44-3" x1="331.14" y1="43.73" x2="329.45" y2="43.06" xlink:href="#未命名漸層_44"/><linearGradient id="未命名漸層_44-4" x1="327.58" y1="42.47" x2="323.6" y2="39.76" xlink:href="#未命名漸層_44"/><linearGradient id="未命名漸層_44-5" x1="320.76" y1="48.54" x2="326.77" y2="46.93" xlink:href="#未命名漸層_44"/><linearGradient id="未命名漸層_44-6" x1="328.06" y1="46.13" x2="323.23" y2="47.06" xlink:href="#未命名漸層_44"/><linearGradient id="未命名漸層_44-7" x1="325.52" y1="49.09" x2="330.67" y2="49.09" xlink:href="#未命名漸層_44"/><linearGradient id="未命名漸層_44-8" x1="327.74" y1="50.19" x2="331.56" y2="50.19" xlink:href="#未命名漸層_44"/><linearGradient id="未命名漸層_44-9" x1="320.19" y1="53.42" x2="328.2" y2="53.42" xlink:href="#未命名漸層_44"/><linearGradient id="未命名漸層_44-10" x1="329.21" y1="53.93" x2="323.64" y2="62.4" xlink:href="#未命名漸層_44"/><linearGradient id="未命名漸層_44-11" x1="330.65" y1="52.73" x2="327.18" y2="58.29" xlink:href="#未命名漸層_44"/><linearGradient id="未命名漸層_44-12" x1="334.86" y1="46.16" x2="335.67" y2="46.16" xlink:href="#未命名漸層_44"/><linearGradient id="未命名漸層_44-13" x1="337.71" y1="47.27" x2="341.12" y2="47.27" xlink:href="#未命名漸層_44"/><linearGradient id="未命名漸層_44-14" x1="337.69" y1="49.16" x2="341.25" y2="49.16" xlink:href="#未命名漸層_44"/><linearGradient id="未命名漸層_44-15" x1="338.57" y1="52.77" x2="341.8" y2="52.77" xlink:href="#未命名漸層_44"/><linearGradient id="未命名漸層_44-16" x1="340.51" y1="44.48" x2="347.28" y2="44.48" xlink:href="#未命名漸層_44"/><linearGradient id="未命名漸層_44-17" x1="341.24" y1="42.96" x2="345.54" y2="42.96" xlink:href="#未命名漸層_44"/><linearGradient id="未命名漸層_44-18" x1="337.81" y1="35.75" x2="341.73" y2="35.75" xlink:href="#未命名漸層_44"/><linearGradient id="未命名漸層_44-19" x1="337.36" y1="38.45" x2="341.63" y2="38.45" xlink:href="#未命名漸層_44"/><linearGradient id="未命名漸層_44-20" x1="340.15" y1="34.96" x2="345.94" y2="34.96" xlink:href="#未命名漸層_44"/><linearGradient id="未命名漸層_44-21" x1="342.47" y1="36.58" x2="351.39" y2="36.58" xlink:href="#未命名漸層_44"/><linearGradient id="未命名漸層_44-22" x1="346.25" y1="40.13" x2="357.27" y2="40.13" xlink:href="#未命名漸層_44"/><linearGradient id="未命名漸層_44-23" x1="347.48" y1="43.31" x2="358.26" y2="43.31" xlink:href="#未命名漸層_44"/><linearGradient id="未命名漸層_44-24" x1="345.08" y1="45.73" x2="352.25" y2="45.73" xlink:href="#未命名漸層_44"/><linearGradient id="未命名漸層_44-25" x1="348.34" y1="49.27" x2="361.83" y2="49.27" xlink:href="#未命名漸層_44"/><linearGradient id="未命名漸層_44-26" x1="344.81" y1="49.72" x2="353.45" y2="49.72" xlink:href="#未命名漸層_44"/><linearGradient id="未命名漸層_44-27" x1="348.46" y1="52.1" x2="360.64" y2="58.02" xlink:href="#未命名漸層_44"/><linearGradient id="未命名漸層_44-28" x1="342.01" y1="50.44" x2="348.3" y2="50.44" xlink:href="#未命名漸層_44"/><linearGradient id="未命名漸層_44-29" x1="347.21" y1="56.35" x2="353.58" y2="56.35" xlink:href="#未命名漸層_44"/><linearGradient id="未命名漸層_44-30" x1="348.62" y1="53.4" x2="360.12" y2="60.65" xlink:href="#未命名漸層_44"/><linearGradient id="未命名漸層_44-31" x1="345.68" y1="54.55" x2="359.84" y2="65.18" xlink:href="#未命名漸層_44"/><linearGradient id="未命名漸層_44-32" x1="345.81" y1="62.55" x2="355.59" y2="62.55" xlink:href="#未命名漸層_44"/><linearGradient id="未命名漸層_44-33" x1="344.04" y1="65.48" x2="354.4" y2="65.48" xlink:href="#未命名漸層_44"/><linearGradient id="未命名漸層_44-34" x1="343.32" y1="64.95" x2="349.36" y2="64.95" xlink:href="#未命名漸層_44"/><linearGradient id="未命名漸層_44-35" x1="337.39" y1="56.79" x2="340.57" y2="56.79" xlink:href="#未命名漸層_44"/><linearGradient id="未命名漸層_44-36" x1="337.08" y1="53.78" x2="338.35" y2="58.49" xlink:href="#未命名漸層_44"/><linearGradient id="未命名漸層_44-37" x1="340.26" y1="60.77" x2="347.12" y2="74.49" xlink:href="#未命名漸層_44"/><linearGradient id="未命名漸層_44-38" x1="338.67" y1="61.43" x2="342.38" y2="73.95" xlink:href="#未命名漸層_44"/><linearGradient id="未命名漸層_44-39" x1="335.7" y1="61.02" x2="336.62" y2="61.02" xlink:href="#未命名漸層_44"/><linearGradient id="未命名漸層_44-40" x1="332.75" y1="52.92" x2="333.73" y2="52.92" xlink:href="#未命名漸層_44"/><linearGradient id="未命名漸層_44-41" x1="330.88" y1="55.22" x2="326.59" y2="67.74" xlink:href="#未命名漸層_44"/><linearGradient id="未命名漸層_44-42" x1="331.38" y1="61.18" x2="333.05" y2="61.18" xlink:href="#未命名漸層_44"/><linearGradient id="未命名漸層_44-43" x1="333.66" y1="59.16" x2="334.13" y2="72.61" xlink:href="#未命名漸層_44"/><linearGradient id="未命名漸層_44-44" x1="337.49" y1="63.34" x2="339.12" y2="74.7" xlink:href="#未命名漸層_44"/><linearGradient id="未命名漸層_86" x1="469.71" y1="47.27" x2="468.19" y2="40.15" gradientTransform="translate(552.31 124.77) rotate(180)" gradientUnits="userSpaceOnUse"><stop offset="0" stop-color="#fff000"/><stop offset="0.21" stop-color="#fbd317"/><stop offset="0.41" stop-color="#f8be27"/><stop offset="0.54" stop-color="#f7b62d"/><stop offset="1" stop-color="#fff000"/></linearGradient><linearGradient id="未命名漸層_86-2" x1="468.62" y1="50.44" x2="466.16" y2="47.48" xlink:href="#未命名漸層_86"/><linearGradient id="未命名漸層_86-3" x1="467.05" y1="51.28" x2="465.36" y2="50.6" xlink:href="#未命名漸層_86"/><linearGradient id="未命名漸層_86-4" x1="463.51" y1="49.98" x2="459.53" y2="47.27" xlink:href="#未命名漸層_86"/><linearGradient id="未命名漸層_86-5" x1="463.22" y1="53.21" x2="458.05" y2="53.46" xlink:href="#未命名漸層_86"/><linearGradient id="未命名漸層_86-6" x1="456.67" y1="56.08" x2="462.68" y2="54.47" xlink:href="#未命名漸層_86"/><linearGradient id="未命名漸層_86-7" x1="461.43" y1="56.62" x2="466.58" y2="56.62" xlink:href="#未命名漸層_86"/><linearGradient id="未命名漸層_86-8" x1="463.65" y1="57.72" x2="467.48" y2="57.72" xlink:href="#未命名漸層_86"/><linearGradient id="未命名漸層_86-9" x1="456.1" y1="60.95" x2="464.11" y2="60.95" xlink:href="#未命名漸層_86"/><linearGradient id="未命名漸層_86-10" x1="458.47" y1="64.61" x2="464.56" y2="64.61" xlink:href="#未命名漸層_86"/><linearGradient id="未命名漸層_86-11" x1="466.56" y1="60.25" x2="463.08" y2="65.82" xlink:href="#未命名漸層_86"/><linearGradient id="未命名漸層_86-12" x1="463.89" y1="64.56" x2="466.98" y2="64.56" xlink:href="#未命名漸層_86"/><linearGradient id="未命名漸層_86-13" x1="470.77" y1="53.7" x2="471.58" y2="53.7" xlink:href="#未命名漸層_86"/><linearGradient id="未命名漸層_86-14" x1="473.6" y1="56.69" x2="477.16" y2="56.69" xlink:href="#未命名漸層_86"/><linearGradient id="未命名漸層_86-15" x1="474.48" y1="60.33" x2="477.71" y2="60.33" xlink:href="#未命名漸層_86"/><linearGradient id="未命名漸層_86-16" x1="476.42" y1="52.01" x2="483.19" y2="52.01" xlink:href="#未命名漸層_86"/><linearGradient id="未命名漸層_86-17" x1="477.15" y1="50.5" x2="481.45" y2="50.5" xlink:href="#未命名漸層_86"/><linearGradient id="未命名漸層_86-18" x1="473.72" y1="43.29" x2="477.65" y2="43.29" xlink:href="#未命名漸層_86"/><linearGradient id="未命名漸層_86-19" x1="476.06" y1="42.49" x2="481.85" y2="42.49" xlink:href="#未命名漸層_86"/><linearGradient id="未命名漸層_86-20" x1="478.38" y1="44.11" x2="487.3" y2="44.11" xlink:href="#未命名漸層_86"/><linearGradient id="未命名漸層_86-21" x1="482.17" y1="47.66" x2="493.19" y2="47.66" xlink:href="#未命名漸層_86"/><linearGradient id="未命名漸層_86-22" x1="483.39" y1="50.85" x2="494.17" y2="50.85" xlink:href="#未命名漸層_86"/><linearGradient id="未命名漸層_86-23" x1="480.49" y1="54.38" x2="495.21" y2="54.38" xlink:href="#未命名漸層_86"/><linearGradient id="未命名漸層_86-24" x1="480.72" y1="57.26" x2="489.36" y2="57.26" xlink:href="#未命名漸層_86"/><linearGradient id="未命名漸層_86-25" x1="480.13" y1="59.06" x2="495.16" y2="59.06" xlink:href="#未命名漸層_86"/><linearGradient id="未命名漸層_86-26" x1="477.92" y1="57.96" x2="484.21" y2="57.96" xlink:href="#未命名漸層_86"/><linearGradient id="未命名漸層_86-27" x1="484.52" y1="60.94" x2="496.02" y2="68.19" xlink:href="#未命名漸層_86"/><linearGradient id="未命名漸層_86-28" x1="481.6" y1="62.08" x2="495.76" y2="72.72" xlink:href="#未命名漸層_86"/><linearGradient id="未命名漸層_86-29" x1="479.55" y1="66.39" x2="490.04" y2="66.39" xlink:href="#未命名漸層_86"/><linearGradient id="未命名漸層_86-30" x1="480.95" y1="71.5" x2="491.9" y2="71.5" xlink:href="#未命名漸層_86"/><linearGradient id="未命名漸層_86-31" x1="479.23" y1="72.49" x2="485.28" y2="72.49" xlink:href="#未命名漸層_86"/><linearGradient id="未命名漸層_86-32" x1="473.3" y1="64.33" x2="476.48" y2="64.33" xlink:href="#未命名漸層_86"/><linearGradient id="未命名漸層_86-33" x1="472.99" y1="61.32" x2="474.26" y2="66.02" xlink:href="#未命名漸層_86"/><linearGradient id="未命名漸層_86-34" x1="469.61" y1="60.23" x2="470.35" y2="60.23" xlink:href="#未命名漸層_86"/><linearGradient id="未命名漸層_86-35" x1="476.18" y1="68.3" x2="483.04" y2="82.02" xlink:href="#未命名漸層_86"/><linearGradient id="未命名漸層_86-36" x1="474.58" y1="68.96" x2="478.29" y2="81.49" xlink:href="#未命名漸層_86"/><linearGradient id="未命名漸層_86-37" x1="471.61" y1="68.55" x2="472.53" y2="68.55" xlink:href="#未命名漸層_86"/><linearGradient id="未命名漸層_86-38" x1="466.79" y1="62.75" x2="462.5" y2="75.27" xlink:href="#未命名漸層_86"/><linearGradient id="未命名漸層_86-39" x1="467.29" y1="68.71" x2="468.96" y2="68.71" xlink:href="#未命名漸層_86"/><linearGradient id="未命名漸層_86-40" x1="469.59" y1="66.69" x2="470.05" y2="80.14" xlink:href="#未命名漸層_86"/><linearGradient id="未命名漸層_86-41" x1="473.42" y1="70.87" x2="475.04" y2="82.23" xlink:href="#未命名漸層_86"/><linearGradient id="未命名漸層_86-42" x1="480.5" y1="75.93" x2="485.75" y2="75.93" xlink:href="#未命名漸層_86"/><linearGradient id="未命名漸層_124" x1="335.62" y1="71.81" x2="334.1" y2="64.7" gradientTransform="matrix(1, 0, 0, -1, -242.49, 124.77)" gradientUnits="userSpaceOnUse"><stop offset="0" stop-color="#ff557a"/><stop offset="0.1" stop-color="#f83f7b"/><stop offset="0.29" stop-color="#ec1d7d"/><stop offset="0.44" stop-color="#e6087f"/><stop offset="0.54" stop-color="#e3007f"/><stop offset="1" stop-color="#ff557a"/></linearGradient><linearGradient id="未命名漸層_124-2" x1="334.31" y1="72.43" x2="331.94" y2="67.77" xlink:href="#未命名漸層_124"/><linearGradient id="未命名漸層_124-3" x1="332.96" y1="75.81" x2="331.27" y2="75.14" xlink:href="#未命名漸層_124"/><linearGradient id="未命名漸層_124-4" x1="329.41" y1="74.53" x2="325.43" y2="71.82" xlink:href="#未命名漸層_124"/><linearGradient id="未命名漸層_124-5" x1="329.13" y1="77.74" x2="323.96" y2="78" xlink:href="#未命名漸層_124"/><linearGradient id="未命名漸層_124-6" x1="329.56" y1="82.27" x2="333.39" y2="82.27" xlink:href="#未命名漸層_124"/><linearGradient id="未命名漸層_124-7" x1="322.01" y1="85.5" x2="330.02" y2="85.5" xlink:href="#未命名漸層_124"/><linearGradient id="未命名漸層_124-8" x1="324.38" y1="89.16" x2="330.47" y2="89.16" xlink:href="#未命名漸層_124"/><linearGradient id="未命名漸層_124-9" x1="329.8" y1="89.1" x2="332.89" y2="89.1" xlink:href="#未命名漸層_124"/><linearGradient id="未命名漸層_124-10" x1="330.51" y1="93.08" x2="333.39" y2="93.08" xlink:href="#未命名漸層_124"/><linearGradient id="未命名漸層_124-11" x1="336.68" y1="78.24" x2="337.5" y2="78.24" xlink:href="#未命名漸層_124"/><linearGradient id="未命名漸層_124-12" x1="339.53" y1="79.35" x2="342.94" y2="79.35" xlink:href="#未命名漸層_124"/><linearGradient id="未命名漸層_124-13" x1="339.51" y1="81.23" x2="343.07" y2="81.23" xlink:href="#未命名漸層_124"/><linearGradient id="未命名漸層_124-14" x1="340.39" y1="84.87" x2="343.62" y2="84.87" xlink:href="#未命名漸層_124"/><linearGradient id="未命名漸層_124-15" x1="343.06" y1="75.04" x2="347.37" y2="75.04" xlink:href="#未命名漸層_124"/><linearGradient id="未命名漸層_124-16" x1="339.63" y1="67.83" x2="343.56" y2="67.83" xlink:href="#未命名漸層_124"/><linearGradient id="未命名漸層_124-17" x1="341.97" y1="67.04" x2="347.76" y2="67.04" xlink:href="#未命名漸層_124"/><linearGradient id="未命名漸層_124-18" x1="344.29" y1="68.66" x2="353.21" y2="68.66" xlink:href="#未命名漸層_124"/><linearGradient id="未命名漸層_124-19" x1="348.26" y1="73.63" x2="358.8" y2="73.63" xlink:href="#未命名漸層_124"/><linearGradient id="未命名漸層_124-20" x1="346.9" y1="77.81" x2="354.07" y2="77.81" xlink:href="#未命名漸層_124"/><linearGradient id="未命名漸層_124-21" x1="346.63" y1="81.79" x2="355.27" y2="81.79" xlink:href="#未命名漸層_124"/><linearGradient id="未命名漸層_124-22" x1="346.04" y1="83.61" x2="361.07" y2="83.61" xlink:href="#未命名漸層_124"/><linearGradient id="未命名漸層_124-23" x1="343.83" y1="82.5" x2="350.12" y2="82.5" xlink:href="#未命名漸層_124"/><linearGradient id="未命名漸層_124-24" x1="349.03" y1="88.43" x2="355.41" y2="88.43" xlink:href="#未命名漸層_124"/><linearGradient id="未命名漸層_124-25" x1="350.44" y1="85.49" x2="361.94" y2="92.74" xlink:href="#未命名漸層_124"/><linearGradient id="未命名漸層_124-26" x1="345.45" y1="90.92" x2="355.94" y2="90.92" xlink:href="#未命名漸層_124"/><linearGradient id="未命名漸層_124-27" x1="347.63" y1="94.64" x2="357.41" y2="94.64" xlink:href="#未命名漸層_124"/><linearGradient id="未命名漸層_124-28" x1="345.86" y1="97.58" x2="356.22" y2="97.58" xlink:href="#未命名漸層_124"/><linearGradient id="未命名漸層_124-29" x1="339.21" y1="88.87" x2="342.39" y2="88.87" xlink:href="#未命名漸層_124"/><linearGradient id="未命名漸層_124-30" x1="338.9" y1="85.86" x2="340.17" y2="90.57" xlink:href="#未命名漸層_124"/><linearGradient id="未命名漸層_124-31" x1="335.52" y1="84.77" x2="336.26" y2="84.77" xlink:href="#未命名漸層_124"/><linearGradient id="未命名漸層_124-32" x1="339.3" y1="95.12" x2="341.97" y2="95.12" xlink:href="#未命名漸層_124"/><linearGradient id="未命名漸層_124-33" x1="342.08" y1="92.85" x2="348.94" y2="106.57" xlink:href="#未命名漸層_124"/><linearGradient id="未命名漸層_124-34" x1="337.52" y1="93.1" x2="338.44" y2="93.1" xlink:href="#未命名漸層_124"/><linearGradient id="未命名漸層_124-35" x1="334.57" y1="85" x2="335.55" y2="85" xlink:href="#未命名漸層_124"/><linearGradient id="未命名漸層_124-36" x1="335.5" y1="91.24" x2="335.96" y2="104.69" xlink:href="#未命名漸層_124"/><linearGradient id="未命名漸層_124-37" x1="339.32" y1="95.41" x2="340.94" y2="106.78" xlink:href="#未命名漸層_124"/><linearGradient id="未命名漸層_124-38" x1="346.41" y1="100.48" x2="351.66" y2="100.48" xlink:href="#未命名漸層_124"/><linearGradient id="未命名漸層_163" x1="458.31" y1="88.42" x2="456.79" y2="81.31" gradientTransform="translate(543.45 124.77) rotate(180)" gradientUnits="userSpaceOnUse"><stop offset="0" stop-color="#c994ff"/><stop offset="0.1" stop-color="#ce6ff9"/><stop offset="0.24" stop-color="#d33ff2"/><stop offset="0.37" stop-color="#d81ded"/><stop offset="0.48" stop-color="#da08ea"/><stop offset="0.54" stop-color="#db00e9"/><stop offset="1" stop-color="#d355ff"/></linearGradient><linearGradient id="未命名漸層_163-2" x1="457" y1="89.04" x2="454.63" y2="84.38" xlink:href="#未命名漸層_163"/><linearGradient id="未命名漸層_163-3" x1="455.64" y1="92.44" x2="453.95" y2="91.76" xlink:href="#未命名漸層_163"/><linearGradient id="未命名漸層_163-4" x1="452.1" y1="91.14" x2="448.12" y2="88.43" xlink:href="#未命名漸層_163"/><linearGradient id="未命名漸層_163-5" x1="451.82" y1="94.32" x2="446.65" y2="94.57" xlink:href="#未命名漸層_163"/><linearGradient id="未命名漸層_163-6" x1="445.27" y1="97.23" x2="451.28" y2="95.61" xlink:href="#未命名漸層_163"/><linearGradient id="未命名漸層_163-7" x1="452.57" y1="94.82" x2="447.74" y2="95.75" xlink:href="#未命名漸層_163"/><linearGradient id="未命名漸層_163-8" x1="450.03" y1="97.76" x2="455.19" y2="97.76" xlink:href="#未命名漸層_163"/><linearGradient id="未命名漸層_163-9" x1="452.25" y1="98.87" x2="456.08" y2="98.87" xlink:href="#未命名漸層_163"/><linearGradient id="未命名漸層_163-10" x1="444.7" y1="102.08" x2="452.71" y2="102.08" xlink:href="#未命名漸層_163"/><linearGradient id="未命名漸層_163-11" x1="453.72" y1="102.62" x2="448.16" y2="111.08" xlink:href="#未命名漸層_163"/><linearGradient id="未命名漸層_163-12" x1="455.17" y1="101.41" x2="451.69" y2="106.98" xlink:href="#未命名漸層_163"/><linearGradient id="未命名漸層_163-13" x1="452.49" y1="105.73" x2="455.58" y2="105.73" xlink:href="#未命名漸層_163"/><linearGradient id="未命名漸層_163-14" x1="459.37" y1="94.85" x2="460.19" y2="94.85" xlink:href="#未命名漸層_163"/><linearGradient id="未命名漸層_163-15" x1="462.22" y1="95.95" x2="465.63" y2="95.95" xlink:href="#未命名漸層_163"/><linearGradient id="未命名漸層_163-16" x1="463.08" y1="101.48" x2="466.31" y2="101.48" xlink:href="#未命名漸層_163"/><linearGradient id="未命名漸層_163-17" x1="465.02" y1="93.16" x2="471.79" y2="93.16" xlink:href="#未命名漸層_163"/><linearGradient id="未命名漸層_163-18" x1="465.75" y1="91.65" x2="470.06" y2="91.65" xlink:href="#未命名漸層_163"/><linearGradient id="未命名漸層_163-19" x1="462.32" y1="84.44" x2="466.25" y2="84.44" xlink:href="#未命名漸層_163"/><linearGradient id="未命名漸層_163-20" x1="464.66" y1="83.65" x2="470.45" y2="83.65" xlink:href="#未命名漸層_163"/><linearGradient id="未命名漸層_163-21" x1="466.98" y1="85.26" x2="475.9" y2="85.26" xlink:href="#未命名漸層_163"/><linearGradient id="未命名漸層_163-22" x1="470.77" y1="88.81" x2="481.79" y2="88.81" xlink:href="#未命名漸層_163"/><linearGradient id="未命名漸層_163-23" x1="469.59" y1="94.41" x2="476.76" y2="94.41" xlink:href="#未命名漸層_163"/><linearGradient id="未命名漸層_163-24" x1="469.1" y1="95.54" x2="483.83" y2="95.54" xlink:href="#未命名漸層_163"/><linearGradient id="未命名漸層_163-25" x1="472.85" y1="97.95" x2="486.34" y2="97.95" xlink:href="#未命名漸層_163"/><linearGradient id="未命名漸層_163-26" x1="468.73" y1="100.21" x2="483.76" y2="100.21" xlink:href="#未命名漸層_163"/><linearGradient id="未命名漸層_163-27" x1="466.52" y1="99.11" x2="472.81" y2="99.11" xlink:href="#未命名漸層_163"/><linearGradient id="未命名漸層_163-28" x1="471.72" y1="105.03" x2="478.1" y2="105.03" xlink:href="#未命名漸層_163"/><linearGradient id="未命名漸層_163-29" x1="473.12" y1="102.1" x2="484.63" y2="109.34" xlink:href="#未命名漸層_163"/><linearGradient id="未命名漸層_163-30" x1="470.2" y1="103.23" x2="484.36" y2="113.87" xlink:href="#未命名漸層_163"/><linearGradient id="未命名漸層_163-31" x1="470.32" y1="111.25" x2="480.1" y2="111.25" xlink:href="#未命名漸層_163"/><linearGradient id="未命名漸層_163-32" x1="466.52" y1="109.55" x2="474.71" y2="109.55" xlink:href="#未命名漸層_163"/><linearGradient id="未命名漸層_163-33" x1="467.83" y1="113.64" x2="473.87" y2="113.64" xlink:href="#未命名漸層_163"/><linearGradient id="未命名漸層_163-34" x1="461.9" y1="105.48" x2="465.08" y2="105.48" xlink:href="#未命名漸層_163"/><linearGradient id="未命名漸層_163-35" x1="461.62" y1="102.46" x2="462.89" y2="107.16" xlink:href="#未命名漸層_163"/><linearGradient id="未命名漸層_163-36" x1="458.21" y1="101.38" x2="458.95" y2="101.38" xlink:href="#未命名漸層_163"/><linearGradient id="未命名漸層_163-37" x1="464.78" y1="109.45" x2="471.64" y2="123.17" xlink:href="#未命名漸層_163"/><linearGradient id="未命名漸層_163-38" x1="463.2" y1="110.12" x2="466.91" y2="122.64" xlink:href="#未命名漸層_163"/><linearGradient id="未命名漸層_163-39" x1="460.9" y1="109.82" x2="461.82" y2="123.27" xlink:href="#未命名漸層_163"/></defs><title>taipei_city</title><g id="shadow" class="shadow"><polygon id="shadow-2" points="115.07 103.21 85.08 109.01 72.17 122.94 90.03 136.28 119.11 131.81 115.07 103.21" style="fill:#101111;opacity:0.10000000149011612;isolation:isolate"/><polygon id="shadow-3" points="87.43 87.9 25.84 97.25 0 111.04 29.29 116.27 90.25 107.85 87.43 87.9" style="fill:#101111;opacity:0.10000000149011612;isolation:isolate"/></g><g id="taipei_city-outside" class="building-outside"><polygon points="75.76 82.74 87.11 76.19 98.5 82.74 87.13 89.35 75.76 82.74" style="fill:#95d1ce;stroke:#231916;stroke-linejoin:bevel;stroke-width:0.1546771228313446px"/><polygon points="75.76 82.74 72.93 101.24 87.13 109.57 87.13 89.35 75.76 82.74" style="fill:#289696;stroke:#231916;stroke-linejoin:bevel;stroke-width:0.1546771228313446px"/><polygon points="98.5 82.74 101.33 101.24 87.13 109.57 87.13 89.35 98.5 82.74" style="fill:#5ab5b0;stroke:#231916;stroke-linejoin:bevel;stroke-width:0.1546771228313446px"/><polygon points="76.33 71.79 85.8 77.26 88.46 77.26 97.92 71.79 97.92 70.26 88.04 64.55 86.2 64.56 76.33 70.26 76.33 71.79" style="fill:#95d1ce;stroke:#231916;stroke-linejoin:bevel;stroke-width:0.1546771228313446px"/><polygon points="76.33 71.79 78.6 82.66 86.08 86.98 88.18 86.98 95.66 82.66 97.92 71.79 88.46 77.26 85.8 77.26 76.33 71.79" style="fill:#fff;stroke:#231916;stroke-linejoin:bevel;stroke-width:0.1546771228313446px"/><polygon points="85.8 77.26 86.08 86.98 88.18 86.98 88.46 77.26 85.8 77.26" style="fill:#4aa29b;stroke:#231916;stroke-linejoin:bevel;stroke-width:0.1546771228313446px"/><polygon points="76.33 71.79 85.8 77.26 86.08 86.98 78.6 82.66 76.33 71.79" style="fill:#289696;stroke:#231916;stroke-linejoin:bevel;stroke-width:0.1546771228313446px"/><polygon points="97.92 71.79 95.66 82.66 88.18 86.98 88.46 77.26 97.92 71.79" style="fill:#5ab5b0;stroke:#231916;stroke-linejoin:bevel;stroke-width:0.1546771228313446px"/><polygon points="76.33 60.58 85.8 66.05 88.46 66.05 97.92 60.58 97.92 59.05 88.04 53.34 86.2 53.35 76.33 59.05 76.33 60.58" style="fill:#95d1ce;stroke:#231916;stroke-linejoin:bevel;stroke-width:0.1546771228313446px"/><polygon points="76.33 60.58 78.6 71.45 86.08 75.76 88.18 75.76 95.66 71.45 97.92 60.58 88.46 66.05 85.8 66.05 76.33 60.58" style="fill:#fff;stroke:#231916;stroke-linejoin:bevel;stroke-width:0.1546771228313446px"/><polygon points="85.8 66.05 86.08 75.76 88.18 75.76 88.46 66.05 85.8 66.05" style="fill:#4aa29b;stroke:#231916;stroke-linejoin:bevel;stroke-width:0.1546771228313446px"/><polygon points="76.33 60.58 85.8 66.05 86.08 75.76 78.6 71.45 76.33 60.58" style="fill:#289696;stroke:#231916;stroke-linejoin:bevel;stroke-width:0.1546771228313446px"/><polygon points="97.92 60.58 95.66 71.45 88.18 75.76 88.46 66.05 97.92 60.58" style="fill:#5ab5b0;stroke:#231916;stroke-linejoin:bevel;stroke-width:0.1546771228313446px"/><polygon points="76.33 49.37 85.8 54.83 88.46 54.83 97.92 49.37 97.92 47.84 88.04 42.13 86.2 42.14 76.33 47.84 76.33 49.37" style="fill:#95d1ce;stroke:#231916;stroke-linejoin:bevel;stroke-width:0.1546771228313446px"/><polygon points="76.33 49.37 78.6 60.24 86.08 64.55 88.18 64.55 95.66 60.24 97.92 49.37 88.46 54.83 85.8 54.83 76.33 49.37" style="fill:#fff;stroke:#231916;stroke-linejoin:bevel;stroke-width:0.1546771228313446px"/><polygon points="85.8 54.83 86.08 64.55 88.18 64.55 88.46 54.83 85.8 54.83" style="fill:#4aa29b;stroke:#231916;stroke-linejoin:bevel;stroke-width:0.1546771228313446px"/><polygon points="76.33 49.37 85.8 54.83 86.08 64.55 78.6 60.24 76.33 49.37" style="fill:#289696;stroke:#231916;stroke-linejoin:bevel;stroke-width:0.1546771228313446px"/><polygon points="97.92 49.37 95.66 60.24 88.18 64.55 88.46 54.83 97.92 49.37" style="fill:#5ab5b0;stroke:#231916;stroke-linejoin:bevel;stroke-width:0.1546771228313446px"/><polygon points="76.33 38.16 85.8 43.62 88.46 43.62 97.92 38.16 97.92 36.62 88.04 30.92 86.2 30.93 76.33 36.62 76.33 38.16" style="fill:#95d1ce;stroke:#231916;stroke-linejoin:bevel;stroke-width:0.1546771228313446px"/><polygon points="76.33 38.16 78.6 49.02 86.08 53.34 88.18 53.34 95.66 49.02 97.92 38.16 88.46 43.62 85.8 43.62 76.33 38.16" style="fill:#fff;stroke:#231916;stroke-linejoin:bevel;stroke-width:0.1546771228313446px"/><polygon points="85.8 43.62 86.08 53.34 88.18 53.34 88.46 43.62 85.8 43.62" style="fill:#4aa29b;stroke:#231916;stroke-linejoin:bevel;stroke-width:0.1546771228313446px"/><polygon points="76.33 38.16 85.8 43.62 86.08 53.34 78.6 49.02 76.33 38.16" style="fill:#289696;stroke:#231916;stroke-linejoin:bevel;stroke-width:0.1546771228313446px"/><polygon points="97.92 38.16 95.66 49.02 88.18 53.34 88.46 43.62 97.92 38.16" style="fill:#5ab5b0;stroke:#231916;stroke-linejoin:bevel;stroke-width:0.1546771228313446px"/><polygon points="76.33 26.94 85.8 32.41 88.46 32.41 97.92 26.94 97.92 25.41 88.04 19.71 86.2 19.71 76.33 25.41 76.33 26.94" style="fill:#95d1ce;stroke:#231916;stroke-linejoin:bevel;stroke-width:0.1546771228313446px"/><polygon points="76.33 26.94 78.6 37.81 86.08 42.13 88.18 42.13 95.66 37.81 97.92 26.94 88.46 32.41 85.8 32.41 76.33 26.94" style="fill:#fff;stroke:#231916;stroke-linejoin:bevel;stroke-width:0.1546771228313446px"/><polygon points="85.8 32.41 86.08 42.13 88.18 42.13 88.46 32.41 85.8 32.41" style="fill:#4aa29b;stroke:#231916;stroke-linejoin:bevel;stroke-width:0.1546771228313446px"/><polygon points="76.33 26.94 85.8 32.41 86.08 42.13 78.6 37.81 76.33 26.94" style="fill:#289696;stroke:#231916;stroke-linejoin:bevel;stroke-width:0.1546771228313446px"/><polygon points="97.92 26.94 95.66 37.81 88.18 42.13 88.46 32.41 97.92 26.94" style="fill:#5ab5b0;stroke:#231916;stroke-linejoin:bevel;stroke-width:0.1546771228313446px"/><path d="M95.83,84.7,94.71,84a1.42,1.42,0,0,0-1.49.12,4.56,4.56,0,0,0-2,3.6A1.33,1.33,0,0,0,92,89.19l.7.45.38-.6.15-.08a4.59,4.59,0,0,0,2-3.4Z" transform="translate(0 0.01)" style="fill:#95d1ce;stroke:#231916;stroke-linejoin:bevel;stroke-width:0.1546771228313446px"/><path d="M92.16,88.28a4.56,4.56,0,0,1,2-3.56,1.25,1.25,0,0,1,2,1.19,4.56,4.56,0,0,1-2,3.56,1.25,1.25,0,0,1-2-1.19Z" transform="translate(0 0.01)" style="fill:#5ab5b0;stroke:#231916;stroke-linejoin:bevel;stroke-width:0.1546771228313446px"/><path d="M78.65,84.7,79.72,84a1.42,1.42,0,0,1,1.49.12,4.56,4.56,0,0,1,2,3.6,1.33,1.33,0,0,1-.82,1.42l-.7.45-.38-.6L81.21,89a4.59,4.59,0,0,1-2-3.4Z" transform="translate(0 0.01)" style="fill:#5ab5b0;stroke:#231916;stroke-linejoin:bevel;stroke-width:0.1546771228313446px"/><path d="M82.32,88.28a4.56,4.56,0,0,0-2-3.56,1.25,1.25,0,0,0-2,1.19,4.56,4.56,0,0,0,2,3.56,1.25,1.25,0,0,0,2-1.19Z" transform="translate(0 0.01)" style="fill:#289696;stroke:#231916;stroke-linejoin:bevel;stroke-width:0.1546771228313446px"/><polygon points="83.43 17.41 87.17 15.24 90.92 17.41 87.17 19.57 83.43 17.41" style="fill:#95d1ce;stroke:#231916;stroke-linejoin:bevel;stroke-width:0.1546771228313446px"/><polygon points="87.17 19.57 87.13 28.25 83.39 26.08 83.43 17.41 87.17 19.57" style="fill:#289696;stroke:#231916;stroke-linejoin:bevel;stroke-width:0.1546771228313446px"/><polygon points="90.92 17.41 90.87 26.08 87.13 28.25 87.17 19.57 90.92 17.41" style="fill:#5ab5b0;stroke:#231916;stroke-linejoin:bevel;stroke-width:0.1546771228313446px"/><path d="M89.15,15.14h-.54a3.11,3.11,0,0,0-2.8,0l-.11.07h-.46v1.63a1,1,0,0,0,.57.87,3.11,3.11,0,0,0,2.8,0,1,1,0,0,0,.58-.81h0V15.14Z" transform="translate(0 0.01)" style="fill:#fff;stroke:#231916;stroke-linejoin:bevel;stroke-width:0.1546771228313446px"/><path d="M90,13.65h-.82a4.43,4.43,0,0,0-4,0l-.16.1h-.66v1a1.35,1.35,0,0,0,.82,1.24,4.43,4.43,0,0,0,4,0A1.4,1.4,0,0,0,90,14.79h0Z" transform="translate(0 0.01)" style="fill:#fff;stroke:#231916;stroke-linejoin:bevel;stroke-width:0.1546771228313446px"/><path d="M85.17,14.77a1.22,1.22,0,0,1,0-2.31,4.43,4.43,0,0,1,4,0,1.22,1.22,0,0,1,0,2.31A4.43,4.43,0,0,1,85.17,14.77Z" transform="translate(0 0.01)" style="fill:#fff;stroke:#231916;stroke-linejoin:bevel;stroke-width:0.1546771228313446px"/><path d="M86.55,13.6,87.17.5l.62,13.1A1,1,0,0,1,86.55,13.6Z" transform="translate(0 0.01)" style="fill:#fff;stroke:#231916;stroke-linejoin:bevel;stroke-width:0.1546771228313446px"/><path d="M87.17.5l.54,11.55a3.78,3.78,0,0,1,1.45.44A1.4,1.4,0,0,1,90,13.65v1.12a1.4,1.4,0,0,1-.82,1.15h0v.45l1.77,1v3.95l7,4.06v1.53l-1.8,8.64,1.8,1v1.53l-1.81,8.69,1.8,1V49.3l-1.8,8.64,1.8,1v1.63l-1.8,8.64,1.8,1v1.56l-2,9.49,2.57,1.51,2.84,18.5-14.2,8.33-14.2-8.33,2.78-18.5,2.55-1.47-2-9.48V70.25l1.8-1-1.8-8.64V59l1.8-1-1.8-8.64V47.82l1.8-1-1.8-8.64V36.61l1.8-1L76.26,27V25.4l7.07-4.08V17.4l1.77-1v-.46h0a1.35,1.35,0,0,1-.82-1.24v-.93h0a1.35,1.35,0,0,1,.82-1.24,3.78,3.78,0,0,1,1.45-.45L87.1.53m0-.5h0a.5.5,0,0,0-.5.48l-.53,11.15a4,4,0,0,0-1.22.44,1.85,1.85,0,0,0-1,1.67v1a1.67,1.67,0,0,0,.74,1.45L83.17,17a.5.5,0,0,0-.25.43V21.1L76.09,25a.5.5,0,0,0-.25.43V27a.5.5,0,0,0,0,.1l1.73,8.28-1.49.86a.5.5,0,0,0-.25.43V38.2a.5.5,0,0,0,0,.1l1.73,8.28-1.49.86a.5.5,0,0,0-.25.43V49.4a.5.5,0,0,0,0,.1l1.75,8.27-1.49.86a.5.5,0,0,0-.25.43v1.51a.5.5,0,0,0,0,.1L77.56,69l-1.49.86a.5.5,0,0,0-.25.43v1.53a.5.5,0,0,0,0,.1L77.71,81,75.47,82.3a.5.5,0,0,0-.24.36l-2.84,18.5a.5.5,0,0,0,.24.51L86.83,110a.5.5,0,0,0,.51,0l14.2-8.33a.5.5,0,0,0,.24-.51l-2.84-18.5a.5.5,0,0,0-.24-.36L96.46,81l1.91-9.13a.5.5,0,0,0,0-.1V70.25a.5.5,0,0,0-.25-.43L96.71,69l1.73-8.28a.5.5,0,0,0,0-.1V59a.5.5,0,0,0-.25-.43l-1.48-.83,1.73-8.28a.5.5,0,0,0,0-.1V47.82a.5.5,0,0,0-.25-.43l-1.48-.86,1.73-8.28a.5.5,0,0,0,0-.1V36.61a.5.5,0,0,0-.25-.43l-1.48-.86L98.44,27a.5.5,0,0,0,0-.1V25.4a.5.5,0,0,0-.25-.43l-6.78-3.91V17.4a.5.5,0,0,0-.25-.44l-1.45-.82a1.75,1.75,0,0,0,.75-1.36V13.65a1.89,1.89,0,0,0-1.07-1.59,4,4,0,0,0-1.22-.44L87.71.47a.5.5,0,0,0-.5-.48h0Z" transform="translate(0 0.01)" style="fill:#231916"/><polygon points="118.87 99.63 145.31 114.9 118.87 130.17 92.43 114.9 118.87 99.63" style="fill:#fff;stroke:#231916;stroke-miterlimit:10;stroke-width:0.1546771228313446px"/><polygon points="92.43 114.9 92.43 116.91 118.87 132.18 118.87 130.17 92.43 114.9" style="fill:#e8e9e9;stroke:#231916;stroke-miterlimit:10;stroke-width:0.1546771228313446px"/><polygon points="145.31 114.9 145.31 116.91 118.87 132.18 118.87 130.17 145.31 114.9" style="fill:#f7f7f7;stroke:#231916;stroke-miterlimit:10;stroke-width:0.1546771228313446px"/><polygon points="118.87 98.99 142.38 112.56 118.87 126.13 95.36 112.56 118.87 98.99" style="fill:#fff;stroke:#231916;stroke-miterlimit:10;stroke-width:0.1546771228313446px"/><polygon points="95.36 112.56 118.87 126.13 118.87 128.28 95.36 114.71 95.36 112.56" style="fill:#e8e9e9;stroke:#231916;stroke-miterlimit:10;stroke-width:0.1546771228313446px"/><polygon points="142.38 112.56 142.38 114.71 118.87 128.28 118.87 126.13 142.38 112.56" style="fill:#f7f7f7;stroke:#231916;stroke-miterlimit:10;stroke-width:0.1546771228313446px"/><polygon points="118.87 98.99 138.8 110.5 118.87 122.01 98.94 110.5 118.87 98.99" style="fill:#fff;stroke:#231916;stroke-miterlimit:10;stroke-width:0.1546771228313446px"/><polygon points="98.94 110.5 98.94 112.77 118.87 124.28 118.87 122.01 98.94 110.5" style="fill:#e8e9e9;stroke:#231916;stroke-miterlimit:10;stroke-width:0.1546771228313446px"/><polygon points="138.8 110.5 138.8 112.77 118.87 124.28 118.87 122.01 138.8 110.5" style="fill:#f7f7f7;stroke:#231916;stroke-miterlimit:10;stroke-width:0.1546771228313446px"/><polygon points="132.19 100.32 132.85 111.15 129.32 113.19 129.32 101.98 132.19 100.32" style="fill:#f7f7f7;stroke:#231916;stroke-miterlimit:10;stroke-width:0.1546771228313446px"/><polygon points="118.73 119.34 115.2 117.3 115.86 106.47 118.73 108.13 118.73 119.34" style="fill:#e8e9e9;stroke:#231916;stroke-miterlimit:10;stroke-width:0.1546771228313446px"/><polygon points="121.6 106.47 122.27 117.3 118.73 119.34 118.73 108.13 121.6 106.47" style="fill:#f7f7f7;stroke:#231916;stroke-miterlimit:10;stroke-width:0.1546771228313446px"/><polygon points="108.14 113.19 104.61 111.15 105.27 100.32 108.14 101.98 108.14 113.19" style="fill:#e8e9e9;stroke:#231916;stroke-miterlimit:10;stroke-width:0.1546771228313446px"/><polygon points="118.74 92.43 121.61 94.09 119.98 95.03 127.87 99.49 129.32 98.66 132.19 100.32 129.32 101.98 127.89 101.15 120.14 105.63 121.6 106.47 118.73 108.13 115.86 106.47 117.31 105.63 109.49 101.2 108.14 101.98 105.27 100.32 108.14 98.66 109.68 99.55 117.5 95.04 115.86 94.09 118.74 92.43" style="fill:#fff;stroke:#231916;stroke-miterlimit:10;stroke-width:0.1546771228313446px"/><polygon points="127.89 101.15 127.55 112.15 122.18 115.23 121.6 106.47 120.14 105.63 127.89 101.15" style="fill:#f7f7f7;stroke:#231916;stroke-miterlimit:10;stroke-width:0.1546771228313446px"/><polygon points="109.49 101.2 109.91 112.14 115.31 115.23 115.86 106.47 117.31 105.63 109.49 101.2" style="fill:#e8e9e9;stroke:#231916;stroke-miterlimit:10;stroke-width:0.1546771228313446px"/><polygon points="109.91 112.14 108.14 113.19 108.14 101.98 109.49 101.2 109.91 112.14" style="fill:#f7f7f7;stroke:#231916;stroke-miterlimit:10;stroke-width:0.1546771228313446px"/><polygon points="115.86 94.09 117.5 95.04 115.76 96.04 115.86 94.09" style="fill:#e8e9e9;stroke:#231916;stroke-miterlimit:10;stroke-width:0.1546771228313446px"/><polygon points="121.61 94.09 121.71 96.04 119.98 95.03 121.61 94.09" style="fill:#f7f7f7;stroke:#231916;stroke-miterlimit:10;stroke-width:0.1546771228313446px"/><polygon points="127.89 101.15 129.32 101.98 129.32 113.19 127.55 112.15 127.89 101.15" style="fill:#e8e9e9;stroke:#231916;stroke-miterlimit:10;stroke-width:0.1546771228313446px"/><path d="M113,107.47h-.08a1.09,1.09,0,0,0-1.79,1h0v4.27l3.66,2.11V110.6h0A4,4,0,0,0,113,107.47Z" transform="translate(0 0.01)" style="fill:#595857;stroke:#231916;stroke-miterlimit:10;stroke-width:0.1546771228313446px"/><polygon points="112.11 102.94 113.84 103.93 113.84 107 112.11 106 112.11 102.94" style="fill:#b28147;stroke:#231916;stroke-miterlimit:10;stroke-width:0.1546771228313446px"/><path d="M118.62,89.51c1.5,4.13,3.51,9.51,6.12,13.21-4,3.8-8.14,3.73-12.47,0C115,98.93,117.17,93.55,118.62,89.51Z" transform="translate(0 0.01)" style="fill:#046eb7;stroke:#231916;stroke-linecap:round;stroke-linejoin:round;stroke-width:0.1546771228313446px"/><path d="M118.62,89.51c4.47,2.88,9.11,6.73,14.28,8.2a7.77,7.77,0,0,1-8.16,5C122,98.82,120,93.43,118.62,89.51Z" transform="translate(0 0.01)" style="fill:#046eb7;stroke:#231916;stroke-linecap:round;stroke-linejoin:round;stroke-width:0.1546771228313446px"/><path d="M118.59,89.52c-4.18,2.72-8.86,6.42-14,8,0,0,1.61,5.83,7.81,5.18A53.65,53.65,0,0,0,118.59,89.52Z" transform="translate(0 0.01)" style="fill:#046eb7;stroke:#231916;stroke-linecap:round;stroke-linejoin:round;stroke-width:0.1546771228313446px"/><path d="M119.59,89.52" transform="translate(0 0.01)" style="fill:#046eb7;stroke:#231916;stroke-linecap:round;stroke-linejoin:round;stroke-width:0.1546771228313446px"/><path d="M118.59,89.51s10.11,3.72,11.77,3.11c0,0,.69,3.52,2.54,5.09C132.9,97.71,128.71,96.87,118.59,89.51Z" transform="translate(0 0.01)" style="fill:#046eb7;stroke:#231916;stroke-linecap:round;stroke-linejoin:round;stroke-width:0.1546771228313446px"/><path d="M118.51,89.51s-9.08,4.13-10.74,3.52a13,13,0,0,1-3.22,4.5S110.38,95.88,118.51,89.51Z" transform="translate(0 0.01)" style="fill:#046eb7;stroke:#231916;stroke-linecap:round;stroke-linejoin:round;stroke-width:0.1546771228313446px"/><path d="M118.51,89.51l2.53.24a59.66,59.66,0,0,0,9.33,2.88S127.87,93.13,118.51,89.51Z" transform="translate(0 0.01)" style="fill:#046eb7;stroke:#231916;stroke-linecap:round;stroke-linejoin:round;stroke-width:0.1546771228313446px"/><path d="M118.59,89.51l-2.55.24A32.13,32.13,0,0,1,107.77,93S109.53,93.71,118.59,89.51Z" transform="translate(0 0.01)" style="fill:#046eb7;stroke:#231916;stroke-linecap:round;stroke-linejoin:round;stroke-width:0.1546771228313446px"/><path d="M116.49,89.77A33,33,0,0,1,108.85,93s-.94,3.12-2.31,3.83c0,0,.7,4.1,6.83,4.29a8.19,8.19,0,0,0,10.38,0s5.12.13,6.62-4.39a6.46,6.46,0,0,1-1-4.14s-7.23-1.64-8.73-2.95" transform="translate(0 0.01)" style="fill:none;stroke:#fff;stroke-linecap:round;stroke-linejoin:round;stroke-width:0.3093542456626892px"/><path d="M118.63,87.46c1.35,3.71,3.15,8.55,5.5,11.87-3.57,3.41-7.31,3.35-11.2,0A52.75,52.75,0,0,0,118.63,87.46Z" transform="translate(0 0.01)" style="fill:#046eb7;stroke:#231916;stroke-linecap:round;stroke-linejoin:round;stroke-width:0.1546771228313446px"/><path d="M118.63,87.46c4,2.59,8.18,6,12.83,7.36a7,7,0,0,1-7.33,4.5C121.71,95.83,119.9,91,118.63,87.46Z" transform="translate(0 0.01)" style="fill:#046eb7;stroke:#231916;stroke-linecap:round;stroke-linejoin:round;stroke-width:0.1546771228313446px"/><path d="M118.61,87.48c-3.75,2.45-8,5.76-12.61,7.19a6.51,6.51,0,0,0,7,4.65A48.19,48.19,0,0,0,118.61,87.48Z" transform="translate(0 0.01)" style="fill:#046eb7;stroke:#231916;stroke-linecap:round;stroke-linejoin:round;stroke-width:0.1546771228313446px"/><path d="M119.5,87.48" transform="translate(0 0.01)" style="fill:#046eb7;stroke:#231916;stroke-linecap:round;stroke-linejoin:round;stroke-width:0.1546771228313446px"/><path d="M118.61,87.46s9.08,3.35,10.57,2.79c0,0,.62,3.16,2.28,4.57C131.46,94.83,127.71,94.08,118.61,87.46Z" transform="translate(0 0.01)" style="fill:#046eb7;stroke:#231916;stroke-linecap:round;stroke-linejoin:round;stroke-width:0.1546771228313446px"/><path d="M118.53,87.46s-8.16,3.71-9.65,3.16a11.65,11.65,0,0,1-2.89,4S111.23,93.19,118.53,87.46Z" transform="translate(0 0.01)" style="fill:#046eb7;stroke:#231916;stroke-linecap:round;stroke-linejoin:round;stroke-width:0.1546771228313446px"/><path d="M118.53,87.46l2.27.22a53.59,53.59,0,0,0,8.38,2.59S126.94,90.72,118.53,87.46Z" transform="translate(0 0.01)" style="fill:#046eb7;stroke:#231916;stroke-linecap:round;stroke-linejoin:round;stroke-width:0.1546771228313446px"/><path d="M118.61,87.46l-2.29.22a28.86,28.86,0,0,1-7.43,2.94S110.47,91.24,118.61,87.46Z" transform="translate(0 0.01)" style="fill:#046eb7;stroke:#231916;stroke-linecap:round;stroke-linejoin:round;stroke-width:0.1546771228313446px"/><path d="M116.71,87.77a29.68,29.68,0,0,1-6.86,2.92s-.85,2.8-2.08,3.44c0,0,.63,3.68,6.14,3.85a7.36,7.36,0,0,0,9.32,0s4.6.12,5.94-3.94a5.8,5.8,0,0,1-.94-3.72s-6.52-1.55-7.83-2.68" transform="translate(0 0.01)" style="fill:none;stroke:#fff;stroke-linecap:round;stroke-linejoin:round;stroke-width:0.3093542456626892px"/><path d="M117.83,88.41a.49.49,0,0,1,0-.92,1.81,1.81,0,0,1,1.61,0,.49.49,0,0,1,0,.92A1.78,1.78,0,0,1,117.83,88.41Z" transform="translate(0 0.01)" style="fill:#aa7247;stroke:#231916;stroke-miterlimit:10;stroke-width:0.1546771228313446px"/><path d="M118,88.07a.63.63,0,0,1,0-1,.92.92,0,0,1,1.3,0h0a.63.63,0,0,1,0,1A1.45,1.45,0,0,1,118,88.07Z" transform="translate(0 0.01)" style="fill:#aa7247;stroke:#231916;stroke-miterlimit:10;stroke-width:0.1546771228313446px"/><circle cx="118.64" cy="86.06" r="1.31" style="fill:#aa7247;stroke:#231916;stroke-miterlimit:10;stroke-width:0.1546771228313446px"/><polygon points="112.11 118.1 107.12 127.19 101.86 124.16 107.12 115.22 112.11 118.1" style="fill:#fff;stroke:#231916;stroke-linecap:round;stroke-linejoin:round;stroke-width:0.1546771228313446px"/><polygon points="112.11 118.1 111.98 120.3 110.34 121.36 110.34 123.35 108.73 124.31 108.73 126.32 107.12 127.19 112.11 118.1" style="fill:#fff;stroke:#231916;stroke-linecap:round;stroke-linejoin:round;stroke-width:0.1546771228313446px"/><path d="M142.37,113.19v-.64l-3.58-2.06h0l-6.21-3.58-.4-6.6-.6-.35a8.32,8.32,0,0,0,1.32-2.25,6.82,6.82,0,0,1-1.65-2.39,5.1,5.1,0,0,0,.21-.49,4.45,4.45,0,0,1-.7-.76,13.25,13.25,0,0,1-.4-1.44h0l-.43-.09a12.54,12.54,0,0,1-.73-2.28h0a53.65,53.65,0,0,1-8.35-2.58l-1.25-.12a.81.81,0,0,0-.18-.43,1.31,1.31,0,1,0-1.48,0,.82.82,0,0,0-.18.42l-1.4.13a28.87,28.87,0,0,1-7.43,2.94,11.65,11.65,0,0,1-2.89,4,6.06,6.06,0,0,0,.35.9,8.39,8.39,0,0,1-1.8,2,8.14,8.14,0,0,0,1.27,2.45l-.56.32-.41,6.76-9.5,5.48v.64l-2.94,1.69v2l10.23,5.9-.79,1.34,5.25,3,1.62-.87,10.14,5.85,26.44-15.27v-2ZM130.28,92.64a1.56,1.56,0,0,1-.31,0h.31Z" transform="translate(0 0.01)" style="fill:none;stroke:#231916;stroke-linecap:round;stroke-linejoin:round;stroke-width:0.3093542456626892px"/></g><g id="fireworks1"><path d="M90,92.77c.27-1.25.42-2,.68-3.2s.33-1.84.61-3c.2-.81.32-1.26.56-2.06a7.32,7.32,0,0,0-1.14,2.08,11,11,0,0,0-.55,3.13A22.34,22.34,0,0,0,90,92.77Z" transform="translate(0 0.01)" style="fill:url(#未命名漸層_44)"/><path d="M87.89,85.5a11.63,11.63,0,0,1,3-3.68,2.91,2.91,0,0,0-2.15,1A3,3,0,0,0,87.89,85.5Z" transform="translate(0 0.01)" style="fill:url(#未命名漸層_44-2)"/><path d="M89.34,81a5,5,0,0,0-2.85,1.5,1.76,1.76,0,0,1,1.16-1.63A1.71,1.71,0,0,1,89.34,81Z" transform="translate(0 0.01)" style="fill:url(#未命名漸層_44-3)"/><path d="M86.16,82a6.7,6.7,0,0,0-2.67.94,6.78,6.78,0,0,0-2.84,2.8A18.44,18.44,0,0,1,86.16,82Z" transform="translate(0 0.01)" style="fill:url(#未命名漸層_44-4)"/><path d="M86.34,78.9A14.54,14.54,0,0,0,82.82,77a9.64,9.64,0,0,0-3.35-.92,3.21,3.21,0,0,0-1.55.05c-.24.09-.63.07-.57.32s.35.11.57.16a10.66,10.66,0,0,0,1.37,0,13.09,13.09,0,0,1,3.32.94C84.07,78,84.9,78.34,86.34,78.9Z" transform="translate(0 0.01)" style="fill:url(#未命名漸層_44-5)"/><path d="M86.55,78.61a9,9,0,0,0-3.24-1,4.62,4.62,0,0,0-2.5-.05,1.7,1.7,0,0,0-.76.37.31.31,0,0,0-.16.19c0,.16.24,0,.4,0,.51,0,.78-.17,1.29-.21a9.62,9.62,0,0,1,2.5.21A17.62,17.62,0,0,1,86.55,78.61Z" transform="translate(0 0.01)" style="fill:url(#未命名漸層_44-6)"/><path d="M88.18,77.08a5.63,5.63,0,0,0-1.77-1.66c-1-.65-1.83-1.46-3-1-.18.08-.45,0-.44.24s.26.14.44.21c.51.2.87,0,1.39.19a8.31,8.31,0,0,1,1.77,1.18A17.36,17.36,0,0,0,88.18,77.08Z" transform="translate(0 0.01)" style="fill:url(#未命名漸層_44-7)"/><path d="M89.07,76.61a7,7,0,0,0-1.49-2.48,7.34,7.34,0,0,0-1.71-1.47.42.42,0,0,0-.58,0,.39.39,0,0,0,.16.48c.69.61,1,.82,1.66,1.39A18.72,18.72,0,0,1,89.07,76.61Z" transform="translate(0 0.01)" style="fill:url(#未命名漸層_44-8)"/><path d="M85.71,74.42a21.29,21.29,0,0,0-7.29-5.9.41.41,0,0,0-.69-.08.37.37,0,0,0,.2.48l0,0c1.21.74,1.88,1.18,3,2C82.9,72.22,83.94,73,85.71,74.42Z" transform="translate(0 0.01)" style="fill:url(#未命名漸層_44-9)"/><path d="M87,71.63a30.17,30.17,0,0,0-2.76-5.5c-.88-1.42-1.2-2.42-2.47-3.5a2.06,2.06,0,0,0-.82-.63c-.23-.06-.47-.22-.6,0s.1.33.2.52a4.89,4.89,0,0,0,.53.74c1,1.34,1.61,2,2.58,3.37C85,68.52,85.71,69.63,87,71.63Z" transform="translate(0 0.01)" style="fill:url(#未命名漸層_44-10)"/><path d="M88.58,73A23.9,23.9,0,0,0,87,69.5a9.3,9.3,0,0,0-1.79-2.9,1.53,1.53,0,0,0-.6-.5.45.45,0,0,0-.48,0,.44.44,0,0,0,0,.45,1.74,1.74,0,0,0,.45.63C86.19,69.4,87.07,70.69,88.58,73Z" transform="translate(0 0.01)" style="fill:url(#未命名漸層_44-11)"/><path d="M92.55,80.22a8.76,8.76,0,0,1,.63-2.81.38.38,0,0,0-.32-.41.39.39,0,0,0-.45.32h0a8.84,8.84,0,0,0,0,1.13A8.68,8.68,0,0,0,92.55,80.22Z" transform="translate(0 0.01)" style="fill:url(#未命名漸層_44-12)"/><path d="M95.22,78.09a2.11,2.11,0,0,1,1.85-.63,2,2,0,0,1,1,.32.37.37,0,0,0,.52,0l.07-.09a.35.35,0,0,0-.23-.44h0a2,2,0,0,0-1.18-.32A2.09,2.09,0,0,0,95.22,78.09Z" transform="translate(0 0.01)" style="fill:url(#未命名漸層_44-13)"/><path d="M95.22,77.68a4.71,4.71,0,0,1,1.4-2.49,4.64,4.64,0,0,1,1.45-1c.43,0,.61,0,.68-.27s-.3-.45-.81-.36a3.54,3.54,0,0,0-1.85,1.31A3.61,3.61,0,0,0,95.22,77.68Z" transform="translate(0 0.01)" style="fill:url(#未命名漸層_44-14)"/><path d="M96.07,73.77a15.7,15.7,0,0,1,3.21-3,.42.42,0,0,0-.14-.45.48.48,0,0,0-.67.1l0,.08A7.52,7.52,0,0,0,96.07,73.77Z" transform="translate(0 0.01)" style="fill:url(#未命名漸層_44-15)"/><path d="M98,80.17a7.57,7.57,0,0,1,6,.68.46.46,0,0,0,.77.18.41.41,0,0,0-.24-.53h0A6.25,6.25,0,0,0,98,80.17Z" transform="translate(0 0.01)" style="fill:url(#未命名漸層_44-16)"/><path d="M98.71,81a12.76,12.76,0,0,1,2.08.77,13.2,13.2,0,0,1,1.54.81.39.39,0,0,0,.54.09l.09-.09a.38.38,0,0,0-.14-.52l0,0a4.44,4.44,0,0,0-1.54-.86A4.5,4.5,0,0,0,98.71,81Z" transform="translate(0 0.01)" style="fill:url(#未命名漸層_44-17)"/><path d="M95.31,85a19.14,19.14,0,0,1,3.81,7.29.39.39,0,1,1-.63.18c-.49-1.3-.78-2-1.32-3.31C96.49,87.55,96.08,86.63,95.31,85Z" transform="translate(0 0.01)" style="fill:url(#未命名漸層_44-18)"/><path d="M94.87,83.63a24.71,24.71,0,0,1,3.55,5.11.39.39,0,0,0,.49.25h0a.42.42,0,0,0,0-.69A8.75,8.75,0,0,0,94.87,83.63Z" transform="translate(0 0.01)" style="fill:url(#未命名漸層_44-19)"/><path d="M103.34,93.11a23.87,23.87,0,0,0-5.69-7.34c1.07,1.53,1.65,2.4,2.66,4s1.41,2.23,2.27,3.69a.47.47,0,0,0,.71.31.44.44,0,0,0,.09-.62Z" transform="translate(0 0.01)" style="fill:url(#未命名漸層_44-20)"/><path d="M100,85.08a46.57,46.57,0,0,1,8.32,6,.33.33,0,0,0,.42.2l.08,0a.31.31,0,0,0,0-.44h0A25.77,25.77,0,0,0,100,85.08Z" transform="translate(0 0.01)" style="fill:url(#未命名漸層_44-21)"/><path d="M103.76,82.93A27.52,27.52,0,0,1,114,86.14a.43.43,0,0,0,.72.09.4.4,0,0,0-.23-.52l-.09,0A17.54,17.54,0,0,0,103.76,82.93Z" transform="translate(0 0.01)" style="fill:url(#未命名漸層_44-22)"/><path d="M105,80.53a41.88,41.88,0,0,1,9.72,1.72c.31.26,1,.58,1,.18s-.24-.42-.59-.63A18,18,0,0,0,105,80.53Z" transform="translate(0 0.01)" style="fill:url(#未命名漸層_44-23)"/><path d="M102.59,79.31a13.4,13.4,0,0,1,6.42.14c.21.08.63.31.72,0a.39.39,0,0,0-.25-.49h0A9.46,9.46,0,0,0,102.59,79.31Z" transform="translate(0 0.01)" style="fill:url(#未命名漸層_44-24)"/><path d="M105.85,76.91a31.24,31.24,0,0,1,12.85-2,.49.49,0,0,0,.62-.31v0c.07-.36-.45-.34-.86-.36A21.58,21.58,0,0,0,105.85,76.91Z" transform="translate(0 0.01)" style="fill:url(#未命名漸層_44-25)"/><path d="M102.32,76.46a19,19,0,0,1,8.23-2.13A.35.35,0,0,0,111,74v0a.37.37,0,0,0-.37-.37h-.08A12.75,12.75,0,0,0,102.32,76.46Z" transform="translate(0 0.01)" style="fill:url(#未命名漸層_44-26)"/><path d="M119.1,66.83c0-.43-.43-.3-1.09-.23a36.86,36.86,0,0,0-12.3,6.24,61.34,61.34,0,0,1,12.62-5.43C118.92,67.21,119.13,67.2,119.1,66.83Z" transform="translate(0 0.01)" style="fill:url(#未命名漸層_44-27)"/><path d="M99.51,75.77a10.76,10.76,0,0,1,5.75-2.17.39.39,0,0,0,.52-.2l0-.07a.41.41,0,0,0-.39-.43l-.15,0A7.5,7.5,0,0,0,99.51,75.77Z" transform="translate(0 0.01)" style="fill:url(#未命名漸層_44-28)"/><path d="M104.71,70.85a22,22,0,0,1,6.33-4.3.36.36,0,0,0,0-.41.41.41,0,0,0-.58-.05l-.05.05A13.26,13.26,0,0,0,104.71,70.85Z" transform="translate(0 0.01)" style="fill:url(#未命名漸層_44-29)"/><path d="M105.57,71.77a55.59,55.59,0,0,1,12.49-7c.32-.12.51-.27.45-.54s-.53-.1-.86,0A28.76,28.76,0,0,0,105.57,71.77Z" transform="translate(0 0.01)" style="fill:url(#未命名漸層_44-30)"/><path d="M103.36,70.45a62.06,62.06,0,0,1,14-9.91c.37-.15.68-.28.59-.59s-.69-.14-.9,0A36.1,36.1,0,0,0,103.36,70.45Z" transform="translate(0 0.01)" style="fill:url(#未命名漸層_44-31)"/><path d="M103.31,67.69a39.88,39.88,0,0,1,8.82-10.77.56.56,0,0,1,.79,0l0,0a.53.53,0,0,1,0,.68A58.41,58.41,0,0,0,103.31,67.69Z" transform="translate(0 0.01)" style="fill:url(#未命名漸層_44-32)"/><path d="M101.55,66.56a47.18,47.18,0,0,1,4.39-7.79,47.12,47.12,0,0,1,5-6.33.55.55,0,0,1,.9-.27.47.47,0,0,1,0,.54,72.69,72.69,0,0,0-4.7,5.74A85.38,85.38,0,0,0,101.55,66.56Z" transform="translate(0 0.01)" style="fill:url(#未命名漸層_44-33)"/><path d="M100.82,64.57a54.17,54.17,0,0,1,2.89-5.43c1-1.61,1.51-2.49,2.58-4a.39.39,0,0,1,.59.45c-1.22,1.88-1.92,2.93-3.17,4.79C102.57,62,101.94,62.93,100.82,64.57Z" transform="translate(0 0.01)" style="fill:url(#未命名漸層_44-34)"/><path d="M94.9,72.94a48.62,48.62,0,0,1,1.31-5.7c.45-1.59.74-2.48,1.31-4a.31.31,0,0,1,.5-.14.26.26,0,0,1,0,.32c-.56,1.62-.87,2.54-1.4,4.16C95.93,69.65,95.55,70.83,94.9,72.94Z" transform="translate(0 0.01)" style="fill:url(#未命名漸層_44-35)"/><path d="M94.31,71.58a12.87,12.87,0,0,1,1.4-5.34.34.34,0,0,1,.54-.18.31.31,0,0,1-.07.43l0,0-.77,2.13C95,69.77,94.71,70.43,94.31,71.58Z" transform="translate(0 0.01)" style="fill:url(#未命名漸層_44-36)"/><path d="M98,64.88a38.81,38.81,0,0,1,2.49-7.33,38.78,38.78,0,0,1,4-7.28.34.34,0,0,1,.48,0l0,0a.32.32,0,0,1,0,.41c-1.37,2.28-2.1,3.6-3.3,6A84.76,84.76,0,0,0,98,64.88Z" transform="translate(0 0.01)" style="fill:url(#未命名漸層_44-37)"/><path d="M96.39,64.52a43.19,43.19,0,0,1,1.49-8.69,43.15,43.15,0,0,1,1.76-5.43.39.39,0,0,1,.52-.19h0a.35.35,0,0,1,.18.36c-.83,2.45-1.27,3.85-2,6.33C97.53,59.86,97.09,61.54,96.39,64.52Z" transform="translate(0 0.01)" style="fill:url(#未命名漸層_44-38)"/><path d="M93.27,68.14c-.07-2-.08-3.2,0-5.25,0-1.22,0-1.9.09-3.12a.43.43,0,0,1,.41-.41.41.41,0,0,1,.41.23A25.32,25.32,0,0,1,94,62.85,39.07,39.07,0,0,1,93.27,68.14Z" transform="translate(0 0.01)" style="fill:url(#未命名漸層_44-39)"/><path d="M91.23,74.34c-.19-.72-.29-1.13-.45-1.85-.23-1-.34-1.62-.5-2.67a.36.36,0,0,1,.63-.32,14.65,14.65,0,0,0,.09,2C91.07,72.63,91.12,73.24,91.23,74.34Z" transform="translate(0 0.01)" style="fill:url(#未命名漸層_44-40)"/><path d="M88,69.18a35,35,0,0,0-1.09-5.47,35,35,0,0,0-2.67-7.15.49.49,0,0,0-.67-.19h0a.44.44,0,0,0-.23.41c.79,2,1.23,3.14,2,5.16C86.42,64.77,87,66.35,88,69.18Z" transform="translate(0 0.01)" style="fill:url(#未命名漸層_44-41)"/><path d="M90.56,67.37A18.65,18.65,0,0,1,88.89,60a.38.38,0,0,1,.32-.23.42.42,0,0,1,.45.39.42.42,0,0,1,0,.06c.12,1.31.2,2,.36,3.35S90.32,65.91,90.56,67.37Z" transform="translate(0 0.01)" style="fill:url(#未命名漸層_44-42)"/><path d="M91.32,65.92c-.18-2.78-.24-4.36-.27-7.15,0-2.58,0-4,.09-6.6a.5.5,0,0,1,.54-.45.49.49,0,0,1,.45.45c-.08,2.81-.15,4.39-.32,7.19C91.71,61.92,91.56,63.37,91.32,65.92Z" transform="translate(0 0.01)" style="fill:url(#未命名漸層_44-43)"/><path d="M94.94,61.9a55.27,55.27,0,0,1,.54-6.79,54.56,54.56,0,0,1,1-5.38A.32.32,0,1,1,97,50c-.24,2.46-.43,3.85-.86,6.29C95.71,58.52,95.48,59.77,94.94,61.9Z" transform="translate(0 0.01)" style="fill:url(#未命名漸層_44-44)"/></g><g id="fireworks2"><path d="M84,85.26c-.27-1.25-.42-2-.68-3.2s-.33-1.84-.61-3c-.2-.81-.32-1.26-.56-2.06a7.32,7.32,0,0,1,1.14,2.08,11,11,0,0,1,.55,3.13A22.34,22.34,0,0,1,84,85.26Z" transform="translate(0 0.01)" style="fill:url(#未命名漸層_86)"/><path d="M86,78a11.63,11.63,0,0,0-3-3.68,2.91,2.91,0,0,1,2.15,1A3,3,0,0,1,86,78Z" transform="translate(0 0.01)" style="fill:url(#未命名漸層_86-2)"/><path d="M84.56,73.45a4.89,4.89,0,0,1,2.84,1.49,1.76,1.76,0,0,0-1.16-1.63A1.71,1.71,0,0,0,84.56,73.45Z" transform="translate(0 0.01)" style="fill:url(#未命名漸層_86-3)"/><path d="M87.71,74.5a6.7,6.7,0,0,1,2.67.94,6.78,6.78,0,0,1,2.84,2.84A18.44,18.44,0,0,0,87.71,74.5Z" transform="translate(0 0.01)" style="fill:url(#未命名漸層_86-4)"/><path d="M88.77,72.17a4.43,4.43,0,0,1,2.79-1.29c1-.13,1.87-.3,2.66.4.2.18.54.28.45.53s-.47,0-.77-.08a15.17,15.17,0,0,0-2.07-.4A5.12,5.12,0,0,0,88.77,72.17Z" transform="translate(0 0.01)" style="fill:url(#未命名漸層_86-5)"/><path d="M87.56,71.36a14.54,14.54,0,0,1,3.52-1.87,9.64,9.64,0,0,1,3.35-.92,3.21,3.21,0,0,1,1.55.05c.24.09.63.07.57.32s-.35.11-.57.16a10.66,10.66,0,0,1-1.37,0,13.09,13.09,0,0,0-3.32.94C89.82,70.51,89,70.77,87.56,71.36Z" transform="translate(0 0.01)" style="fill:url(#未命名漸層_86-6)"/><path d="M85.71,69.55a5.63,5.63,0,0,1,1.77-1.66c1-.65,1.83-1.46,3-1,.18.08.45,0,.44.24s-.26.14-.44.21c-.51.2-.87,0-1.39.19a8.31,8.31,0,0,0-1.77,1.18A17.36,17.36,0,0,1,85.71,69.55Z" transform="translate(0 0.01)" style="fill:url(#未命名漸層_86-7)"/><path d="M84.83,69.08a7,7,0,0,1,1.49-2.48A7.34,7.34,0,0,1,88,65.13a.42.42,0,0,1,.58,0,.39.39,0,0,1-.16.48c-.69.61-1,.82-1.66,1.39A18.72,18.72,0,0,0,84.83,69.08Z" transform="translate(0 0.01)" style="fill:url(#未命名漸層_86-8)"/><path d="M88.19,66.89A21.29,21.29,0,0,1,95.48,61a.41.41,0,0,1,.69-.08.37.37,0,0,1-.2.48l0,0c-1.21.74-1.88,1.18-3,2A54.7,54.7,0,0,0,88.19,66.89Z" transform="translate(0 0.01)" style="fill:url(#未命名漸層_86-9)"/><path d="M87.71,64.07a38.61,38.61,0,0,1,6-7.3.33.33,0,0,0,.11-.42c-.12-.23-.67,0-.63.21l-1,.9a19,19,0,0,0-2.81,3.63A22.08,22.08,0,0,0,87.71,64.07Z" transform="translate(0 0.01)" style="fill:url(#未命名漸層_86-10)"/><path d="M85.32,65.47A23.9,23.9,0,0,1,86.9,62a9.3,9.3,0,0,1,1.79-2.9,1.53,1.53,0,0,1,.6-.5.45.45,0,0,1,.48,0,.44.44,0,0,1,0,.45,1.74,1.74,0,0,1-.45.63C87.71,61.87,86.83,63.15,85.32,65.47Z" transform="translate(0 0.01)" style="fill:url(#未命名漸層_86-11)"/><path d="M85.32,63.94A42.65,42.65,0,0,1,87,59.86c.5-1.1.81-1.58,1.37-2.79a.43.43,0,0,0,0-.56c-.21-.14-.35.19-.53.37a3.09,3.09,0,0,0-.55,1.1,20.86,20.86,0,0,0-1.08,2.6A17.8,17.8,0,0,0,85.32,63.94Z" transform="translate(0 0.01)" style="fill:url(#未命名漸層_86-12)"/><path d="M81.35,72.68a8.76,8.76,0,0,0-.63-2.81.38.38,0,0,1,.32-.41.39.39,0,0,1,.45.32h0a8.84,8.84,0,0,1,0,1.13A8.68,8.68,0,0,1,81.35,72.68Z" transform="translate(0 0.01)" style="fill:url(#未命名漸層_86-13)"/><path d="M78.71,70.15a4.71,4.71,0,0,0-1.4-2.49,4.64,4.64,0,0,0-1.45-1c-.43,0-.61,0-.68-.27s.3-.45.81-.36a3.54,3.54,0,0,1,1.85,1.31A3.61,3.61,0,0,1,78.71,70.15Z" transform="translate(0 0.01)" style="fill:url(#未命名漸層_86-14)"/><path d="M77.82,66.21a15.7,15.7,0,0,0-3.21-3,.42.42,0,0,1,.1-.44.48.48,0,0,1,.67.1l0,.08A7.52,7.52,0,0,1,77.82,66.21Z" transform="translate(0 0.01)" style="fill:url(#未命名漸層_86-15)"/><path d="M75.88,72.64a7.57,7.57,0,0,0-6,.68.46.46,0,0,1-.77.18.41.41,0,0,1,.24-.53h0A6.25,6.25,0,0,1,75.88,72.64Z" transform="translate(0 0.01)" style="fill:url(#未命名漸層_86-16)"/><path d="M75.15,73.45a12.76,12.76,0,0,0-2.08.77,13.2,13.2,0,0,0-1.54.81.39.39,0,0,1-.54.09L70.9,75a.38.38,0,0,1,.14-.52l0,0a4.44,4.44,0,0,1,1.54-.86A4.5,4.5,0,0,1,75.15,73.45Z" transform="translate(0 0.01)" style="fill:url(#未命名漸層_86-17)"/><path d="M78.58,77.5a19.14,19.14,0,0,0-3.81,7.27.39.39,0,1,0,.63.18c.49-1.3.78-2,1.32-3.31C77.4,80,77.82,79.1,78.58,77.5Z" transform="translate(0 0.01)" style="fill:url(#未命名漸層_86-18)"/><path d="M70.56,85.58a23.87,23.87,0,0,1,5.69-7.34c-1.07,1.53-1.65,2.4-2.66,4s-1.41,2.23-2.27,3.69a.47.47,0,0,1-.71.31.44.44,0,0,1-.09-.62Z" transform="translate(0 0.01)" style="fill:url(#未命名漸層_86-19)"/><path d="M73.93,77.55a46.57,46.57,0,0,0-8.32,6,.33.33,0,0,1-.42.2l-.08,0a.31.31,0,0,1,0-.44h0A25.77,25.77,0,0,1,73.93,77.55Z" transform="translate(0 0.01)" style="fill:url(#未命名漸層_86-20)"/><path d="M70.13,75.4a27.52,27.52,0,0,0-10.27,3.21.43.43,0,0,1-.72.09.4.4,0,0,1,.23-.52l.09,0A17.54,17.54,0,0,1,70.13,75.4Z" transform="translate(0 0.01)" style="fill:url(#未命名漸層_86-21)"/><path d="M68.91,73a41.88,41.88,0,0,0-9.73,1.72c-.31.26-1,.58-1,.18s.24-.42.59-.63A18,18,0,0,1,68.91,73Z" transform="translate(0 0.01)" style="fill:url(#未命名漸層_86-22)"/><path d="M71.81,71.33a25.06,25.06,0,0,0-14.1-.73.37.37,0,0,1-.52.07l-.07-.07a.36.36,0,0,1,.18-.47l.09,0A22.72,22.72,0,0,1,71.81,71.33Z" transform="translate(0 0.01)" style="fill:url(#未命名漸層_86-23)"/><path d="M71.58,68.93a19,19,0,0,0-8.23-2.16.35.35,0,0,1-.41-.28v0a.37.37,0,0,1,.37-.37h.08A12.75,12.75,0,0,1,71.58,68.93Z" transform="translate(0 0.01)" style="fill:url(#未命名漸層_86-24)"/><path d="M57.15,62.87c-.06-.38.5-.32,1-.23a37.84,37.84,0,0,1,14.07,6.2,70.52,70.52,0,0,0-14.46-5.57A.49.49,0,0,1,57.15,62.87Z" transform="translate(0 0.01)" style="fill:url(#未命名漸層_86-25)"/><path d="M74.39,68.25a10.76,10.76,0,0,0-5.75-2.17.39.39,0,0,1-.52-.2l0-.07a.41.41,0,0,1,.39-.43l.15,0A7.5,7.5,0,0,1,74.39,68.25Z" transform="translate(0 0.01)" style="fill:url(#未命名漸層_86-26)"/><path d="M68.32,64.22a55.59,55.59,0,0,0-12.49-7c-.32-.12-.51-.27-.45-.54s.53-.1.86,0A28.76,28.76,0,0,1,68.32,64.22Z" transform="translate(0 0.01)" style="fill:url(#未命名漸層_86-27)"/><path d="M70.54,62.91a62.06,62.06,0,0,0-14-9.91c-.37-.15-.68-.28-.59-.59s.69-.14.9,0A36.1,36.1,0,0,1,70.54,62.91Z" transform="translate(0 0.01)" style="fill:url(#未命名漸層_86-28)"/><path d="M72.71,63.36a36,36,0,0,0-9.5-9.73.57.57,0,0,0-.8-.1l-.1.1a.53.53,0,0,0,.14.72c1.58,1.13,2.44,1.79,3.94,3A58.77,58.77,0,0,1,72.71,63.36Z" transform="translate(0 0.01)" style="fill:url(#未命名漸層_86-29)"/><path d="M71.35,59.77a42.2,42.2,0,0,0-4.57-6.87,42.19,42.19,0,0,0-5.65-6,.44.44,0,0,0-.62,0h0a.42.42,0,0,0,0,.54A75,75,0,0,1,71.35,59.77Z" transform="translate(0 0.01)" style="fill:url(#未命名漸層_86-30)"/><path d="M73.07,57a54.17,54.17,0,0,0-2.85-5.43c-1-1.61-1.51-2.49-2.58-4a.39.39,0,0,0-.59.45C68.27,49.93,69,51,70.22,52.84,71.33,54.47,72,55.4,73.07,57Z" transform="translate(0 0.01)" style="fill:url(#未命名漸層_86-31)"/><path d="M79,65.4a48.62,48.62,0,0,0-1.31-5.7c-.45-1.59-.74-2.48-1.31-4a.31.31,0,0,0-.5-.14.26.26,0,0,0,0,.32c.56,1.62.87,2.54,1.4,4.16C78,62.11,78.35,63.3,79,65.4Z" transform="translate(0 0.01)" style="fill:url(#未命名漸層_86-32)"/><path d="M79.59,64a12.87,12.87,0,0,0-1.4-5.34.34.34,0,0,0-.54-.18.31.31,0,0,0,.07.43l0,0,.77,2.13C78.92,62.25,79.16,62.9,79.59,64Z" transform="translate(0 0.01)" style="fill:url(#未命名漸層_86-33)"/><path d="M82.35,67.07a21.13,21.13,0,0,0,.32-4.88.63.63,0,0,0-.36-.18.35.35,0,0,0-.32.23A19,19,0,0,0,82.35,67.07Z" transform="translate(0 0.01)" style="fill:url(#未命名漸層_86-34)"/><path d="M75.92,57.35A38.81,38.81,0,0,0,73.43,50a38.78,38.78,0,0,0-4-7.28.34.34,0,0,0-.48,0l0,0a.32.32,0,0,0,0,.41c1.37,2.28,2.1,3.6,3.3,6A84.76,84.76,0,0,1,75.92,57.35Z" transform="translate(0 0.01)" style="fill:url(#未命名漸層_86-35)"/><path d="M77.51,57A43.19,43.19,0,0,0,76,48.3a43.16,43.16,0,0,0-1.76-5.43.39.39,0,0,0-.52-.19h0a.35.35,0,0,0-.18.36c.83,2.45,1.27,3.85,2,6.33C76.37,52.33,76.81,54,77.51,57Z" transform="translate(0 0.01)" style="fill:url(#未命名漸層_86-36)"/><path d="M80.63,60.61c.07-2,.08-3.2,0-5.25,0-1.22,0-1.9-.09-3.12a.43.43,0,0,0-.41-.41.41.41,0,0,0-.41.23,25.32,25.32,0,0,0,.14,3.26A39.06,39.06,0,0,0,80.63,60.61Z" transform="translate(0 0.01)" style="fill:url(#未命名漸層_86-37)"/><path d="M85.88,61.65A35,35,0,0,1,87,56.18,35,35,0,0,1,89.64,49a.49.49,0,0,1,.67-.19h0a.44.44,0,0,1,.23.41c-.79,2-1.23,3.14-2,5.16C87.48,57.22,86.89,58.77,85.88,61.65Z" transform="translate(0 0.01)" style="fill:url(#未命名漸層_86-38)"/><path d="M83.34,59.84A18.65,18.65,0,0,0,85,52.51a.38.38,0,0,0-.32-.23.42.42,0,0,0-.45.45c-.12,1.31-.2,2-.36,3.35S83.58,58.38,83.34,59.84Z" transform="translate(0 0.01)" style="fill:url(#未命名漸層_86-39)"/><path d="M82.57,58.39c.18-2.78.24-4.36.27-7.15,0-2.58,0-4-.09-6.6a.5.5,0,0,0-.54-.45.49.49,0,0,0-.45.45c.08,2.81.15,4.39.32,7.19C82.23,54.39,82.34,55.83,82.57,58.39Z" transform="translate(0 0.01)" style="fill:url(#未命名漸層_86-40)"/><path d="M79,54.36a55.28,55.28,0,0,0-.54-6.79,54.55,54.55,0,0,0-1-5.38.32.32,0,1,0-.54.32c.24,2.46.43,3.85.86,6.29C78.16,51,78.42,52.21,79,54.36Z" transform="translate(0 0.01)" style="fill:url(#未命名漸層_86-41)"/><path d="M71.81,53.14a30.66,30.66,0,0,0-4.7-8.5.32.32,0,0,0-.45,0,.31.31,0,0,0,0,.41c1,1.45,1.54,2.28,2.49,3.75C70.18,50.48,70.77,51.43,71.81,53.14Z" transform="translate(0 0.01)" style="fill:url(#未命名漸層_86-42)"/></g><g id="fireworks3"><path d="M91.77,60.71c.27-1.25.42-2,.68-3.2s.33-1.84.61-3c.2-.81.32-1.26.56-2.06a7.32,7.32,0,0,0-1.14,2.08,11,11,0,0,0-.55,3.13A22.34,22.34,0,0,0,91.77,60.71Z" transform="translate(0 0.01)" style="fill:url(#未命名漸層_124)"/><path d="M92.34,52.19A5.2,5.2,0,0,0,91,53.43a6.41,6.41,0,0,0-1.1,2.08,8.35,8.35,0,0,0-.57,2.31l.84-1.65c.33-.65.57-1.26,1-2A19.92,19.92,0,0,1,92.34,52.19Z" transform="translate(0 0.01)" style="fill:url(#未命名漸層_124-2)"/><path d="M91.16,48.9a5,5,0,0,0-2.85,1.5,1.76,1.76,0,0,1,1.16-1.63A1.71,1.71,0,0,1,91.16,48.9Z" transform="translate(0 0.01)" style="fill:url(#未命名漸層_124-3)"/><path d="M88,50a6.7,6.7,0,0,0-2.67.94,6.78,6.78,0,0,0-2.84,2.88A18.44,18.44,0,0,1,88,50Z" transform="translate(0 0.01)" style="fill:url(#未命名漸層_124-4)"/><path d="M87,47.63a4.43,4.43,0,0,0-2.79-1.29c-1-.13-1.87-.3-2.66.4-.2.18-.54.28-.45.53s.47,0,.77-.08a15.17,15.17,0,0,1,2.07-.4A5.12,5.12,0,0,1,87,47.63Z" transform="translate(0 0.01)" style="fill:url(#未命名漸層_124-5)"/><path d="M90.89,44.53A7,7,0,0,0,89.4,42a7.34,7.34,0,0,0-1.69-1.47.42.42,0,0,0-.58,0,.39.39,0,0,0,.16.48c.69.61,1,.82,1.66,1.39A18.72,18.72,0,0,1,90.89,44.53Z" transform="translate(0 0.01)" style="fill:url(#未命名漸層_124-6)"/><path d="M87.53,42.34a21.29,21.29,0,0,0-7.29-5.9.41.41,0,0,0-.69-.08.37.37,0,0,0,.2.48l0,0c1.21.74,1.88,1.18,3,2C84.71,40.14,85.71,40.91,87.53,42.34Z" transform="translate(0 0.01)" style="fill:url(#未命名漸層_124-7)"/><path d="M88,39.53a38.61,38.61,0,0,0-6-7.32.33.33,0,0,1-.11-.42c.12-.23.67,0,.63.21l1,.9a19,19,0,0,1,2.81,3.63A22.08,22.08,0,0,1,88,39.53Z" transform="translate(0 0.01)" style="fill:url(#未命名漸層_124-8)"/><path d="M90.4,39.4a42.65,42.65,0,0,0-1.63-4.08c-.5-1.1-.81-1.58-1.37-2.79a.43.43,0,0,1,0-.56c.21-.14.35.19.53.37a3.09,3.09,0,0,1,.55,1.1A20.86,20.86,0,0,1,89.56,36,17.8,17.8,0,0,1,90.4,39.4Z" transform="translate(0 0.01)" style="fill:url(#未命名漸層_124-9)"/><path d="M90.89,37.16c-.4-2.58-.67-4-1.24-6.59-.36-1.6-.58-2.5-1-4.08a.34.34,0,0,0-.41-.25h0a.33.33,0,0,0-.17.44h0c.45,1.6.7,2.5,1.14,4.1C89.87,33.29,90.24,34.69,90.89,37.16Z" transform="translate(0 0.01)" style="fill:url(#未命名漸層_124-10)"/><path d="M94.37,48.14A8.76,8.76,0,0,1,95,45.33a.38.38,0,0,0-.32-.41.39.39,0,0,0-.45.32h0a8.84,8.84,0,0,0,0,1.13A8.68,8.68,0,0,0,94.37,48.14Z" transform="translate(0 0.01)" style="fill:url(#未命名漸層_124-11)"/><path d="M97,46a2.11,2.11,0,0,1,1.85-.63,2,2,0,0,1,1,.32.37.37,0,0,0,.52,0l.07-.09a.35.35,0,0,0-.23-.44h0A2,2,0,0,0,99,44.84,2.09,2.09,0,0,0,97,46Z" transform="translate(0 0.01)" style="fill:url(#未命名漸層_124-12)"/><path d="M97,45.61a4.71,4.71,0,0,1,1.4-2.49,4.64,4.64,0,0,1,1.45-1c.43,0,.61,0,.68-.27s-.3-.45-.81-.36a3.54,3.54,0,0,0-1.86,1.28A3.61,3.61,0,0,0,97,45.61Z" transform="translate(0 0.01)" style="fill:url(#未命名漸層_124-13)"/><path d="M97.9,41.67a15.7,15.7,0,0,1,3.21-3,.42.42,0,0,0-.14-.45.48.48,0,0,0-.67.1l0,.08A7.52,7.52,0,0,0,97.9,41.67Z" transform="translate(0 0.01)" style="fill:url(#未命名漸層_124-14)"/><path d="M100.57,48.91a12.76,12.76,0,0,1,2.08.77,13.2,13.2,0,0,1,1.54.81.39.39,0,0,0,.54.09l.09-.09a.38.38,0,0,0-.14-.52l0,0a4.44,4.44,0,0,0-1.54-.86A4.5,4.5,0,0,0,100.57,48.91Z" transform="translate(0 0.01)" style="fill:url(#未命名漸層_124-15)"/><path d="M97.14,53A19.14,19.14,0,0,1,101,60.24a.39.39,0,1,1-.63.18c-.49-1.3-.78-2-1.32-3.31C98.32,55.47,97.9,54.56,97.14,53Z" transform="translate(0 0.01)" style="fill:url(#未命名漸層_124-16)"/><path d="M105.16,61a23.87,23.87,0,0,0-5.69-7.34c1.07,1.53,1.65,2.4,2.66,4s1.41,2.23,2.27,3.69a.47.47,0,0,0,.71.31.44.44,0,0,0,.09-.62Z" transform="translate(0 0.01)" style="fill:url(#未命名漸層_124-17)"/><path d="M101.79,53a46.57,46.57,0,0,1,8.32,6,.33.33,0,0,0,.42.2l.08,0a.31.31,0,0,0,0-.44h0A25.77,25.77,0,0,0,101.79,53Z" transform="translate(0 0.01)" style="fill:url(#未命名漸層_124-18)"/><path d="M105.77,50a32.23,32.23,0,0,1,9.59,2.17c.41.18.74.4.9.09s-.27-.41-.72-.63A17.85,17.85,0,0,0,105.77,50Z" transform="translate(0 0.01)" style="fill:url(#未命名漸層_124-19)"/><path d="M104.41,47.23a13.4,13.4,0,0,1,6.42.14c.21.08.63.31.72,0a.39.39,0,0,0-.25-.49h0A9.46,9.46,0,0,0,104.41,47.23Z" transform="translate(0 0.01)" style="fill:url(#未命名漸層_124-20)"/><path d="M104.14,44.39a19,19,0,0,1,8.23-2.13.35.35,0,0,0,.41-.28v0a.37.37,0,0,0-.37-.37h-.08A12.75,12.75,0,0,0,104.14,44.39Z" transform="translate(0 0.01)" style="fill:url(#未命名漸層_124-21)"/><path d="M118.57,38.32c.06-.38-.5-.32-1-.23a37.84,37.84,0,0,0-14.07,6.2A70.52,70.52,0,0,1,118,38.77a.49.49,0,0,0,.54-.44Z" transform="translate(0 0.01)" style="fill:url(#未命名漸層_124-22)"/><path d="M101.33,43.71a10.76,10.76,0,0,1,5.75-2.17.39.39,0,0,0,.52-.2l0-.07a.41.41,0,0,0-.39-.43l-.15,0A7.5,7.5,0,0,0,101.33,43.71Z" transform="translate(0 0.01)" style="fill:url(#未命名漸層_124-23)"/><path d="M106.54,38.77a22,22,0,0,1,6.33-4.3.36.36,0,0,0,0-.41.41.41,0,0,0-.58-.05l-.05.05A13.26,13.26,0,0,0,106.54,38.77Z" transform="translate(0 0.01)" style="fill:url(#未命名漸層_124-24)"/><path d="M107.4,39.68a55.59,55.59,0,0,1,12.49-7c.32-.12.51-.27.45-.54s-.53-.1-.86,0A28.76,28.76,0,0,0,107.4,39.68Z" transform="translate(0 0.01)" style="fill:url(#未命名漸層_124-25)"/><path d="M103,38.82a30.75,30.75,0,0,1,3.62-4.61,30.84,30.84,0,0,1,5.88-5.11.57.57,0,0,1,.8-.1l.1.1a.53.53,0,0,1-.14.72c-1.58,1.13-2.44,1.79-3.94,3A58.77,58.77,0,0,0,103,38.82Z" transform="translate(0 0.01)" style="fill:url(#未命名漸層_124-26)"/><path d="M105.13,35.61a34.11,34.11,0,0,1,3.3-5A34.14,34.14,0,0,1,114,24.82a.56.56,0,0,1,.79,0l0,0a.53.53,0,0,1,0,.68A58.41,58.41,0,0,0,105.13,35.61Z" transform="translate(0 0.01)" style="fill:url(#未命名漸層_124-27)"/><path d="M103.37,34.48a47.18,47.18,0,0,1,4.34-7.83,47.12,47.12,0,0,1,5-6.33.55.55,0,0,1,.9-.27.47.47,0,0,1,0,.54,72.69,72.69,0,0,0-4.7,5.74A85.37,85.37,0,0,0,103.37,34.48Z" transform="translate(0 0.01)" style="fill:url(#未命名漸層_124-28)"/><path d="M96.71,40.86A48.62,48.62,0,0,1,98,35.16c.45-1.59.74-2.48,1.31-4a.31.31,0,0,1,.5-.14.26.26,0,0,1,0,.32c-.56,1.62-.87,2.54-1.4,4.16C97.71,37.57,97.37,38.77,96.71,40.86Z" transform="translate(0 0.01)" style="fill:url(#未命名漸層_124-29)"/><path d="M96.13,39.5a12.87,12.87,0,0,1,1.4-5.34.34.34,0,0,1,.54-.18.31.31,0,0,1-.07.43l0,0-.77,2.13C96.8,37.71,96.56,38.35,96.13,39.5Z" transform="translate(0 0.01)" style="fill:url(#未命名漸層_124-30)"/><path d="M93.37,42.53a21.13,21.13,0,0,1-.32-4.88.63.63,0,0,1,.36-.18.35.35,0,0,1,.32.23A19,19,0,0,1,93.37,42.53Z" transform="translate(0 0.01)" style="fill:url(#未命名漸層_124-31)"/><path d="M96.81,34.61a23.22,23.22,0,0,1,.45-4.52,23.21,23.21,0,0,1,1.45-5,.42.42,0,0,1,.44-.4l.15,0a.36.36,0,0,1,.18.36c-.59,1.59-.88,2.49-1.36,4.12A52.14,52.14,0,0,0,96.81,34.61Z" transform="translate(0 0.01)" style="fill:url(#未命名漸層_124-32)"/><path d="M99.8,32.77a38.81,38.81,0,0,1,2.49-7.33,38.78,38.78,0,0,1,4-7.28.34.34,0,0,1,.48,0l0,0a.32.32,0,0,1,0,.41c-1.37,2.28-2.1,3.6-3.3,6A84.76,84.76,0,0,0,99.8,32.77Z" transform="translate(0 0.01)" style="fill:url(#未命名漸層_124-33)"/><path d="M95.09,36.06c-.07-2-.08-3.2,0-5.25,0-1.22,0-1.9.09-3.12a.43.43,0,0,1,.41-.41.41.41,0,0,1,.41.23,25.32,25.32,0,0,1-.14,3.26A39.07,39.07,0,0,1,95.09,36.06Z" transform="translate(0 0.01)" style="fill:url(#未命名漸層_124-34)"/><path d="M93.06,42.26c-.19-.72-.29-1.13-.45-1.85-.23-1-.34-1.62-.5-2.67a.36.36,0,0,1,.63-.32,14.65,14.65,0,0,0,.09,2C92.9,40.55,92.94,41.17,93.06,42.26Z" transform="translate(0 0.01)" style="fill:url(#未命名漸層_124-35)"/><path d="M93.15,33.85c-.18-2.78-.24-4.36-.27-7.15,0-2.58,0-4,.09-6.6a.5.5,0,0,1,.54-.45.49.49,0,0,1,.45.45c-.08,2.81-.15,4.39-.32,7.19C93.49,29.85,93.38,31.29,93.15,33.85Z" transform="translate(0 0.01)" style="fill:url(#未命名漸層_124-36)"/><path d="M96.77,29.77A55.27,55.27,0,0,1,97.31,23a54.56,54.56,0,0,1,1-5.38.32.32,0,1,1,.54.32c-.24,2.46-.43,3.85-.86,6.29C97.56,26.44,97.3,27.67,96.77,29.77Z" transform="translate(0 0.01)" style="fill:url(#未命名漸層_124-37)"/><path d="M103.91,28.6a26.18,26.18,0,0,1,1.76-4,26.23,26.23,0,0,1,2.94-4.52.32.32,0,0,1,.45,0,.31.31,0,0,1,0,.41c-1,1.45-1.54,2.28-2.49,3.75Z" transform="translate(0 0.01)" style="fill:url(#未命名漸層_124-38)"/></g><g id="fireworks4"><path d="M86.49,44.1c-.27-1.25-.42-2-.68-3.2s-.33-1.84-.61-3c-.2-.81-.32-1.26-.56-2.06a7.32,7.32,0,0,1,1.14,2.08,11,11,0,0,1,.55,3.13A22.34,22.34,0,0,1,86.49,44.1Z" transform="translate(0 0.01)" style="fill:url(#未命名漸層_163)"/><path d="M85.91,35.58a5.2,5.2,0,0,1,1.37,1.19,6.41,6.41,0,0,1,1.1,2.08A8.35,8.35,0,0,1,89,41.16l-.84-1.65c-.33-.65-.57-1.26-1-2A19.92,19.92,0,0,0,85.91,35.58Z" transform="translate(0 0.01)" style="fill:url(#未命名漸層_163-2)"/><path d="M87.09,32.3a5.16,5.16,0,0,1,2.85,1.47,1.76,1.76,0,0,0-1.16-1.63A1.71,1.71,0,0,0,87.09,32.3Z" transform="translate(0 0.01)" style="fill:url(#未命名漸層_163-3)"/><path d="M90.27,33.35a6.7,6.7,0,0,1,2.67.94,6.78,6.78,0,0,1,2.84,2.84A18.44,18.44,0,0,0,90.27,33.35Z" transform="translate(0 0.01)" style="fill:url(#未命名漸層_163-4)"/><path d="M91.3,31a4.43,4.43,0,0,1,2.79-1.25c1-.13,1.87-.3,2.66.4.2.18.54.28.45.53s-.47,0-.77-.08a15.17,15.17,0,0,0-2.07-.4A5.12,5.12,0,0,0,91.3,31Z" transform="translate(0 0.01)" style="fill:url(#未命名漸層_163-5)"/><path d="M90.1,30.21a14.54,14.54,0,0,1,3.52-1.87A9.64,9.64,0,0,1,97,27.42a3.21,3.21,0,0,1,1.55,0c.24.09.63.07.57.32s-.35.11-.57.16a10.66,10.66,0,0,1-1.37,0,13.09,13.09,0,0,0-3.32.94C92.36,29.36,91.53,29.65,90.1,30.21Z" transform="translate(0 0.01)" style="fill:url(#未命名漸層_163-6)"/><path d="M89.88,29.92a9,9,0,0,1,3.24-1,4.62,4.62,0,0,1,2.5,0,1.7,1.7,0,0,1,.76.37.31.31,0,0,1,.16.19c0,.16-.24,0-.4,0-.51,0-.78-.17-1.29-.21a9.62,9.62,0,0,0-2.5.21A17.62,17.62,0,0,0,89.88,29.92Z" transform="translate(0 0.01)" style="fill:url(#未命名漸層_163-7)"/><path d="M88.25,28.39A5.63,5.63,0,0,1,90,26.77c1-.65,1.83-1.46,3-1,.18.08.45,0,.44.24s-.26.14-.44.21c-.51.2-.87,0-1.39.19a8.31,8.31,0,0,0-1.77,1.18A17.36,17.36,0,0,1,88.25,28.39Z" transform="translate(0 0.01)" style="fill:url(#未命名漸層_163-8)"/><path d="M87.36,27.93a7,7,0,0,1,1.49-2.48A7.34,7.34,0,0,1,90.56,24a.42.42,0,0,1,.58,0,.39.39,0,0,1-.16.48c-.69.61-1,.82-1.66,1.39A18.72,18.72,0,0,0,87.36,27.93Z" transform="translate(0 0.01)" style="fill:url(#未命名漸層_163-9)"/><path d="M90.71,25.77A21.29,21.29,0,0,1,98,19.87a.41.41,0,0,1,.71-.1.37.37,0,0,1-.2.48l0,0c-1.21.74-1.88,1.18-3,2A49.06,49.06,0,0,0,90.71,25.77Z" transform="translate(0 0.01)" style="fill:url(#未命名漸層_163-10)"/><path d="M89.46,23a30.17,30.17,0,0,1,2.76-5.5C93.1,16,93.42,15,94.69,14a2.06,2.06,0,0,1,.82-.63c.23-.06.47-.22.6,0s-.1.33-.2.52a4.89,4.89,0,0,1-.53.74c-1,1.34-1.61,2-2.58,3.37C91.43,19.83,90.71,20.94,89.46,23Z" transform="translate(0 0.01)" style="fill:url(#未命名漸層_163-11)"/><path d="M87.85,24.32a23.9,23.9,0,0,1,1.58-3.5,9.3,9.3,0,0,1,1.79-2.9,1.53,1.53,0,0,1,.6-.5.45.45,0,0,1,.48,0,.44.44,0,0,1,0,.45,1.74,1.74,0,0,1-.45.63C90.24,20.72,89.36,22,87.85,24.32Z" transform="translate(0 0.01)" style="fill:url(#未命名漸層_163-12)"/><path d="M87.85,22.77a42.65,42.65,0,0,1,1.63-4.08c.5-1.1.81-1.58,1.37-2.79a.43.43,0,0,0,0-.56c-.21-.14-.35.19-.53.37a3.09,3.09,0,0,0-.55,1.1,20.86,20.86,0,0,0-1.08,2.6A17.8,17.8,0,0,0,87.85,22.77Z" transform="translate(0 0.01)" style="fill:url(#未命名漸層_163-13)"/><path d="M83.88,31.53a8.76,8.76,0,0,0-.63-2.81.38.38,0,0,1,.32-.41.39.39,0,0,1,.45.32h0a8.84,8.84,0,0,1,0,1.13A8.68,8.68,0,0,1,83.88,31.53Z" transform="translate(0 0.01)" style="fill:url(#未命名漸層_163-14)"/><path d="M81.22,29.41a2.11,2.11,0,0,0-1.85-.63,2,2,0,0,0-1,.32.37.37,0,0,1-.52,0L77.83,29a.35.35,0,0,1,.23-.44h0a2,2,0,0,1,1.18-.32A2.09,2.09,0,0,1,81.22,29.41Z" transform="translate(0 0.01)" style="fill:url(#未命名漸層_163-15)"/><path d="M80.36,25.06a15.7,15.7,0,0,0-3.21-3,.42.42,0,0,1,.14-.45.48.48,0,0,1,.67.1l0,.08A7.52,7.52,0,0,1,80.36,25.06Z" transform="translate(0 0.01)" style="fill:url(#未命名漸層_163-16)"/><path d="M78.41,31.49a7.57,7.57,0,0,0-6,.68.46.46,0,0,1-.77.18.41.41,0,0,1,.24-.53h0A6.25,6.25,0,0,1,78.41,31.49Z" transform="translate(0 0.01)" style="fill:url(#未命名漸層_163-17)"/><path d="M77.71,32.3a12.76,12.76,0,0,0-2.08.77,13.2,13.2,0,0,0-1.54.81.39.39,0,0,1-.54.09l-.09-.09a.38.38,0,0,1,.14-.52l0,0a4.44,4.44,0,0,1,1.54-.86A4.5,4.5,0,0,1,77.71,32.3Z" transform="translate(0 0.01)" style="fill:url(#未命名漸層_163-18)"/><path d="M81.12,36.34a19.14,19.14,0,0,0-3.81,7.29.39.39,0,1,0,.63.18c.49-1.3.78-2,1.32-3.31C79.94,38.86,80.35,38,81.12,36.34Z" transform="translate(0 0.01)" style="fill:url(#未命名漸層_163-19)"/><path d="M73.09,44.43a23.87,23.87,0,0,1,5.69-7.34c-1.07,1.53-1.65,2.4-2.66,4s-1.41,2.2-2.27,3.68a.47.47,0,0,1-.71.31.44.44,0,0,1-.08-.62Z" transform="translate(0 0.01)" style="fill:url(#未命名漸層_163-20)"/><path d="M76.46,36.4a46.57,46.57,0,0,0-8.32,6,.33.33,0,0,1-.42.2l-.08,0a.31.31,0,0,1,0-.44h0A25.77,25.77,0,0,1,76.46,36.4Z" transform="translate(0 0.01)" style="fill:url(#未命名漸層_163-21)"/><path d="M72.71,34.25a27.52,27.52,0,0,0-10.27,3.21.43.43,0,0,1-.72.09A.4.4,0,0,1,62,37L62,37A17.54,17.54,0,0,1,72.71,34.25Z" transform="translate(0 0.01)" style="fill:url(#未命名漸層_163-22)"/><path d="M73.84,30.63a13.4,13.4,0,0,0-6.42.14c-.21.08-.63.31-.72,0a.39.39,0,0,1,.25-.49h0A9.46,9.46,0,0,1,73.84,30.63Z" transform="translate(0 0.01)" style="fill:url(#未命名漸層_163-23)"/><path d="M74.34,30.17a25.06,25.06,0,0,0-14.11-.72.37.37,0,0,1-.52.07l-.07-.07a.36.36,0,0,1,.18-.47l.09,0A22.72,22.72,0,0,1,74.34,30.17Z" transform="translate(0 0.01)" style="fill:url(#未命名漸層_163-24)"/><path d="M70.59,28.23a31.24,31.24,0,0,0-12.85-2,.49.49,0,0,1-.62-.31v0c-.07-.36.45-.34.86-.36A21.58,21.58,0,0,1,70.59,28.23Z" transform="translate(0 0.01)" style="fill:url(#未命名漸層_163-25)"/><path d="M59.71,21.72c-.06-.38.5-.32,1-.23a37.84,37.84,0,0,1,14,6.2,70.52,70.52,0,0,0-14.48-5.56A.49.49,0,0,1,59.71,21.72Z" transform="translate(0 0.01)" style="fill:url(#未命名漸層_163-26)"/><path d="M76.92,27.1a10.76,10.76,0,0,0-5.75-2.17.39.39,0,0,1-.52-.2l0-.07a.41.41,0,0,1,.39-.43l.15,0A7.5,7.5,0,0,1,76.92,27.1Z" transform="translate(0 0.01)" style="fill:url(#未命名漸層_163-27)"/><path d="M71.71,22.17a22,22,0,0,0-6.33-4.3.36.36,0,0,1,0-.41.41.41,0,0,1,.58-.05l.05.05A13.26,13.26,0,0,1,71.71,22.17Z" transform="translate(0 0.01)" style="fill:url(#未命名漸層_163-28)"/><path d="M70.86,23.07a55.59,55.59,0,0,0-12.49-7c-.32-.12-.51-.27-.45-.54s.53-.1.86,0a24.72,24.72,0,0,1,6.29,2.9A24.71,24.71,0,0,1,70.86,23.07Z" transform="translate(0 0.01)" style="fill:url(#未命名漸層_163-29)"/><path d="M73.07,21.77a62.06,62.06,0,0,0-14-9.91c-.37-.15-.68-.28-.59-.59s.69-.14.9,0a31,31,0,0,1,6.79,3.89A31.07,31.07,0,0,1,73.07,21.77Z" transform="translate(0 0.01)" style="fill:url(#未命名漸層_163-30)"/><path d="M73.12,19a34.11,34.11,0,0,0-3.3-5A34.14,34.14,0,0,0,64.3,8.21a.56.56,0,0,0-.79,0l0,0a.53.53,0,0,0,0,.68,50,50,0,0,1,4.22,3.88A50,50,0,0,1,73.12,19Z" transform="translate(0 0.01)" style="fill:url(#未命名漸層_163-31)"/><path d="M76.92,20.77a23,23,0,0,0-3.08-6,23,23,0,0,0-4.52-5,.36.36,0,0,0-.5,0,.38.38,0,0,0,.05.53l.09.06a37.81,37.81,0,0,1,3.66,4A38,38,0,0,1,76.92,20.77Z" transform="translate(0 0.01)" style="fill:url(#未命名漸層_163-32)"/><path d="M75.61,15.88a54.17,54.17,0,0,0-2.9-5.43c-1-1.61-1.51-2.49-2.58-4a.39.39,0,0,0-.59.45c1.27,1.87,2,2.87,3.17,4.77C73.86,13.32,74.49,14.24,75.61,15.88Z" transform="translate(0 0.01)" style="fill:url(#未命名漸層_163-33)"/><path d="M81.53,24.25a48.62,48.62,0,0,0-1.31-5.7c-.45-1.59-.74-2.48-1.31-4a.31.31,0,0,0-.5-.14.26.26,0,0,0,0,.32c.56,1.62.87,2.54,1.4,4.16C80.5,21,80.88,22.14,81.53,24.25Z" transform="translate(0 0.01)" style="fill:url(#未命名漸層_163-34)"/><path d="M82.12,22.89a11.88,11.88,0,0,0-1.45-5.34.34.34,0,0,0-.54-.18.31.31,0,0,0,.07.43l0,0L81,20C81.45,21.1,81.71,21.77,82.12,22.89Z" transform="translate(0 0.01)" style="fill:url(#未命名漸層_163-35)"/><path d="M84.88,25.92a18,18,0,0,0,.32-2.71,18.08,18.08,0,0,0,0-2.17.63.63,0,0,0-.36-.18.35.35,0,0,0-.32.23,16.26,16.26,0,0,0,0,2A16.23,16.23,0,0,0,84.88,25.92Z" transform="translate(0 0.01)" style="fill:url(#未命名漸層_163-36)"/><path d="M78.46,16.2A38.81,38.81,0,0,0,76,8.87a38.78,38.78,0,0,0-4-7.28.34.34,0,0,0-.48,0l0,0a.32.32,0,0,0,0,.41c1.37,2.28,2.1,3.6,3.3,6A84.76,84.76,0,0,1,78.46,16.2Z" transform="translate(0 0.01)" style="fill:url(#未命名漸層_163-37)"/><path d="M80,15.83a43.19,43.19,0,0,0-1.49-8.69,43.16,43.16,0,0,0-1.77-5.37.39.39,0,0,0-.52-.19h0a.35.35,0,0,0-.18.36c.83,2.45,1.27,3.85,2,6.33C78.9,11.18,79.34,12.85,80,15.83Z" transform="translate(0 0.01)" style="fill:url(#未命名漸層_163-38)"/><path d="M82.17,15.83c-.18-2.7-.28-4.22-.45-6.92-.2-3-.3-4.69-.5-7.69a.91.91,0,0,1,.45,0,.52.52,0,0,1,.36.36c.22,2.29.3,3.58.36,5.88A69.36,69.36,0,0,1,82.17,15.83Z" transform="translate(0 0.01)" style="fill:url(#未命名漸層_163-39)"/></g></svg>